<?xml version="1.0" encoding="UTF-8"?>
<svg width="579px" height="346px" viewBox="0 0 579 346" version="1.1" xmlns="http://www.w3.org/2000/svg" xmlns:xlink="http://www.w3.org/1999/xlink">
    <!-- Generator: Sketch 55 (78076) - https://sketchapp.com -->
    <title>Search</title>
    <desc>Created with Sketch.</desc>
    <defs>
        <polygon id="path-1" points="0.06 0.573297319 55.7618334 0.573297319 55.7618334 98.6230752 0.06 98.6230752"></polygon>
        <polygon id="path-3" points="0.689 0.494 26.752 0.494 26.752 3.94 0.689 3.94"></polygon>
    </defs>
    <g id="Cover-Default" stroke="none" stroke-width="1" fill="none" fill-rule="evenodd">
        <g id="Search">
            <path d="M473.443,271.778 L100.543,271.778 C92.498,271.778 85.976,265.256 85.976,257.21 L85.976,20.483 C85.976,12.438 92.498,5.916 100.543,5.916 L473.443,5.916 C481.489,5.916 488.011,12.438 488.011,20.483 L488.011,257.21 C488.011,265.256 481.489,271.778 473.443,271.778" id="Fill-60" fill="#132529"></path>
            <path d="M486.94,275.377 L86.96,275.377 C77.131,275.377 69.163,267.409 69.163,257.579 L69.163,252.115 L504.738,252.115 L504.738,257.579 C504.738,267.409 496.769,275.377 486.94,275.377" id="Fill-61" fill="#132529"></path>
            <polygon id="Fill-62" fill="#D4D5CF" points="96.767 240.995 476.095 240.995 476.095 16.478 96.767 16.478"></polygon>
            <polyline id="Fill-63" fill="#334F55" points="247.361 252.115 252.766 260.712 328.822 260.712 333.842 252.115 247.361 252.115"></polyline>
            <path d="M465.79,240.277 L107.854,240.277 C106.046,240.277 104.58,238.811 104.58,237.003 L104.58,27.352 C104.58,25.545 106.045,24.079 107.853,24.079 L465.79,24.079 C467.597,24.079 469.063,25.544 469.063,27.352 L469.063,237.004 C469.063,238.812 467.597,240.277 465.79,240.277" id="Fill-64" fill="#334F55"></path>
            <polygon id="Fill-65" fill="#FAF9F6" points="104.58 240.277 469.063 240.277 469.063 39.92 104.58 39.92"></polygon>
            <path d="M134.473,32.429 C134.473,34.036 133.17,35.34 131.563,35.34 C129.955,35.34 128.652,34.036 128.652,32.429 C128.652,30.821 129.955,29.518 131.563,29.518 C133.17,29.518 134.473,30.821 134.473,32.429" id="Fill-66" fill="#E0565F"></path>
            <path d="M116.831,32.429 C116.831,34.036 115.528,35.34 113.92,35.34 C112.313,35.34 111.009,34.036 111.009,32.429 C111.009,30.821 112.313,29.518 113.92,29.518 C115.528,29.518 116.831,30.821 116.831,32.429" id="Fill-67" fill="#E0565F"></path>
            <path d="M125.3,32.429 C125.3,34.036 123.997,35.34 122.389,35.34 C120.781,35.34 119.478,34.036 119.478,32.429 C119.478,30.821 120.781,29.518 122.389,29.518 C123.997,29.518 125.3,30.821 125.3,32.429" id="Fill-68" fill="#E0565F"></path>
            <path d="M377.203,123.371 C377.203,123.371 377.586,123.334 378.332,123.287 C378.703,123.251 379.161,123.162 379.706,123.075 C380.24,122.928 380.869,122.794 381.543,122.513 C382.89,121.987 384.512,121.102 385.985,119.564 C386.727,118.801 387.399,117.867 387.989,116.798 C388.561,115.718 388.989,114.474 389.223,113.119 C389.711,110.422 389.229,107.178 387.38,104.373 C385.57,101.575 382.272,99.334 378.369,98.96 C377.401,98.893 376.397,98.901 375.376,98.906 C374.356,98.908 373.319,98.91 372.267,98.911 C370.16,98.914 367.988,98.918 365.753,98.921 C361.28,98.927 356.554,98.933 351.591,98.939 C311.876,98.959 257.028,98.986 196.45,99.016 C192.741,99.019 189.081,100.794 186.886,103.743 C185.776,105.197 184.99,106.893 184.63,108.677 C184.282,110.461 184.334,112.317 184.783,114.064 C185.648,117.583 188.217,120.567 191.46,122.028 C193.076,122.778 194.848,123.134 196.62,123.115 C198.421,123.116 200.215,123.116 202.001,123.117 C216.286,123.121 230.065,123.126 243.192,123.131 C269.443,123.153 293.083,123.171 312.939,123.187 C332.787,123.222 348.849,123.25 359.961,123.27 C365.505,123.291 369.812,123.308 372.745,123.319 C374.199,123.33 375.31,123.338 376.07,123.345 C376.819,123.354 377.203,123.371 377.203,123.371 C377.203,123.371 376.819,123.389 376.07,123.398 C375.31,123.404 374.199,123.412 372.745,123.424 C369.812,123.435 365.505,123.452 359.961,123.473 C348.849,123.493 332.787,123.521 312.939,123.555 C293.083,123.572 269.443,123.59 243.192,123.612 C230.065,123.616 216.286,123.621 202.001,123.626 C200.215,123.626 198.421,123.627 196.62,123.627 C194.789,123.649 192.929,123.278 191.247,122.496 C187.864,120.974 185.187,117.865 184.281,114.193 C183.812,112.369 183.758,110.436 184.121,108.574 C184.496,106.713 185.315,104.943 186.474,103.427 C188.762,100.352 192.583,98.497 196.45,98.495 C257.028,98.525 311.876,98.552 351.591,98.571 C356.554,98.578 361.28,98.584 365.753,98.59 C367.988,98.593 370.16,98.597 372.267,98.599 C373.319,98.601 374.356,98.603 375.376,98.604 C376.395,98.603 377.397,98.597 378.397,98.67 C382.393,99.067 385.754,101.374 387.587,104.237 C389.461,107.107 389.934,110.414 389.423,113.153 C389.178,114.53 388.733,115.79 388.147,116.883 C387.541,117.963 386.853,118.905 386.097,119.671 C384.593,121.218 382.944,122.096 381.58,122.612 C380.897,122.887 380.261,123.013 379.723,123.152 C379.172,123.233 378.71,123.313 378.337,123.34 C377.586,123.369 377.203,123.371 377.203,123.371" id="Fill-69" fill="#132529"></path>
            <path d="M377.203,123.371 L353.549,123.371 L353.549,98.755 L377.203,98.755 C384,98.755 389.511,104.266 389.511,111.063 C389.511,117.861 384,123.371 377.203,123.371" id="Fill-70" fill="#E0565F"></path>
            <path d="M373.067,108.747 C373.018,108.749 373.023,108.329 372.823,107.627 C372.625,106.938 372.146,105.935 371.105,105.169 C370.1,104.4 368.454,103.976 366.868,104.572 C365.295,105.119 363.939,106.793 363.957,108.746 C363.939,110.7 365.294,112.375 366.868,112.922 C368.454,113.518 370.101,113.094 371.105,112.325 C372.147,111.558 372.625,110.555 372.823,109.866 C373.023,109.164 373.018,108.744 373.067,108.747 C373.086,108.747 373.098,108.849 373.105,109.049 C373.116,109.247 373.097,109.543 373.02,109.915 C372.874,110.649 372.424,111.748 371.329,112.618 C370.272,113.488 368.475,114.008 366.704,113.373 C364.95,112.795 363.415,110.932 363.437,108.746 C363.416,106.561 364.95,104.698 366.704,104.12 C368.474,103.486 370.272,104.006 371.329,104.876 C372.424,105.745 372.874,106.845 373.02,107.578 C373.097,107.95 373.116,108.246 373.105,108.445 C373.098,108.644 373.086,108.747 373.067,108.747" id="Fill-71" fill="#FFFFFE"></path>
            <path d="M379.363,116.569 C379.283,116.688 377.58,115.686 375.562,114.33 C373.541,112.974 371.969,111.779 372.049,111.66 C372.129,111.54 373.831,112.542 375.852,113.898 C377.871,115.253 379.443,116.449 379.363,116.569" id="Fill-72" fill="#FFFFFE"></path>
            <path d="M199.42,117.984 C199.276,117.984 199.16,114.868 199.16,111.023 C199.16,107.178 199.276,104.061 199.42,104.061 C199.564,104.061 199.681,107.178 199.681,111.023 C199.681,114.868 199.564,117.984 199.42,117.984" id="Fill-73" fill="#334F55"></path>
            <polygon id="Fill-74" fill="#D4D5CF" points="169.485 223.005 228.575 223.005 228.575 165.836 169.485 165.836"></polygon>
            <polyline id="Fill-75" fill="#E0565F" points="174.066 218.112 190.413 188.694 203.783 207.496 211.907 197.512 223.994 218.112 174.066 218.112"></polyline>
            <path d="M209.478,182.972 C209.478,185.321 207.575,187.224 205.226,187.224 C202.877,187.224 200.973,185.321 200.973,182.972 C200.973,180.623 202.877,178.72 205.226,178.72 C207.575,178.72 209.478,180.623 209.478,182.972" id="Fill-76" fill="#E0565F"></path>
            <path d="M223.994,218.271 C223.99,218.267 223.985,218.188 223.98,218.036 C223.977,217.866 223.972,217.648 223.967,217.37 C223.96,216.762 223.951,215.904 223.939,214.797 C223.924,212.531 223.903,209.251 223.876,205.088 C223.846,196.739 223.803,184.847 223.752,170.571 L223.994,170.812 C209.534,170.824 192.393,170.837 174.071,170.852 C174.004,170.911 174.6,170.323 174.348,170.578 L174.348,173.82 C174.348,174.9 174.348,175.976 174.347,177.047 C174.347,179.189 174.346,181.312 174.346,183.412 C174.343,187.614 174.341,191.727 174.338,195.731 C174.329,203.738 174.32,211.308 174.312,218.271 L174.067,218.026 C188.967,218.077 201.415,218.12 210.166,218.151 C214.529,218.178 217.969,218.2 220.347,218.214 C221.509,218.227 222.411,218.237 223.048,218.244 C223.34,218.249 223.569,218.253 223.748,218.257 C223.907,218.262 223.989,218.266 223.994,218.271 C223.999,218.276 223.925,218.281 223.776,218.285 C223.603,218.288 223.383,218.293 223.102,218.299 C222.476,218.305 221.59,218.316 220.449,218.327 C218.084,218.342 214.662,218.364 210.323,218.392 C201.534,218.422 189.033,218.465 174.067,218.516 L173.822,218.517 L173.821,218.271 C173.813,211.308 173.804,203.738 173.794,195.731 C173.793,191.727 173.79,187.614 173.788,183.412 C173.787,181.312 173.786,179.189 173.786,177.047 C173.786,175.976 173.785,174.9 173.785,173.82 L173.785,170.578 C173.534,170.826 174.126,170.226 174.071,170.288 C192.393,170.303 209.534,170.317 223.994,170.328 L224.237,170.328 L224.236,170.571 C224.184,184.911 224.142,196.855 224.112,205.243 C224.085,209.382 224.064,212.643 224.049,214.897 C224.037,215.983 224.028,216.826 224.021,217.423 C224.015,217.69 224.011,217.899 224.007,218.064 C224.002,218.205 223.999,218.276 223.994,218.271" id="Fill-77" fill="#334F55"></path>
            <polygon id="Fill-78" fill="#E0565F" points="263.542 223.005 322.631 223.005 322.631 165.836 263.542 165.836"></polygon>
            <polyline id="Fill-79" fill="#D4D5CF" points="268.123 218.112 284.469 188.694 297.839 207.496 305.963 197.512 318.05 218.112 268.123 218.112"></polyline>
            <path d="M303.534,182.972 C303.534,185.321 301.631,187.224 299.282,187.224 C296.934,187.224 295.029,185.321 295.029,182.972 C295.029,180.623 296.934,178.72 299.282,178.72 C301.631,178.72 303.534,180.623 303.534,182.972" id="Fill-80" fill="#D4D5CF"></path>
            <path d="M318.05,218.271 C318.046,218.267 318.041,218.188 318.036,218.036 C318.033,217.866 318.028,217.648 318.023,217.37 C318.017,216.762 318.007,215.904 317.995,214.797 C317.98,212.531 317.959,209.251 317.932,205.088 C317.902,196.739 317.859,184.847 317.809,170.571 L318.05,170.812 C303.59,170.824 286.449,170.837 268.127,170.852 C268.06,170.911 268.656,170.323 268.404,170.578 L268.404,173.82 C268.404,174.9 268.404,175.976 268.403,177.047 C268.403,179.189 268.402,181.312 268.402,183.412 C268.399,187.614 268.397,191.727 268.395,195.731 C268.385,203.738 268.376,211.308 268.368,218.271 L268.123,218.026 C283.023,218.077 295.471,218.12 304.222,218.151 C308.585,218.178 312.025,218.2 314.403,218.214 C315.565,218.227 316.467,218.237 317.105,218.244 C317.397,218.249 317.625,218.253 317.804,218.257 C317.963,218.262 318.045,218.266 318.05,218.271 C318.055,218.276 317.981,218.281 317.832,218.285 C317.659,218.288 317.439,218.293 317.158,218.299 C316.532,218.305 315.647,218.316 314.505,218.327 C312.14,218.342 308.718,218.364 304.379,218.392 C295.59,218.422 283.089,218.465 268.123,218.516 L267.878,218.517 L267.877,218.271 C267.869,211.308 267.86,203.738 267.851,195.731 C267.849,191.727 267.846,187.614 267.844,183.412 C267.843,181.312 267.842,179.189 267.842,177.047 C267.842,175.976 267.841,174.9 267.841,173.82 L267.841,170.578 C267.59,170.826 268.183,170.226 268.127,170.288 C286.449,170.303 303.59,170.317 318.05,170.328 L318.293,170.328 L318.292,170.571 C318.24,184.911 318.198,196.855 318.168,205.243 C318.141,209.382 318.12,212.643 318.105,214.897 C318.093,215.983 318.084,216.826 318.077,217.423 C318.071,217.69 318.067,217.899 318.064,218.064 C318.059,218.205 318.055,218.276 318.05,218.271" id="Fill-81" fill="#334F55"></path>
            <polygon id="Fill-82" fill="#D4D5CF" points="357.598 223.005 416.687 223.005 416.687 165.836 357.598 165.836"></polygon>
            <polyline id="Fill-83" fill="#E0565F" points="362.179 218.112 378.524 188.694 391.895 207.496 400.019 197.512 412.105 218.112 362.179 218.112"></polyline>
            <path d="M397.59,182.972 C397.59,185.321 395.687,187.224 393.338,187.224 C390.989,187.224 389.085,185.321 389.085,182.972 C389.085,180.623 390.989,178.72 393.338,178.72 C395.687,178.72 397.59,180.623 397.59,182.972" id="Fill-84" fill="#E0565F"></path>
            <path d="M412.105,218.271 C412.102,218.267 412.097,218.188 412.092,218.036 C412.089,217.866 412.084,217.648 412.079,217.37 C412.072,216.762 412.063,215.904 412.051,214.797 C412.036,212.531 412.015,209.251 411.987,205.088 C411.958,196.739 411.915,184.847 411.864,170.571 L412.105,170.812 C397.646,170.824 380.505,170.837 362.184,170.852 C362.116,170.911 362.712,170.323 362.46,170.578 L362.46,173.82 C362.46,174.9 362.46,175.976 362.459,177.047 C362.459,179.189 362.458,181.312 362.458,183.412 C362.455,187.614 362.453,191.727 362.45,195.731 C362.441,203.738 362.432,211.308 362.424,218.271 L362.179,218.026 C377.079,218.077 389.526,218.12 398.277,218.151 C402.641,218.178 406.081,218.2 408.459,218.214 C409.621,218.227 410.522,218.237 411.16,218.244 C411.452,218.249 411.681,218.253 411.859,218.257 C412.019,218.262 412.101,218.266 412.105,218.271 C412.11,218.276 412.037,218.281 411.888,218.285 C411.715,218.288 411.495,218.293 411.214,218.299 C410.588,218.305 409.702,218.316 408.561,218.327 C406.195,218.342 402.773,218.364 398.435,218.392 C389.646,218.422 377.145,218.465 362.179,218.516 L361.934,218.517 L361.934,218.271 C361.925,211.308 361.916,203.738 361.906,195.731 C361.904,191.727 361.902,187.614 361.899,183.412 C361.898,181.312 361.898,179.189 361.897,177.047 C361.897,175.976 361.897,174.9 361.897,173.82 L361.897,170.578 C361.646,170.826 362.238,170.226 362.184,170.288 C380.505,170.303 397.646,170.317 412.105,170.328 L412.349,170.328 L412.348,170.571 C412.296,184.911 412.254,196.855 412.224,205.243 C412.196,209.382 412.176,212.643 412.161,214.897 C412.148,215.983 412.14,216.826 412.133,217.423 C412.127,217.69 412.123,217.899 412.119,218.064 C412.114,218.205 412.11,218.276 412.105,218.271" id="Fill-85" fill="#334F55"></path>
            <polygon id="Fill-86" fill="#334F55" points="249.403 76.087 324.239 76.087 324.239 69.815 249.403 69.815"></polygon>
            <path d="M484.556,252.115 C484.556,252.258 395.324,252.374 285.275,252.374 C175.189,252.374 85.976,252.258 85.976,252.115 C85.976,251.971 175.189,251.854 285.275,251.854 C395.324,251.854 484.556,251.971 484.556,252.115" id="Fill-87" fill="#334F55"></path>
            <g id="Group-92" transform="translate(0.000000, 142.000000)">
                <mask id="mask-2" fill="white">
                    <use xlink:href="#path-1"></use>
                </mask>
                <g id="Clip-89"></g>
                <path d="M29.063,0.638 C23.399,1.549 20.867,8.51 21.362,14.226 C21.857,19.942 24.206,25.53 23.578,31.232 C22.78,38.474 17.307,44.595 16.67,51.853 C15.918,60.412 21.97,68.004 23.777,76.405 C24.657,80.492 24.534,84.814 26.056,88.707 C28.622,95.273 36.146,99.489 43.085,98.249 C50.025,97.01 55.624,90.45 55.759,83.402 C55.884,76.829 51.829,70.639 52.321,64.084 C52.686,59.239 55.525,54.648 54.918,49.828 C54.194,44.092 48.879,40.019 47.003,34.55 C45.128,29.08 46.93,23.053 46.282,17.306 C45.121,6.997 39.405,-0.189 29.063,0.638" id="Fill-88" fill="#E0565F" mask="url(#mask-2)"></path>
                <path d="M0.138,50.553 C-0.826,60.105 3.398,71.343 8.311,79.591 C13.223,87.84 20.837,94.449 29.695,98.152 C30.694,98.57 31.937,98.92 32.778,98.239 C33.466,97.679 33.552,96.676 33.558,95.788 C33.625,85.737 30.354,75.691 24.381,67.606 C18.408,59.52 9.766,53.442 0.138,50.553" id="Fill-90" fill="#E0565F" mask="url(#mask-2)"></path>
                <path d="M31.592,98.623 C30.964,98.623 30.286,98.399 29.695,98.152 C20.837,94.449 13.223,87.84 8.311,79.591 C3.878,72.149 0.006,62.271 0,53.395 C-0.001,52.435 0.044,51.486 0.138,50.553 C9.766,53.442 18.408,59.52 24.381,67.606 C30.296,75.612 33.561,85.541 33.559,95.494 C33.559,95.592 33.559,95.69 33.558,95.788 C33.556,96.09 33.545,96.405 33.504,96.712 C33.424,97.307 33.232,97.869 32.778,98.239 C32.435,98.517 32.025,98.623 31.592,98.623" id="Fill-91" fill="#C8444D" mask="url(#mask-2)"></path>
            </g>
            <path d="M41.749,260.124 C41.731,260.131 41.638,259.948 41.477,259.592 C41.296,259.18 41.071,258.662 40.795,258.028 C40.221,256.663 39.363,254.7 38.27,252.289 C36.089,247.467 32.856,240.903 28.786,233.929 C24.707,226.958 20.572,220.919 17.442,216.653 C15.878,214.517 14.589,212.806 13.681,211.636 C13.264,211.084 12.924,210.634 12.653,210.275 C12.423,209.959 12.308,209.788 12.323,209.777 C12.337,209.765 12.48,209.912 12.738,210.205 C13.03,210.548 13.396,210.978 13.846,211.504 C14.806,212.635 16.144,214.313 17.75,216.423 C20.965,220.639 25.163,226.663 29.255,233.656 C33.336,240.65 36.525,247.262 38.621,252.133 C39.671,254.569 40.477,256.558 40.991,257.95 C41.229,258.599 41.423,259.129 41.578,259.552 C41.707,259.921 41.766,260.118 41.749,260.124" id="Fill-93" fill="#132529"></path>
            <path d="M35.599,169.065 C35.618,169.064 35.653,169.379 35.703,169.981 C35.75,170.629 35.813,171.506 35.894,172.612 C36.044,174.948 36.255,178.242 36.516,182.29 C37.032,190.463 37.757,201.753 38.633,214.217 C39.512,226.685 40.375,237.965 41.009,246.13 C41.319,250.175 41.57,253.466 41.749,255.801 C41.824,256.906 41.884,257.784 41.928,258.432 C41.963,259.034 41.973,259.351 41.954,259.353 C41.936,259.354 41.89,259.04 41.819,258.442 C41.75,257.795 41.657,256.92 41.539,255.82 C41.318,253.488 41.008,250.202 40.627,246.162 C39.895,238.004 38.97,226.726 38.092,214.255 C37.215,201.788 36.551,190.493 36.133,182.312 C35.944,178.259 35.791,174.961 35.683,172.622 C35.645,171.515 35.616,170.636 35.593,169.987 C35.579,169.383 35.581,169.066 35.599,169.065" id="Fill-94" fill="#132529"></path>
            <path d="M26.813,246.502 L50.735,246.502 L50.735,264.065 C50.735,270.408 45.594,275.548 39.251,275.548 C33.147,275.548 28.11,270.774 27.784,264.678 L26.813,246.502" id="Fill-95" fill="#334F55"></path>
            <path d="M557.333,246.224 C560.867,244.401 565.028,244.163 568.951,244.812 C571.059,245.16 573.256,245.79 574.69,247.374 C576.125,248.957 576.396,251.744 574.75,253.104 C573.77,253.913 572.402,254.036 571.131,254.022 C568.06,253.986 564.652,253.445 562.198,255.293 C560.799,256.347 559.867,258.1 558.193,258.619 C556.556,259.125 554.708,258.16 553.84,256.681 C552.972,255.203 552.942,253.356 553.348,251.691 C553.348,251.691 553.773,248.06 557.333,246.224" id="Fill-96" fill="#E0565F"></path>
            <path d="M549.237,230.595 C551.398,233.681 555.598,232.66 557.545,230.776 C559.492,228.892 560.315,226.161 561.064,223.558 C562.776,217.609 564.502,211.369 563.229,205.311 C562.849,203.499 562.172,201.694 560.899,200.35 C559.626,199.006 557.669,198.207 555.88,198.68 C553.763,199.24 552.446,201.313 551.495,203.286 C548.699,209.085 547.219,215.514 547.197,221.952 C547.187,224.959 547.541,228.113 549.237,230.595" id="Fill-97" fill="#E0565F"></path>
            <path d="M543.304,235.023 C545.649,232.239 546.095,228.177 545.051,224.689 C544.007,221.201 541.648,218.234 538.931,215.811 C535.743,212.97 531.997,210.76 527.97,209.344 C526.385,208.786 524.713,208.347 523.041,208.506 C521.368,208.666 519.685,209.521 518.904,211.009 C517.751,213.209 518.856,215.877 520.053,218.054 C522.16,221.889 524.569,225.559 527.252,229.017 C529.409,231.798 531.881,234.542 535.169,235.799 C538.458,237.056 541.874,236.909 543.617,234.628" id="Fill-98" fill="#E0565F"></path>
            <path d="M549.091,277.149 C549.132,277.152 549.197,276.652 549.286,275.746 C549.386,274.726 549.511,273.445 549.659,271.92 C549.837,270.309 550.072,268.393 550.52,266.306 C550.966,264.224 551.664,261.968 552.561,259.681 C553.488,257.406 554.62,255.339 555.943,253.686 C557.257,252.025 558.785,250.823 560.221,250.13 C561.652,249.423 562.936,249.135 563.823,249.008 C564.718,248.916 565.219,248.846 565.219,248.806 C565.22,248.766 564.718,248.759 563.798,248.784 C562.888,248.845 561.551,249.076 560.042,249.761 C558.529,250.433 556.908,251.654 555.53,253.348 C554.142,255.036 552.968,257.149 552.023,259.464 C551.111,261.792 550.424,264.072 549.997,266.198 C549.572,268.321 549.379,270.258 549.251,271.882 C549.13,273.507 549.084,274.824 549.062,275.733 C549.041,276.643 549.052,277.147 549.091,277.149" id="Fill-99" fill="#132529"></path>
            <path d="M549.354,274.204 C549.375,274.203 549.387,273.979 549.393,273.553 C549.392,273.065 549.39,272.449 549.388,271.693 C549.383,270.077 549.384,267.741 549.471,264.855 C549.613,259.084 550.11,251.117 551.07,242.36 C552.037,233.6 553.318,225.721 554.486,220.068 C554.763,218.651 555.04,217.375 555.302,216.259 C555.552,215.139 555.765,214.175 555.971,213.394 C556.147,212.66 556.291,212.061 556.405,211.585 C556.499,211.17 556.538,210.949 556.52,210.944 C556.5,210.938 556.423,211.148 556.293,211.554 C556.151,212.022 555.973,212.612 555.753,213.336 C555.513,214.11 555.268,215.069 554.987,216.183 C554.695,217.295 554.389,218.568 554.086,219.982 C552.813,225.628 551.464,233.518 550.494,242.296 C549.532,251.072 549.1,259.062 549.062,264.848 C549.026,267.741 549.088,270.082 549.162,271.699 C549.208,272.454 549.246,273.07 549.275,273.558 C549.309,273.983 549.335,274.205 549.354,274.204" id="Fill-100" fill="#132529"></path>
            <path d="M549.394,258.793 C549.434,258.792 549.427,258.102 549.38,256.85 C549.309,255.601 549.137,253.795 548.784,251.583 C548.412,249.377 547.891,246.757 547.071,243.91 C546.293,241.054 545.224,237.969 543.863,234.831 C541.202,228.518 537.586,223.357 534.44,220.16 C533.703,219.311 532.881,218.7 532.225,218.099 C531.884,217.812 531.583,217.525 531.277,217.298 C530.97,217.085 530.683,216.888 530.417,216.705 C529.382,215.997 528.802,215.623 528.78,215.658 C528.688,215.784 531.1,217.202 534.145,220.443 C537.178,223.675 540.692,228.801 543.332,235.062 C544.681,238.172 545.758,241.228 546.559,244.057 C547.4,246.876 547.959,249.469 548.381,251.654 C548.782,253.843 549.015,255.63 549.155,256.869 C549.271,258.108 549.354,258.795 549.394,258.793" id="Fill-101" fill="#132529"></path>
            <polyline id="Fill-102" fill="#E0565F" points="576.521 61.216 520.035 62.38 521.552 136.04 578.068 136.294 576.521 61.216"></polyline>
            <polyline id="Fill-103" fill="#FAF9F6" points="572.859 63.914 523.431 64.932 524.808 131.739 574.27 132.388 572.859 63.914"></polyline>
            <polyline id="Fill-104" fill="#132529" points="564.453 76.231 531.627 75.658 532.589 122.353 565.39 121.677 564.453 76.231"></polyline>
            <polyline id="Fill-105" fill="#334F55" points="532.589 122.353 564.896 97.687 531.627 75.658 532.589 122.353"></polyline>
            <polyline id="Fill-106" fill="#334F55" points="557.291 0.16 518.504 0.959 519.546 51.54 558.354 51.714 557.291 0.16"></polyline>
            <polyline id="Fill-107" fill="#FAF9F6" points="554.776 2.013 520.836 2.712 521.78 48.586 555.745 49.032 554.776 2.013"></polyline>
            <polyline id="Fill-108" fill="#E0565F" points="549.005 10.471 526.464 10.077 527.124 42.141 549.647 41.677 549.005 10.471"></polyline>
            <path d="M541.585,25.684 C541.54,25.663 541.717,25.322 541.844,24.666 C541.967,24.021 541.99,23.005 541.46,21.95 C540.959,20.908 539.796,19.882 538.259,19.709 C536.753,19.502 534.958,20.302 534.163,21.895 C533.338,23.475 533.744,25.398 534.795,26.496 C535.837,27.64 537.35,27.98 538.488,27.774 C539.653,27.584 540.462,26.969 540.912,26.491 C541.369,26.003 541.542,25.66 541.585,25.684 C541.605,25.692 541.496,26.07 541.064,26.624 C540.642,27.165 539.814,27.88 538.554,28.136 C537.324,28.409 535.632,28.085 534.444,26.824 C533.246,25.617 532.766,23.444 533.699,21.659 C534.598,19.857 536.638,18.971 538.318,19.233 C540.035,19.454 541.291,20.635 541.792,21.791 C542.324,22.962 542.23,24.051 542.041,24.711 C541.846,25.385 541.604,25.696 541.585,25.684" id="Fill-109" fill="#132529"></path>
            <path d="M543.467,34.698 C543.341,34.767 542.359,33.244 541.275,31.295 C540.19,29.345 539.413,27.709 539.538,27.639 C539.664,27.569 540.646,29.092 541.73,31.041 C542.814,32.991 543.592,34.627 543.467,34.698" id="Fill-110" fill="#132529"></path>
            <path d="M577.572,275.377 C577.572,275.521 451.048,275.637 295.009,275.637 C138.916,275.637 12.419,275.521 12.419,275.377 C12.419,275.234 138.916,275.117 295.009,275.117 C451.048,275.117 577.572,275.234 577.572,275.377" id="Fill-111" fill="#132529"></path>
            <path d="M413.301,150.917 C413.301,150.917 414.192,141.425 415.096,141.502 C415.998,141.578 416.136,143.262 416.031,144.078 C415.926,144.895 416.07,148.065 416.07,148.065 L413.301,150.917" id="Fill-112" fill="#F1AD92"></path>
            <path d="M494.726,143.144 L490.182,175.114 L511.198,266.851 L453.192,271.494 L478.151,123.758 C478.151,123.758 494.684,121.916 494.726,143.144" id="Fill-113" fill="#132529"></path>
            <polyline id="Fill-114" fill="#F1AD92" points="423.418 304.632 420.069 342.494 434.383 342.494 440.691 304.632 423.418 304.632"></polyline>
            <g id="Group-118" transform="translate(408.000000, 342.000000)">
                <mask id="mask-4" fill="white">
                    <use xlink:href="#path-3"></use>
                </mask>
                <g id="Clip-116"></g>
                <path d="M12.069,0.494 C12.069,0.494 2.413,1.741 0.689,2.988 L25.996,2.682 L26.383,0.494 L12.069,0.494" id="Fill-115" fill="#F1AD92" mask="url(#mask-4)"></path>
                <polyline id="Fill-117" fill="#E0565F" mask="url(#mask-4)" points="0.689 2.988 0.689 3.999 26.752 3.722 26.752 2.633 0.689 2.988"></polyline>
            </g>
            <path d="M417.907,345.572 C417.774,345.63 417.359,344.855 416.52,344.246 C415.692,343.619 414.831,343.448 414.848,343.303 C414.836,343.171 415.858,343.126 416.817,343.844 C417.783,344.553 418.037,345.544 417.907,345.572" id="Fill-119" fill="#E0565F"></path>
            <path d="M434.709,341.74 C434.734,341.888 432.97,342.234 430.992,343.17 C429.006,344.088 427.609,345.221 427.513,345.106 C427.421,345.02 428.717,343.673 430.78,342.716 C432.837,341.746 434.701,341.614 434.709,341.74" id="Fill-120" fill="#E0565F"></path>
            <path d="M434.122,341.124 C434.115,341.262 430.963,341.215 427.081,341.019 C423.198,340.824 420.058,340.553 420.064,340.414 C420.071,340.277 423.224,340.324 427.106,340.52 C430.987,340.715 434.13,340.986 434.122,341.124" id="Fill-121" fill="#E0565F"></path>
            <path d="M435.802,336.147 C435.827,336.283 432.357,337.03 428.054,337.816 C423.748,338.602 420.239,339.128 420.215,338.992 C420.189,338.856 423.658,338.109 427.964,337.324 C432.268,336.537 435.777,336.011 435.802,336.147" id="Fill-122" fill="#E0565F"></path>
            <path d="M435.547,336.324 C435.538,336.381 434.787,336.335 433.657,335.912 C433.097,335.698 432.444,335.386 431.782,334.937 C431.448,334.71 431.121,334.464 430.786,334.161 C430.621,334.003 430.449,333.809 430.352,333.544 C430.259,333.276 430.254,332.963 430.431,332.681 C430.614,332.383 430.989,332.295 431.245,332.327 C431.514,332.351 431.736,332.441 431.938,332.524 C432.349,332.693 432.723,332.905 433.055,333.14 C433.717,333.613 434.205,334.17 434.533,334.682 C435.192,335.719 435.253,336.499 435.203,336.502 C435.12,336.531 434.936,335.806 434.243,334.885 C433.899,334.429 433.418,333.935 432.793,333.52 C432.48,333.313 432.133,333.127 431.755,332.979 C431.386,332.813 430.96,332.744 430.849,332.954 C430.697,333.192 430.837,333.552 431.126,333.808 C431.417,334.08 431.739,334.337 432.046,334.559 C432.663,335.007 433.272,335.338 433.795,335.587 C434.85,336.077 435.564,336.246 435.547,336.324" id="Fill-123" fill="#E0565F"></path>
            <path d="M435.418,336.664 C435.375,336.686 435.034,335.999 435.062,334.797 C435.076,334.202 435.198,333.488 435.502,332.751 C435.653,332.383 435.855,332.014 436.105,331.659 C436.229,331.476 436.364,331.312 436.522,331.134 C436.683,330.969 436.919,330.758 437.271,330.761 C437.622,330.777 437.866,331.009 437.995,331.254 C438.123,331.51 438.138,331.768 438.132,331.993 C438.112,332.434 438.042,332.848 437.931,333.232 C437.711,334.002 437.338,334.628 436.967,335.095 C436.199,336.027 435.486,336.313 435.468,336.266 C435.417,336.197 436.038,335.808 436.683,334.884 C436.995,334.42 437.309,333.824 437.485,333.112 C437.576,332.758 437.63,332.373 437.642,331.983 C437.673,331.608 437.492,331.267 437.256,331.261 C437.037,331.237 436.73,331.64 436.504,331.944 C436.271,332.265 436.075,332.6 435.925,332.935 C435.622,333.606 435.473,334.263 435.415,334.821 C435.298,335.943 435.505,336.646 435.418,336.664" id="Fill-124" fill="#E0565F"></path>
            <path d="M437.345,342.573 C437.228,342.634 436.461,341.369 435.905,339.641 C435.344,337.915 435.224,336.441 435.355,336.421 C435.496,336.398 435.832,337.803 436.381,339.487 C436.923,341.173 437.474,342.509 437.345,342.573" id="Fill-125" fill="#E0565F"></path>
            <path d="M439.054,341.229 C438.979,341.334 437.685,340.484 436.524,338.993 C435.356,337.507 434.843,336.046 434.964,335.999 C435.097,335.938 435.793,337.255 436.919,338.684 C438.034,340.12 439.146,341.114 439.054,341.229" id="Fill-126" fill="#E0565F"></path>
            <polyline id="Fill-127" fill="#F1AD92" points="476.832 307.737 506.149 330.978 513.125 320.775 486.907 292.243 476.832 307.737"></polyline>
            <path d="M504.08,331.546 C504.08,331.546 499.572,340.176 499.607,342.304 L513.849,321.382 L512.276,319.812 L504.08,331.546" id="Fill-128" fill="#F1AD92"></path>
            <polyline id="Fill-129" fill="#E0565F" points="499.607 342.304 500.437 342.884 515.134 321.358 514.242 320.735 499.607 342.304"></polyline>
            <path d="M505.365,335.081 C505.336,335.224 504.464,335.12 503.483,335.46 C502.496,335.78 501.862,336.387 501.753,336.291 C501.638,336.224 502.187,335.361 503.325,334.986 C504.459,334.6 505.417,334.958 505.365,335.081" id="Fill-130" fill="#E0565F"></path>
            <path d="M511.845,319.113 C511.98,319.176 511.254,320.822 510.889,322.979 C510.505,325.133 510.633,326.926 510.483,326.94 C510.359,326.966 509.999,325.132 510.396,322.893 C510.777,320.652 511.737,319.046 511.845,319.113" id="Fill-131" fill="#E0565F"></path>
            <path d="M511.044,318.56 C511.153,318.645 509.488,320.972 507.326,323.757 C505.162,326.544 503.321,328.734 503.212,328.649 C503.103,328.564 504.768,326.237 506.931,323.451 C509.093,320.665 510.935,318.475 511.044,318.56" id="Fill-132" fill="#E0565F"></path>
            <path d="M507.886,315.014 C508.012,315.072 506.81,317.967 505.202,321.48 C503.594,324.994 502.189,327.795 502.063,327.738 C501.938,327.68 503.139,324.785 504.747,321.272 C506.355,317.758 507.76,314.956 507.886,315.014" id="Fill-133" fill="#E0565F"></path>
            <path d="M507.885,315.325 C507.927,315.365 507.459,315.954 506.466,316.638 C505.968,316.975 505.339,317.331 504.592,317.618 C504.215,317.76 503.826,317.888 503.386,317.989 C503.161,318.035 502.903,318.064 502.631,317.993 C502.357,317.914 502.099,317.74 501.968,317.433 C501.829,317.112 501.972,316.754 502.146,316.563 C502.318,316.357 502.52,316.225 502.703,316.108 C503.076,315.867 503.465,315.682 503.847,315.544 C504.613,315.272 505.352,315.191 505.958,315.216 C507.186,315.269 507.859,315.666 507.834,315.708 C507.81,315.792 507.11,315.53 505.959,315.57 C505.388,315.59 504.707,315.702 504.009,315.977 C503.66,316.115 503.309,316.292 502.972,316.518 C502.624,316.726 502.323,317.035 502.433,317.246 C502.54,317.507 502.915,317.599 503.291,317.508 C503.681,317.425 504.075,317.308 504.433,317.184 C505.154,316.935 505.773,316.625 506.277,316.338 C507.283,315.755 507.831,315.266 507.885,315.325" id="Fill-134" fill="#E0565F"></path>
            <path d="M508.09,315.625 C508.083,315.673 507.325,315.56 506.355,314.848 C505.875,314.495 505.359,313.987 504.93,313.316 C504.715,312.981 504.528,312.604 504.38,312.196 C504.301,311.99 504.244,311.785 504.189,311.553 C504.146,311.327 504.107,311.013 504.311,310.726 C504.525,310.447 504.855,310.38 505.131,310.414 C505.414,310.455 505.633,310.592 505.814,310.725 C506.165,310.994 506.464,311.288 506.715,311.6 C507.221,312.221 507.521,312.885 507.69,313.457 C508.015,314.619 507.842,315.368 507.792,315.356 C507.706,315.358 507.743,314.626 507.355,313.569 C507.153,313.047 506.844,312.449 506.361,311.896 C506.123,311.619 505.839,311.355 505.525,311.121 C505.235,310.88 504.854,310.834 504.713,311.024 C504.567,311.19 504.723,311.672 504.842,312.032 C504.972,312.408 505.134,312.758 505.323,313.074 C505.699,313.706 506.152,314.205 506.576,314.572 C507.431,315.311 508.124,315.543 508.09,315.625" id="Fill-135" fill="#E0565F"></path>
            <path d="M514.037,317.429 C514.021,317.561 512.543,317.464 510.81,316.93 C509.072,316.403 507.795,315.657 507.855,315.538 C507.916,315.409 509.261,315.938 510.956,316.452 C512.647,316.974 514.059,317.287 514.037,317.429" id="Fill-136" fill="#E0565F"></path>
            <path d="M513.913,315.259 C513.958,315.38 512.52,315.954 510.633,316.051 C508.745,316.159 507.254,315.743 507.284,315.617 C507.311,315.472 508.789,315.657 510.605,315.551 C512.421,315.46 513.872,315.118 513.913,315.259" id="Fill-137" fill="#E0565F"></path>
            <path d="M448.566,193.517 C448.566,193.517 437.37,267.9 438.999,271.494 C440.628,275.09 476.893,312.221 476.893,312.221 L490.502,288.911 C490.502,288.911 466.504,262.324 466.848,260.944 C467.193,259.564 484.15,187.534 484.15,187.534 L448.566,193.517" id="Fill-138" fill="#E0565F"></path>
            <path d="M451.154,285.574 L460.712,264.578 L471.765,240.989 C465.164,250.649 459.346,260.834 454.727,271.828 C452.904,276.339 451.711,280.921 451.154,285.574" id="Fill-139" fill="#E0565F"></path>
            <path d="M451.154,285.574 C451.711,280.921 452.904,276.339 454.727,271.828 C459.346,260.834 465.164,250.649 471.765,240.989 L471.353,241.866 L460.712,264.578 L451.216,285.439 L451.154,285.574" id="Fill-140" fill="#8C2F39"></path>
            <path d="M444.587,220.974 C444.698,220.186 453.73,199.871 453.73,199.871 L449.345,193.685 L448.566,193.517 L444.587,220.974" id="Fill-141" fill="#E0565F"></path>
            <path d="M444.587,220.974 L448.566,193.517 L449.345,193.685 L453.73,199.871 C453.73,199.871 444.698,220.186 444.587,220.974" id="Fill-142" fill="#8C2F39"></path>
            <path d="M490.506,186.516 L491.183,189.276 C493.176,197.409 491.953,205.995 487.769,213.248 L457.41,265.87 C455.26,269.598 453.691,273.631 452.758,277.832 L445.198,311.862 C445.198,311.862 421.334,312.67 420.299,311.862 C419.264,311.052 423.378,288.544 426.119,271.494 C428.187,258.636 445.395,218.72 453.73,199.871 L448.566,193.517 L457.538,192.02 L490.506,186.516" id="Fill-143" fill="#E0565F"></path>
            <path d="M445.198,311.862 C445.2,311.896 444.852,311.951 444.219,312.021 C443.585,312.092 442.667,312.168 441.531,312.243 C439.259,312.392 436.113,312.501 432.64,312.494 C429.165,312.486 426.022,312.379 423.75,312.268 C422.613,312.212 421.694,312.156 421.06,312.105 C420.426,312.053 420.075,312.008 420.076,311.974 C420.077,311.94 420.43,311.918 421.066,311.91 C421.814,311.91 422.712,311.912 423.76,311.914 C426.16,311.936 429.237,311.963 432.641,311.994 C436.106,312.001 439.244,311.948 441.516,311.889 C442.563,311.865 443.459,311.844 444.206,311.827 C444.843,311.816 445.196,311.827 445.198,311.862" id="Fill-144" fill="#132529"></path>
            <path d="M446.513,305.476 C446.513,305.614 440.774,305.704 433.698,305.678 C426.619,305.652 420.883,305.518 420.884,305.38 C420.884,305.242 426.621,305.152 433.7,305.178 C440.776,305.204 446.514,305.337 446.513,305.476" id="Fill-145" fill="#132529"></path>
            <path d="M486.331,284.115 C486.36,284.133 486.176,284.467 485.818,285.054 C485.397,285.728 484.882,286.55 484.275,287.517 C482.894,289.687 481.105,292.495 479.126,295.602 C477.159,298.716 475.381,301.533 474.007,303.707 C473.39,304.668 472.866,305.485 472.437,306.154 C472.059,306.727 471.835,307.035 471.806,307.018 C471.775,307 471.942,306.658 472.27,306.053 C472.597,305.449 473.086,304.584 473.704,303.524 C474.94,301.402 476.696,298.498 478.703,295.333 C480.71,292.17 482.588,289.344 483.98,287.322 C484.677,286.311 485.249,285.498 485.657,284.946 C486.064,284.392 486.303,284.095 486.331,284.115" id="Fill-146" fill="#132529"></path>
            <path d="M475.462,310.229 C475.33,310.273 474.811,308.873 474.3,307.105 C473.79,305.335 473.485,303.874 473.619,303.841 C473.753,303.808 474.273,305.206 474.781,306.966 C475.288,308.725 475.593,310.186 475.462,310.229" id="Fill-147" fill="#132529"></path>
            <path d="M477.577,310.164 C477.44,310.187 476.939,307.841 476.455,304.926 C475.971,302.009 475.689,299.627 475.826,299.605 C475.962,299.582 476.465,301.927 476.948,304.844 C477.432,307.759 477.714,310.142 477.577,310.164" id="Fill-148" fill="#132529"></path>
            <path d="M480.355,306.209 C480.217,306.236 479.721,304.177 479.1,301.646 C478.482,299.113 477.972,297.059 478.107,297.018 C478.236,296.978 478.965,298.979 479.586,301.527 C480.211,304.074 480.488,306.185 480.355,306.209" id="Fill-149" fill="#132529"></path>
            <path d="M482.71,300.748 C482.575,300.779 482.068,298.801 481.578,296.331 C481.088,293.861 480.802,291.84 480.938,291.817 C481.074,291.794 481.581,293.771 482.069,296.234 C482.558,298.696 482.845,300.717 482.71,300.748" id="Fill-150" fill="#132529"></path>
            <path d="M485.763,296.217 C485.621,296.236 485.257,294.259 484.693,291.854 C484.137,289.446 483.591,287.512 483.727,287.466 C483.853,287.421 484.617,289.304 485.181,291.741 C485.75,294.174 485.896,296.202 485.763,296.217" id="Fill-151" fill="#132529"></path>
            <path d="M488.479,292.376 C488.344,292.41 487.833,290.818 487.337,288.822 C486.841,286.825 486.547,285.179 486.682,285.146 C486.815,285.113 487.326,286.703 487.822,288.701 C488.318,290.698 488.612,292.343 488.479,292.376" id="Fill-152" fill="#132529"></path>
            <path d="M432.775,305.225 C432.835,305.354 430.135,306.729 426.836,308.477 C423.533,310.222 420.878,311.681 420.806,311.559 C420.771,311.5 421.391,311.059 422.435,310.41 C423.477,309.762 424.945,308.911 426.602,308.035 C428.258,307.16 429.787,306.423 430.91,305.926 C432.032,305.428 432.746,305.163 432.775,305.225" id="Fill-153" fill="#132529"></path>
            <path d="M440.127,305.336 C440.16,305.396 439.445,305.868 438.25,306.561 C437.055,307.255 435.376,308.164 433.486,309.099 C431.595,310.033 429.853,310.815 428.575,311.342 C427.298,311.87 426.489,312.151 426.462,312.089 C426.435,312.025 427.192,311.629 428.43,311.02 C429.838,310.329 431.466,309.532 433.265,308.651 C435.056,307.758 436.679,306.95 438.083,306.249 C439.318,305.637 440.093,305.275 440.127,305.336" id="Fill-154" fill="#132529"></path>
            <path d="M445.735,305.333 C445.819,305.44 443.76,307.217 441.049,309.189 C438.338,311.163 436.014,312.577 435.939,312.464 C435.86,312.347 438.054,310.752 440.754,308.785 C443.456,306.82 445.647,305.223 445.735,305.333" id="Fill-155" fill="#132529"></path>
            <path d="M446.344,308.853 C446.428,308.962 445.496,309.821 444.263,310.77 C443.028,311.718 441.96,312.399 441.876,312.289 C441.792,312.18 442.724,311.322 443.957,310.372 C445.191,309.424 446.26,308.744 446.344,308.853" id="Fill-156" fill="#132529"></path>
            <path d="M426.244,305.1 C426.314,305.219 424.933,306.173 423.156,307.233 C421.38,308.292 419.883,309.054 419.813,308.936 C419.741,308.817 421.124,307.862 422.9,306.803 C424.676,305.744 426.173,304.982 426.244,305.1" id="Fill-157" fill="#132529"></path>
            <path d="M453.074,199.728 C453.14,199.757 452.634,201.02 451.806,203.054 C450.977,205.089 449.834,207.899 448.619,211.021 C447.405,214.145 446.35,216.989 445.586,219.048 C444.822,221.108 444.343,222.38 444.274,222.358 C444.241,222.347 444.318,222.015 444.485,221.422 C444.65,220.829 444.912,219.979 445.252,218.932 C445.931,216.839 446.937,213.97 448.153,210.839 C449.37,207.711 450.567,204.916 451.48,202.914 C451.938,201.913 452.319,201.11 452.598,200.56 C452.875,200.01 453.043,199.713 453.074,199.728" id="Fill-158" fill="#132529"></path>
            <path d="M450.579,287.952 C450.562,287.951 450.576,287.747 450.619,287.363 C450.675,286.925 450.746,286.369 450.833,285.682 C450.921,284.95 451.054,284.059 451.279,283.036 C451.492,282.013 451.694,280.835 452.055,279.568 C452.223,278.929 452.397,278.262 452.58,277.568 C452.775,276.875 453.018,276.167 453.248,275.428 C453.687,273.941 454.298,272.401 454.899,270.766 C456.193,267.531 457.793,264.047 459.678,260.497 C463.484,253.412 467.559,247.375 470.547,243.052 C472.045,240.892 473.282,239.16 474.147,237.973 C474.56,237.417 474.893,236.966 475.155,236.612 C475.39,236.304 475.52,236.147 475.534,236.157 C475.548,236.166 475.445,236.343 475.237,236.669 C474.995,237.037 474.688,237.506 474.308,238.084 C473.452,239.359 472.276,241.11 470.839,243.251 C467.928,247.621 463.91,253.677 460.119,260.733 C458.243,264.268 456.639,267.728 455.327,270.936 C454.719,272.557 454.096,274.083 453.642,275.557 C453.404,276.289 453.154,276.992 452.95,277.677 C452.759,278.365 452.574,279.026 452.397,279.659 C452.016,280.913 451.791,282.079 451.553,283.093 C451.303,284.106 451.143,284.989 451.025,285.713 C450.9,286.393 450.799,286.944 450.72,287.376 C450.644,287.756 450.596,287.955 450.579,287.952" id="Fill-159" fill="#132529"></path>
            <path d="M480.35,123.863 L456.861,125.86 C456.861,125.86 449.814,126.023 442.184,143.897 L436.662,161.597 L446.593,163.713 L446.614,164.685 L448.566,193.517 L490.958,186.652 C491.054,182.991 488.994,177.656 487.435,172.638 C489.017,168.682 495.713,151.445 495.7,143.144 C495.673,125.396 480.35,123.863 480.35,123.863" id="Fill-160" fill="#FFFFFE"></path>
            <path d="M490.502,288.911 C490.532,288.928 490.377,289.274 490.069,289.884 C489.764,290.495 489.299,291.368 488.708,292.437 C487.529,294.577 485.828,297.49 483.911,300.682 C482.021,303.819 480.312,306.655 478.99,308.847 C478.402,309.818 477.902,310.642 477.492,311.319 C477.134,311.899 476.921,312.212 476.891,312.196 C476.86,312.179 477.016,311.833 477.322,311.223 C477.628,310.612 478.094,309.74 478.684,308.67 C479.862,306.532 481.564,303.618 483.482,300.424 C485.372,297.288 487.081,294.452 488.401,292.26 C488.989,291.29 489.489,290.465 489.899,289.788 C490.259,289.208 490.472,288.895 490.502,288.911" id="Fill-161" fill="#132529"></path>
            <path d="M484.932,166.254 C484.966,166.384 483.503,166.873 481.626,167.122 C479.748,167.376 478.208,167.288 478.208,167.155 C478.205,167.012 479.714,166.876 481.56,166.626 C483.404,166.382 484.897,166.117 484.932,166.254" id="Fill-162" fill="#FFFFFE"></path>
            <path d="M448.674,164.847 L448.187,196.134 L460.889,124.87 C456.67,124.121 448.799,127.446 445.842,131.657 C443.726,134.172 442.561,139.974 436.662,157.433 L433.041,169.281 L418.365,153.211 L408.466,162.151 C408.466,162.151 425.534,190.021 432.658,191.565 C442.364,193.668 448.674,164.847 448.674,164.847" id="Fill-163" fill="#334F55"></path>
            <path d="M450.703,135.892 C450.737,135.899 450.689,136.332 450.573,137.111 C450.438,137.989 450.268,139.092 450.064,140.405 C449.63,143.183 449.059,147.026 448.531,151.283 C448.007,155.542 447.627,159.409 447.372,162.209 C447.249,163.532 447.147,164.643 447.064,165.528 C446.987,166.311 446.929,166.744 446.894,166.742 C446.859,166.74 446.853,166.303 446.87,165.516 C446.886,164.728 446.936,163.589 447.019,162.183 C447.184,159.371 447.509,155.491 448.034,151.222 C448.563,146.954 449.191,143.112 449.716,140.344 C449.977,138.96 450.206,137.843 450.382,137.076 C450.557,136.307 450.67,135.885 450.703,135.892" id="Fill-164" fill="#132529"></path>
            <path d="M447.412,134.519 C447.358,134.38 449.333,133.545 451.565,132.162 C453.807,130.792 455.441,129.406 455.541,129.516 C455.632,129.605 454.117,131.187 451.828,132.588 C449.546,134 447.451,134.64 447.412,134.519" id="Fill-165" fill="#FFFFFE"></path>
            <path d="M443.348,155.154 C443.207,155.183 442.769,153.549 442.121,151.576 C441.48,149.6 440.872,148.022 441.003,147.962 C441.123,147.906 441.945,149.412 442.597,151.421 C443.254,153.426 443.479,155.129 443.348,155.154" id="Fill-166" fill="#FFFFFE"></path>
            <path d="M453.652,143.897 C453.785,143.904 453.785,145.784 453.355,148.053 C452.932,150.325 452.249,152.076 452.123,152.034 C451.986,151.991 452.447,150.198 452.863,147.96 C453.287,145.726 453.509,143.887 453.652,143.897" id="Fill-167" fill="#FFFFFE"></path>
            <path d="M439.362,171.169 C439.502,171.199 439.263,172.831 439.057,174.847 C438.844,176.863 438.743,178.509 438.6,178.509 C438.467,178.511 438.344,176.842 438.559,174.795 C438.769,172.749 439.231,171.14 439.362,171.169" id="Fill-168" fill="#FFFFFE"></path>
            <path d="M420.586,170.924 C420.479,171 419.162,169.281 417.93,166.921 C416.69,164.564 416.027,162.503 416.151,162.458 C416.286,162.406 417.149,164.362 418.373,166.689 C419.589,169.02 420.706,170.843 420.586,170.924" id="Fill-169" fill="#FFFFFE"></path>
            <path d="M431.331,171.661 C431.403,171.773 430.222,172.635 428.588,173.376 C426.956,174.124 425.531,174.451 425.493,174.323 C425.45,174.187 426.78,173.655 428.381,172.921 C429.982,172.195 431.257,171.538 431.331,171.661" id="Fill-170" fill="#FFFFFE"></path>
            <polyline id="Fill-171" fill="#334F55" points="482.195 181.577 489.545 268.941 511.679 266.851 490.662 175.114 493.23 150.485 482.195 181.577"></polyline>
            <path d="M489.545,268.942 C489.407,268.952 487.782,249.571 485.915,225.657 C484.048,201.735 482.647,182.34 482.784,182.329 C482.922,182.319 484.547,201.696 486.414,225.618 C488.28,249.532 489.683,268.931 489.545,268.942" id="Fill-172" fill="#132529"></path>
            <path d="M487.409,183.596 C487.281,183.542 487.701,182.253 488.346,180.716 C488.99,179.178 489.616,177.976 489.743,178.03 C489.871,178.082 489.451,179.371 488.807,180.91 C488.162,182.447 487.537,183.65 487.409,183.596" id="Fill-173" fill="#FFFFFE"></path>
            <path d="M493.519,196.589 C493.404,196.679 492.297,195.407 490.753,194.035 C489.215,192.656 487.826,191.7 487.903,191.576 C487.967,191.461 489.508,192.247 491.086,193.662 C492.67,195.071 493.625,196.513 493.519,196.589" id="Fill-174" fill="#FFFFFE"></path>
            <path d="M492.174,214.124 C492.054,214.042 492.822,212.76 493.557,211.085 C494.301,209.413 494.731,207.983 494.872,208.016 C495.001,208.04 494.78,209.565 494.015,211.287 C493.257,213.013 492.278,214.202 492.174,214.124" id="Fill-175" fill="#FFFFFE"></path>
            <path d="M496.937,228.196 C496.846,228.3 495.479,227.264 493.883,225.881 C492.286,224.498 491.065,223.293 491.156,223.189 C491.246,223.084 492.613,224.12 494.21,225.503 C495.807,226.886 497.027,228.091 496.937,228.196" id="Fill-176" fill="#FFFFFE"></path>
            <path d="M500.963,237.856 C500.824,237.855 500.725,235.964 500.739,233.633 C500.754,231.301 500.878,229.412 501.017,229.413 C501.154,229.414 501.255,231.305 501.239,233.636 C501.225,235.967 501.101,237.857 500.963,237.856" id="Fill-177" fill="#FFFFFE"></path>
            <path d="M493.846,244.417 C493.702,244.419 493.579,242.908 493.315,241.065 C493.059,239.221 492.759,237.735 492.897,237.697 C493.025,237.66 493.549,239.115 493.812,240.995 C494.079,242.874 493.979,244.417 493.846,244.417" id="Fill-178" fill="#FFFFFE"></path>
            <path d="M501.179,252.774 C501.158,252.91 499.741,252.813 498.015,252.556 C496.287,252.299 494.904,251.98 494.924,251.843 C494.944,251.707 496.36,251.804 498.088,252.062 C499.815,252.319 501.199,252.637 501.179,252.774" id="Fill-179" fill="#FFFFFE"></path>
            <path d="M499.99,263.889 C499.875,263.813 500.677,262.4 501.779,260.732 C502.883,259.064 503.87,257.774 503.985,257.85 C504.101,257.926 503.3,259.34 502.196,261.008 C501.094,262.675 500.105,263.966 499.99,263.889" id="Fill-180" fill="#FFFFFE"></path>
            <path d="M382.526,142.535 C381.022,142.586 379.536,142.556 378.066,142.45 C357.142,140.926 340.247,123.782 339.52,102.351 C338.741,79.415 356.768,60.122 379.703,59.344 C381.218,59.292 382.721,59.322 384.211,59.43 C393.653,60.117 402.514,63.973 409.529,70.529 C417.652,78.119 422.333,88.417 422.71,99.528 C423.087,110.639 419.114,121.231 411.525,129.354 C403.936,137.477 393.638,142.158 382.526,142.535 Z M449.566,192.171 L412.385,141.515 C414.564,139.829 416.629,137.966 418.546,135.913 C427.888,125.915 432.777,112.878 432.313,99.202 C431.85,85.527 426.087,72.85 416.089,63.509 C406.092,54.167 393.05,49.279 379.378,49.741 C365.702,50.205 353.025,55.967 343.685,65.965 C334.342,75.963 329.452,89.001 329.917,102.677 C330.813,129.057 351.606,150.161 377.363,152.032 C379.169,152.162 381.002,152.201 382.853,152.137 C390.424,151.88 397.686,149.993 404.249,146.668 L441.82,197.857 C443.391,199.995 446.397,200.456 448.536,198.887 C450.676,197.317 451.137,194.31 449.566,192.171 L449.566,192.171 Z" id="Fill-181" fill="#132529"></path>
            <path d="M434.802,164.626 L430.396,179.668 C430.396,179.668 453.471,188.062 465.969,187.908 C477.678,187.764 481.033,186.437 485.153,176.98 C489.274,167.524 493.949,156.662 494.93,150.405 C494.93,150.405 501.539,121.61 476.324,124.181 L475.643,146.704 C475.643,146.704 472.85,155.934 472.648,156.468 C470.767,161.452 468.329,168.744 465.969,169.626 C463.609,170.509 434.802,164.626 434.802,164.626" id="Fill-182" fill="#334F55"></path>
            <path d="M471.018,176.68 C470.906,176.756 469.732,175.233 468.543,173.188 C467.348,171.145 466.6,169.374 466.722,169.315 C466.848,169.252 467.79,170.91 468.975,172.936 C470.155,174.964 471.135,176.6 471.018,176.68" id="Fill-183" fill="#132529"></path>
            <path d="M473.385,174.325 C473.3,174.434 471.799,173.412 470.032,172.043 C468.266,170.674 466.902,169.476 466.986,169.367 C467.071,169.257 468.572,170.279 470.339,171.648 C472.105,173.017 473.47,174.215 473.385,174.325" id="Fill-184" fill="#132529"></path>
            <path d="M481.217,133.264 C481.345,133.317 480.157,136.473 478.564,140.312 C476.972,144.153 475.577,147.222 475.45,147.169 C475.322,147.117 476.51,143.961 478.103,140.12 C479.695,136.281 481.09,133.211 481.217,133.264" id="Fill-185" fill="#132529"></path>
            <path d="M493.921,154.695 C493.953,154.706 493.836,155.115 493.596,155.842 C493.312,156.663 492.957,157.689 492.536,158.907 C491.621,161.487 490.332,165.043 488.807,168.935 C487.278,172.828 485.771,176.303 484.587,178.776 C483.996,180.012 483.499,181.004 483.133,181.678 C482.77,182.353 482.555,182.718 482.523,182.703 C482.493,182.688 482.649,182.292 482.958,181.592 C483.308,180.798 483.745,179.807 484.265,178.628 C485.363,176.124 486.815,172.638 488.341,168.752 C489.83,164.91 491.177,161.435 492.205,158.784 C492.704,157.509 493.116,156.48 493.413,155.774 C493.71,155.068 493.889,154.683 493.921,154.695" id="Fill-186" fill="#132529"></path>
            <path d="M456.861,168.955 C456.836,169.091 451.812,168.293 445.64,167.173 C439.466,166.053 434.482,165.035 434.507,164.899 C434.531,164.763 439.555,165.56 445.73,166.681 C451.901,167.801 456.886,168.82 456.861,168.955" id="Fill-187" fill="#132529"></path>
            <path d="M483.028,155.218 C482.89,155.216 482.803,153.394 482.833,151.15 C482.864,148.905 483.001,147.086 483.139,147.088 C483.277,147.09 483.364,148.911 483.333,151.157 C483.303,153.401 483.166,155.22 483.028,155.218" id="Fill-188" fill="#FFFFFE"></path>
            <path d="M474.045,182.889 C473.923,182.811 474.65,181.513 475.37,179.84 C476.098,178.17 476.547,176.752 476.687,176.787 C476.815,176.815 476.576,178.323 475.829,180.039 C475.089,181.757 474.152,182.964 474.045,182.889" id="Fill-189" fill="#FFFFFE"></path>
            <path d="M461.834,182.111 C461.702,182.167 460.901,180.556 459.83,178.621 C458.764,176.683 457.828,175.147 457.945,175.066 C458.055,174.989 459.188,176.416 460.268,178.38 C461.354,180.34 461.957,182.06 461.834,182.111" id="Fill-190" fill="#FFFFFE"></path>
            <path d="M444.978,174.326 C445.029,174.453 443.566,175.155 441.711,175.891 C439.855,176.626 438.31,177.119 438.259,176.991 C438.208,176.863 439.671,176.161 441.526,175.425 C443.382,174.69 444.927,174.197 444.978,174.326" id="Fill-191" fill="#FFFFFE"></path>
            <path d="M492.298,138.989 C492.189,139.087 491.077,137.95 489.477,136.858 C487.884,135.752 486.425,135.122 486.478,134.985 C486.514,134.861 488.105,135.299 489.76,136.445 C491.422,137.58 492.4,138.911 492.298,138.989" id="Fill-192" fill="#FFFFFE"></path>
            <path d="M485.099,163.854 C485.132,163.982 483.375,164.535 481.13,164.816 C478.884,165.103 477.046,165.004 477.046,164.871 C477.044,164.728 478.855,164.602 481.066,164.319 C483.279,164.042 485.064,163.714 485.099,163.854" id="Fill-193" fill="#FFFFFE"></path>
            <path d="M482.73,86.765 C483.914,84.235 487.159,83.064 489.849,83.819 C492.537,84.573 494.587,86.928 495.477,89.576 C496.366,92.223 496.225,95.122 495.628,97.85 C495.194,99.836 494.604,102.162 495.928,103.703 C497.159,105.136 499.455,105.101 500.877,106.344 C502.288,107.578 502.368,110.031 501.041,111.354 C499.714,112.677 497.261,112.588 496.031,111.174 C496.047,112.567 496.786,113.833 497.226,115.156 C497.664,116.479 497.714,118.149 496.647,119.045 C495.854,119.71 494.665,119.714 493.706,119.325 C492.746,118.936 491.964,118.22 491.204,117.517 C491.634,118.959 491.703,120.549 491.147,121.948 C490.591,123.346 489.341,124.51 487.852,124.727 C485.991,124.999 484.151,123.748 483.255,122.095 C482.358,120.442 482.245,118.476 482.379,116.6 C482.589,113.68 483.349,110.826 483.705,107.919 C484.063,105.012 483.983,101.931 482.622,99.337" id="Fill-194" fill="#E0565F"></path>
            <path d="M499.679,103.809 C499.683,103.819 499.557,103.886 499.3,103.856 C499.052,103.822 498.663,103.652 498.417,103.209 C498.146,102.777 498.255,102.008 498.83,101.56 C499.373,101.064 500.405,101.077 501.076,101.688 C501.784,102.285 502.027,103.379 501.754,104.372 C501.619,104.872 501.356,105.369 500.938,105.754 C500.518,106.142 499.941,106.37 499.353,106.405 C498.762,106.443 498.153,106.313 497.608,106.02 C497.061,105.722 496.612,105.26 496.283,104.722 C495.618,103.64 495.457,102.284 495.636,101.006 C496.01,98.434 497.247,96.279 497.221,94.123 C497.276,91.982 496.564,90.1 495.722,88.726 C494.858,87.344 493.862,86.441 493.124,85.908 C492.385,85.367 491.913,85.16 491.938,85.111 C491.945,85.095 492.065,85.139 492.289,85.238 C492.519,85.328 492.837,85.5 493.234,85.747 C494.022,86.242 495.087,87.13 496.02,88.536 C496.93,89.933 497.713,91.878 497.682,94.133 C497.721,96.426 496.471,98.646 496.133,101.07 C495.964,102.277 496.117,103.503 496.702,104.467 C497.259,105.443 498.309,106.014 499.324,105.945 C500.354,105.924 501.126,105.14 501.355,104.261 C501.61,103.394 501.41,102.453 500.843,101.954 C500.282,101.43 499.469,101.392 499.003,101.781 C498.51,102.141 498.392,102.745 498.592,103.122 C498.775,103.514 499.104,103.698 499.32,103.757 C499.545,103.815 499.676,103.786 499.679,103.809" id="Fill-195" fill="#E0565F"></path>
            <path d="M476.543,124.744 L477.879,94.225 L465.76,85.044 L454.743,90.431 C454.743,90.431 454.375,104.263 454.743,110.261 C455.109,116.259 461.158,116.899 461.158,116.899 C461.158,116.899 461.018,120.415 460.878,124.109 C460.71,128.578 464.313,132.283 468.786,132.241 C472.953,132.202 476.361,128.909 476.543,124.744" id="Fill-196" fill="#F1AD92"></path>
            <path d="M455.942,100.513 C455.942,100.937 456.286,101.281 456.71,101.281 C457.134,101.281 457.478,100.937 457.478,100.513 C457.478,100.089 457.134,99.745 456.71,99.745 C456.286,99.745 455.942,100.089 455.942,100.513" id="Fill-197" fill="#132529"></path>
            <path d="M455.199,99.676 C455.298,99.775 455.865,99.293 456.691,99.249 C457.518,99.192 458.139,99.602 458.225,99.492 C458.267,99.442 458.165,99.259 457.893,99.073 C457.626,98.888 457.176,98.718 456.661,98.75 C456.147,98.781 455.72,99.004 455.478,99.221 C455.23,99.438 455.151,99.632 455.199,99.676" id="Fill-198" fill="#132529"></path>
            <path d="M464.839,100.513 C464.839,100.937 465.183,101.281 465.606,101.281 C466.03,101.281 466.374,100.937 466.374,100.513 C466.374,100.089 466.03,99.745 465.606,99.745 C465.183,99.745 464.839,100.089 464.839,100.513" id="Fill-199" fill="#132529"></path>
            <path d="M464.361,99.676 C464.461,99.775 465.027,99.293 465.855,99.249 C466.68,99.192 467.301,99.602 467.388,99.492 C467.43,99.442 467.327,99.259 467.056,99.073 C466.789,98.888 466.339,98.718 465.823,98.75 C465.309,98.781 464.882,99.004 464.64,99.221 C464.394,99.438 464.314,99.632 464.361,99.676" id="Fill-200" fill="#132529"></path>
            <path d="M464.11,107.439 C463.082,107.949 461.26,108.682 460.113,108.815 C460.113,108.815 461.133,110.27 462.854,109.593 C464.637,108.891 464.11,107.439 464.11,107.439" id="Fill-201" fill="#FFFFFE"></path>
            <path d="M461.154,116.899 C461.154,116.899 465.193,116.945 469.102,114.215 C469.102,114.215 467.3,118.619 461.285,118.371 L461.154,116.899" id="Fill-202" fill="#EA8E6C"></path>
            <path d="M495.329,111.469 C494.797,111.498 494.005,111.412 493.155,110.977 C492.3,110.558 491.453,109.765 490.785,108.679 C490.105,107.603 489.578,106.27 489.013,104.879 C487.893,102.091 487.047,99.503 486.475,97.617 C486.385,97.319 486.303,97.046 486.225,96.785 C486.174,96.464 486.122,96.178 486.067,95.967 C482.795,83.458 471.801,81.126 469.625,81.126 C467.293,81.126 463.212,79.844 457.264,86.024 C456.267,87.061 455.546,88.109 455.008,89.139 C453.475,91.063 452.664,93.188 452.356,94.788 C451.994,96.615 452.147,97.77 452.218,97.765 C452.33,97.769 452.35,96.632 452.815,94.896 C453.045,94.026 453.416,93.001 453.966,91.943 C453.098,95.816 454.576,98.851 454.576,98.851 L456.71,98.264 L464.349,95.665 C463.654,93.299 464.676,90.361 465.254,88.992 L465.311,88.939 C467.06,97.918 475.41,98.746 475.41,98.746 L476.821,118.391 C486.977,116.221 486.746,102.632 486.681,99.871 C487.141,101.428 487.74,103.215 488.493,105.087 C489.063,106.483 489.608,107.834 490.351,108.958 C491.075,110.085 492.037,110.932 492.985,111.335 C493.928,111.758 494.796,111.786 495.354,111.685 C495.918,111.577 496.185,111.396 496.172,111.37 C496.156,111.326 495.864,111.432 495.329,111.469" id="Fill-203" fill="#E0565F"></path>
            <path d="M461.381,106.658 C461.381,106.611 460.864,106.55 460.027,106.488 C459.817,106.478 459.609,106.447 459.565,106.291 C459.509,106.13 459.59,105.886 459.683,105.624 C459.862,105.081 460.051,104.51 460.25,103.911 C460.643,102.692 460.98,101.583 461.21,100.776 C461.439,99.968 461.558,99.461 461.514,99.448 C461.471,99.433 461.272,99.914 460.985,100.704 C460.699,101.493 460.326,102.59 459.933,103.808 C459.743,104.411 459.562,104.985 459.391,105.53 C459.319,105.785 459.192,106.075 459.309,106.394 C459.37,106.552 459.526,106.661 459.66,106.691 C459.796,106.726 459.915,106.723 460.019,106.723 C460.857,106.725 461.379,106.703 461.381,106.658" id="Fill-204" fill="#132529"></path>
            <path d="M478.516,106.407 C478.48,105.408 478.478,104.379 478.838,103.446 C479.198,102.513 480,101.686 480.995,101.582 C482.14,101.463 483.248,102.415 483.431,103.552 C483.612,104.688 482.95,105.871 481.947,106.436 C480.944,107.001 479.673,106.984 478.615,106.529" id="Fill-205" fill="#F1AD92"></path>
            <path d="M480.265,105.534 C480.302,105.468 480.59,105.615 481.013,105.486 C481.439,105.383 481.876,104.898 481.911,104.211 C481.936,103.874 481.862,103.562 481.697,103.412 C481.529,103.251 481.259,103.205 481.044,103.217 C480.594,103.256 480.278,103.376 480.252,103.299 C480.233,103.249 480.454,103.019 480.991,102.867 C481.259,102.807 481.646,102.791 481.998,103.062 C482.351,103.351 482.439,103.83 482.411,104.244 C482.384,104.672 482.221,105.078 481.963,105.365 C481.709,105.658 481.36,105.806 481.08,105.833 C480.488,105.891 480.216,105.57 480.265,105.534" id="Fill-206" fill="#EA8E6C"></path>
            <path d="M482.064,106.351 C482.095,106.304 482.515,106.661 482.508,107.468 C482.5,107.853 482.344,108.351 481.942,108.719 C481.555,109.083 480.957,109.32 480.326,109.221 C479.697,109.113 479.206,108.698 478.955,108.228 C478.692,107.752 478.703,107.23 478.82,106.862 C479.071,106.096 479.583,105.892 479.598,105.946 C479.654,106.003 479.281,106.297 479.164,106.945 C479.109,107.262 479.139,107.653 479.355,108 C479.565,108.348 479.953,108.651 480.407,108.727 C480.861,108.8 481.326,108.637 481.636,108.375 C481.952,108.115 482.105,107.754 482.155,107.436 C482.251,106.785 481.992,106.387 482.064,106.351" id="Fill-207" fill="#132529"></path>
            <path d="M478.542,102.219 C478.555,102.239 478.306,102.453 477.77,102.696 C477.236,102.939 476.397,103.179 475.337,103.189 C474.282,103.193 473.009,102.949 471.761,102.296 C470.511,101.647 469.348,100.578 468.428,99.26 C466.58,96.587 466.064,93.641 465.772,91.617 C465.634,90.59 465.563,89.756 465.523,89.18 C465.485,88.603 465.482,88.282 465.517,88.278 C465.594,88.268 465.769,89.537 466.12,91.562 C466.499,93.56 467.066,96.416 468.838,98.974 C469.72,100.235 470.814,101.258 471.979,101.89 C473.143,102.527 474.341,102.795 475.343,102.836 C477.386,102.907 478.51,102.115 478.542,102.219" id="Fill-208" fill="#E0565F"></path>
            <path d="M485.272,93.626 C485.124,93.664 484.675,91.891 483.498,90.017 C482.341,88.129 480.951,86.941 481.051,86.825 C481.114,86.718 482.709,87.779 483.923,89.753 C485.153,91.717 485.396,93.617 485.272,93.626" id="Fill-209" fill="#132529"></path>
            <path d="M430.839,178.155 L427.31,178.117 C424.103,177.804 422.307,177.752 421.411,176.899 C420.212,175.756 421.859,174.634 421.859,174.634 C421.859,174.634 419.538,173.837 419.756,172.422 C419.904,171.456 421.004,171.348 421.004,171.348 C421.004,171.348 418.956,170.549 418.552,169.696 C417.999,168.532 419.445,167.911 419.445,167.911 C416.652,166.189 416.906,164.487 417.551,164.317 C418.196,164.147 420.376,165.149 420.376,165.149 C422.215,165.674 427.234,167.206 425.374,164.438 C423.514,161.669 423.128,158.841 423.556,158.003 C423.983,157.164 425.306,157.455 425.471,158.477 C425.604,159.304 426.253,160.612 426.781,161.574 C427.217,162.368 427.779,163.086 428.455,163.689 C429.244,164.39 429.939,164.954 430.543,165.418 L433.684,168.45 L430.839,178.155" id="Fill-210" fill="#F1AD92"></path>
            <path d="M408.875,142.924 C409.132,142.163 409.758,141.622 410.44,141.979 C410.763,142.335 410.771,142.822 410.665,143.153 L408.485,150.248 L408.488,150.254 L410.553,145.239 C410.81,144.479 411.498,144.021 411.973,144.433 C412.235,144.661 412.245,145.253 412.14,145.584 L410.258,151.473 L411.789,147.792 C412.109,146.952 412.485,146.727 412.912,146.91 C413.334,147.091 413.352,147.718 413.246,148.048 L411.949,152.397 C412.229,153.231 413.189,155.861 412.266,157.341 L412.355,157.743 L412.792,158.244 L409.899,160.856 C409.899,160.856 407.229,154.102 406.723,152.078 C406.28,150.308 406.684,149.144 406.88,148.534 L408.875,142.924" id="Fill-211" fill="#F1AD92"></path>
        </g>
    </g>
</svg>