<svg xmlns="http://www.w3.org/2000/svg" id="canvas" viewBox="290.099 378.861 1214.933 203.265"><path d="M 293.30,475.28 C 293.68 475.74, 294.13 476.21, 295.39 476.35 C 296.64 476.48, 297.57 476.52, 299.56 475.98 C 301.56 475.44, 302.92 475.14, 305.37 473.65 C 307.81 472.17, 309.21 470.85, 311.79 468.54 C 314.38 466.24, 315.77 464.96, 318.29 462.12 C 320.81 459.28, 322.17 457.57, 324.42 454.33 C 326.66 451.09, 327.71 449.28, 329.52 445.92 C 331.32 442.55, 332.14 440.78, 333.45 437.50 C 334.76 434.22, 335.52 432.48, 336.07 429.51 C 336.61 426.54, 336.57 424.97, 336.16 422.64 C 335.76 420.32, 335.32 419.29, 334.04 417.90 C 332.76 416.51, 331.81 415.79, 329.77 415.69 C 327.72 415.58, 326.32 415.73, 323.81 417.39 C 321.29 419.05, 319.93 420.39, 317.20 423.98 C 314.48 427.58, 312.86 429.93, 310.18 435.37 C 307.50 440.81, 305.97 444.37, 303.80 451.18 C 301.64 458.00, 300.56 462.18, 299.36 469.44 C 298.16 476.70, 297.78 480.78, 297.80 487.48 C 297.82 494.18, 298.29 497.64, 299.48 502.93 C 300.67 508.23, 301.52 510.51, 303.73 513.97 C 305.95 517.43, 307.43 518.75, 310.57 520.23 C 313.70 521.72, 315.74 521.85, 319.41 521.38 C 323.07 520.91, 325.05 520.03, 328.90 517.88 C 332.74 515.73, 334.76 514.17, 338.62 510.64 C 342.49 507.12, 344.50 504.90, 348.23 500.25 C 351.95 495.61, 353.82 492.83, 357.25 487.41 C 360.68 481.99, 362.37 478.79, 365.37 473.16 C 368.37 467.53, 369.78 464.31, 372.25 459.26 C 374.72 454.21, 375.81 451.73, 377.73 447.90 C 379.66 444.08, 380.60 442.58, 381.86 440.16 C 383.13 437.75, 383.47 436.90, 384.06 435.83 C 384.65 434.75, 384.61 434.48, 384.80 434.81 C 384.99 435.14, 384.75 435.77, 385.00 437.45 C 385.24 439.14, 385.40 440.60, 386.01 443.23 C 386.63 445.86, 387.22 447.43, 388.08 450.59 C 388.94 453.75, 389.49 455.67, 390.30 459.03 C 391.12 462.39, 391.58 464.16, 392.16 467.40 C 392.73 470.64, 392.97 472.20, 393.18 475.24 C 393.38 478.27, 393.47 479.80, 393.18 482.57 C 392.88 485.34, 392.59 486.55, 391.69 489.10 C 390.80 491.65, 390.08 493.07, 388.71 495.31 C 387.33 497.54, 386.50 498.57, 384.81 500.29 C 383.12 502.00, 382.10 502.82, 380.25 503.89 C 378.40 504.97, 377.37 505.32, 375.54 505.66 C 373.71 506.00, 372.76 505.99, 371.09 505.61 C 369.43 505.22, 368.67 504.51, 367.21 503.74 C 365.76 502.97, 365.01 502.45, 363.83 501.76 C 362.65 501.07, 361.98 500.42, 361.31 500.30 C 360.63 500.18, 360.29 500.44, 360.46 501.15 C 360.63 501.87, 361.11 502.80, 362.16 503.88 C 363.21 504.95, 364.03 505.59, 365.69 506.52 C 367.36 507.45, 368.40 508.12, 370.47 508.53 C 372.55 508.94, 373.82 508.96, 376.07 508.57 C 378.32 508.17, 379.55 507.75, 381.74 506.54 C 383.94 505.33, 385.10 504.42, 387.04 502.51 C 388.98 500.60, 389.92 499.46, 391.43 496.97 C 392.94 494.49, 393.67 492.91, 394.60 490.09 C 395.53 487.27, 395.80 485.87, 396.08 482.86 C 396.35 479.85, 396.21 478.22, 395.97 475.04 C 395.73 471.85, 395.45 470.25, 394.88 466.93 C 394.30 463.60, 393.82 461.82, 393.10 458.40 C 392.39 454.98, 391.94 453.07, 391.30 449.84 C 390.66 446.62, 390.60 444.95, 389.91 442.27 C 389.22 439.60, 388.78 438.16, 387.86 436.47 C 386.95 434.78, 386.38 434.18, 385.35 433.83 C 384.32 433.47, 383.86 433.69, 382.72 434.72 C 381.58 435.75, 380.97 436.50, 379.63 438.97 C 378.28 441.44, 377.76 443.16, 375.99 447.07 C 374.22 450.99, 373.17 453.48, 370.78 458.56 C 368.39 463.63, 366.99 466.85, 364.03 472.45 C 361.06 478.06, 359.38 481.24, 355.96 486.59 C 352.54 491.94, 350.66 494.68, 346.94 499.21 C 343.22 503.74, 341.18 505.88, 337.36 509.24 C 333.55 512.60, 331.52 514.03, 327.87 516.01 C 324.21 518.00, 322.39 518.70, 319.11 519.16 C 315.82 519.63, 314.21 519.57, 311.44 518.33 C 308.67 517.10, 307.34 516.13, 305.25 512.98 C 303.16 509.83, 302.20 507.69, 300.99 502.58 C 299.78 497.48, 299.25 494.05, 299.20 487.47 C 299.14 480.89, 299.50 476.84, 300.71 469.67 C 301.91 462.50, 303.00 458.34, 305.21 451.64 C 307.43 444.94, 309.01 441.41, 311.77 436.17 C 314.53 430.93, 316.26 428.67, 319.02 425.44 C 321.78 422.20, 323.40 421.47, 325.56 419.99 C 327.71 418.51, 328.43 418.16, 329.79 418.03 C 331.15 417.90, 331.61 418.34, 332.35 419.33 C 333.09 420.32, 333.34 421.07, 333.50 423.00 C 333.66 424.93, 333.65 426.26, 333.15 428.98 C 332.66 431.69, 332.18 433.41, 331.02 436.56 C 329.85 439.72, 329.07 441.49, 327.35 444.76 C 325.62 448.03, 324.59 449.80, 322.39 452.91 C 320.19 456.03, 318.84 457.67, 316.33 460.32 C 313.81 462.97, 312.39 464.16, 309.81 466.16 C 307.23 468.16, 305.69 469.04, 303.41 470.32 C 301.14 471.60, 300.07 471.89, 298.43 472.56 C 296.78 473.24, 296.17 473.37, 295.19 473.68 C 294.20 473.98, 293.88 473.77, 293.50 474.09 C 293.13 474.41, 292.92 474.83, 293.30 475.28" style="stroke: white; fill: white;"/><path d="M 446.96,427.96 C 446.20 427.72, 445.29 427.60, 443.47 428.00 C 441.65 428.39, 440.33 428.55, 437.85 429.92 C 435.37 431.29, 433.82 432.15, 431.05 434.84 C 428.29 437.54, 426.84 439.30, 424.01 443.39 C 421.18 447.48, 419.53 450.05, 416.89 455.30 C 414.25 460.54, 412.82 463.79, 410.82 469.62 C 408.82 475.44, 407.95 478.77, 406.90 484.42 C 405.85 490.06, 405.37 493.23, 405.56 497.84 C 405.75 502.45, 406.27 504.47, 407.85 507.48 C 409.44 510.50, 410.68 511.61, 413.49 512.91 C 416.30 514.21, 418.25 514.36, 421.89 513.98 C 425.53 513.60, 427.91 512.52, 431.69 511.01 C 435.48 509.51, 437.77 508.27, 440.81 506.46 C 443.85 504.64, 445.82 503.05, 446.89 501.92 C 447.97 500.78, 447.66 500.34, 446.20 500.80 C 444.73 501.26, 442.68 502.67, 439.58 504.22 C 436.48 505.77, 434.31 507.10, 430.71 508.55 C 427.11 510.00, 424.84 511.03, 421.59 511.47 C 418.33 511.91, 416.82 511.75, 414.45 510.76 C 412.08 509.76, 411.14 509.08, 409.73 506.48 C 408.32 503.88, 407.65 502.10, 407.42 497.75 C 407.18 493.40, 407.55 490.24, 408.54 484.72 C 409.54 479.20, 410.38 475.87, 412.37 470.15 C 414.35 464.43, 415.80 461.22, 418.47 456.11 C 421.14 451.00, 422.83 448.47, 425.71 444.62 C 428.59 440.76, 430.11 439.17, 432.87 436.85 C 435.64 434.53, 437.23 434.25, 439.54 433.01 C 441.84 431.77, 442.84 431.43, 444.38 430.67 C 445.92 429.91, 446.74 429.76, 447.25 429.22 C 447.77 428.68, 447.72 428.20, 446.96 427.96" style="stroke: white; fill: white;"/><path d="M 498.90,432.27 C 498.59 431.69, 498.08 431.08, 496.84 430.61 C 495.60 430.14, 494.69 429.73, 492.71 429.91 C 490.74 430.08, 489.33 429.98, 486.97 431.49 C 484.61 432.99, 483.42 434.20, 480.91 437.43 C 478.39 440.67, 476.91 442.78, 474.40 447.68 C 471.89 452.57, 470.38 455.84, 468.35 461.91 C 466.31 467.98, 465.35 471.98, 464.23 478.03 C 463.12 484.09, 462.76 487.38, 462.76 492.20 C 462.77 497.02, 463.06 499.26, 464.24 502.14 C 465.43 505.02, 466.58 505.81, 468.69 506.58 C 470.79 507.36, 472.35 507.13, 474.77 506.01 C 477.19 504.90, 478.41 503.80, 480.78 500.99 C 483.14 498.19, 484.29 496.31, 486.60 491.98 C 488.90 487.66, 490.19 484.81, 492.30 479.37 C 494.41 473.93, 495.44 470.45, 497.14 464.79 C 498.83 459.13, 499.55 455.84, 500.77 451.08 C 502.00 446.31, 502.81 443.91, 503.26 440.99 C 503.71 438.06, 503.38 436.93, 503.04 436.45 C 502.69 435.96, 502.03 436.49, 501.54 438.56 C 501.06 440.62, 500.86 442.47, 500.60 446.78 C 500.33 451.08, 500.30 454.28, 500.21 460.07 C 500.13 465.86, 500.10 469.56, 500.17 475.72 C 500.24 481.89, 500.32 485.47, 500.57 490.89 C 500.81 496.31, 500.80 498.82, 501.38 502.82 C 501.97 506.83, 502.23 508.76, 503.49 510.91 C 504.76 513.06, 506.04 513.25, 507.70 513.56 C 509.36 513.88, 510.49 513.32, 511.79 512.48 C 513.09 511.65, 513.96 510.22, 514.22 509.39 C 514.48 508.55, 513.83 508.08, 513.08 508.32 C 512.34 508.55, 511.53 509.85, 510.51 510.55 C 509.49 511.25, 509.02 511.97, 507.99 511.83 C 506.97 511.70, 506.30 511.74, 505.38 509.88 C 504.46 508.02, 504.02 506.33, 503.41 502.51 C 502.80 498.70, 502.62 496.16, 502.32 490.80 C 502.03 485.44, 501.93 481.85, 501.92 475.71 C 501.91 469.58, 502.03 465.88, 502.27 460.13 C 502.52 454.38, 502.87 451.22, 503.16 446.94 C 503.45 442.67, 503.83 440.88, 503.72 438.76 C 503.62 436.63, 503.18 435.98, 502.61 436.33 C 502.05 436.68, 501.64 437.64, 500.89 440.50 C 500.15 443.35, 499.98 445.86, 498.89 450.62 C 497.80 455.38, 497.11 458.67, 495.45 464.29 C 493.79 469.90, 492.73 473.36, 490.58 478.69 C 488.44 484.02, 487.07 486.82, 484.71 490.94 C 482.34 495.05, 480.98 496.70, 478.75 499.26 C 476.53 501.83, 475.49 502.63, 473.59 503.75 C 471.70 504.87, 470.75 505.35, 469.29 504.87 C 467.83 504.39, 467.23 503.87, 466.30 501.34 C 465.36 498.80, 464.69 496.78, 464.60 492.18 C 464.52 487.58, 464.80 484.28, 465.87 478.33 C 466.94 472.39, 467.91 468.40, 469.96 462.46 C 472.02 456.51, 473.56 453.28, 476.14 448.60 C 478.72 443.92, 480.36 441.91, 482.87 439.05 C 485.38 436.20, 486.66 435.50, 488.70 434.32 C 490.74 433.14, 491.56 433.35, 493.06 433.15 C 494.56 432.96, 495.14 433.28, 496.20 433.34 C 497.26 433.41, 497.83 433.71, 498.37 433.50 C 498.91 433.28, 499.20 432.84, 498.90 432.27" style="stroke: white; fill: white;"/><path d="M 531.24,444.88 C 530.82 445.78, 530.43 446.61, 530.30 449.43 C 530.16 452.25, 530.42 454.09, 530.55 458.99 C 530.68 463.89, 530.84 467.20, 530.96 473.92 C 531.07 480.64, 531.07 484.80, 531.12 492.60 C 531.16 500.41, 531.17 504.94, 531.19 512.93 C 531.22 520.92, 531.18 525.17, 531.24 532.55 C 531.29 539.93, 531.37 543.63, 531.49 549.84 C 531.61 556.05, 531.74 558.91, 531.83 563.58 C 531.92 568.26, 531.72 570.27, 531.94 573.20 C 532.16 576.14, 532.55 577.25, 532.95 578.24 C 533.35 579.24, 533.79 579.19, 533.94 578.16 C 534.09 577.13, 534.20 576.09, 533.71 573.09 C 533.22 570.09, 532.40 568.17, 531.49 563.16 C 530.58 558.15, 529.83 554.73, 529.15 548.04 C 528.47 541.35, 528.26 537.23, 528.11 529.71 C 527.96 522.19, 527.96 518.08, 528.40 510.43 C 528.83 502.78, 529.19 498.83, 530.28 491.47 C 531.37 484.10, 532.12 480.41, 533.83 473.61 C 535.53 466.81, 536.57 463.36, 538.81 457.47 C 541.06 451.59, 542.44 448.71, 545.05 444.17 C 547.66 439.63, 549.18 437.59, 551.86 434.75 C 554.55 431.91, 556.02 431.07, 558.47 429.97 C 560.92 428.87, 562.07 428.79, 564.11 429.24 C 566.16 429.70, 567.03 430.31, 568.70 432.24 C 570.36 434.17, 571.24 435.53, 572.46 438.89 C 573.68 442.24, 574.30 444.51, 574.80 449.01 C 575.29 453.51, 575.32 456.44, 574.93 461.36 C 574.54 466.29, 574.09 469.03, 572.84 473.62 C 571.59 478.21, 570.71 480.48, 568.68 484.32 C 566.65 488.15, 565.26 489.91, 562.70 492.78 C 560.15 495.66, 558.63 496.94, 555.91 498.71 C 553.20 500.48, 551.68 500.97, 549.14 501.64 C 546.59 502.31, 545.26 502.31, 543.20 502.05 C 541.13 501.79, 540.17 501.44, 538.82 500.34 C 537.47 499.24, 537.14 498.09, 536.44 496.54 C 535.73 494.99, 535.64 493.94, 535.29 492.59 C 534.93 491.24, 535.02 490.36, 534.67 489.79 C 534.32 489.21, 533.93 489.11, 533.53 489.74 C 533.13 490.36, 532.64 491.30, 532.65 492.92 C 532.67 494.54, 532.72 495.93, 533.61 497.85 C 534.51 499.77, 535.29 501.13, 537.13 502.51 C 538.97 503.90, 540.28 504.39, 542.83 504.76 C 545.38 505.13, 546.99 505.18, 549.88 504.37 C 552.77 503.57, 554.40 502.77, 557.29 500.74 C 560.18 498.70, 561.71 497.30, 564.33 494.20 C 566.96 491.10, 568.36 489.25, 570.43 485.23 C 572.51 481.22, 573.41 478.87, 574.71 474.13 C 576.01 469.39, 576.47 466.60, 576.94 461.54 C 577.40 456.47, 577.43 453.49, 577.02 448.79 C 576.60 444.09, 576.12 441.72, 574.87 438.04 C 573.62 434.36, 572.83 432.60, 570.77 430.38 C 568.71 428.16, 567.24 427.47, 564.58 426.96 C 561.93 426.45, 560.32 426.54, 557.50 427.84 C 554.67 429.14, 553.22 430.35, 550.45 433.46 C 547.68 436.57, 546.24 438.68, 543.66 443.39 C 541.07 448.09, 539.73 451.00, 537.51 456.99 C 535.30 462.97, 534.28 466.45, 532.60 473.31 C 530.91 480.17, 530.16 483.88, 529.07 491.29 C 527.99 498.70, 527.62 502.67, 527.16 510.36 C 526.69 518.05, 526.68 522.17, 526.75 529.73 C 526.82 537.30, 527.01 541.43, 527.51 548.19 C 528.01 554.94, 528.61 558.40, 529.24 563.50 C 529.87 568.60, 529.97 570.68, 530.66 573.68 C 531.34 576.69, 531.95 577.62, 532.66 578.53 C 533.36 579.43, 533.84 579.30, 534.18 578.21 C 534.53 577.12, 534.50 576.00, 534.38 573.06 C 534.25 570.12, 533.84 568.16, 533.55 563.51 C 533.25 558.86, 533.10 556.00, 532.88 549.80 C 532.67 543.61, 532.58 539.92, 532.49 532.54 C 532.40 525.17, 532.44 520.92, 532.43 512.93 C 532.43 504.94, 532.43 500.41, 532.47 492.60 C 532.50 484.80, 532.56 480.64, 532.61 473.91 C 532.65 467.19, 532.63 463.87, 532.70 458.98 C 532.77 454.09, 533.03 452.28, 532.97 449.47 C 532.92 446.66, 532.76 445.85, 532.41 444.93 C 532.07 444.02, 531.66 443.98, 531.24 444.88" style="stroke: white; fill: white;"/><path d="M 617.15,443.87 C 617.04 443.36, 616.74 442.84, 615.96 442.49 C 615.18 442.13, 614.54 441.96, 613.25 442.11 C 611.95 442.26, 611.24 442.34, 609.48 443.23 C 607.72 444.11, 606.66 444.45, 604.46 446.52 C 602.25 448.60, 600.95 449.94, 598.45 453.61 C 595.95 457.28, 594.44 459.71, 591.96 464.87 C 589.49 470.03, 588.10 473.42, 586.09 479.43 C 584.08 485.44, 583.13 489.20, 581.91 494.93 C 580.68 500.65, 580.24 503.71, 579.97 508.07 C 579.71 512.43, 579.80 514.15, 580.59 516.74 C 581.38 519.33, 582.26 520.16, 583.94 521.03 C 585.61 521.89, 586.85 521.98, 588.97 521.07 C 591.09 520.16, 592.36 519.14, 594.54 516.47 C 596.73 513.81, 597.74 512.10, 599.89 507.76 C 602.04 503.43, 603.16 500.58, 605.30 494.81 C 607.43 489.04, 608.52 485.40, 610.57 478.92 C 612.61 472.44, 613.62 468.40, 615.52 462.40 C 617.41 456.40, 618.66 453.21, 620.05 448.92 C 621.44 444.64, 622.04 442.74, 622.46 440.97 C 622.88 439.19, 622.42 438.87, 622.14 440.05 C 621.86 441.24, 621.46 442.96, 621.06 446.89 C 620.66 450.82, 620.49 453.96, 620.14 459.70 C 619.80 465.44, 619.58 469.18, 619.33 475.58 C 619.07 481.97, 618.90 485.78, 618.87 491.68 C 618.84 497.59, 618.92 500.57, 619.19 505.11 C 619.45 509.65, 619.65 511.52, 620.19 514.38 C 620.72 517.24, 621.23 518.02, 621.84 519.41 C 622.45 520.80, 622.84 520.99, 623.23 521.32 C 623.62 521.65, 623.79 521.52, 623.81 521.05 C 623.84 520.58, 623.59 520.37, 623.35 518.95 C 623.10 517.54, 623.05 516.76, 622.59 513.96 C 622.13 511.16, 621.47 509.42, 621.06 504.97 C 620.65 500.51, 620.54 497.55, 620.54 491.69 C 620.54 485.83, 620.71 482.02, 621.05 475.66 C 621.39 469.29, 621.76 465.57, 622.26 459.86 C 622.76 454.14, 623.32 451.07, 623.53 447.08 C 623.74 443.10, 623.80 441.30, 623.30 439.95 C 622.80 438.61, 622.04 438.69, 621.02 440.36 C 620.00 442.04, 619.60 444.01, 618.20 448.32 C 616.79 452.63, 615.82 455.90, 613.99 461.93 C 612.17 467.95, 611.15 472.00, 609.08 478.45 C 607.02 484.90, 605.90 488.53, 603.67 494.19 C 601.45 499.85, 600.22 502.66, 597.96 506.75 C 595.69 510.84, 594.36 512.22, 592.34 514.66 C 590.32 517.09, 589.38 517.93, 587.85 518.91 C 586.32 519.89, 585.73 520.11, 584.70 519.56 C 583.67 519.01, 583.26 518.43, 582.70 516.16 C 582.14 513.88, 581.74 512.34, 581.92 508.17 C 582.09 503.99, 582.42 500.91, 583.58 495.27 C 584.73 489.63, 585.67 485.88, 587.69 479.97 C 589.71 474.06, 591.13 470.70, 593.67 465.71 C 596.22 460.73, 597.80 458.37, 600.41 455.04 C 603.02 451.71, 604.60 450.84, 606.72 449.07 C 608.85 447.30, 609.61 446.95, 611.02 446.19 C 612.43 445.42, 612.92 445.48, 613.79 445.25 C 614.66 445.03, 614.83 445.10, 615.37 445.05 C 615.90 445.00, 616.12 445.25, 616.47 445.01 C 616.83 444.78, 617.25 444.37, 617.15 443.87" style="stroke: white; fill: white;"/><path d="M 675.83,453.38 C 675.88 452.63, 675.80 451.69, 674.95 450.33 C 674.10 448.98, 673.34 447.74, 671.59 446.60 C 669.85 445.45, 668.56 444.73, 666.23 444.61 C 663.89 444.50, 662.50 444.63, 659.91 446.04 C 657.32 447.46, 655.87 448.66, 653.28 451.71 C 650.69 454.76, 649.33 456.77, 646.95 461.31 C 644.57 465.84, 643.29 468.79, 641.37 474.39 C 639.46 479.98, 638.51 483.41, 637.37 489.30 C 636.23 495.19, 635.87 498.59, 635.67 503.84 C 635.46 509.08, 635.62 511.75, 636.35 515.52 C 637.07 519.29, 637.74 520.80, 639.28 522.68 C 640.83 524.55, 641.94 525.04, 644.08 524.91 C 646.22 524.77, 647.54 524.16, 649.98 521.98 C 652.42 519.80, 653.66 518.17, 656.27 514.01 C 658.89 509.84, 660.33 507.21, 663.07 501.15 C 665.81 495.09, 667.31 491.36, 669.98 483.71 C 672.66 476.06, 674.02 471.40, 676.44 462.88 C 678.86 454.35, 680.00 449.43, 682.08 441.08 C 684.16 432.74, 685.20 428.31, 686.86 421.16 C 688.51 414.01, 689.23 410.57, 690.36 405.36 C 691.49 400.14, 692.13 398.05, 692.51 395.09 C 692.90 392.13, 692.64 391.15, 692.29 390.56 C 691.93 389.97, 691.31 390.35, 690.74 392.15 C 690.18 393.94, 690.04 395.39, 689.46 399.54 C 688.88 403.70, 688.55 406.57, 687.83 412.93 C 687.12 419.30, 686.67 423.52, 685.88 431.39 C 685.10 439.25, 684.61 443.99, 683.91 452.26 C 683.21 460.54, 682.76 465.15, 682.36 472.78 C 681.97 480.41, 681.89 484.18, 681.95 490.42 C 682.00 496.65, 682.14 499.52, 682.62 503.95 C 683.10 508.39, 683.27 510.03, 684.34 512.58 C 685.41 515.12, 686.28 515.86, 687.97 516.68 C 689.66 517.50, 690.72 517.50, 692.78 516.69 C 694.84 515.89, 696.08 515.04, 698.28 512.67 C 700.48 510.30, 701.46 508.62, 703.78 504.84 C 706.10 501.06, 707.42 498.67, 709.87 493.78 C 712.31 488.89, 713.62 485.90, 716.01 480.39 C 718.40 474.88, 719.68 471.70, 721.83 466.26 C 723.97 460.81, 725.13 457.88, 726.74 453.16 C 728.35 448.44, 729.11 446.19, 729.89 442.65 C 730.67 439.11, 730.84 437.62, 730.65 435.46 C 730.46 433.30, 730.04 432.56, 728.93 431.84 C 727.82 431.13, 726.85 431.02, 725.09 431.89 C 723.34 432.75, 722.22 433.43, 720.15 436.18 C 718.08 438.92, 716.82 440.95, 714.73 445.61 C 712.64 450.27, 711.38 453.37, 709.71 459.46 C 708.04 465.56, 707.24 469.45, 706.37 476.08 C 705.50 482.71, 705.29 486.61, 705.36 492.59 C 705.44 498.58, 705.70 501.51, 706.76 505.99 C 707.82 510.48, 708.64 512.32, 710.67 515.03 C 712.71 517.74, 714.17 518.59, 716.93 519.54 C 719.69 520.49, 721.28 520.43, 724.46 519.77 C 727.64 519.12, 729.64 518.06, 732.82 516.26 C 736.00 514.46, 737.90 512.90, 740.34 510.77 C 742.79 508.65, 744.28 506.86, 745.05 505.63 C 745.81 504.40, 745.45 504.04, 744.16 504.62 C 742.87 505.20, 741.13 506.71, 738.58 508.53 C 736.02 510.35, 734.31 512.01, 731.37 513.73 C 728.42 515.44, 726.59 516.40, 723.84 517.11 C 721.10 517.83, 719.95 517.97, 717.65 517.30 C 715.35 516.62, 714.18 516.09, 712.35 513.74 C 710.52 511.40, 709.57 509.80, 708.49 505.57 C 707.41 501.33, 707.07 498.43, 706.95 492.57 C 706.84 486.71, 707.04 482.81, 707.92 476.29 C 708.81 469.76, 709.62 465.88, 711.38 459.94 C 713.14 453.99, 714.49 450.95, 716.72 446.56 C 718.95 442.17, 720.61 440.53, 722.54 437.98 C 724.47 435.44, 725.23 434.85, 726.36 433.83 C 727.50 432.81, 727.80 432.53, 728.24 432.87 C 728.67 433.20, 728.63 433.64, 728.52 435.50 C 728.42 437.37, 728.41 438.76, 727.71 442.18 C 727.00 445.60, 726.50 447.89, 725.01 452.59 C 723.52 457.28, 722.38 460.22, 720.27 465.65 C 718.16 471.07, 716.87 474.25, 714.45 479.70 C 712.02 485.15, 710.69 488.13, 708.15 492.90 C 705.61 497.66, 704.19 499.99, 701.77 503.53 C 699.34 507.08, 698.05 508.41, 696.04 510.61 C 694.04 512.81, 693.20 513.63, 691.73 514.54 C 690.27 515.46, 689.79 515.74, 688.71 515.18 C 687.63 514.63, 687.22 514.06, 686.34 511.77 C 685.47 509.48, 684.94 508.02, 684.34 503.74 C 683.74 499.46, 683.48 496.57, 683.33 490.39 C 683.18 484.21, 683.23 480.45, 683.60 472.84 C 683.96 465.24, 684.41 460.63, 685.14 452.37 C 685.87 444.11, 686.36 439.37, 687.26 431.53 C 688.16 423.69, 688.70 419.49, 689.62 413.17 C 690.55 406.84, 691.28 404.04, 691.89 399.89 C 692.51 395.75, 692.72 394.31, 692.70 392.43 C 692.67 390.56, 692.22 390.05, 691.76 390.51 C 691.31 390.98, 691.01 391.84, 690.43 394.75 C 689.85 397.66, 689.82 399.83, 688.87 405.06 C 687.91 410.29, 687.24 413.74, 685.66 420.89 C 684.08 428.04, 683.05 432.48, 680.99 440.81 C 678.92 449.15, 677.78 454.07, 675.34 462.56 C 672.90 471.05, 671.51 475.70, 668.77 483.28 C 666.03 490.86, 664.48 494.56, 661.63 500.48 C 658.78 506.39, 657.21 508.94, 654.51 512.85 C 651.82 516.75, 650.28 517.97, 648.15 520.01 C 646.02 522.05, 645.31 522.76, 643.86 523.05 C 642.40 523.34, 641.97 523.05, 640.88 521.46 C 639.80 519.88, 639.12 518.63, 638.43 515.12 C 637.75 511.61, 637.34 508.99, 637.46 503.89 C 637.58 498.79, 637.91 495.41, 639.03 489.63 C 640.15 483.84, 641.10 480.44, 643.05 474.97 C 645.00 469.50, 646.34 466.61, 648.76 462.29 C 651.19 457.98, 652.66 456.10, 655.18 453.41 C 657.71 450.71, 659.24 449.96, 661.40 448.81 C 663.57 447.67, 664.39 447.52, 666.03 447.67 C 667.66 447.82, 668.28 448.62, 669.58 449.55 C 670.88 450.48, 671.52 451.41, 672.54 452.32 C 673.56 453.23, 674.04 453.88, 674.69 454.10 C 675.35 454.31, 675.78 454.13, 675.83 453.38" style="stroke: white; fill: white;"/><path d="M 774.79,433.13 C 774.37 432.50, 773.66 431.73, 772.18 431.22 C 770.69 430.71, 769.49 430.36, 767.36 430.59 C 765.23 430.81, 763.78 431.06, 761.52 432.35 C 759.26 433.64, 757.99 434.77, 756.06 437.04 C 754.14 439.31, 753.26 440.82, 751.89 443.69 C 750.51 446.57, 749.75 448.29, 749.19 451.43 C 748.63 454.56, 748.54 456.31, 749.09 459.37 C 749.64 462.44, 750.36 463.97, 751.96 466.76 C 753.56 469.55, 754.72 470.78, 757.08 473.32 C 759.43 475.87, 761.09 477.03, 763.73 479.49 C 766.37 481.96, 767.91 483.16, 770.28 485.63 C 772.65 488.10, 773.84 489.36, 775.58 491.86 C 777.32 494.35, 778.08 495.72, 778.98 498.10 C 779.88 500.49, 780.18 501.67, 780.08 503.80 C 779.97 505.94, 779.59 506.90, 778.45 508.80 C 777.31 510.70, 776.34 511.63, 774.38 513.30 C 772.41 514.97, 771.15 515.79, 768.61 517.16 C 766.07 518.52, 764.43 519.18, 761.67 520.13 C 758.91 521.08, 757.30 521.49, 754.83 521.91 C 752.36 522.32, 751.15 522.35, 749.33 522.21 C 747.51 522.07, 746.70 521.83, 745.74 521.19 C 744.78 520.54, 744.52 520.10, 744.52 518.99 C 744.53 517.88, 744.83 517.16, 745.78 515.63 C 746.73 514.10, 747.51 513.21, 749.26 511.34 C 751.02 509.47, 752.06 508.33, 754.55 506.27 C 757.04 504.22, 758.56 503.20, 761.71 501.06 C 764.86 498.91, 766.67 497.94, 770.29 495.56 C 773.91 493.17, 775.88 491.82, 779.81 489.14 C 783.73 486.46, 785.92 485.07, 789.91 482.16 C 793.90 479.25, 796.01 477.73, 799.76 474.60 C 803.51 471.47, 805.39 469.75, 808.67 466.50 C 811.95 463.26, 813.49 461.70, 816.15 458.38 C 818.81 455.06, 820.04 453.31, 821.98 449.91 C 823.92 446.50, 824.72 444.61, 825.86 441.36 C 827.00 438.10, 827.45 436.50, 827.69 433.63 C 827.92 430.77, 827.76 429.33, 827.04 427.04 C 826.33 424.75, 825.60 423.52, 824.12 422.17 C 822.64 420.82, 821.54 420.40, 819.64 420.31 C 817.74 420.22, 816.63 420.41, 814.62 421.71 C 812.61 423.01, 811.47 423.97, 809.58 426.79 C 807.69 429.61, 806.89 431.59, 805.17 435.83 C 803.44 440.06, 802.47 442.73, 800.97 447.96 C 799.47 453.19, 798.63 456.32, 797.66 462.00 C 796.69 467.67, 796.43 470.92, 796.14 476.35 C 795.85 481.77, 795.85 484.52, 796.23 489.12 C 796.61 493.72, 797.02 495.69, 798.05 499.35 C 799.08 503.00, 799.81 504.75, 801.38 507.41 C 802.96 510.07, 803.94 511.20, 805.93 512.66 C 807.92 514.11, 809.07 514.51, 811.33 514.69 C 813.58 514.87, 814.88 514.68, 817.21 513.55 C 819.55 512.41, 820.77 511.60, 823.01 509.01 C 825.24 506.43, 826.27 504.67, 828.38 500.60 C 830.49 496.54, 831.50 493.99, 833.55 488.71 C 835.59 483.43, 836.64 480.15, 838.61 474.20 C 840.59 468.26, 841.57 464.70, 843.41 458.98 C 845.25 453.27, 846.10 450.26, 847.82 445.61 C 849.53 440.97, 850.58 438.90, 851.98 435.76 C 853.38 432.62, 854.03 431.43, 854.84 429.91 C 855.64 428.40, 855.73 427.85, 856.02 428.20 C 856.30 428.54, 856.10 429.21, 856.25 431.63 C 856.39 434.05, 856.61 435.93, 856.74 440.29 C 856.87 444.64, 856.89 447.74, 856.90 453.41 C 856.91 459.08, 856.84 462.77, 856.79 468.65 C 856.73 474.53, 856.63 477.76, 856.64 482.81 C 856.64 487.86, 856.64 490.30, 856.82 493.89 C 857.01 497.49, 857.11 498.84, 857.57 500.77 C 858.03 502.70, 858.34 503.23, 859.11 503.57 C 859.87 503.90, 860.49 503.85, 861.37 502.43 C 862.25 501.01, 862.65 499.80, 863.49 496.48 C 864.33 493.16, 864.32 490.84, 865.56 485.83 C 866.80 480.82, 867.66 477.46, 869.70 471.44 C 871.74 465.42, 873.21 461.54, 875.76 455.73 C 878.31 449.91, 879.85 446.71, 882.45 442.37 C 885.05 438.03, 886.58 436.20, 888.75 434.03 C 890.93 431.85, 891.83 431.40, 893.34 431.50 C 894.84 431.59, 895.16 432.42, 896.27 434.51 C 897.39 436.60, 898.00 438.28, 898.92 441.94 C 899.83 445.60, 900.33 448.09, 900.84 452.83 C 901.36 457.58, 901.36 460.57, 901.48 465.66 C 901.60 470.74, 901.51 473.46, 901.45 478.26 C 901.40 483.06, 901.30 485.57, 901.21 489.65 C 901.12 493.74, 900.87 495.65, 901.01 498.69 C 901.15 501.73, 901.43 503.06, 901.92 504.85 C 902.40 506.63, 902.78 506.86, 903.42 507.63 C 904.05 508.40, 904.42 508.59, 905.09 508.70 C 905.76 508.82, 906.36 508.59, 906.77 508.21 C 907.18 507.83, 907.37 507.20, 907.14 506.81 C 906.91 506.41, 906.01 506.19, 905.61 506.24 C 905.21 506.29, 905.21 506.79, 905.16 507.04 C 905.11 507.30, 905.44 507.55, 905.37 507.50 C 905.30 507.44, 905.05 507.38, 904.81 506.76 C 904.57 506.14, 904.38 506.02, 904.16 504.38 C 903.94 502.74, 903.85 501.50, 903.69 498.56 C 903.53 495.61, 903.43 493.72, 903.37 489.66 C 903.32 485.61, 903.40 483.08, 903.42 478.27 C 903.44 473.46, 903.54 470.75, 903.47 465.62 C 903.40 460.49, 903.48 457.48, 903.07 452.62 C 902.66 447.76, 902.36 445.21, 901.43 441.32 C 900.49 437.44, 900.00 435.49, 898.40 433.19 C 896.81 430.90, 895.66 429.98, 893.44 429.84 C 891.22 429.71, 889.81 430.19, 887.30 432.52 C 884.80 434.85, 883.54 436.96, 880.93 441.47 C 878.32 445.98, 876.84 449.19, 874.26 455.07 C 871.68 460.95, 870.21 464.83, 868.05 470.86 C 865.88 476.90, 864.93 480.27, 863.42 485.24 C 861.91 490.21, 861.32 492.44, 860.50 495.73 C 859.68 499.01, 859.52 500.20, 859.32 501.67 C 859.12 503.14, 859.44 503.32, 859.51 503.08 C 859.58 502.84, 859.75 502.33, 859.66 500.47 C 859.57 498.61, 859.30 497.30, 859.06 493.76 C 858.83 490.23, 858.59 487.81, 858.50 482.79 C 858.40 477.77, 858.50 474.54, 858.59 468.67 C 858.67 462.80, 858.79 459.12, 858.93 453.44 C 859.07 447.75, 859.27 444.70, 859.30 440.26 C 859.33 435.82, 859.64 433.82, 859.09 431.23 C 858.53 428.65, 857.69 427.80, 856.52 427.31 C 855.35 426.83, 854.57 427.29, 853.25 428.80 C 851.94 430.31, 851.36 431.61, 849.94 434.85 C 848.51 438.10, 847.75 440.29, 846.13 445.01 C 844.52 449.74, 843.68 452.76, 841.86 458.49 C 840.04 464.22, 839.05 467.77, 837.04 473.68 C 835.04 479.58, 833.95 482.85, 831.82 488.02 C 829.70 493.19, 828.59 495.71, 826.41 499.53 C 824.22 503.35, 822.99 504.84, 820.89 507.14 C 818.79 509.43, 817.80 509.99, 815.92 511.01 C 814.04 512.02, 813.18 512.29, 811.48 512.22 C 809.79 512.15, 809.02 511.88, 807.45 510.64 C 805.88 509.41, 805.10 508.43, 803.63 506.05 C 802.16 503.67, 801.22 502.14, 800.12 498.72 C 799.01 495.30, 798.54 493.41, 798.10 488.95 C 797.65 484.49, 797.63 481.76, 797.89 476.43 C 798.15 471.10, 798.41 467.88, 799.39 462.30 C 800.38 456.71, 801.25 453.62, 802.83 448.52 C 804.42 443.41, 805.48 440.77, 807.32 436.76 C 809.17 432.76, 810.26 431.02, 812.05 428.49 C 813.84 425.95, 814.76 425.24, 816.27 424.08 C 817.78 422.92, 818.36 422.73, 819.58 422.71 C 820.80 422.69, 821.40 422.96, 822.37 423.98 C 823.33 425.00, 823.92 425.91, 824.41 427.80 C 824.90 429.68, 825.03 430.85, 824.83 433.40 C 824.63 435.95, 824.40 437.47, 823.43 440.55 C 822.47 443.63, 821.79 445.50, 820.01 448.81 C 818.23 452.12, 817.08 453.84, 814.53 457.10 C 811.99 460.36, 810.50 461.92, 807.30 465.12 C 804.10 468.33, 802.24 470.04, 798.54 473.13 C 794.83 476.23, 792.75 477.73, 788.78 480.59 C 784.81 483.46, 782.61 484.83, 778.67 487.45 C 774.73 490.07, 772.76 491.39, 769.09 493.68 C 765.42 495.98, 763.60 496.89, 760.32 498.93 C 757.04 500.97, 755.42 501.88, 752.69 503.88 C 749.96 505.87, 748.60 506.83, 746.66 508.90 C 744.72 510.96, 743.88 512.12, 742.98 514.18 C 742.07 516.25, 741.86 517.44, 742.12 519.20 C 742.39 520.97, 742.96 521.86, 744.32 523.02 C 745.68 524.18, 746.74 524.58, 748.94 524.99 C 751.14 525.41, 752.55 525.47, 755.31 525.10 C 758.07 524.74, 759.75 524.19, 762.72 523.16 C 765.68 522.14, 767.37 521.47, 770.13 519.99 C 772.89 518.50, 774.35 517.70, 776.52 515.75 C 778.69 513.79, 779.73 512.59, 780.99 510.23 C 782.25 507.87, 782.68 506.58, 782.83 503.95 C 782.98 501.32, 782.74 499.82, 781.74 497.08 C 780.75 494.34, 779.76 492.91, 777.85 490.25 C 775.95 487.59, 774.67 486.31, 772.21 483.77 C 769.75 481.23, 768.19 479.99, 765.57 477.53 C 762.95 475.07, 761.33 473.90, 759.10 471.46 C 756.87 469.03, 755.85 467.88, 754.43 465.36 C 753.01 462.84, 752.45 461.54, 752.00 458.87 C 751.55 456.19, 751.64 454.74, 752.20 452.00 C 752.76 449.25, 753.49 447.67, 754.80 445.14 C 756.10 442.61, 757.05 441.29, 758.75 439.35 C 760.45 437.40, 761.48 436.48, 763.29 435.41 C 765.10 434.35, 766.14 434.29, 767.80 434.03 C 769.46 433.77, 770.28 434.03, 771.57 434.11 C 772.86 434.18, 773.62 434.60, 774.26 434.40 C 774.91 434.21, 775.21 433.77, 774.79 433.13" style="stroke: white; fill: white;"/><path d="M 934.23,434.01 C 933.77 434.87, 933.40 435.67, 933.15 438.37 C 932.89 441.07, 933.12 442.89, 932.94 447.50 C 932.77 452.11, 932.65 455.14, 932.28 461.43 C 931.92 467.72, 931.73 471.56, 931.11 478.96 C 930.49 486.35, 929.97 490.65, 929.18 498.41 C 928.39 506.18, 927.90 510.32, 927.16 517.77 C 926.43 525.23, 926.06 529.12, 925.51 535.69 C 924.96 542.27, 924.79 545.46, 924.40 550.65 C 924.01 555.83, 923.76 558.13, 923.58 561.62 C 923.39 565.11, 923.38 566.45, 923.47 568.10 C 923.56 569.75, 923.85 570.05, 924.02 569.89 C 924.19 569.72, 924.42 569.17, 924.33 567.26 C 924.24 565.36, 923.99 564.06, 923.58 560.37 C 923.17 556.68, 922.70 554.26, 922.28 548.80 C 921.86 543.33, 921.58 539.92, 921.48 533.03 C 921.37 526.14, 921.43 522.02, 921.76 514.34 C 922.10 506.66, 922.24 502.35, 923.15 494.63 C 924.06 486.91, 924.76 482.82, 926.31 475.72 C 927.86 468.62, 928.82 465.16, 930.90 459.14 C 932.98 453.12, 934.20 450.32, 936.69 445.63 C 939.18 440.94, 940.65 438.84, 943.35 435.70 C 946.05 432.56, 947.50 431.51, 950.20 429.93 C 952.90 428.35, 954.27 427.99, 956.86 427.80 C 959.45 427.61, 960.74 427.83, 963.15 428.98 C 965.57 430.14, 966.81 431.12, 968.93 433.57 C 971.05 436.03, 972.16 437.71, 973.77 441.26 C 975.37 444.82, 976.14 447.12, 976.94 451.33 C 977.75 455.55, 977.93 457.97, 977.79 462.34 C 977.65 466.71, 977.30 469.04, 976.26 473.18 C 975.22 477.32, 974.46 479.42, 972.60 483.03 C 970.75 486.63, 969.47 488.34, 966.98 491.21 C 964.49 494.08, 962.95 495.37, 960.14 497.37 C 957.33 499.38, 955.85 500.14, 952.93 501.23 C 950.02 502.32, 948.31 502.54, 945.57 502.82 C 942.83 503.11, 941.54 503.02, 939.23 502.64 C 936.92 502.27, 935.76 501.78, 934.02 500.94 C 932.28 500.10, 931.66 499.34, 930.52 498.45 C 929.38 497.56, 928.93 496.74, 928.31 496.47 C 927.69 496.20, 927.32 496.37, 927.42 497.10 C 927.53 497.84, 927.76 498.87, 928.81 500.17 C 929.86 501.46, 930.67 502.49, 932.66 503.57 C 934.65 504.66, 936.11 505.16, 938.75 505.59 C 941.40 506.02, 942.88 506.10, 945.91 505.72 C 948.93 505.34, 950.76 504.95, 953.89 503.67 C 957.02 502.39, 958.60 501.52, 961.56 499.31 C 964.51 497.11, 966.10 495.73, 968.69 492.67 C 971.28 489.60, 972.58 487.79, 974.49 483.99 C 976.41 480.20, 977.19 478.00, 978.27 473.69 C 979.35 469.37, 979.72 466.96, 979.89 462.41 C 980.06 457.86, 979.91 455.36, 979.12 450.93 C 978.34 446.51, 977.61 444.11, 975.97 440.29 C 974.33 436.48, 973.26 434.62, 970.92 431.87 C 968.59 429.11, 967.17 427.84, 964.31 426.52 C 961.45 425.20, 959.69 424.95, 956.64 425.26 C 953.58 425.56, 951.99 426.19, 949.05 428.05 C 946.11 429.90, 944.69 431.15, 941.94 434.52 C 939.19 437.90, 937.78 440.08, 935.32 444.92 C 932.86 449.75, 931.67 452.60, 929.62 458.70 C 927.57 464.81, 926.62 468.30, 925.08 475.46 C 923.55 482.61, 922.85 486.72, 921.93 494.48 C 921.00 502.25, 920.84 506.56, 920.45 514.27 C 920.05 521.98, 919.97 526.11, 919.94 533.04 C 919.91 539.96, 920.12 543.38, 920.28 548.90 C 920.43 554.42, 920.43 556.87, 920.73 560.64 C 921.02 564.41, 921.14 565.82, 921.76 567.74 C 922.39 569.66, 923.13 570.15, 923.83 570.25 C 924.54 570.36, 924.91 569.96, 925.29 568.26 C 925.66 566.55, 925.57 565.23, 925.72 561.72 C 925.86 558.22, 925.78 555.93, 926.00 550.74 C 926.23 545.56, 926.38 542.37, 926.86 535.80 C 927.34 529.23, 927.70 525.34, 928.41 517.89 C 929.13 510.44, 929.62 506.31, 930.44 498.54 C 931.26 490.78, 931.80 486.48, 932.51 479.08 C 933.23 471.68, 933.48 467.84, 934.02 461.55 C 934.56 455.26, 934.84 452.24, 935.21 447.64 C 935.58 443.03, 935.83 441.23, 935.87 438.52 C 935.90 435.81, 935.73 435.00, 935.40 434.10 C 935.08 433.19, 934.68 433.16, 934.23 434.01" style="stroke: white; fill: white;"/><path d="M 1019.67,438.57 C 1019.75 438.08, 1019.53 437.67, 1019.03 437.21 C 1018.53 436.75, 1018.16 436.39, 1017.17 436.27 C 1016.17 436.16, 1015.41 436.13, 1014.06 436.64 C 1012.71 437.15, 1012.09 437.27, 1010.42 438.83 C 1008.75 440.38, 1007.78 441.41, 1005.70 444.40 C 1003.62 447.39, 1002.41 449.33, 1000.03 453.77 C 997.65 458.20, 996.13 461.02, 993.79 466.57 C 991.44 472.12, 990.12 475.68, 988.31 481.51 C 986.50 487.34, 985.66 490.63, 984.74 495.72 C 983.83 500.80, 983.56 503.21, 983.72 506.94 C 983.89 510.68, 984.33 512.20, 985.56 514.37 C 986.79 516.54, 987.73 517.27, 989.88 517.79 C 992.03 518.30, 993.75 518.22, 996.31 516.95 C 998.87 515.68, 1000.20 514.35, 1002.69 511.43 C 1005.17 508.51, 1006.33 506.59, 1008.75 502.37 C 1011.17 498.14, 1012.59 495.47, 1014.79 490.29 C 1016.99 485.12, 1017.96 481.97, 1019.77 476.49 C 1021.58 471.00, 1022.39 467.76, 1023.83 462.86 C 1025.27 457.97, 1026.22 455.49, 1026.98 452.03 C 1027.74 448.57, 1027.76 446.96, 1027.63 445.56 C 1027.49 444.16, 1026.89 444.01, 1026.31 445.03 C 1025.72 446.05, 1025.12 447.37, 1024.69 450.67 C 1024.25 453.98, 1024.29 456.52, 1024.12 461.54 C 1023.95 466.56, 1023.91 470.02, 1023.82 475.78 C 1023.74 481.55, 1023.59 484.92, 1023.68 490.36 C 1023.77 495.81, 1023.85 498.56, 1024.26 503.00 C 1024.67 507.43, 1024.83 509.53, 1025.71 512.56 C 1026.58 515.58, 1027.22 516.65, 1028.62 518.14 C 1030.03 519.62, 1031.15 520.14, 1032.74 519.98 C 1034.33 519.82, 1035.30 518.96, 1036.57 517.33 C 1037.85 515.69, 1038.57 513.99, 1039.11 511.78 C 1039.66 509.58, 1039.60 507.46, 1039.30 506.28 C 1039.00 505.10, 1038.39 505.02, 1037.62 505.89 C 1036.85 506.77, 1036.18 508.68, 1035.44 510.66 C 1034.70 512.63, 1034.53 514.24, 1033.93 515.77 C 1033.34 517.31, 1033.22 518.11, 1032.47 518.32 C 1031.73 518.54, 1031.09 518.12, 1030.20 516.83 C 1029.32 515.55, 1028.85 514.69, 1028.05 511.89 C 1027.26 509.08, 1026.74 507.10, 1026.23 502.79 C 1025.72 498.48, 1025.60 495.73, 1025.50 490.33 C 1025.41 484.94, 1025.55 481.56, 1025.76 475.83 C 1025.98 470.10, 1026.20 466.65, 1026.58 461.68 C 1026.96 456.70, 1027.47 454.25, 1027.67 450.96 C 1027.86 447.67, 1027.84 446.33, 1027.55 445.20 C 1027.26 444.08, 1026.80 444.07, 1026.22 445.32 C 1025.64 446.58, 1025.48 448.08, 1024.64 451.48 C 1023.80 454.89, 1023.33 457.46, 1022.02 462.36 C 1020.71 467.25, 1019.89 470.50, 1018.11 475.94 C 1016.32 481.38, 1015.33 484.49, 1013.09 489.56 C 1010.85 494.62, 1009.38 497.25, 1006.90 501.27 C 1004.42 505.29, 1003.09 507.05, 1000.69 509.67 C 998.30 512.29, 997.01 513.15, 994.93 514.37 C 992.84 515.59, 991.78 515.97, 990.28 515.77 C 988.77 515.58, 988.29 515.17, 987.40 513.38 C 986.51 511.60, 986.01 510.32, 985.83 506.84 C 985.65 503.37, 985.69 500.99, 986.51 496.02 C 987.33 491.05, 988.14 487.76, 989.93 482.02 C 991.71 476.27, 993.04 472.72, 995.44 467.28 C 997.84 461.85, 999.40 459.07, 1001.93 454.84 C 1004.46 450.62, 1005.91 448.87, 1008.07 446.16 C 1010.23 443.45, 1011.29 442.63, 1012.71 441.28 C 1014.14 439.94, 1014.37 439.85, 1015.21 439.46 C 1016.06 439.07, 1016.45 439.34, 1016.94 439.33 C 1017.43 439.33, 1017.32 439.37, 1017.66 439.43 C 1018.00 439.50, 1018.24 439.81, 1018.64 439.64 C 1019.04 439.46, 1019.59 439.05, 1019.67 438.57" style="stroke: white; fill: white;"/><path d="M 1050.24,444.73 C 1049.76 445.57, 1049.31 446.47, 1049.04 449.05 C 1048.77 451.64, 1048.88 453.59, 1048.88 457.66 C 1048.89 461.73, 1048.97 464.41, 1049.08 469.42 C 1049.19 474.42, 1049.35 477.52, 1049.44 482.67 C 1049.52 487.81, 1049.55 490.62, 1049.50 495.14 C 1049.45 499.66, 1049.18 501.83, 1049.18 505.26 C 1049.19 508.69, 1049.16 510.42, 1049.53 512.27 C 1049.91 514.12, 1050.46 514.66, 1051.05 514.51 C 1051.64 514.35, 1052.05 513.83, 1052.49 511.50 C 1052.92 509.18, 1052.82 507.18, 1053.21 502.88 C 1053.61 498.57, 1053.66 495.38, 1054.44 489.99 C 1055.23 484.60, 1055.75 481.34, 1057.13 475.93 C 1058.52 470.53, 1059.48 467.59, 1061.37 462.95 C 1063.26 458.30, 1064.43 456.14, 1066.60 452.70 C 1068.77 449.26, 1069.95 447.99, 1072.22 445.75 C 1074.49 443.51, 1075.70 442.74, 1077.95 441.51 C 1080.20 440.27, 1081.24 439.92, 1083.47 439.55 C 1085.71 439.19, 1086.81 439.45, 1089.13 439.69 C 1091.45 439.93, 1092.57 440.21, 1095.06 440.75 C 1097.54 441.29, 1098.87 441.81, 1101.56 442.40 C 1104.26 442.99, 1105.71 443.40, 1108.54 443.71 C 1111.37 444.01, 1112.89 444.14, 1115.71 443.93 C 1118.52 443.72, 1120.02 443.54, 1122.60 442.65 C 1125.18 441.77, 1126.55 441.01, 1128.59 439.51 C 1130.64 438.02, 1131.62 436.99, 1132.82 435.17 C 1134.03 433.36, 1134.46 432.29, 1134.62 430.45 C 1134.77 428.60, 1134.56 427.45, 1133.58 425.95 C 1132.59 424.44, 1131.71 423.56, 1129.68 422.92 C 1127.65 422.27, 1126.18 421.96, 1123.41 422.72 C 1120.64 423.49, 1118.95 424.23, 1115.82 426.75 C 1112.69 429.26, 1111.02 430.97, 1107.77 435.29 C 1104.53 439.61, 1102.63 442.52, 1099.59 448.34 C 1096.55 454.16, 1094.86 457.83, 1092.58 464.37 C 1090.29 470.91, 1089.31 474.75, 1088.17 481.04 C 1087.04 487.34, 1086.80 490.52, 1086.90 495.84 C 1087.00 501.16, 1087.31 503.68, 1088.67 507.65 C 1090.03 511.62, 1091.25 513.29, 1093.70 515.71 C 1096.15 518.12, 1097.76 518.94, 1100.94 519.73 C 1104.12 520.53, 1105.94 520.64, 1109.61 519.68 C 1113.29 518.72, 1115.69 517.29, 1119.32 514.94 C 1122.95 512.58, 1124.99 510.66, 1127.77 507.92 C 1130.54 505.19, 1132.31 502.78, 1133.19 501.26 C 1134.07 499.74, 1133.59 499.35, 1132.18 500.33 C 1130.77 501.32, 1128.98 503.68, 1126.14 506.18 C 1123.30 508.69, 1121.40 510.63, 1117.97 512.86 C 1114.54 515.09, 1112.28 516.41, 1108.98 517.32 C 1105.69 518.22, 1104.25 518.04, 1101.50 517.40 C 1098.75 516.76, 1097.44 516.20, 1095.22 514.12 C 1093.01 512.05, 1091.77 510.69, 1090.43 507.03 C 1089.08 503.36, 1088.67 500.94, 1088.51 495.80 C 1088.35 490.65, 1088.53 487.49, 1089.62 481.30 C 1090.72 475.11, 1091.69 471.30, 1093.97 464.86 C 1096.25 458.42, 1097.95 454.78, 1101.02 449.10 C 1104.09 443.43, 1106.05 440.55, 1109.31 436.48 C 1112.58 432.42, 1114.37 430.90, 1117.36 428.77 C 1120.35 426.64, 1121.95 426.47, 1124.27 425.85 C 1126.58 425.22, 1127.50 425.34, 1128.94 425.64 C 1130.39 425.94, 1130.87 426.44, 1131.49 427.34 C 1132.11 428.24, 1132.26 428.92, 1132.05 430.14 C 1131.83 431.37, 1131.49 432.11, 1130.43 433.46 C 1129.37 434.82, 1128.52 435.70, 1126.75 436.94 C 1124.98 438.18, 1123.83 438.89, 1121.58 439.65 C 1119.33 440.41, 1118.02 440.57, 1115.49 440.72 C 1112.96 440.88, 1111.56 440.73, 1108.92 440.41 C 1106.27 440.10, 1104.91 439.70, 1102.27 439.13 C 1099.63 438.57, 1098.28 438.08, 1095.70 437.59 C 1093.12 437.11, 1091.91 436.87, 1089.37 436.71 C 1086.83 436.56, 1085.54 436.33, 1082.99 436.82 C 1080.43 437.32, 1079.11 437.71, 1076.62 439.17 C 1074.13 440.63, 1072.90 441.63, 1070.55 444.13 C 1068.21 446.63, 1067.08 448.03, 1064.90 451.66 C 1062.73 455.29, 1061.60 457.51, 1059.69 462.27 C 1057.78 467.03, 1056.83 469.99, 1055.37 475.47 C 1053.90 480.95, 1053.32 484.23, 1052.35 489.65 C 1051.38 495.07, 1051.04 498.26, 1050.52 502.59 C 1049.99 506.92, 1049.66 508.93, 1049.72 511.28 C 1049.78 513.64, 1050.45 514.20, 1050.84 514.37 C 1051.22 514.55, 1051.48 513.98, 1051.65 512.15 C 1051.81 510.33, 1051.69 508.65, 1051.67 505.25 C 1051.66 501.85, 1051.61 499.67, 1051.56 495.14 C 1051.51 490.62, 1051.49 487.79, 1051.44 482.64 C 1051.39 477.49, 1051.29 474.38, 1051.31 469.40 C 1051.33 464.41, 1051.43 461.74, 1051.54 457.70 C 1051.66 453.65, 1051.91 451.76, 1051.90 449.19 C 1051.88 446.62, 1051.78 445.73, 1051.45 444.84 C 1051.12 443.94, 1050.73 443.89, 1050.24 444.73" style="stroke: white; fill: white;"/><path d="M 1165.00,388.27 C 1164.44 388.87, 1163.85 389.27, 1163.27 391.58 C 1162.69 393.89, 1162.64 395.31, 1162.09 399.81 C 1161.54 404.32, 1161.23 407.39, 1160.52 414.10 C 1159.82 420.80, 1159.42 425.19, 1158.58 433.36 C 1157.73 441.53, 1157.23 446.41, 1156.30 454.96 C 1155.37 463.51, 1154.83 468.21, 1153.93 476.11 C 1153.02 484.02, 1152.46 487.96, 1151.79 494.48 C 1151.12 501.00, 1150.88 504.01, 1150.57 508.71 C 1150.26 513.42, 1149.88 515.20, 1150.23 518.01 C 1150.59 520.82, 1151.09 521.97, 1152.35 522.74 C 1153.60 523.51, 1154.93 523.13, 1156.53 521.86 C 1158.13 520.60, 1159.33 518.77, 1160.34 516.44 C 1161.36 514.12, 1161.71 511.61, 1161.61 510.24 C 1161.50 508.86, 1160.79 508.65, 1159.83 509.56 C 1158.86 510.48, 1157.80 512.67, 1156.77 514.81 C 1155.75 516.94, 1155.45 518.85, 1154.70 520.25 C 1153.95 521.65, 1153.48 522.31, 1153.02 521.82 C 1152.57 521.33, 1152.58 520.41, 1152.42 517.80 C 1152.26 515.20, 1152.09 513.43, 1152.23 508.79 C 1152.36 504.15, 1152.53 501.12, 1153.10 494.61 C 1153.68 488.10, 1154.23 484.15, 1155.10 476.25 C 1155.97 468.34, 1156.51 463.64, 1157.47 455.09 C 1158.43 446.54, 1158.95 441.66, 1159.89 433.50 C 1160.83 425.34, 1161.29 420.97, 1162.18 414.29 C 1163.08 407.62, 1163.64 404.58, 1164.36 400.14 C 1165.08 395.69, 1165.43 394.39, 1165.77 392.08 C 1166.11 389.77, 1166.22 389.35, 1166.07 388.59 C 1165.91 387.82, 1165.56 387.67, 1165.00 388.27" style="stroke: white; fill: white;"/><path d="M 1193.96,382.63 C 1193.47 383.72, 1193.15 384.81, 1192.66 388.25 C 1192.17 391.69, 1192.03 394.04, 1191.51 399.83 C 1190.99 405.61, 1190.69 409.54, 1190.05 417.17 C 1189.42 424.81, 1189.05 429.46, 1188.32 438.01 C 1187.60 446.56, 1187.14 451.51, 1186.42 459.92 C 1185.71 468.32, 1185.23 472.70, 1184.74 480.05 C 1184.25 487.40, 1184.06 490.87, 1183.99 496.66 C 1183.91 502.46, 1184.03 505.01, 1184.34 509.03 C 1184.66 513.06, 1184.70 514.45, 1185.55 516.78 C 1186.40 519.12, 1187.15 519.97, 1188.59 520.70 C 1190.02 521.42, 1191.17 521.12, 1192.72 520.41 C 1194.28 519.71, 1195.32 518.67, 1196.34 517.19 C 1197.36 515.71, 1197.82 514.02, 1197.82 513.00 C 1197.82 511.99, 1197.18 511.70, 1196.33 512.14 C 1195.49 512.57, 1194.58 513.93, 1193.60 515.18 C 1192.62 516.43, 1192.28 517.55, 1191.43 518.37 C 1190.58 519.19, 1190.11 519.75, 1189.34 519.30 C 1188.56 518.85, 1188.20 518.19, 1187.57 516.11 C 1186.93 514.02, 1186.61 512.75, 1186.18 508.86 C 1185.75 504.97, 1185.46 502.41, 1185.41 496.67 C 1185.37 490.92, 1185.52 487.45, 1185.96 480.12 C 1186.39 472.79, 1186.86 468.42, 1187.58 460.01 C 1188.29 451.61, 1188.76 446.66, 1189.54 438.12 C 1190.32 429.57, 1190.74 424.92, 1191.50 417.30 C 1192.25 409.68, 1192.66 405.77, 1193.33 400.02 C 1194.01 394.26, 1194.50 391.97, 1194.86 388.52 C 1195.22 385.08, 1195.33 383.98, 1195.15 382.80 C 1194.97 381.62, 1194.46 381.54, 1193.96 382.63" style="stroke: white; fill: white;"/><path d="M 1242.69,442.93 C 1243.28 442.89, 1243.71 442.55, 1244.62 441.93 C 1245.52 441.32, 1246.21 440.76, 1247.21 439.86 C 1248.21 438.95, 1248.89 438.36, 1249.63 437.39 C 1250.37 436.42, 1250.77 435.91, 1250.93 435.01 C 1251.09 434.10, 1251.07 433.43, 1250.44 432.89 C 1249.81 432.35, 1249.22 432.06, 1247.78 432.30 C 1246.34 432.54, 1245.28 432.69, 1243.25 434.08 C 1241.23 435.46, 1240.09 436.42, 1237.65 439.22 C 1235.21 442.02, 1233.90 443.69, 1231.05 448.08 C 1228.21 452.47, 1226.42 455.27, 1223.42 461.17 C 1220.42 467.06, 1218.61 470.89, 1216.05 477.54 C 1213.48 484.20, 1212.25 488.21, 1210.59 494.44 C 1208.93 500.67, 1208.26 503.97, 1207.74 508.70 C 1207.22 513.42, 1207.22 515.34, 1208.00 518.06 C 1208.78 520.79, 1209.77 521.48, 1211.65 522.32 C 1213.54 523.15, 1214.95 523.15, 1217.43 522.23 C 1219.91 521.31, 1221.33 520.32, 1224.03 517.72 C 1226.74 515.11, 1228.16 513.35, 1230.95 509.18 C 1233.73 505.01, 1235.20 502.39, 1237.97 496.87 C 1240.74 491.36, 1242.20 487.76, 1244.78 481.62 C 1247.37 475.48, 1248.79 471.93, 1250.90 466.18 C 1253.00 460.42, 1253.93 457.33, 1255.31 452.85 C 1256.68 448.37, 1257.35 446.31, 1257.76 443.78 C 1258.17 441.25, 1257.82 440.24, 1257.36 440.18 C 1256.90 440.13, 1255.97 440.79, 1255.45 443.51 C 1254.94 446.23, 1254.95 448.63, 1254.79 453.77 C 1254.63 458.91, 1254.64 462.51, 1254.63 469.20 C 1254.63 475.89, 1254.63 480.11, 1254.76 487.23 C 1254.90 494.35, 1254.94 498.36, 1255.29 504.79 C 1255.65 511.22, 1255.84 514.28, 1256.53 519.39 C 1257.21 524.49, 1257.62 526.81, 1258.71 530.31 C 1259.81 533.81, 1260.47 535.12, 1262.02 536.91 C 1263.58 538.70, 1264.61 539.05, 1266.51 539.26 C 1268.40 539.47, 1269.55 539.22, 1271.52 537.97 C 1273.48 536.73, 1274.72 535.36, 1276.33 533.03 C 1277.94 530.71, 1278.71 528.83, 1279.58 526.33 C 1280.44 523.83, 1280.70 521.79, 1280.65 520.53 C 1280.60 519.27, 1280.17 519.16, 1279.32 520.03 C 1278.46 520.90, 1277.63 522.71, 1276.38 524.89 C 1275.14 527.06, 1274.41 528.75, 1273.08 530.92 C 1271.76 533.09, 1271.06 534.44, 1269.77 535.73 C 1268.49 537.02, 1267.88 537.39, 1266.66 537.36 C 1265.43 537.32, 1264.84 537.10, 1263.65 535.57 C 1262.45 534.03, 1261.78 532.96, 1260.68 529.67 C 1259.58 526.39, 1258.94 524.14, 1258.16 519.15 C 1257.38 514.16, 1257.14 511.09, 1256.76 504.71 C 1256.38 498.32, 1256.33 494.30, 1256.25 487.21 C 1256.17 480.11, 1256.22 475.89, 1256.37 469.22 C 1256.52 462.55, 1256.67 458.96, 1257.01 453.88 C 1257.35 448.79, 1257.99 446.53, 1258.07 443.79 C 1258.14 441.05, 1257.87 440.28, 1257.38 440.17 C 1256.89 440.07, 1256.41 440.84, 1255.63 443.27 C 1254.86 445.70, 1254.75 447.85, 1253.51 452.32 C 1252.26 456.79, 1251.43 459.90, 1249.40 465.64 C 1247.37 471.38, 1245.94 474.92, 1243.35 481.01 C 1240.76 487.10, 1239.27 490.70, 1236.45 496.09 C 1233.62 501.49, 1232.09 504.06, 1229.24 507.99 C 1226.39 511.93, 1224.77 513.41, 1222.20 515.77 C 1219.63 518.14, 1218.37 518.82, 1216.39 519.82 C 1214.41 520.81, 1213.56 521.22, 1212.29 520.76 C 1211.01 520.30, 1210.57 519.91, 1210.01 517.53 C 1209.45 515.16, 1209.08 513.41, 1209.49 508.87 C 1209.90 504.33, 1210.47 500.98, 1212.06 494.82 C 1213.64 488.66, 1214.86 484.66, 1217.43 478.08 C 1219.99 471.50, 1221.81 467.69, 1224.87 461.92 C 1227.93 456.15, 1229.76 453.37, 1232.73 449.22 C 1235.70 445.07, 1237.20 443.60, 1239.72 441.18 C 1242.23 438.75, 1243.49 438.32, 1245.30 437.10 C 1247.12 435.89, 1247.85 435.74, 1248.79 435.12 C 1249.74 434.49, 1249.94 434.26, 1250.03 433.99 C 1250.12 433.71, 1249.87 433.64, 1249.26 433.76 C 1248.66 433.87, 1248.02 433.93, 1247.02 434.57 C 1246.03 435.20, 1245.24 435.87, 1244.28 436.93 C 1243.32 437.99, 1242.75 438.82, 1242.22 439.86 C 1241.69 440.90, 1241.55 441.52, 1241.64 442.13 C 1241.74 442.75, 1242.09 442.97, 1242.69 442.93" style="stroke: white; fill: white;"/><path d="M 1302.66,494.90 C 1302.19 494.88, 1301.90 494.75, 1301.60 494.93 C 1301.30 495.11, 1301.22 495.43, 1301.16 495.80 C 1301.10 496.18, 1301.11 496.49, 1301.29 496.82 C 1301.47 497.15, 1301.60 497.26, 1302.06 497.45 C 1302.52 497.65, 1303.10 497.68, 1303.58 497.78 C 1304.06 497.88, 1304.30 497.99, 1304.45 497.95 C 1304.60 497.92, 1304.60 498.01, 1304.34 497.61 C 1304.08 497.20, 1303.51 496.26, 1303.14 495.92 C 1302.78 495.59, 1302.53 495.82, 1302.53 495.94 C 1302.52 496.05, 1302.75 496.35, 1303.12 496.49 C 1303.48 496.64, 1303.97 496.69, 1304.34 496.64 C 1304.71 496.59, 1304.85 496.33, 1304.97 496.23 C 1305.08 496.14, 1304.92 496.28, 1304.90 496.19 C 1304.89 496.09, 1305.10 496.00, 1304.90 495.78 C 1304.71 495.55, 1304.38 495.22, 1303.93 495.05 C 1303.48 494.87, 1303.12 494.92, 1302.66 494.90" style="stroke: white; fill: white;"/><path d="M 1368.11,454.09 C 1367.98 453.48, 1367.58 452.92, 1366.69 452.16 C 1365.80 451.40, 1365.14 450.78, 1363.67 450.28 C 1362.19 449.78, 1361.23 449.60, 1359.32 449.66 C 1357.40 449.72, 1356.43 449.69, 1354.08 450.59 C 1351.74 451.49, 1350.30 451.93, 1347.59 454.16 C 1344.87 456.38, 1343.43 457.92, 1340.50 461.69 C 1337.56 465.47, 1335.76 467.89, 1332.91 473.03 C 1330.06 478.17, 1328.47 481.47, 1326.24 487.40 C 1324.00 493.33, 1322.95 497.03, 1321.74 502.67 C 1320.54 508.31, 1320.15 511.13, 1320.23 515.59 C 1320.30 520.04, 1320.71 521.91, 1322.13 524.94 C 1323.55 527.97, 1324.75 529.10, 1327.32 530.74 C 1329.89 532.38, 1331.63 532.70, 1334.99 533.13 C 1338.35 533.57, 1340.32 533.44, 1344.14 532.91 C 1347.95 532.37, 1350.06 532.00, 1354.07 530.47 C 1358.08 528.93, 1360.16 527.80, 1364.18 525.23 C 1368.20 522.65, 1370.56 520.67, 1374.19 517.61 C 1377.81 514.55, 1379.70 512.67, 1382.31 509.92 C 1384.93 507.18, 1386.44 505.27, 1387.26 503.90 C 1388.07 502.54, 1387.67 502.19, 1386.38 503.09 C 1385.09 504.00, 1383.53 505.85, 1380.82 508.42 C 1378.10 511.00, 1376.36 512.97, 1372.80 515.97 C 1369.25 518.98, 1366.96 520.98, 1363.05 523.45 C 1359.15 525.93, 1357.13 526.97, 1353.29 528.36 C 1349.44 529.75, 1347.41 529.97, 1343.81 530.41 C 1340.22 530.84, 1338.35 530.87, 1335.31 530.51 C 1332.27 530.16, 1330.86 529.93, 1328.61 528.63 C 1326.36 527.33, 1325.37 526.63, 1324.07 524.01 C 1322.76 521.39, 1322.22 519.74, 1322.08 515.54 C 1321.95 511.34, 1322.25 508.53, 1323.39 503.01 C 1324.53 497.50, 1325.57 493.80, 1327.79 487.99 C 1330.01 482.17, 1331.60 478.91, 1334.49 473.93 C 1337.37 468.95, 1339.24 466.58, 1342.21 463.08 C 1345.18 459.58, 1346.75 458.32, 1349.35 456.43 C 1351.94 454.54, 1353.19 454.33, 1355.20 453.62 C 1357.21 452.92, 1357.91 452.93, 1359.39 452.91 C 1360.87 452.90, 1361.45 453.16, 1362.59 453.53 C 1363.74 453.90, 1364.18 454.41, 1365.13 454.75 C 1366.07 455.09, 1366.74 455.38, 1367.34 455.25 C 1367.93 455.12, 1368.24 454.71, 1368.11 454.09" style="stroke: white; fill: white;"/><path d="M 1417.54,460.08 C 1418.04 459.52, 1418.40 458.65, 1418.62 457.21 C 1418.84 455.77, 1418.99 454.61, 1418.64 452.86 C 1418.30 451.11, 1418.02 449.83, 1416.90 448.46 C 1415.79 447.08, 1414.93 446.34, 1413.06 445.99 C 1411.18 445.64, 1409.87 445.47, 1407.54 446.68 C 1405.20 447.90, 1403.98 448.96, 1401.38 452.07 C 1398.79 455.19, 1397.21 457.34, 1394.57 462.28 C 1391.93 467.21, 1390.45 470.66, 1388.17 476.76 C 1385.90 482.86, 1384.69 486.69, 1383.19 492.77 C 1381.68 498.85, 1381.12 502.24, 1380.67 507.15 C 1380.21 512.07, 1380.23 514.28, 1380.90 517.35 C 1381.56 520.41, 1382.37 521.20, 1384.01 522.47 C 1385.65 523.73, 1386.92 524.00, 1389.09 523.65 C 1391.25 523.31, 1392.64 522.80, 1394.84 520.73 C 1397.05 518.66, 1398.01 516.97, 1400.11 513.29 C 1402.21 509.62, 1403.19 507.31, 1405.32 502.34 C 1407.46 497.37, 1408.65 494.16, 1410.78 488.44 C 1412.92 482.71, 1414.13 479.03, 1416.02 473.71 C 1417.91 468.39, 1419.07 465.45, 1420.23 461.82 C 1421.39 458.19, 1421.69 456.64, 1421.80 455.57 C 1421.91 454.51, 1421.22 454.63, 1420.79 456.50 C 1420.35 458.38, 1419.94 460.50, 1419.63 464.93 C 1419.31 469.37, 1419.22 472.80, 1419.22 478.69 C 1419.22 484.58, 1419.38 488.33, 1419.62 494.38 C 1419.85 500.43, 1420.00 503.77, 1420.41 508.94 C 1420.81 514.10, 1421.02 516.49, 1421.63 520.21 C 1422.24 523.94, 1422.53 525.27, 1423.46 527.54 C 1424.39 529.82, 1425.01 530.57, 1426.27 531.60 C 1427.53 532.64, 1428.44 532.74, 1429.78 532.71 C 1431.11 532.68, 1432.14 532.24, 1432.96 531.46 C 1433.78 530.68, 1433.93 529.48, 1433.86 528.81 C 1433.79 528.15, 1433.11 527.98, 1432.60 528.15 C 1432.10 528.31, 1431.91 529.15, 1431.32 529.63 C 1430.73 530.12, 1430.40 530.47, 1429.64 530.57 C 1428.89 530.68, 1428.34 530.93, 1427.54 530.15 C 1426.73 529.38, 1426.38 528.76, 1425.61 526.70 C 1424.84 524.64, 1424.39 523.43, 1423.71 519.85 C 1423.02 516.26, 1422.66 513.89, 1422.20 508.79 C 1421.73 503.68, 1421.56 500.33, 1421.38 494.32 C 1421.21 488.31, 1421.18 484.56, 1421.32 478.72 C 1421.46 472.87, 1421.83 469.52, 1422.08 465.09 C 1422.34 460.67, 1422.84 458.59, 1422.61 456.60 C 1422.37 454.60, 1421.81 454.22, 1420.91 455.12 C 1420.02 456.02, 1419.46 457.50, 1418.14 461.10 C 1416.82 464.70, 1416.09 467.77, 1414.29 473.12 C 1412.49 478.46, 1411.29 482.13, 1409.14 487.82 C 1406.98 493.50, 1405.75 496.70, 1403.52 501.54 C 1401.29 506.38, 1400.17 508.63, 1398.01 512.02 C 1395.84 515.42, 1394.56 516.60, 1392.68 518.50 C 1390.79 520.39, 1390.09 520.97, 1388.58 521.49 C 1387.06 522.01, 1386.21 522.00, 1385.11 521.08 C 1384.01 520.17, 1383.59 519.66, 1383.07 516.90 C 1382.54 514.14, 1382.13 512.05, 1382.47 507.30 C 1382.81 502.55, 1383.32 499.15, 1384.77 493.16 C 1386.23 487.17, 1387.45 483.34, 1389.75 477.36 C 1392.06 471.37, 1393.59 467.96, 1396.30 463.24 C 1399.02 458.52, 1400.80 456.55, 1403.33 453.77 C 1405.86 450.98, 1407.11 450.38, 1408.97 449.32 C 1410.83 448.26, 1411.54 448.31, 1412.63 448.47 C 1413.71 448.63, 1413.94 449.12, 1414.40 450.12 C 1414.86 451.12, 1414.74 452.07, 1414.95 453.49 C 1415.15 454.92, 1415.18 455.93, 1415.42 457.23 C 1415.66 458.53, 1415.72 459.42, 1416.14 459.99 C 1416.57 460.56, 1417.05 460.63, 1417.54 460.08" style="stroke: white; fill: white;"/><path d="M 1469.37,397.45 C 1468.86 398.28, 1468.45 399.04, 1468.00 401.75 C 1467.55 404.46, 1467.65 406.39, 1467.10 411.02 C 1466.55 415.64, 1466.13 418.60, 1465.23 424.88 C 1464.34 431.17, 1463.74 435.10, 1462.61 442.45 C 1461.49 449.81, 1460.74 454.02, 1459.61 461.67 C 1458.47 469.31, 1457.85 473.49, 1456.95 480.67 C 1456.05 487.85, 1455.57 491.56, 1455.09 497.56 C 1454.61 503.56, 1454.49 506.29, 1454.55 510.65 C 1454.61 515.01, 1454.76 516.76, 1455.37 519.35 C 1455.99 521.95, 1456.82 522.61, 1457.64 523.64 C 1458.46 524.67, 1459.05 524.43, 1459.48 524.51 C 1459.91 524.59, 1459.94 524.37, 1459.81 524.05 C 1459.68 523.73, 1459.27 523.95, 1458.83 522.92 C 1458.40 521.88, 1458.14 521.32, 1457.64 518.86 C 1457.15 516.39, 1456.58 514.83, 1456.36 510.59 C 1456.14 506.35, 1456.17 503.62, 1456.54 497.66 C 1456.92 491.71, 1457.37 487.99, 1458.24 480.83 C 1459.11 473.67, 1459.72 469.49, 1460.88 461.86 C 1462.03 454.23, 1462.79 450.01, 1464.00 442.67 C 1465.22 435.33, 1465.88 431.42, 1466.94 425.15 C 1468.01 418.88, 1468.57 415.94, 1469.32 411.33 C 1470.08 406.72, 1470.48 404.84, 1470.72 402.10 C 1470.96 399.35, 1470.80 398.54, 1470.53 397.61 C 1470.26 396.68, 1469.87 396.62, 1469.37 397.45" style="stroke: white; fill: white;"/><path d="M 1449.64,464.12 C 1450.59 464.49, 1451.78 464.92, 1454.35 464.71 C 1456.93 464.50, 1458.55 464.14, 1462.51 463.05 C 1466.47 461.96, 1469.15 460.92, 1474.14 459.26 C 1479.13 457.60, 1482.21 456.56, 1487.45 454.76 C 1492.69 452.96, 1497.87 451.46, 1500.35 450.25 C 1502.82 449.03, 1502.51 448.14, 1499.81 448.69 C 1497.12 449.23, 1492.12 451.28, 1486.86 452.98 C 1481.59 454.69, 1478.49 455.71, 1473.49 457.22 C 1468.49 458.74, 1465.76 459.60, 1461.86 460.55 C 1457.96 461.50, 1456.44 461.51, 1453.98 461.97 C 1451.53 462.43, 1450.47 462.42, 1449.60 462.85 C 1448.73 463.28, 1448.69 463.75, 1449.64 464.12" style="stroke: white; fill: white;"/></svg>