<?xml version="1.0" encoding="UTF-8"?>
<svg width="387px" height="387px" viewBox="0 0 387 387" version="1.1" xmlns="http://www.w3.org/2000/svg" xmlns:xlink="http://www.w3.org/1999/xlink">
    <!-- Generator: Sketch 55 (78076) - https://sketchapp.com -->
    <title>Logo_Escapadesenparella_2019_Red-VECTOR Copy</title>
    <desc>Created with Sketch.</desc>
    <g id="Page-1" stroke="none" strokeWidth="1" fill="none" fillRule="evenodd">
        <g id="Logo_Escapadesenparella_2019_Red-VECTOR-Copy" transform="translate(-1.000000, 0.000000)">
            <g id="Page-2">
                <g id="Group-2">
                    <g id="Group" transform="translate(102.911280, 59.216184) rotate(-16.276933) translate(-102.911280, -59.216184) translate(43.411280, 35.716184)" fill="#FFFFFF">
                        <g>
                            <path d="M5.3,45.8 C4,45.8 2.7,45.3 1.8,44.2 C0.2,42.3 0.5,39.5 2.4,37.9 C17.8,25 35.5,16.2 53.6,9.6 C71.8,2.9 87.7,0.8 100.4,0.9 C102.9,0.9 104.9,2.9 104.9,5.4 C104.9,7.9 102.8,9.9 100.4,9.9 C88.6,9.8 73.9,11.9 56.2,18.2 C39.2,24.2 22.8,32.7 8.3,44.8 C7.3,45.4 6.3,45.8 5.3,45.8 Z" id="Path_1_"></path>
                            <path d="M3.8,46.1 C2.9,45.8 2,45.3 1.4,44.5 C0.5,43.5 0.1,42.2 0.3,40.9 C0.4,39.6 1.1,38.4 2.1,37.5 C15.8,26 32.6,16.7 53.5,9.1 C69.6,3.2 85.4,0.3 100.5,0.4 C103.3,0.4 105.5,2.6 105.5,5.4 C105.5,6.7 105,8 104,8.9 C103.1,9.8 101.8,10.4 100.5,10.4 C87,10.3 72.2,13.1 56.5,18.7 C38.1,25.2 22.1,34.1 8.8,45.2 C7.5,46 6.5,46.3 5.5,46.3 L5.5,46.3 C4.8,46.3 4.3,46.2 3.8,46.1 Z M101.5,1.6 C101.1,1.5 100.8,1.4 100.4,1.4 C85.4,1.3 69.7,4.2 53.8,10.1 C33.1,17.6 16.4,26.9 2.7,38.3 C1,39.7 0.8,42.2 2.2,43.9 C3,44.8 4.1,45.3 5.3,45.3 C6.1,45.3 7,45 8,44.4 C21.3,33.3 37.5,24.3 56,17.8 C71.8,12.2 86.8,9.4 100.4,9.5 C101.4,9.5 102.4,9.1 103.2,8.3 C104,7.5 104.4,6.5 104.4,5.5 C104.4,3.6 103.2,2 101.5,1.6 Z" id="Shape" fillRule="nonzero"></path>
                        </g>
                        <g transform="translate(107.000000, 0.000000)">
                            <path d="M6.7,9.9 L5.3,9.9 C2.8,9.9 0.8,7.9 0.8,5.4 C0.8,2.9 2.8,0.9 5.3,0.9 L6.7,0.9 C9.2,0.9 11.2,2.9 11.2,5.4 C11.2,7.9 9.2,9.9 6.7,9.9 Z" id="Path_21_"></path>
                            <path d="M3.9,10.2 C3.1,10 2.4,9.5 1.8,8.9 C0.9,8 0.3,6.7 0.3,5.4 C0.3,4.1 0.8,2.8 1.8,1.9 C2.7,1 4,0.4 5.3,0.4 L6.7,0.4 C8,0.4 9.3,0.9 10.2,1.9 C11.1,2.8 11.7,4.1 11.7,5.4 C11.7,6.7 11.2,8 10.2,8.9 C9.3,9.8 8,10.4 6.7,10.4 L5.3,10.4 C4.8,10.4 4.3,10.3 3.9,10.2 Z M7.8,1.6 C7.4,1.5 7.1,1.4 6.7,1.4 L5.3,1.4 C3.1,1.4 1.3,3.2 1.3,5.4 C1.3,6.5 1.7,7.5 2.5,8.2 C3.3,9 4.3,9.4 5.3,9.4 L6.7,9.4 C8.9,9.4 10.7,7.6 10.7,5.4 C10.7,4.3 10.3,3.3 9.5,2.6 C9.1,2.1 8.5,1.7 7.8,1.6 Z" id="Shape" fillRule="nonzero"></path>
                        </g>
                    </g>
                    <path d="M15,264.7 L14.7,264.1 C14.7,264.1 14.8,264.1 14.8,264 C14.8,264.3 14.9,264.5 15,264.7 Z" id="Path" fill="#FFFFFF"></path>
                    <g id="Group" transform="translate(133.000000, 145.000000)" fill="#FFFFFF">
                        <path d="M5.8,37.3 C5.1,37.3 4.5,37.2 3.9,36.9 C1.6,35.8 0.5,33.1 1.6,30.7 C12.8,5.9 41.8,-5.3 66.3,5.8 C76,10.2 84,17.5 89,27 C90.2,29.3 89.4,32.1 87.1,33.3 C84.8,34.6 82.1,33.8 80.8,31.5 C76.7,23.8 70.3,17.9 62.4,14.3 C42.6,5.4 19,14.4 10,34.5 C9.2,36.2 7.5,37.2 5.8,37.3 Z" id="Path_22_"></path>
                        <path d="M5.8,37.8 L5.8,37.8 C4.9,37.8 4.3,37.7 3.7,37.3 C1.1,36.1 0,33 1.2,30.4 C6.7,18.2 16.7,8.8 29.2,4.1 C41.5,-0.5 54.7,-0.1 66.6,5.2 C76.6,9.7 84.6,17.2 89.5,26.6 C90.1,27.8 90.3,29.2 89.9,30.5 C89.5,31.8 88.6,32.9 87.4,33.5 C86.2,34.2 84.8,34.4 83.5,34 C82.2,33.6 81.1,32.7 80.4,31.5 C76.4,24 70.1,18.1 62.2,14.5 C52.8,10.3 42.2,10 32.5,13.7 C22.6,17.5 14.8,24.8 10.5,34.5 C9.6,36.5 7.8,37.7 5.8,37.8 L5.8,37.8 Z" id="Path"></path>
                    </g>
                    <g id="Group-3-Copy" transform="translate(0.864000, 0.000000)">
                        <path d="M193.184976,4 C88.9631573,4 4.136,88.8051813 4.136,193 C4.136,217.481865 8.8377362,240.984456 17.3596331,262.528497 C17.4575859,262.724352 17.5555387,262.920207 17.5555387,263.116062 C45.4720974,332.742487 113.647272,382 193.087024,382 C297.308843,382 382.136,297.194819 382.136,193 C382.136,88.8051813 297.504748,4 193.184976,4 Z" id="Path-Copy" fill="#F03E51" fillRule="nonzero"></path>
                        <path d="M193.3,0.1 C86.9,0.1 0.3,86.7 0.3,193.1 C0.3,218.1 5.1,242.1 13.8,264.1 C13.9,264.3 14,264.5 14,264.7 C42.5,335.8 112.1,386.1 193.2,386.1 C299.6,386.1 386.2,299.5 386.2,193.1 C386.2,86.7 299.8,0.1 193.3,0.1 Z M193.3,10.1 C267.1,10.1 330.9,54.1 359.8,117.2 C358.3,118.5 356.9,120.5 355.4,123.4 C354,126.1 352.3,131.3 352.2,145.6 L344.6,145.6 C335.4,145.6 334,156.2 332.6,166.4 C330.5,182.2 328.1,193.4 316.3,193.4 C305.5,193.4 299,179.6 292.1,165.1 C284.2,148.4 275.3,129.5 256.8,129.5 C235.4,129.5 226.5,146.2 216.7,166 C213.8,162.1 210.2,158.6 206.1,155.8 L212.8,145.4 C214.2,143.3 213.6,140.6 211.5,139.2 C209.4,137.8 206.7,138.4 205.3,140.5 L198.3,151.4 C198.2,151.4 198.2,151.3 198.1,151.3 C192.5,148.8 186.6,147.3 180.6,147.1 L180.2,124.3 C180.1,121.7 178.1,119.7 175.6,119.8 C173,119.9 171,121.9 171.1,124.4 L171.5,147.5 C168.1,148 164.8,148.9 161.5,150.1 C157.7,151.5 154.1,153.4 150.9,155.7 C150.8,155.6 150.7,155.5 150.7,155.4 L138.6,144.9 C136.7,143.2 133.9,143.4 132.3,145.3 C130.6,147.2 130.8,150 132.7,151.6 L144.1,161.5 C141.1,164.5 138.5,168 136.3,171.8 C134,169 131.7,166.2 129.5,163.5 C119.4,150.6 109.8,138.5 93,138.5 C68.6,138.5 53.3,157.9 42.1,172 C36.9,178.5 31.6,185.3 27.9,186.4 C20.1,188.8 17.3,187.1 10.8,180.7 C17.1,85.6 96.6,10.1 193.3,10.1 Z M212.5,174.7 L212.5,174.7 C207.7,184.4 202.1,194.8 194.5,204.8 C168.7,201 153.6,190.2 142.1,178.2 C146.6,168.8 154.4,161.7 164.2,158 C174.2,154.2 185,154.5 194.7,158.8 C202.3,162.3 208.4,167.8 212.5,174.7 Z M10.3,193.6 C15.4,197.2 21.4,198.8 30.8,196 C37.5,194 43,187 50,178.2 C60.5,165 73.6,148.5 93.1,148.5 C105,148.5 112.1,157.4 121.8,169.6 C134.4,185.4 151.2,206.6 187.5,213.8 C172.1,231.9 156.8,243.1 141.9,247.2 C96.8,237.7 56.8,241.7 22.8,259.2 C14.8,238.8 10.4,216.7 10.3,193.6 Z M193.3,376.1 C119.2,376.1 55.3,331.9 26.5,268.4 C60.8,250.6 101.8,247.4 148.6,258.9 C165.2,263 184.3,268.5 202.6,273.7 C213.9,276.9 224.6,280 234.4,282.6 C262.7,290.4 291.3,294.3 319.7,294.3 C328.6,294.3 337.4,293.9 346.3,293.2 C313.7,343.1 257.3,376.1 193.3,376.1 Z M329.2,284.3 L329.2,271.4 L331.3,273.5 C331.7,273.9 332.2,274.1 332.7,274.1 C333.2,274.1 333.7,273.9 334.1,273.5 C334.9,272.7 334.9,271.5 334.1,270.7 L329.2,265.8 L329.2,259.4 L331.3,261.5 C331.7,261.9 332.2,262.1 332.7,262.1 C333.2,262.1 333.7,261.9 334.1,261.5 C334.9,260.7 334.9,259.5 334.1,258.7 L328.1,252.7 C328.6,253.2 328.8,254 328.6,254.6 C328.1,253.9 327.5,253.6 326.7,253.6 C325.9,253.6 325.2,254 324.7,254.5 C324.6,253.9 324.7,253.2 325.2,252.7 L319.2,258.7 C318.4,259.5 318.4,260.7 319.2,261.5 C319.6,261.9 320.1,262.1 320.6,262.1 C321.1,262.1 321.6,261.9 322,261.5 L324.1,259.4 L324.1,265.8 L319.2,270.7 C318.4,270.5 318.4,271.7 319.2,272.5 C319.6,272.9 320.1,273.1 320.6,273.1 C321.1,273.1 321.6,272.9 322,272.5 L324.1,270.4 L324.1,283.6 C324.1,283.9 324.1,284.2 324.2,284.4 C297.9,284.8 271.4,281.7 245.1,275.2 L245.1,262.4 L247.2,264.5 C247.6,264.9 248.1,265.1 248.6,265.1 C249.1,265.1 249.6,264.9 250,264.5 C250.8,263.7 250.8,262.5 250,261.7 L245.1,256.8 L245.1,250.4 L247.2,252.5 C247.6,252.9 248.1,253.1 248.6,253.1 C249.1,253.1 249.6,252.9 250,252.5 C250.8,251.7 250.8,250.5 250,249.7 L244,243.7 C243.2,242.9 242,242.9 241.2,243.7 L235.2,249.7 C234.4,250.5 234.4,251.7 235.2,252.5 C235.6,252.9 236.1,253.1 236.6,253.1 C237.1,253.1 237.6,252.9 238,252.5 L240.1,250.4 L240.1,256.8 L235.2,261.7 C234.4,262.5 234.4,263.7 235.2,264.5 C235.6,264.9 236.1,265.1 236.6,265.1 C237.1,265.1 237.6,264.9 238,264.5 L240.1,262.4 L240.1,273.9 C239.1,273.6 238.1,273.4 237.1,273.1 C231.7,271.6 226,270 220,268.3 C220.1,268.1 220.1,267.8 220.1,267.6 L220.1,254.4 L222.2,256.5 C222.6,256.9 223.1,257.1 223.6,257.1 C224.1,257.1 224.6,256.9 225,256.5 C225.8,255.7 225.8,254.5 225,253.7 L220.1,248.8 L220.1,242.4 L222.2,244.5 C222.6,244.9 223.1,245.1 223.6,245.1 C224.1,245.1 224.6,244.9 225,244.5 C225.8,243.7 225.8,242.5 225,241.7 L219,235.7 C218.2,234.9 217,234.9 216.2,235.7 L210.2,241.7 C209.4,242.5 209.4,243.7 210.2,244.5 C210.6,244.9 211.1,245.1 211.6,245.1 C212.1,245.1 212.6,244.9 213,244.5 L215.1,242.4 L215.1,248.8 L210.2,253.7 C209.4,254.5 209.4,255.7 210.2,256.5 C210.6,256.9 211.1,257.1 211.6,257.1 C212.1,257.1 212.6,256.9 213,256.5 L215.1,254.4 L215.1,267 C211.9,266.1 208.6,265.1 205.3,264.2 C189.5,259.7 173.3,255.1 158.4,251.2 C172.8,243.7 187.2,230.7 201.4,212.3 C211.9,198.8 218.6,185 224.5,172.9 C235.2,151 241.5,139.6 256.7,139.6 C268.9,139.6 275.7,154.1 283,169.5 C290.9,186.2 299.1,203.5 316.2,203.5 C337.7,203.5 340.6,182.1 342.5,167.9 C343.1,163.7 343.9,157.5 345,155.7 L352.3,155.7 C352.4,157.7 352.5,159.8 352.6,162 C352.8,164.7 355,166.7 357.6,166.7 C357.7,166.7 357.8,166.7 357.9,166.7 C360.7,166.5 362.8,164.2 362.6,161.4 C361.2,136.6 363.2,129.9 364.1,128.1 C364.1,128.1 364.2,128 364.2,127.9 C372,148.2 376.2,170.1 376.2,193.1 C376.2,225.6 367.7,256.1 352.8,282.6 C345,283.5 337.1,284 329.2,284.3 Z" id="Shape" fill="#FFFFFF" fillRule="nonzero"></path>
                        <path d="M328.6,254.6 C328.1,253.9 327.5,253.6 326.7,253.6 C325.9,253.6 325.2,254 324.7,254.5 C324.6,253.9 324.7,253.2 325.2,252.7 C326,251.9 327.2,251.9 328,252.7 C328.6,253.2 328.8,254 328.6,254.6 Z" id="Path" stroke="#FFFFFF" fill="#FFFFFF"></path>
                        <path d="M328.6,254.6 C328.1,253.9 327.5,253.6 326.7,253.6 C325.9,253.6 325.2,254 324.7,254.5 C324.6,253.9 324.7,253.2 325.2,252.7 C326,251.9 327.2,251.9 328,252.7 C328.6,253.2 328.8,254 328.6,254.6 Z" id="Path" stroke="#FFFFFF" fill="#D30C0C"></path>
                    </g>
                </g>
            </g>
        </g>
    </g>
</svg>