<?xml version="1.0" encoding="UTF-8"?>
<svg width="508px" height="106px" viewBox="0 0 508 106" version="1.1" xmlns="http://www.w3.org/2000/svg" xmlns:xlink="http://www.w3.org/1999/xlink">
    <!-- Generator: Sketch 55 (78076) - https://sketchapp.com -->
    <title>Group</title>
    <desc>Created with Sketch.</desc>
    <defs>
        <linearGradient x1="0%" y1="47.2305191%" x2="100%" y2="55.233564%" id="linearGradient-1">
            <stop stop-color="#FFB90C" offset="0%"></stop>
            <stop stop-color="#FD8305" offset="100%"></stop>
        </linearGradient>
        <path d="M440.203405,93.6726768 C441.999706,93.6726768 443.436748,95.1373093 443.436748,96.9375867 C443.436748,98.7683773 441.999706,100.23301 440.203405,100.23301 C438.437041,100.23301 437,98.7683773 437,96.9375867 C437,95.1373093 438.437041,93.6726768 440.203405,93.6726768 Z M454.493983,85.1900139 C454.493983,84.7323162 454.853243,84.3661581 455.302319,84.3661581 L459.373936,84.3661581 C459.942765,84.3661581 460.421779,84.8543689 460.421779,85.4646325 L460.421779,98.7378641 C460.421779,103.192788 457.038744,106 451.679777,106 C448.775756,106 446.111242,105.023578 444.6742,103.40638 C444.31494,103.040222 444.404755,102.429958 444.823892,102.15534 L447.78779,100.355062 C448.057235,100.171983 448.416495,100.23301 448.656002,100.416089 C449.224831,100.873786 450.15292,101.239945 451.350455,101.239945 C453.595832,101.239945 454.493983,100.080444 454.493983,98.2191401 L454.493983,97.6088766 C453.595832,98.5242718 452.338421,99.1345354 450.572058,99.1345354 C446.111242,99.1345354 443.536542,95.6560333 443.536542,91.5672677 C443.536542,87.4785021 445.811858,84 450.572058,84 C452.308483,84 453.595832,84.6102635 454.493983,85.5866852 L454.493983,85.1900139 Z M451.889345,94.038835 C453.386264,94.038835 454.344291,93.0319001 454.344291,91.5672677 C454.344291,90.1026352 453.386264,89.0651872 451.889345,89.0651872 C450.422366,89.0651872 449.4344,90.1026352 449.4344,91.5672677 C449.4344,93.0319001 450.422366,94.038835 451.889345,94.038835 Z M472.197534,84.3661581 L475.969768,84.3661581 C476.568535,84.3661581 477.047549,84.8543689 477.047549,85.4646325 L477.047549,98.7378641 C477.047549,99.3481276 476.568535,99.8363384 475.969768,99.8363384 L471.928089,99.8363384 C471.479014,99.8363384 471.119753,99.4701803 471.119753,99.0124827 L471.119753,98.2496533 C470.251541,99.3481276 468.964191,100.202497 466.988259,100.202497 C462.40769,100.202497 461.419724,96.29681 461.419724,94.038835 L461.419724,85.4646325 C461.419724,84.8543689 461.8688,84.3661581 462.467567,84.3661581 L466.269739,84.3661581 C466.868506,84.3661581 467.34752,84.8543689 467.34752,85.4646325 L467.34752,92.147018 C467.34752,93.3675451 467.88641,94.2829404 469.233637,94.2829404 C470.550925,94.2829404 471.119753,93.3675451 471.119753,92.147018 L471.119753,85.4646325 C471.119753,84.8543689 471.598767,84.3661581 472.197534,84.3661581 Z M484.272674,86.776699 C485.110948,85.3730929 486.428236,84.3966713 487.835339,84.0915395 C488.344291,84 488.823305,84.3661581 488.823305,84.8848821 L488.823305,89.4923717 C488.823305,89.9500693 488.404168,90.3467406 487.925154,90.2857143 C484.332551,90.0110957 484.272674,92.4521498 484.272674,94.2829404 L484.272674,98.7378641 C484.272674,99.3481276 483.79366,99.8363384 483.224831,99.8363384 L479.422659,99.8363384 C478.823892,99.8363384 478.344878,99.3481276 478.344878,98.7378641 L478.344878,85.4646325 C478.344878,84.8543689 478.823892,84.3661581 479.422659,84.3661581 L483.224831,84.3661581 C483.79366,84.3661581 484.272674,84.8543689 484.272674,85.4646325 L484.272674,86.776699 Z M500.149985,84.3661581 L503.922219,84.3661581 C504.520986,84.3661581 505,84.8543689 505,85.4646325 L505,98.7378641 C505,99.3481276 504.520986,99.8363384 503.922219,99.8363384 L499.88054,99.8363384 C499.431465,99.8363384 499.072204,99.4701803 499.072204,99.0124827 L499.072204,98.2496533 C498.203992,99.3481276 496.916642,100.202497 494.94071,100.202497 C490.360141,100.202497 489.372175,96.29681 489.372175,94.038835 L489.372175,85.4646325 C489.372175,84.8543689 489.82125,84.3661581 490.420018,84.3661581 L494.22219,84.3661581 C494.820957,84.3661581 495.299971,84.8543689 495.299971,85.4646325 L495.299971,92.147018 C495.299971,93.3675451 495.838861,94.2829404 497.186087,94.2829404 C498.503375,94.2829404 499.072204,93.3675451 499.072204,92.147018 L499.072204,85.4646325 C499.072204,84.8543689 499.551218,84.3661581 500.149985,84.3661581 Z" id="path-2"></path>
    </defs>
    <g id="Logo" stroke="none" strokeWidth="1" fill="none" fillRule="evenodd">
        <g id="Logo_Text_Outlined-Copy" transform="translate(-2.000000, -2.000000)" fillRule="nonzero">
            <g id="Group" transform="translate(2.000000, 2.000000)">
                <path d="M38.6312928,38.8520971 C38.6312928,36.2030905 40.8325061,33.995585 43.473962,33.995585 L73.5205231,33.995585 C76.2720397,33.995585 78.473253,36.2030905 78.473253,38.8520971 L78.473253,74.7240618 C78.473253,76.9315673 76.7122824,78.6975717 74.5110691,78.6975717 L70.4388245,78.6975717 C68.6778539,78.6975717 67.1370046,77.4834437 66.696762,75.7174393 L65.2659734,70.419426 C59.5428189,76.3796909 51.2882691,80.0220751 40.6123848,80.0220751 C17.4996455,80.0220751 0,62.803532 0,40.0662252 C0,17.218543 17.4996455,0 40.6123848,0 C52.9391791,0 63.7251241,4.96688742 70.9891279,13.0242826 C72.6400378,14.790287 72.1997952,17.6600442 70.2187032,18.8741722 L56.0208776,28.3664459 C54.4800284,29.3598234 52.6089971,29.1390728 51.2882691,27.9249448 C48.4266919,25.4966887 44.79469,24.1721854 40.6123848,24.1721854 C31.4773497,24.1721854 24.6535886,30.794702 24.6535886,40.0662252 C24.6535886,49.8896247 31.4773497,56.9536424 40.6123848,56.9536424 C47.2160246,56.9536424 52.0586938,54.7461369 54.590089,49.8896247 L43.473962,49.8896247 C40.8325061,49.8896247 38.6312928,47.7924945 38.6312928,45.0331126 L38.6312928,38.8520971 Z M111.281336,21.4128035 C127.680375,21.4128035 141.437958,31.3465784 141.107776,52.2075055 C140.997715,54.415011 139.346805,56.1810155 137.145592,56.1810155 L103.026786,56.1810155 C104.567636,60.9271523 108.309698,63.6865342 114.142913,63.6865342 C118.325219,63.6865342 121.296857,62.1412804 123.167888,60.5960265 C124.048373,59.7130243 125.479162,59.602649 126.579768,60.2649007 L136.044985,65.8940397 C137.585835,66.8874172 138.026077,68.9845475 136.81541,70.3090508 C132.082802,75.7174393 124.158434,80.0220751 114.142913,80.0220751 C94.001812,80.0220751 81.6750177,67.4392936 81.6750177,50.7726269 C81.6750177,33.7748344 94.331994,21.4128035 111.281336,21.4128035 Z M102.916726,45.3642384 L120.746553,45.3642384 C119.645947,40.5077263 116.89443,37.7483444 111.831639,37.7483444 C107.099031,37.7483444 104.127393,40.7284768 102.916726,45.3642384 Z M182.830773,37.5275938 C182.830773,39.6247241 181.069802,41.3907285 178.868589,41.3907285 L171.824707,41.3907285 L171.824707,53.3112583 C171.824707,56.7328918 173.695738,59.4922737 178.538407,59.4922737 C178.868589,59.4922737 179.308832,59.4922737 179.749074,59.3818985 C181.399984,59.2715232 182.830773,60.7064018 182.830773,62.3620309 L182.830773,76.3796909 C182.830773,77.7041943 181.730166,78.9183223 180.409438,79.2494481 C178.758528,79.580574 176.667376,79.8013245 173.145434,79.8013245 C154.545182,79.8013245 150.032695,66.1147903 150.032695,55.187638 L150.032695,41.3907285 L146.070511,41.3907285 C143.979359,41.3907285 142.218388,39.6247241 142.218388,37.5275938 L142.218388,26.7108168 C142.218388,24.5033113 143.979359,22.7373068 146.070511,22.7373068 L150.032695,22.7373068 L150.032695,14.9006623 C150.032695,12.803532 151.793666,11.0375276 153.994879,11.0375276 L167.862523,11.0375276 C170.063736,11.0375276 171.824707,12.803532 171.824707,14.9006623 L171.824707,22.7373068 L178.868589,22.7373068 C181.069802,22.7373068 182.830773,24.5033113 182.830773,26.7108168 L182.830773,37.5275938 Z M225.214134,25.7174393 C225.214134,24.0618102 226.534862,22.7373068 228.185772,22.7373068 L243.043961,22.7373068 C245.245175,22.7373068 247.006145,24.5033113 247.006145,26.7108168 L247.006145,74.7240618 C247.006145,76.9315673 245.245175,78.6975717 243.043961,78.6975717 L228.185772,78.6975717 C226.534862,78.6975717 225.214134,77.3730684 225.214134,75.7174393 L225.214134,74.392936 C221.802253,77.8145695 217.069645,80.0220751 210.686126,80.0220751 C193.296541,80.0220751 184.931931,65.4525386 184.931931,50.7726269 C184.931931,35.98234 193.296541,21.4128035 210.686126,21.4128035 C216.849523,21.4128035 221.582132,23.5099338 225.214134,26.8211921 L225.214134,25.7174393 Z M215.638856,59.7130243 C221.141889,59.7130243 224.66383,55.9602649 224.66383,50.7726269 C224.66383,45.4746137 221.141889,41.7218543 215.638856,41.7218543 C210.135823,41.7218543 206.613882,45.4746137 206.613882,50.7726269 C206.613882,55.9602649 210.135823,59.7130243 215.638856,59.7130243 Z M314.043095,26.3796909 C314.703459,24.2825607 316.57449,22.7373068 318.885764,22.7373068 L333.854014,22.7373068 C335.945167,22.7373068 337.375955,24.7240618 336.715591,26.6004415 L320.316552,75.3863135 C319.656188,77.3730684 317.785157,78.6975717 315.694005,78.6975717 L304.577878,78.6975717 C302.486725,78.6975717 300.505633,77.2626932 299.95533,75.1655629 L292.691326,51.214128 L285.537383,75.1655629 C284.877019,77.2626932 283.005988,78.6975717 280.804774,78.6975717 L269.688647,78.6975717 C267.597495,78.6975717 265.726463,77.3730684 265.066099,75.3863135 L248.777121,26.6004415 C248.116757,24.7240618 249.547546,22.7373068 251.528638,22.7373068 L266.606949,22.7373068 C268.808162,22.7373068 270.789254,24.2825607 271.339557,26.3796909 L277.282833,49.1169978 L284.106594,26.2693157 C284.766958,24.1721854 286.637989,22.7373068 288.839203,22.7373068 L296.65351,22.7373068 C298.744662,22.7373068 300.725754,24.1721854 301.276058,26.2693157 L308.099819,49.1169978 L314.043095,26.3796909 Z M374.916647,25.7174393 C374.916647,24.0618102 376.237375,22.7373068 377.888285,22.7373068 L392.746474,22.7373068 C394.947688,22.7373068 396.708658,24.5033113 396.708658,26.7108168 L396.708658,74.7240618 C396.708658,76.9315673 394.947688,78.6975717 392.746474,78.6975717 L377.888285,78.6975717 C376.237375,78.6975717 374.916647,77.3730684 374.916647,75.7174393 L374.916647,74.392936 C371.504766,77.8145695 366.772158,80.0220751 360.388639,80.0220751 C342.999055,80.0220751 334.634444,65.4525386 334.634444,50.7726269 C334.634444,35.98234 342.999055,21.4128035 360.388639,21.4128035 C366.552037,21.4128035 371.284645,23.5099338 374.916647,26.8211921 L374.916647,25.7174393 Z M365.341369,59.7130243 C370.844402,59.7130243 374.366344,55.9602649 374.366344,50.7726269 C374.366344,45.4746137 370.844402,41.7218543 365.341369,41.7218543 C359.838336,41.7218543 356.316395,45.4746137 356.316395,50.7726269 C356.316395,55.9602649 359.838336,59.7130243 365.341369,59.7130243 Z M435.570078,26.0485651 C436.340503,24.0618102 438.101473,22.7373068 440.192626,22.7373068 L455.380997,22.7373068 C457.47215,22.7373068 458.902939,24.8344371 458.132514,26.8211921 L437.661231,78.6975717 C433.809107,88.3002208 428.416135,100 414.878673,100 C412.237217,100 409.705822,99.6688742 407.61467,99.1169978 C406.293942,98.785872 405.303396,97.5717439 405.303396,96.2472406 L405.413456,83.7748344 C405.413456,81.8984547 407.064366,80.5739514 408.825337,80.794702 C412.237217,81.3465784 415.869219,80.4635762 417.410069,75.2759382 C416.309462,72.406181 402.551879,38.6313466 397.81927,26.8211921 C397.048846,24.8344371 398.479634,22.7373068 400.570787,22.7373068 L415.539037,22.7373068 C417.63019,22.7373068 419.501221,24.0618102 420.161585,26.1589404 L427.64571,48.4547461 L435.570078,26.0485651 Z M485.987867,43.3774834 C500.075632,46.3576159 508,50.2207506 508,61.0375276 C508,73.7306843 497.874419,80.0220751 481.47538,80.0220751 C472.010163,80.0220751 461.114157,77.7041943 457.041913,70.3090508 C456.161428,68.7637969 456.931852,66.6666667 458.692823,66.1147903 L472.340345,61.9205298 C473.440952,61.589404 474.76168,61.9205298 475.422044,62.803532 C476.41259,64.01766 478.17356,65.1214128 481.035137,65.1214128 C484.336957,65.1214128 486.207989,63.7969095 486.207989,61.8101545 C486.207989,58.9403974 481.585441,58.7196468 475.972347,57.5055188 C464.966281,55.187638 457.372095,51.6556291 457.372095,39.9558499 C457.372095,27.593819 468.818404,21.4128035 483.016229,21.4128035 C491.38084,21.4128035 500.625936,24.7240618 504.478059,31.8984547 C505.468605,33.5540839 504.478059,35.6512141 502.607027,36.2030905 L490.940597,38.9624724 C489.839991,39.2935982 488.629323,38.9624724 487.968959,38.0794702 C486.868353,36.7549669 485.217443,36.0927152 483.236351,36.0927152 C480.154652,36.0927152 478.283621,37.4172185 478.283621,39.4039735 C478.283621,42.0529801 481.47538,42.384106 485.987867,43.3774834 Z" id="Getaways" fill="#2E6AE4"></path>
                <g id=".guru">
                    <use fill="#FD8305" xlink:href="#path-2"></use>
                    <use fill="url(#linearGradient-1)" xlink:href="#path-2"></use>
                </g>
            </g>
        </g>
    </g>
</svg>