<?xml version="1.0" encoding="UTF-8"?>
<svg width="180px" height="180px" viewBox="0 0 180 180" version="1.1" xmlns="http://www.w3.org/2000/svg" xmlns:xlink="http://www.w3.org/1999/xlink">
    <!-- Generator: Sketch 55 (78076) - https://sketchapp.com -->
    <title>Group 6</title>
    <desc>Created with Sketch.</desc>
    <defs>
        <circle id="path-1" cx="90" cy="90" r="90"></circle>
        <polygon id="path-3" points="3.5 0 4.5 0 7 71 0.0181823063 71"></polygon>
    </defs>
    <g id="Page-1" stroke="none" strokeWidth="1" fill="none" fill-rule="evenodd">
        <g id="Group-6">
            <mask id="mask-2" fill="white">
                <use xlink:href="#path-1"></use>
            </mask>
            <use id="Mask" fill="#FFFFFF" xlink:href="#path-1"></use>
            <path d="M27,14 L67,54" id="Path-2" stroke="#D9534F" strokeWidth="2" strokeLinecap="round" mask="url(#mask-2)"></path>
            <path d="M60,0.577777778 L79.4117647,51.005333" id="Path-4" stroke="#D9534F" strokeWidth="2" strokeLinecap="round" mask="url(#mask-2)"></path>
            <path d="M90.5,-6 L90.5,46" id="Path-5" stroke="#D9534F" strokeWidth="2" strokeLinecap="round" mask="url(#mask-2)"></path>
            <path d="M121,4 L101,49" id="Path-7" stroke="#D9534F" strokeWidth="2" strokeLinecap="round" mask="url(#mask-2)"></path>
            <path d="M146,20 L109,57" id="Path-8" stroke="#D9534F" strokeWidth="2" strokeLinecap="round" mask="url(#mask-2)"></path>
            <path d="M173,44 L115,67" id="Path-9" stroke="#D9534F" strokeWidth="2" strokeLinecap="round" mask="url(#mask-2)"></path>
            <path d="M57,64 L11.5789474,43.5882353" id="Path-10" stroke="#D9534F" strokeWidth="2" strokeLinecap="round" mask="url(#mask-2)"></path>
            <path d="M103.037573,108.815542 C113.331373,103.190217 120.297663,92.382788 120.297663,79.9741693 C120.297663,61.7668493 105.299202,47.0069001 86.7976627,47.0069001 C68.2961236,47.0069001 53.2976627,61.7668493 53.2976627,79.9741693" id="Oval" stroke="#D9534F" strokeWidth="3" fill="#FFFFFF" mask="url(#mask-2)" transform="translate(86.797663, 77.911221) rotate(-29.000000) translate(-86.797663, -77.911221) "></path>
            <path d="M24.5,84 L43.6911456,71.5507084 C45.0308182,70.6816631 46.8164631,71.014347 47.7532908,72.3075276 L58.5515906,87.2133116 C59.5453784,88.5851188 61.0727351,89.4729258 62.7565941,89.6575548 L73.7288105,90.8606187 C74.540918,90.9496633 75.2815848,91.3660602 75.779703,92.0136139 L80,97.5 L53,114.155622 L24.5,84 Z" id="Path-18" stroke="#D9534F" strokeWidth="3" fill="#FFFFFF" mask="url(#mask-2)"></path>
            <path d="M61.5,108.5 L91.0978435,90.1775254 C92.2797987,89.4458389 93.7568754,89.3802655 94.9990182,90.0043365 L99.066945,92.0481235 C100.053947,92.5440079 101.256063,92.1458786 101.751948,91.1588769 C101.769418,91.1241043 101.78587,91.0888292 101.801282,91.0530966 L106.47901,80.2079022 C106.795204,79.4748135 107.517097,79 108.315469,79 L118.319756,79 C118.760844,79 119.18956,78.8541843 119.539178,78.585248 L124.073322,75.0974443 C124.980627,74.3995175 126.143467,74.1237437 127.267555,74.3399144 L151.5,79 L142,116 C127.760345,115.955425 117.260345,115.955425 110.5,116 C102.065708,116.055613 94.0219302,115.394571 86,116 C68.3333333,117.333333 60.1666667,114.833333 61.5,108.5 Z" id="Path-19" stroke="#D9534F" strokeWidth="3" fill="#FFFFFF" mask="url(#mask-2)"></path>
            <path d="M172.037843,48.5 L164.404765,50.6730475 C162.685741,51.1624335 161.5,52.7328556 161.5,54.5201842 L161.5,62.2404717 C161.5,63.5783168 160.614144,64.7544775 159.328303,65.1238577 L155.625116,66.1876621 C154.950488,66.3814608 154.42683,66.9147321 154.245334,67.5927741 L145.442468,100.479069 C145.014051,102.079576 143.369282,103.029743 141.768775,102.601326 C141.581715,102.551255 141.399943,102.48319 141.226002,102.398083 L136.771656,100.21864 C135.158298,99.4292491 133.326233,99.2057463 131.570414,99.5841149 L126.440368,100.689609 C125.500111,100.892229 124.63825,101.36175 123.958126,102.041874 L117.47917,108.52083 C116.59042,109.40958 115.241872,109.650095 114.100675,109.123388 L111.185111,107.777743 C110.234774,107.339126 109.106989,107.707419 108.59868,108.622376 L104.5,116 L176.5,120.5 C181.5,108.833333 183.5,96.5 182.5,83.5 C181.5,70.5 178.012614,58.8333333 172.037843,48.5 Z" id="Path-16" stroke="#D9534F" strokeWidth="3" fill="#FFFFFF" mask="url(#mask-2)"></path>
            <path d="M3.27857143,52 L20.1226497,61.2296319 C21.0437742,61.7343577 21.816265,62.4720451 22.3628885,63.3689404 L43.5338166,98.1060187 C44.4096572,99.5430905 46.0913216,100.278248 47.7409783,99.9452243 L53.7319065,98.7358083 C54.4516025,98.59052 55.1930453,98.8512529 55.6633948,99.415028 L69.5,116 L3.27857143,119.5 C-1.24047619,108.5 -3.5,97.5833333 -3.5,86.75 C-3.5,75.9166667 -1.24047619,64.3333333 3.27857143,52 Z" id="Path-13" stroke="#D9534F" strokeWidth="3" fill="#FFFFFF" mask="url(#mask-2)"></path>
            <path d="M43,117 L33.3081953,109.385011 C32.7749732,108.96605 32.3325468,108.443002 32.0078252,107.84768 L28,100.5" id="Path-23" stroke="#D9534F" strokeLinecap="round" mask="url(#mask-2)"></path>
            <path d="M39,113.372094 L43,113.372094" id="Path-25" stroke="#D9534F" strokeLinecap="round" mask="url(#mask-2)"></path>
            <path d="M41,115.372094 L45,115.372094" id="Path-25-Copy-7" stroke="#D9534F" strokeLinecap="round" mask="url(#mask-2)"></path>
            <path d="M42,111.372094 L44,111.372094" id="Path-25-Copy-5" stroke="#D9534F" strokeLinecap="round" mask="url(#mask-2)"></path>
            <path d="M30,103.372094 L32,103.372094" id="Path-25-Copy-6" stroke="#D9534F" strokeLinecap="round" mask="url(#mask-2)"></path>
            <path d="M36,111.372094 L40,111.372094" id="Path-25-Copy" stroke="#D9534F" strokeLinecap="round" mask="url(#mask-2)"></path>
            <path d="M34,109.372094 L38,109.372094" id="Path-25-Copy-2" stroke="#D9534F" strokeLinecap="round" mask="url(#mask-2)"></path>
            <path d="M32,107.372094 L36,107.372094" id="Path-25-Copy-3" stroke="#D9534F" strokeLinecap="round" mask="url(#mask-2)"></path>
            <path d="M31,105.372094 L35,105.372094" id="Path-25-Copy-4" stroke="#D9534F" strokeLinecap="round" mask="url(#mask-2)"></path>
            <path d="M0,86 L5.82823303,88.0929176 C6.52562529,88.3433511 7.02740081,88.958842 7.13219326,89.6923891 L7.84389165,94.6742778 C7.91938086,95.2027023 8.20297437,95.6790242 8.63155157,95.9972265 L10.1922391,97.1559776 C10.7004105,97.5332756 11,98.1288457 11,98.761769 L11,103.5" id="Path-24" stroke="#D9534F" strokeLinecap="round" mask="url(#mask-2)"></path>
            <path d="M6,119.5 C42,117.166667 69.6666667,116 89,116 C108.333333,116 136.333333,117.166667 173,119.5" id="Path-17" stroke="#D9534F" strokeWidth="3" strokeLinecap="round" mask="url(#mask-2)"></path>
            <g id="Group-3" mask="url(#mask-2)">
                <g transform="translate(39.000000, 115.000000)">
                    <path d="M44,2 L6,52.1460767 C18,61.3820256 33.3333333,66 52,66 C70.6666667,66 85.1666667,61.3820256 95.5,52.1460767 L60.5,2 L44,2 Z" id="Path-22" fill="#FFFFFF"></path>
                    <path d="M21.2357928,-4.72099938 L21.2357928,-4.72099938 C21.5400817,-4.70319005 21.7878619,-4.46986784 21.8239114,-4.16719757 L29.4390435,59.7690565 C29.565859,60.8337935 28.8304398,61.8090991 27.7718877,61.9800218 L25.1264343,62.4071787 C24.0359884,62.5832512 23.0092724,61.8420051 22.8331999,60.7515592 C22.8195999,60.6673322 22.8114034,60.5823212 22.8086606,60.4970474 L20.7269023,-4.22532354 C20.7183617,-4.49085366 20.9266929,-4.71303189 21.192223,-4.72157252 C21.2067475,-4.72203969 21.2212857,-4.72184845 21.2357928,-4.72099938 Z" id="Rectangle" fill="#D9534F" transform="translate(25.089952, 28.855615) rotate(40.000000) translate(-25.089952, -28.855615) "></path>
                    <path d="M73.5116837,-4.60905939 L73.5116837,-4.60905939 C73.816333,-4.59122896 74.0648127,-4.35842054 74.1024237,-4.05557647 L81.9544308,59.1687755 C82.0757135,60.1453434 81.4685705,61.0650301 80.522896,61.3372326 L77.6272168,62.1707235 C76.5657447,62.4762571 75.4575676,61.8634479 75.152034,60.8019758 C75.1062223,60.6428187 75.0803573,60.4785874 75.075033,60.3130539 L73.0027932,-4.11338355 C72.9942526,-4.37891367 73.2025838,-4.60109191 73.4681139,-4.60963253 C73.4826384,-4.6100997 73.4971766,-4.60990846 73.5116837,-4.60905939 Z" id="Rectangle-Copy" fill="#D9534F" transform="translate(77.486174, 28.819697) scale(-1, 1) rotate(40.000000) translate(-77.486174, -28.819697) "></path>
                    <g id="Rectangle" strokeWidth="1" fill="none" transform="translate(47.000000, 0.000000)">
                        <mask id="mask-4" fill="white">
                            <use xlink:href="#path-3"></use>
                        </mask>
                        <use id="Mask" fill="#FFFFFF" xlink:href="#path-3"></use>
                        <rect stroke="#D9534F" fill="#D9534F" mask="url(#mask-4)" x="3.5" y="-1.75396825" width="1" height="11.3968254" rx="0.5"></rect>
                        <rect id="Rectangle-Copy-2" stroke="#D9534F" fill="#D9534F" mask="url(#mask-4)" x="1.5" y="14.0238095" width="5" height="18.1587302" rx="2.5"></rect>
                        <rect id="Rectangle-Copy-4" stroke="#D9534F" fill="#D9534F" mask="url(#mask-4)" x="0.5" y="38.8174603" width="6" height="36.1904762" rx="3"></rect>
                    </g>
                </g>
            </g>
        </g>
    </g>
</svg>