<?xml version="1.0" encoding="UTF-8"?>
<svg width="602px" height="444px" viewBox="0 0 602 444" version="1.1" xmlns="http://www.w3.org/2000/svg" xmlns:xlink="http://www.w3.org/1999/xlink">
    <!-- Generator: Sketch 55 (78076) - https://sketchapp.com -->
    <title>3024050</title>
    <desc>Created with Sketch.</desc>
    <defs>
        <polygon id="path-1" points="0.06 0.939 577.333 0.939 577.333 441.2675 0.06 441.2675"></polygon>
        <polygon id="path-3" points="0.569 0.937 43.373 0.937 43.373 18.94 0.569 18.94"></polygon>
    </defs>
    <g id="3024050" stroke="none" stroke-width="1" fill="none" fill-rule="evenodd">
        <polyline id="Fill-1" fill="#F1F0EC" points="244.053 288.432 131.848 363.482 21.34 198.264 133.546 123.215 244.053 288.432"></polyline>
        <polyline id="Fill-2" fill="#D4D5CF" points="186.086 280.598 184.813 288.479 129.034 280.443 130.308 272.563 186.086 280.598"></polyline>
        <polyline id="Fill-3" fill="#D4D5CF" points="157.995 252.485 165.999 253.639 157.125 308.556 149.121 307.403 157.995 252.485"></polyline>
        <path d="M106.618,182.684 C106.698,182.804 95.454,190.465 81.507,199.794 C67.554,209.126 56.182,216.592 56.103,216.472 C56.023,216.353 67.265,208.693 81.217,199.361 C95.164,190.032 106.539,182.565 106.618,182.684" id="Fill-4" fill="#D4D5CF"></path>
        <path d="M147.882,172.326 C147.962,172.446 129.263,185.093 106.123,200.57 C82.974,216.054 64.15,228.504 64.07,228.384 C63.99,228.265 82.685,215.62 105.833,200.138 C128.974,184.66 147.802,172.206 147.882,172.326" id="Fill-5" fill="#D4D5CF"></path>
        <path d="M156.153,184.692 C156.234,184.812 137.535,197.459 114.394,212.936 C91.246,228.42 72.421,240.87 72.341,240.751 C72.261,240.631 90.956,227.987 114.105,212.504 C137.245,197.026 156.073,184.573 156.153,184.692" id="Fill-6" fill="#D4D5CF"></path>
        <path d="M164.425,197.058 C164.505,197.178 145.806,209.825 122.666,225.303 C99.517,240.786 80.693,253.236 80.612,253.117 C80.533,252.998 99.227,240.353 122.376,224.87 C145.516,209.392 164.345,196.939 164.425,197.058" id="Fill-7" fill="#D4D5CF"></path>
        <path d="M172.696,209.425 C172.776,209.545 154.077,222.192 130.937,237.669 C107.788,253.152 88.964,265.603 88.884,265.483 C88.804,265.364 107.499,252.72 130.647,237.237 C153.788,221.759 172.616,209.306 172.696,209.425" id="Fill-8" fill="#D4D5CF"></path>
        <polyline id="Fill-9" fill="#F1F0EC" points="601.548 372.698 507.314 435.726 414.508 296.972 508.741 233.943 601.548 372.698"></polyline>
        <polyline id="Fill-10" fill="#D4D5CF" points="552.865 366.118 551.796 372.737 504.952 365.988 506.022 359.37 552.865 366.118"></polyline>
        <polyline id="Fill-11" fill="#D4D5CF" points="529.275 342.509 535.996 343.476 528.543 389.598 521.821 388.63 529.275 342.509"></polyline>
        <path d="M486.126,283.888 C486.206,284.007 476.774,290.456 465.06,298.291 C453.342,306.129 443.781,312.383 443.701,312.263 C443.621,312.143 453.053,305.695 464.771,297.858 C476.483,290.023 486.046,283.767 486.126,283.888" id="Fill-12" fill="#D4D5CF"></path>
        <path d="M520.78,275.188 C520.86,275.307 505.167,285.944 485.733,298.943 C466.292,311.946 450.473,322.388 450.393,322.267 C450.313,322.148 466.003,311.514 485.443,298.511 C504.878,285.512 520.7,275.068 520.78,275.188" id="Fill-13" fill="#D4D5CF"></path>
        <path d="M527.728,285.574 C527.808,285.693 512.113,296.33 492.68,309.329 C473.239,322.332 457.419,332.772 457.339,332.653 C457.26,332.534 472.949,321.899 492.391,308.896 C511.824,295.897 527.648,285.454 527.728,285.574" id="Fill-14" fill="#D4D5CF"></path>
        <path d="M534.674,295.96 C534.754,296.079 519.061,306.716 499.626,319.715 C480.186,332.718 464.366,343.158 464.286,343.039 C464.206,342.92 479.896,332.285 499.337,319.282 C518.771,306.283 534.594,295.84 534.674,295.96" id="Fill-15" fill="#D4D5CF"></path>
        <path d="M541.62,306.345 C541.7,306.465 526.007,317.101 506.573,330.1 C487.132,343.103 471.313,353.544 471.233,353.425 C471.152,353.305 486.842,342.671 506.283,329.667 C525.717,316.669 541.54,306.225 541.62,306.345" id="Fill-16" fill="#D4D5CF"></path>
        <polyline id="Fill-17" fill="#F1F0EC" points="278.69 280.667 175.872 225.678 256.841 74.281 359.66 129.27 278.69 280.667"></polyline>
        <polyline id="Fill-18" fill="#D4D5CF" points="261.089 233.307 254.565 235.541 238.008 189.767 244.531 187.533 261.089 233.307"></polyline>
        <polyline id="Fill-19" fill="#D4D5CF" points="271.09 200.469 273.466 207.037 228.007 222.606 225.631 216.037 271.09 200.469"></polyline>
        <path d="M303.391,132.932 C303.311,133.083 292.882,127.662 280.101,120.827 C267.316,113.99 257.021,108.327 257.101,108.176 C257.181,108.025 267.608,113.445 280.393,120.282 C293.173,127.118 303.472,132.782 303.391,132.932" id="Fill-20" fill="#D4D5CF"></path>
        <path d="M328.064,160.165 C327.983,160.316 310.724,151.243 289.52,139.902 C268.307,128.557 251.183,119.242 251.263,119.092 C251.343,118.941 268.599,128.013 289.811,139.357 C311.016,150.698 328.144,160.015 328.064,160.165" id="Fill-21" fill="#D4D5CF"></path>
        <path d="M322.003,171.497 C321.923,171.648 304.664,162.575 283.459,151.234 C262.247,139.89 245.122,130.574 245.203,130.423 C245.283,130.273 262.539,139.344 283.751,150.689 C304.955,162.03 322.084,171.347 322.003,171.497" id="Fill-22" fill="#D4D5CF"></path>
        <path d="M315.942,182.829 C315.862,182.98 298.604,173.907 277.399,162.566 C256.187,151.221 239.062,141.906 239.142,141.755 C239.223,141.605 256.478,150.676 277.69,162.021 C298.895,173.361 316.024,182.679 315.942,182.829" id="Fill-23" fill="#D4D5CF"></path>
        <g id="Group-30">
            <mask id="mask-2" fill="white">
                <use xlink:href="#path-1"></use>
            </mask>
            <g id="Clip-25"></g>
            <path d="M309.882,194.161 C309.802,194.312 292.543,185.238 271.338,173.898 C250.126,162.553 233.001,153.238 233.082,153.087 C233.162,152.936 250.418,162.008 271.63,173.352 C292.834,184.693 309.963,194.011 309.882,194.161" id="Fill-24" fill="#D4D5CF" mask="url(#mask-2)"></path>
            <polygon id="Fill-26" fill="#BEBFBB" mask="url(#mask-2)" points="307.838 44.922 310.421 44.922 310.421 0.939 307.838 0.939"></polygon>
            <path d="M248.899,98.128 L369.36,98.128 C369.36,98.128 358.238,44.894 308.217,44.894 C263.725,44.894 248.899,98.128 248.899,98.128" id="Fill-27" fill="#E0565F" mask="url(#mask-2)"></path>
            <polygon id="Fill-28" fill="#E0565F" mask="url(#mask-2)" points="307.838 44.922 310.421 44.922 310.421 0.939 307.838 0.939"></polygon>
            <path d="M577.333,440.767 C577.333,440.911 448.082,441.028 288.68,441.028 C129.223,441.028 0,440.911 0,440.767 C0,440.624 129.223,440.507 288.68,440.507 C448.082,440.507 577.333,440.624 577.333,440.767" id="Fill-29" fill="#132529" mask="url(#mask-2)"></path>
        </g>
        <path d="M31.952,378.141 C35.334,378.259 38.507,380.095 40.737,382.639 C42.967,385.183 44.335,388.383 45.209,391.65 C46.901,397.974 45.861,405.436 44.058,411.728 C37.212,409.282 32.99,401.981 31.082,398.143 C28.065,392.077 26.296,379.281 31.952,378.141" id="Fill-31" fill="#E0565F"></path>
        <path d="M53.908,419.392 C51.748,416.292 51.697,411.979 53.405,408.607 C55.112,405.235 58.393,402.804 62.005,401.694 C63.676,401.182 65.614,400.966 67.068,401.936 C68.426,402.844 69.013,404.624 68.837,406.249 C68.663,407.873 67.839,409.359 66.869,410.673 C63.54,415.18 59.492,418.931 53.908,419.392" id="Fill-32" fill="#E0565F"></path>
        <path d="M54.662,440.523 C54.629,440.528 54.525,440.059 54.356,439.21 C54.173,438.272 53.936,437.06 53.651,435.605 C53.111,432.575 52.254,428.266 52.902,423.502 C53.526,418.76 55.414,414.705 57.393,412.284 C58.367,411.059 59.299,410.192 59.989,409.659 C60.323,409.379 60.618,409.206 60.804,409.074 C60.996,408.948 61.101,408.889 61.11,408.902 C61.185,408.986 59.51,410.018 57.659,412.488 C55.784,414.917 53.986,418.902 53.373,423.565 C52.734,428.232 53.525,432.502 53.982,435.549 C54.227,437.078 54.424,438.318 54.538,439.18 C54.652,440.04 54.693,440.518 54.662,440.523" id="Fill-33" fill="#132529"></path>
        <path d="M34.16,387.766 C34.175,387.759 34.27,387.937 34.436,388.284 C34.618,388.678 34.852,389.182 35.141,389.807 C35.746,391.135 36.597,393.066 37.628,395.461 C39.69,400.25 42.447,406.906 45.325,414.324 C48.201,421.746 50.653,428.521 52.359,433.448 C53.213,435.912 53.886,437.911 54.334,439.299 C54.542,439.956 54.71,440.486 54.84,440.9 C54.951,441.267 55.002,441.464 54.986,441.469 C54.971,441.474 54.89,441.289 54.75,440.932 C54.598,440.525 54.402,440.004 54.16,439.359 C53.64,437.934 52.922,435.968 52.043,433.561 C50.257,428.664 47.757,421.912 44.882,414.496 C42.007,407.083 39.301,400.411 37.319,395.591 C36.344,393.221 35.548,391.284 34.972,389.881 C34.716,389.241 34.509,388.724 34.348,388.322 C34.211,387.964 34.146,387.771 34.16,387.766" id="Fill-34" fill="#132529"></path>
        <path d="M46.536,426.543 C42.498,419.674 34.961,414.99 27.014,414.414 C24.99,414.266 22.556,414.607 21.653,416.425 C20.749,418.245 21.958,420.399 23.337,421.892 C29.073,428.106 38.776,430.272 46.611,427.088" id="Fill-35" fill="#E0565F"></path>
        <path d="M30.095,419.831 C30.098,419.799 30.548,419.817 31.362,419.878 C31.77,419.906 32.27,419.942 32.841,420.05 C33.411,420.155 34.074,420.218 34.78,420.414 C35.491,420.589 36.276,420.763 37.087,421.055 C37.915,421.3 38.765,421.654 39.658,422.032 C41.422,422.833 43.294,423.882 45.075,425.244 C46.844,426.623 48.339,428.164 49.553,429.675 C50.138,430.45 50.695,431.183 51.13,431.93 C51.611,432.647 51.968,433.367 52.304,434.018 C52.663,434.657 52.875,435.29 53.109,435.82 C53.347,436.351 53.494,436.83 53.612,437.221 C53.855,438.002 53.973,438.435 53.942,438.445 C53.841,438.48 53.355,436.732 52.006,434.172 C51.655,433.54 51.287,432.839 50.799,432.141 C50.357,431.416 49.796,430.703 49.212,429.948 C47.999,428.477 46.523,426.974 44.786,425.62 C43.036,424.282 41.204,423.241 39.478,422.431 C38.604,422.048 37.772,421.684 36.962,421.428 C36.167,421.123 35.398,420.933 34.701,420.74 C31.894,420.03 30.085,419.934 30.095,419.831" id="Fill-36" fill="#132529"></path>
        <path d="M484.027,106.414 C481.087,107.091 479.655,110.474 479.377,113.478 C479.099,116.483 479.482,119.656 478.22,122.397 C476.799,125.482 473.407,127.756 473.294,131.15 C473.226,133.22 474.454,135.166 474.396,137.235 C474.299,140.635 470.832,143.203 470.65,146.599 C470.52,149.044 472.149,151.39 471.757,153.807 C471.451,155.689 469.987,157.171 469.368,158.973 C468.134,162.566 470.602,166.521 473.817,168.544 C477.4,170.797 481.988,171.379 486.02,170.091 C490.052,168.803 493.452,165.668 495.065,161.755 C496.844,157.436 496.455,152.573 496.068,147.918 C494.863,133.413 493.968,118.882 493.383,104.338" id="Fill-37" fill="#132529"></path>
        <path d="M475.491,157.603 C475.428,157.545 476.295,157.288 476.834,156.005 C477.096,155.377 477.23,154.534 477.177,153.564 C477.143,152.587 476.81,151.524 476.447,150.326 C476.112,149.137 475.676,147.759 475.926,146.225 C476.178,144.668 477.292,143.39 478.309,142.133 C478.82,141.496 479.335,140.835 479.659,140.081 C480,139.336 480.072,138.483 479.816,137.683 C479.299,136.049 477.698,134.848 476.963,132.961 C476.599,132.016 476.595,130.978 476.803,130.043 C477,129.099 477.383,128.243 477.768,127.426 C478.551,125.798 479.413,124.305 479.755,122.721 C480.456,119.549 480.129,116.521 480.607,114.034 C481.039,111.542 482.092,109.668 483.135,108.705 C483.643,108.207 484.135,107.942 484.456,107.764 C484.798,107.617 484.979,107.549 484.985,107.565 C485.019,107.621 484.244,107.859 483.278,108.848 C482.314,109.823 481.347,111.656 480.969,114.095 C480.771,115.308 480.741,116.672 480.691,118.136 C480.64,119.599 480.594,121.188 480.222,122.83 C479.874,124.494 478.988,126.046 478.229,127.645 C477.477,129.216 476.786,131.058 477.451,132.78 C478.086,134.482 479.697,135.691 480.302,137.53 C480.598,138.445 480.501,139.459 480.115,140.279 C479.748,141.113 479.203,141.795 478.682,142.435 C477.636,143.699 476.59,144.902 476.351,146.301 C476.101,147.693 476.486,149.036 476.802,150.224 C477.137,151.414 477.46,152.534 477.468,153.551 C477.494,154.559 477.325,155.437 477.021,156.086 C476.719,156.739 476.306,157.142 475.996,157.348 C475.688,157.559 475.491,157.603 475.491,157.603" id="Fill-38" fill="#334F55"></path>
        <path d="M467.617,181.305 L458.591,207.327 L420.947,209.345 L414.67,223.313 L453.971,227.289 C461.808,230.529 470.761,226.558 473.621,218.575 L484.109,189.3 L467.617,181.305" id="Fill-39" fill="#B67E6D"></path>
        <path d="M545.481,426.637 C545.481,426.637 517.894,339.018 517.309,336.174 C516.779,333.603 527.32,270.551 528.648,254.232 L491.373,255.622 C491.373,255.622 491.372,255.721 491.37,255.893 L475.526,256.772 L489.717,435.966 L506.87,435.966 L505.169,376.515 C515.746,404.911 530.903,433.849 530.903,433.849 L545.481,426.637" id="Fill-40" fill="#B67E6D"></path>
        <path d="M505.869,397.822 C505.884,397.278 505.661,377.903 505.661,377.903 C505.447,379.062 499.085,361.08 499.239,359.987 C499.318,359.421 505.869,397.822 505.869,397.822" id="Fill-41" fill="#A16354"></path>
        <path d="M498.514,351.473 C498.474,351.473 498.437,351.859 498.403,352.559 C498.366,353.26 498.358,354.276 498.426,355.53 C498.45,356.159 498.516,356.844 498.597,357.579 C498.691,358.312 498.791,359.098 498.961,359.913 C499.272,361.549 499.752,363.318 500.363,365.134 C501.608,368.758 502.983,371.929 503.959,374.229 C504.421,375.278 504.818,376.181 505.152,376.938 C505.445,377.573 505.625,377.918 505.661,377.903 C505.698,377.889 505.588,377.516 505.358,376.855 C505.129,376.194 504.778,375.245 504.332,374.078 C503.451,371.739 502.137,368.544 500.903,364.952 C500.298,363.153 499.81,361.415 499.476,359.809 C499.294,359.01 499.178,358.238 499.066,357.517 C498.965,356.795 498.877,356.121 498.828,355.501 C498.71,354.264 498.656,353.256 498.625,352.558 C498.591,351.861 498.553,351.474 498.514,351.473" id="Fill-42" fill="#A16354"></path>
        <path d="M489.395,436.849 L489.388,435.238 L506.957,434.473 L507.006,441.118 L505.922,441.19 C501.099,441.473 481.38,442.286 478.152,441.319 C474.553,440.239 489.395,436.849 489.395,436.849" id="Fill-43" fill="#334F55"></path>
        <path d="M507.251,440.716 C507.251,440.723 507.148,440.734 506.95,440.749 C506.691,440.765 506.407,440.784 506.087,440.805 C505.224,440.845 504.163,440.894 502.911,440.953 C500.228,441.058 496.519,441.156 492.422,441.175 C488.323,441.192 484.613,441.127 481.93,441.045 C480.677,440.997 479.615,440.957 478.752,440.924 C478.432,440.906 478.148,440.89 477.889,440.876 C477.691,440.863 477.588,440.852 477.588,440.846 C477.588,440.838 477.692,440.834 477.89,440.834 C478.15,440.836 478.434,440.839 478.754,440.842 C479.618,440.856 480.68,440.874 481.933,440.894 C484.616,440.939 488.324,440.98 492.421,440.963 C496.516,440.944 500.223,440.871 502.906,440.803 C504.159,440.771 505.221,440.744 506.084,440.722 C506.404,440.716 506.689,440.711 506.948,440.706 C507.147,440.705 507.25,440.708 507.251,440.716" id="Fill-44" fill="#132529"></path>
        <path d="M483.703,441.281 C483.638,441.29 483.586,440.531 483.104,439.767 C482.635,438.994 481.981,438.609 482.017,438.555 C482.028,438.502 482.779,438.829 483.284,439.656 C483.798,440.476 483.755,441.294 483.703,441.281" id="Fill-45" fill="#132529"></path>
        <path d="M488.851,438.646 C488.802,438.678 488.554,438.378 488.298,437.977 C488.041,437.577 487.873,437.226 487.923,437.194 C487.972,437.163 488.22,437.463 488.476,437.863 C488.733,438.265 488.9,438.614 488.851,438.646" id="Fill-46" fill="#132529"></path>
        <path d="M490.264,437.892 C490.225,437.936 489.948,437.753 489.647,437.483 C489.344,437.214 489.131,436.96 489.17,436.917 C489.208,436.873 489.485,437.056 489.787,437.325 C490.089,437.595 490.303,437.848 490.264,437.892" id="Fill-47" fill="#132529"></path>
        <path d="M491.152,436.239 C491.153,436.298 490.745,436.351 490.241,436.359 C489.736,436.366 489.327,436.325 489.326,436.266 C489.325,436.208 489.733,436.155 490.238,436.147 C490.742,436.14 491.151,436.181 491.152,436.239" id="Fill-48" fill="#132529"></path>
        <path d="M491.455,435.075 C491.476,435.127 491.031,435.329 490.439,435.375 C489.847,435.423 489.376,435.293 489.388,435.238 C489.397,435.178 489.859,435.21 490.422,435.163 C490.984,435.121 491.437,435.016 491.455,435.075" id="Fill-49" fill="#132529"></path>
        <path d="M488.253,437.124 C488.254,437.147 487.823,437.201 487.129,437.12 C486.783,437.08 486.373,437 485.933,436.861 C485.713,436.784 485.484,436.726 485.247,436.582 C485.136,436.508 485.012,436.404 484.968,436.233 C484.921,436.065 485.01,435.876 485.136,435.784 C486.208,435.223 487.285,435.824 487.686,436.377 C487.906,436.66 488.008,436.935 488.055,437.126 C488.101,437.317 488.098,437.427 488.085,437.429 C488.046,437.443 488.008,436.987 487.57,436.473 C487.355,436.221 487.027,435.975 486.608,435.852 C486.211,435.736 485.647,435.707 485.27,435.948 C485.092,436.081 485.162,436.291 485.361,436.408 C485.546,436.527 485.785,436.598 485.993,436.676 C486.419,436.82 486.816,436.914 487.151,436.973 C487.824,437.089 488.253,437.089 488.253,437.124" id="Fill-50" fill="#132529"></path>
        <path d="M487.962,437.18 C487.946,437.192 487.779,436.906 487.829,436.4 C487.856,436.152 487.945,435.858 488.133,435.579 C488.33,435.329 488.584,434.984 489.066,435.003 C489.326,435.035 489.455,435.331 489.414,435.52 C489.395,435.718 489.307,435.887 489.226,436.022 C489.06,436.304 488.871,436.532 488.697,436.704 C488.346,437.05 488.068,437.182 488.056,437.161 C488.036,437.134 488.279,436.959 488.588,436.602 C488.741,436.424 488.907,436.198 489.056,435.927 C489.209,435.688 489.313,435.262 489.03,435.212 C488.75,435.185 488.464,435.467 488.293,435.691 C488.117,435.935 488.02,436.197 487.978,436.423 C487.894,436.881 487.999,437.172 487.962,437.18" id="Fill-51" fill="#132529"></path>
        <path d="M506.876,435.933 C506.873,435.973 506.376,435.888 505.586,435.984 C504.804,436.074 503.716,436.399 502.773,437.155 C501.829,437.914 501.277,438.905 501.021,439.65 C500.757,440.4 500.733,440.904 500.693,440.899 C500.68,440.898 500.674,440.772 500.691,440.547 C500.709,440.32 500.762,439.994 500.878,439.603 C501.105,438.827 501.656,437.781 502.64,436.99 C503.624,436.201 504.764,435.889 505.571,435.835 C505.978,435.806 506.308,435.824 506.532,435.856 C506.757,435.888 506.879,435.921 506.876,435.933" id="Fill-52" fill="#132529"></path>
        <path d="M498.462,439.323 C498.47,439.378 497.329,439.56 495.909,439.565 C494.488,439.575 493.347,439.405 493.354,439.35 C493.359,439.289 494.501,439.363 495.908,439.354 C497.316,439.348 498.455,439.262 498.462,439.323" id="Fill-53" fill="#132529"></path>
        <path d="M501.887,439.286 C501.93,439.328 501.794,439.528 501.679,439.79 C501.56,440.052 501.5,440.285 501.441,440.281 C501.384,440.281 501.349,440.006 501.485,439.704 C501.62,439.401 501.85,439.243 501.887,439.286" id="Fill-54" fill="#132529"></path>
        <path d="M503.173,437.674 C503.214,437.716 503.102,437.897 502.922,438.081 C502.741,438.265 502.562,438.382 502.52,438.341 C502.479,438.3 502.59,438.117 502.771,437.933 C502.95,437.749 503.131,437.634 503.173,437.674" id="Fill-55" fill="#132529"></path>
        <path d="M505.017,436.933 C505.005,436.993 504.773,436.991 504.517,437.083 C504.258,437.168 504.075,437.311 504.029,437.272 C503.983,437.24 504.129,436.991 504.448,436.883 C504.766,436.772 505.035,436.879 505.017,436.933" id="Fill-56" fill="#132529"></path>
        <g id="Group-60" transform="translate(505.000000, 425.000000)">
            <mask id="mask-4" fill="white">
                <use xlink:href="#path-3"></use>
            </mask>
            <g id="Clip-58"></g>
            <path d="M1.331,11.582 C1.353,11.637 1.252,11.726 1.108,11.783 C0.963,11.841 0.828,11.842 0.807,11.788 C0.785,11.733 0.886,11.643 1.03,11.587 C1.175,11.529 1.31,11.528 1.331,11.582" id="Fill-57" fill="#132529" mask="url(#mask-4)"></path>
            <path d="M25.56,10.3 L24.893,8.833 L40.608,0.937 L43.373,6.979 L42.414,7.49 C38.131,9.723 20.475,18.542 17.134,18.981 C13.408,19.471 25.56,10.3 25.56,10.3" id="Fill-59" fill="#334F55" mask="url(#mask-4)"></path>
        </g>
        <path d="M548.432,431.512 C548.436,431.518 548.346,431.571 548.172,431.666 C547.943,431.787 547.692,431.92 547.407,432.069 C546.637,432.46 545.689,432.939 544.57,433.506 C542.166,434.702 538.822,436.31 535.093,438.006 C531.36,439.7 527.949,441.16 525.467,442.184 C524.305,442.654 523.32,443.052 522.52,443.376 C522.22,443.491 521.954,443.593 521.712,443.686 C521.526,443.755 521.428,443.788 521.425,443.781 C521.423,443.774 521.516,443.728 521.696,443.646 C521.934,443.543 522.193,443.429 522.487,443.3 C523.281,442.959 524.258,442.541 525.409,442.046 C527.876,440.987 531.276,439.506 535.005,437.812 C538.733,436.118 542.084,434.532 544.505,433.372 C545.634,432.829 546.592,432.37 547.37,431.996 C547.661,431.859 547.918,431.738 548.152,431.628 C548.333,431.546 548.429,431.506 548.432,431.512" id="Fill-61" fill="#132529"></path>
        <path d="M527.183,441.674 C527.127,441.708 526.768,441.038 526.016,440.538 C525.272,440.025 524.516,439.941 524.526,439.877 C524.517,439.824 525.335,439.814 526.135,440.362 C526.94,440.9 527.235,441.664 527.183,441.674" id="Fill-62" fill="#132529"></path>
        <path d="M530.799,437.161 C530.768,437.21 530.418,437.038 530.021,436.778 C529.622,436.517 529.325,436.266 529.358,436.218 C529.39,436.168 529.738,436.34 530.137,436.6 C530.534,436.861 530.831,437.112 530.799,437.161" id="Fill-63" fill="#132529"></path>
        <path d="M531.779,435.895 C531.762,435.951 531.435,435.897 531.049,435.775 C530.662,435.653 530.363,435.509 530.382,435.453 C530.4,435.397 530.727,435.451 531.112,435.573 C531.498,435.695 531.797,435.839 531.779,435.895" id="Fill-64" fill="#132529"></path>
        <path d="M531.913,434.022 C531.938,434.076 531.587,434.292 531.131,434.506 C530.673,434.719 530.283,434.848 530.258,434.796 C530.234,434.743 530.584,434.527 531.041,434.313 C531.498,434.099 531.889,433.97 531.913,434.022" id="Fill-65" fill="#132529"></path>
        <path d="M531.712,432.837 C531.752,432.876 531.43,433.242 530.907,433.526 C530.387,433.813 529.904,433.887 529.893,433.833 C529.877,433.773 530.312,433.613 530.806,433.341 C531.302,433.071 531.671,432.791 531.712,432.837" id="Fill-66" fill="#132529"></path>
        <path d="M529.63,436.017 C529.641,436.038 529.27,436.265 528.604,436.474 C528.272,436.579 527.864,436.674 527.405,436.728 C527.174,436.748 526.942,436.789 526.666,436.754 C526.533,436.732 526.378,436.688 526.269,436.551 C526.156,436.417 526.16,436.208 526.238,436.071 C526.986,435.122 528.215,435.227 528.807,435.568 C529.124,435.736 529.329,435.946 529.45,436.1 C529.57,436.257 529.612,436.357 529.602,436.364 C529.571,436.393 529.35,435.993 528.74,435.703 C528.441,435.561 528.042,435.472 527.609,435.531 C527.199,435.588 526.672,435.792 526.427,436.167 C526.319,436.361 526.469,436.523 526.698,436.549 C526.916,436.581 527.164,436.549 527.385,436.534 C527.833,436.492 528.233,436.415 528.563,436.33 C529.225,436.161 529.615,435.985 529.63,436.017" id="Fill-67" fill="#132529"></path>
        <path d="M529.388,436.188 C529.378,436.206 529.109,436.013 528.947,435.531 C528.87,435.294 528.831,434.988 528.888,434.657 C528.966,434.348 529.057,433.93 529.503,433.75 C529.754,433.672 530.34,434.177 530.381,434.366 C530.443,434.554 530.084,434.457 530.067,434.615 C530.03,434.939 529.951,435.224 529.863,435.453 C529.685,435.912 529.486,436.146 529.466,436.133 C529.437,436.115 529.587,435.856 529.722,435.404 C529.788,435.179 529.848,434.904 529.872,434.597 C529.914,434.316 529.834,433.885 529.557,433.955 C529.289,434.046 529.144,434.419 529.079,434.694 C529.02,434.988 529.038,435.267 529.092,435.491 C529.202,435.942 529.418,436.165 529.388,436.188" id="Fill-68" fill="#132529"></path>
        <path d="M546.132,427.304 C546.145,427.341 545.656,427.467 544.976,427.878 C544.299,428.28 543.44,429.022 542.889,430.098 C542.339,431.177 542.241,432.307 542.313,433.092 C542.379,433.885 542.564,434.354 542.526,434.366 C542.513,434.37 542.455,434.259 542.379,434.045 C542.303,433.831 542.217,433.512 542.163,433.107 C542.052,432.306 542.127,431.127 542.7,430.003 C543.275,428.88 544.187,428.127 544.901,427.748 C545.259,427.554 545.568,427.436 545.786,427.373 C546.004,427.309 546.129,427.291 546.132,427.304" id="Fill-69" fill="#132529"></path>
        <path d="M539.844,433.842 C539.873,433.889 538.908,434.521 537.615,435.109 C536.322,435.7 535.212,436.013 535.195,435.96 C535.176,435.901 536.247,435.502 537.527,434.916 C538.809,434.335 539.814,433.788 539.844,433.842" id="Fill-70" fill="#132529"></path>
        <path d="M542.953,432.405 C543.01,432.426 542.968,432.664 542.971,432.95 C542.968,433.237 543.01,433.474 542.953,433.496 C542.902,433.519 542.758,433.282 542.758,432.95 C542.758,432.619 542.901,432.382 542.953,432.405" id="Fill-71" fill="#132529"></path>
        <path d="M543.466,430.408 C543.521,430.429 543.493,430.64 543.404,430.883 C543.316,431.124 543.198,431.304 543.144,431.283 C543.089,431.264 543.116,431.051 543.205,430.809 C543.294,430.567 543.411,430.388 543.466,430.408" id="Fill-72" fill="#132529"></path>
        <path d="M544.846,428.976 C544.859,429.036 544.647,429.13 544.45,429.318 C544.249,429.502 544.142,429.708 544.083,429.69 C544.027,429.681 544.059,429.392 544.305,429.164 C544.55,428.932 544.839,428.92 544.846,428.976" id="Fill-73" fill="#132529"></path>
        <path d="M545.901,428.118 C545.943,428.159 545.888,428.282 545.778,428.393 C545.67,428.505 545.548,428.561 545.506,428.52 C545.464,428.479 545.519,428.356 545.627,428.245 C545.736,428.134 545.859,428.077 545.901,428.118" id="Fill-74" fill="#132529"></path>
        <path d="M526.231,224.575 L523.305,188.877 L538.333,189.145 C538.333,189.145 539.029,183.882 536.815,172.336 C535.457,165.257 530.742,160.914 525.454,158.334 L525.455,158.24 L524.997,158.12 C518.272,154.972 511.232,154.528 511.232,154.528 L492.785,154.741 C492.785,154.741 478.693,152.983 470.893,163.029 C467.888,166.898 458.591,193.384 458.591,193.384 L480.732,204.048 L478.625,189.361 C478.625,189.361 479.044,200.009 480.403,203.383 C481.16,205.263 483.353,211.099 483.353,211.099 L483.066,228.714 L526.231,224.575" id="Fill-75" fill="#E0565F"></path>
        <polyline id="Fill-76" fill="#E0565F" points="516.053 183.695 513.316 195.361 539.147 195.361 537.447 175.803 516.053 183.695"></polyline>
        <path d="M539.147,195.361 C539.149,195.284 537.844,195.147 535.728,195.022 C533.61,194.898 530.681,194.793 527.443,194.808 C524.205,194.824 521.276,194.964 519.16,195.132 C517.045,195.299 515.744,195.478 515.75,195.553 C515.756,195.635 517.066,195.598 519.182,195.534 C521.298,195.47 524.218,195.393 527.446,195.377 C530.674,195.363 533.596,195.404 535.713,195.425 C537.83,195.447 539.143,195.441 539.147,195.361" id="Fill-77" fill="#132529"></path>
        <path d="M514.94,175.707 C514.861,175.71 514.834,176.844 514.854,178.675 C514.873,180.505 514.94,183.032 515.048,185.822 C515.156,188.612 515.286,191.137 515.408,192.964 C515.53,194.79 515.646,195.918 515.725,195.915 C515.803,195.912 515.83,194.778 515.811,192.948 C515.791,191.118 515.726,188.59 515.617,185.8 C515.509,183.01 515.379,180.485 515.256,178.659 C515.134,176.833 515.019,175.705 514.94,175.707" id="Fill-78" fill="#132529"></path>
        <path d="M512.689,227.274 C511.234,227.274 509.865,226.916 508.581,226.267 L520.451,225.129 C517.42,227.203 513.316,227.252 513.316,227.252 C513.105,227.267 512.896,227.274 512.689,227.274" id="Fill-79" fill="#A2A5A2"></path>
        <path d="M508.581,226.267 C496.036,219.929 491.435,185.811 491.435,185.811 L522.918,220.435 L522.918,222.336 C522.338,223.536 521.453,224.443 520.451,225.129 L508.581,226.267" id="Fill-80" fill="#A93B44"></path>
        <path d="M513.851,202.746 L511.85,199.084 L514.855,178.788 C514.876,180.608 514.942,183.089 515.048,185.822 C515.072,186.448 515.098,187.06 515.124,187.654 L513.316,195.361 L515.609,195.361 C515.652,195.72 515.692,195.915 515.724,195.915 L515.725,195.915 C515.75,195.914 515.77,195.795 515.785,195.572 C515.862,195.592 516.067,195.6 516.383,195.6 C516.589,195.6 516.843,195.596 517.141,195.59 L513.851,202.746" id="Fill-81" fill="#A93B44"></path>
        <path d="M515.609,195.361 L513.316,195.361 L515.124,187.654 C515.214,189.71 515.314,191.547 515.408,192.964 C515.48,194.029 515.548,194.857 515.609,195.361" id="Fill-82" fill="#A93B44"></path>
        <path d="M516.383,195.6 C516.067,195.6 515.862,195.592 515.785,195.572 C515.785,195.566 515.785,195.56 515.786,195.553 L517.143,195.586 L517.141,195.59 C516.843,195.596 516.589,195.6 516.383,195.6" id="Fill-83" fill="#051317"></path>
        <path d="M515.724,195.915 C515.692,195.915 515.652,195.72 515.609,195.361 C515.548,194.857 515.48,194.029 515.408,192.964 C515.314,191.547 515.214,189.71 515.124,187.654 C515.098,187.06 515.072,186.448 515.048,185.822 C514.942,183.089 514.876,180.608 514.855,178.788 L514.94,178.216 L515.75,195.553 L515.786,195.553 C515.785,195.56 515.785,195.566 515.785,195.572 C515.77,195.795 515.75,195.914 515.725,195.915 L515.724,195.915" id="Fill-84" fill="#051317"></path>
        <path d="M483.353,211.099 C483.318,211.111 483.165,210.756 482.916,210.103 C482.666,209.451 482.332,208.496 481.946,207.308 C481.175,204.933 480.222,201.608 479.476,197.863 C478.733,194.116 478.37,190.67 478.252,188.172 C478.191,186.923 478.173,185.912 478.191,185.213 C478.205,184.514 478.231,184.128 478.267,184.127 C478.349,184.126 478.405,185.668 478.619,188.147 C478.831,190.626 479.249,194.038 479.986,197.762 C480.729,201.483 481.619,204.806 482.299,207.202 C482.616,208.313 482.886,209.26 483.108,210.039 C483.298,210.711 483.387,211.088 483.353,211.099" id="Fill-85" fill="#132529"></path>
        <path d="M489.878,223.332 C489.74,223.373 489.341,222.455 488.986,221.281 C488.631,220.106 488.454,219.12 488.592,219.078 C488.73,219.037 489.129,219.955 489.484,221.13 C489.84,222.304 490.016,223.29 489.878,223.332" id="Fill-86" fill="#132529"></path>
        <path d="M492.109,223.169 C491.977,223.203 491.541,221.825 491.52,220.057 C491.489,218.29 491.884,216.899 492.018,216.93 C492.166,216.957 492.01,218.344 492.04,220.05 C492.06,221.755 492.257,223.138 492.109,223.169" id="Fill-87" fill="#132529"></path>
        <path d="M481.182,204.535 C481.118,204.664 475.965,202.219 469.674,199.076 C463.381,195.931 458.333,193.278 458.398,193.15 C458.462,193.021 463.614,195.465 469.907,198.61 C476.197,201.753 481.246,204.407 481.182,204.535" id="Fill-88" fill="#132529"></path>
        <path d="M490.262,158.192 C490.377,153.133 490.405,147.806 490.405,147.806 C490.405,147.806 483.917,146.555 482.786,138.017 C481.708,129.875 484.724,110.77 484.724,110.77 C494.202,107.187 504.052,110.435 510.546,118.115 L508.934,159.189 C508.747,163.957 504.498,167.594 499.394,167.355 C494.238,167.113 490.152,163.013 490.262,158.192" id="Fill-89" fill="#B67E6D"></path>
        <path d="M484.232,126.039 C484.196,126.614 484.654,127.119 485.254,127.166 C485.854,127.214 486.368,126.787 486.403,126.212 C486.439,125.637 485.981,125.132 485.382,125.084 C484.781,125.036 484.267,125.464 484.232,126.039" id="Fill-90" fill="#132529"></path>
        <path d="M483.825,124.606 C483.957,124.752 484.799,124.161 485.972,124.195 C487.145,124.212 487.99,124.838 488.121,124.697 C488.186,124.635 488.055,124.375 487.687,124.092 C487.324,123.811 486.701,123.53 485.971,123.515 C485.239,123.499 484.618,123.753 484.257,124.019 C483.89,124.286 483.761,124.54 483.825,124.606" id="Fill-91" fill="#132529"></path>
        <path d="M496.137,126.78 C496.102,127.355 496.56,127.859 497.16,127.908 C497.759,127.955 498.275,127.529 498.31,126.953 C498.345,126.378 497.887,125.873 497.287,125.825 C496.688,125.777 496.172,126.205 496.137,126.78" id="Fill-92" fill="#132529"></path>
        <path d="M496.058,125.348 C496.19,125.494 497.032,124.904 498.205,124.937 C499.377,124.954 500.223,125.58 500.355,125.44 C500.418,125.377 500.288,125.118 499.919,124.835 C499.557,124.553 498.935,124.273 498.203,124.257 C497.473,124.242 496.851,124.495 496.49,124.762 C496.123,125.029 495.993,125.283 496.058,125.348" id="Fill-93" fill="#132529"></path>
        <path d="M491.575,133.94 C491.582,133.874 490.856,133.729 489.678,133.548 C489.379,133.509 489.097,133.442 489.052,133.236 C488.986,133.018 489.12,132.698 489.275,132.353 C489.575,131.636 489.89,130.883 490.22,130.095 C491.534,126.878 492.494,124.23 492.363,124.178 C492.233,124.126 491.063,126.691 489.748,129.908 C489.432,130.702 489.129,131.458 488.841,132.181 C488.718,132.519 488.513,132.9 488.654,133.353 C488.73,133.579 488.945,133.747 489.136,133.804 C489.326,133.868 489.495,133.875 489.643,133.888 C490.831,133.983 491.568,134.007 491.575,133.94" id="Fill-94" fill="#132529"></path>
        <path d="M490.405,147.806 C490.405,147.806 496.116,148.322 501.871,145.061 C501.871,145.061 498.958,150.831 490.469,149.816 L490.405,147.806" id="Fill-95" fill="#A16354"></path>
        <path d="M499.814,121.963 C499.573,122.33 498.681,122.167 497.681,121.987 C496.685,121.786 495.795,121.609 495.706,121.179 C495.607,120.767 496.64,120.197 497.974,120.452 C499.308,120.705 500.058,121.616 499.814,121.963" id="Fill-96" fill="#132529"></path>
        <path d="M488.147,120.241 C488.056,120.668 487.1,120.824 485.998,120.881 C484.895,120.926 483.93,120.858 483.8,120.44 C483.668,120.036 484.6,119.379 485.926,119.32 C487.252,119.257 488.24,119.826 488.147,120.241" id="Fill-97" fill="#132529"></path>
        <path d="M491.594,136.749 C491.346,136.681 491.068,136.821 490.944,137.046 C490.796,137.313 490.864,137.681 491.098,137.878 C491.331,138.075 491.705,138.08 491.943,137.89 C492.183,137.699 492.26,137.334 492.12,137.062 C491.98,136.791 491.637,136.643 491.343,136.728" id="Fill-98" fill="#A16354"></path>
        <path d="M491.868,136.865 C491.921,136.818 491.681,136.53 491.168,136.641 C490.932,136.694 490.621,136.907 490.526,137.27 C490.433,137.612 490.518,138.056 490.88,138.333 C491.255,138.598 491.707,138.543 492.005,138.34 C492.324,138.13 492.415,137.746 492.365,137.506 C492.262,136.979 491.872,136.895 491.861,136.969 C491.817,137.035 491.997,137.217 491.963,137.529 C491.945,137.682 491.873,137.824 491.725,137.896 C491.58,137.976 491.35,137.975 491.218,137.874 C491.08,137.777 491.009,137.558 491.038,137.39 C491.059,137.223 491.171,137.097 491.307,137.02 C491.585,136.863 491.832,136.937 491.868,136.865" id="Fill-99" fill="#132529"></path>
        <path d="M506.616,128.147 C505.605,130.491 503.136,132.297 503.479,134.827 C503.699,136.461 504.747,137.984 504.543,139.619 C504.287,141.674 502.153,143.098 501.852,145.145 C501.481,147.657 503.924,149.609 504.9,151.953 C506.321,155.367 504.503,159.205 504.46,162.902 C504.395,168.565 509.211,173.855 514.855,174.32 C517.138,174.508 519.709,173.819 520.893,171.858 C521.869,170.239 521.674,168.184 522.26,166.387 C523.132,163.71 525.683,161.752 526.221,158.989 C527.201,153.952 521.113,149.784 521.514,144.668 C521.685,142.483 523.034,140.576 523.609,138.46 C524.359,135.688 523.671,132.566 521.822,130.368 C520.32,128.581 518.141,127.406 516.861,125.454 C515.41,123.24 515.36,120.433 514.813,117.843 C513.48,111.533 508.74,106.05 502.689,103.818 C496.637,101.586 489.473,102.678 484.36,106.612 C484.36,106.612 482.906,113.203 489.672,114.305 C496.437,115.407 499.572,114.135 500.335,116.847 C500.335,116.847 499.565,120.015 502.361,123.04 C505.159,126.066 507.787,125.433 506.616,128.147" id="Fill-100" fill="#132529"></path>
        <path d="M517.412,173.859 C517.409,173.877 517.198,173.854 516.795,173.794 C516.393,173.732 515.803,173.598 515.074,173.33 C513.629,172.802 511.583,171.652 509.839,169.455 C508.973,168.367 508.161,167.046 507.614,165.494 C507.054,163.951 506.734,162.202 506.704,160.36 C506.661,158.516 506.923,156.584 507.426,154.65 C507.677,153.681 508.003,152.716 508.383,151.757 C508.757,150.794 509.217,149.866 509.481,148.884 C509.765,147.905 509.727,146.905 509.471,145.951 C509.21,144.996 508.766,144.1 508.333,143.213 C507.898,142.327 507.454,141.443 507.168,140.503 C506.877,139.571 506.769,138.566 506.958,137.629 C507.357,135.745 508.501,134.351 509.176,132.921 C509.891,131.503 510.114,130.006 510.081,128.661 C509.96,125.937 508.799,123.923 507.852,122.762 C506.863,121.599 506.114,121.157 506.152,121.108 C506.152,121.108 506.945,121.482 508.005,122.63 C509.021,123.776 510.275,125.818 510.449,128.645 C510.509,130.038 510.296,131.616 509.565,133.109 C508.875,134.592 507.771,135.996 507.43,137.72 C507.078,139.457 507.9,141.246 508.791,142.987 C509.227,143.875 509.689,144.794 509.971,145.815 C510.251,146.829 510.292,147.974 509.983,149.019 C509.699,150.068 509.23,151.008 508.864,151.949 C508.49,152.889 508.168,153.834 507.919,154.781 C507.42,156.672 507.155,158.558 507.185,160.353 C507.196,163.957 508.434,167.109 510.128,169.227 C511.789,171.395 513.752,172.565 515.149,173.141 C516.564,173.714 517.425,173.8 517.412,173.859" id="Fill-101" fill="#334F55"></path>
        <path d="M516.416,123.398 C516.419,123.431 515.892,123.526 514.926,123.62 C513.964,123.7 512.543,123.811 510.808,123.512 C509.113,123.202 506.968,122.369 505.61,120.358 C504.944,119.349 504.68,118.128 504.246,117.001 C503.838,115.861 503.049,114.874 501.968,114.19 C499.78,112.804 497.206,112.633 494.954,112.359 C492.691,112.104 490.566,111.624 489.126,110.543 C487.675,109.511 486.931,108.17 486.739,107.204 C486.631,106.721 486.64,106.332 486.662,106.077 C486.698,105.82 486.726,105.689 486.744,105.691 C486.808,105.692 486.675,106.241 486.937,107.155 C487.178,108.059 487.93,109.295 489.337,110.242 C490.724,111.224 492.757,111.654 495.011,111.882 C497.242,112.134 499.907,112.273 502.251,113.753 C503.407,114.474 504.303,115.607 504.722,116.817 C505.167,118.007 505.416,119.179 506.014,120.098 C507.233,121.959 509.25,122.81 510.878,123.15 C512.548,123.487 513.955,123.435 514.914,123.418 C515.877,123.387 516.412,123.36 516.416,123.398" id="Fill-102" fill="#334F55"></path>
        <path d="M513.935,115.254 C513.941,115.28 513.531,115.407 512.763,115.427 C512.001,115.448 510.86,115.313 509.606,114.716 C508.98,114.419 508.338,113.993 507.748,113.424 C507.148,112.858 506.656,112.126 506.196,111.354 C505.294,109.833 504.427,107.957 502.557,107.181 C500.725,106.396 498.707,106.571 496.954,106.689 C495.184,106.864 493.525,106.915 492.172,106.649 C490.81,106.412 489.788,105.848 489.222,105.326 C488.935,105.067 488.74,104.837 488.633,104.666 C488.521,104.497 488.47,104.406 488.484,104.395 C488.526,104.363 488.765,104.717 489.351,105.169 C489.933,105.62 490.916,106.103 492.233,106.286 C493.55,106.496 495.135,106.412 496.913,106.211 C498.675,106.072 500.753,105.851 502.768,106.705 C503.764,107.129 504.577,107.877 505.155,108.688 C505.744,109.499 506.166,110.347 506.61,111.112 C507.052,111.877 507.505,112.577 508.052,113.117 C508.593,113.663 509.187,114.084 509.771,114.387 C510.943,114.995 512.028,115.184 512.768,115.224 C513.512,115.267 513.929,115.209 513.935,115.254" id="Fill-103" fill="#334F55"></path>
        <path d="M520.397,171.701 C520.346,171.678 520.664,171.035 521.033,169.804 C521.4,168.577 521.764,166.732 521.699,164.444 C521.621,162.17 521.074,159.42 519.568,156.808 C518.836,155.498 517.725,154.331 516.819,152.893 C516.369,152.175 515.982,151.37 515.812,150.479 C515.645,149.587 515.746,148.64 516.033,147.78 C516.594,146.054 517.599,144.599 517.815,143.012 C518.082,141.42 517.278,139.968 516.517,138.677 C516.132,138.019 515.746,137.369 515.446,136.689 C515.147,136.009 514.956,135.293 514.881,134.601 C514.729,133.211 514.891,131.934 514.994,130.788 C515.282,128.504 515.07,126.627 514.52,125.474 C513.986,124.306 513.288,123.956 513.34,123.909 L513.461,123.966 C513.534,124.014 513.651,124.077 513.779,124.194 C514.046,124.411 514.402,124.796 514.702,125.385 C515.335,126.553 515.607,128.515 515.36,130.819 C515.279,131.97 515.146,133.232 515.309,134.548 C515.442,135.877 516.127,137.132 516.93,138.432 C517.319,139.091 517.73,139.778 518.019,140.557 C518.315,141.331 518.449,142.215 518.319,143.082 C518.076,144.831 517.046,146.311 516.529,147.937 C516.261,148.748 516.175,149.582 516.321,150.385 C516.473,151.186 516.824,151.934 517.253,152.624 C518.11,154.006 519.228,155.196 519.983,156.568 C521.518,159.283 522.035,162.112 522.068,164.435 C522.085,166.774 521.657,168.641 521.227,169.865 C521.002,170.476 520.814,170.944 520.651,171.246 C520.5,171.553 520.413,171.709 520.397,171.701" id="Fill-104" fill="#334F55"></path>
        <path d="M479.662,358.027 C479.662,358.027 472.928,294.184 472.541,270.595 C472.154,247.004 483.148,223.728 483.148,223.728 L526.231,221.906 C526.231,221.906 534.746,245.842 534.899,255.895 C535.195,275.434 529.707,294.729 530.34,310.228 L531.78,358.027" id="Fill-105" fill="#132529"></path>
        <path d="M533.222,279.542 C533.231,279.557 532.986,279.741 532.519,280.074 C532.399,280.159 532.268,280.252 532.126,280.351 C531.991,280.466 531.86,280.609 531.709,280.754 C531.406,281.045 531.054,281.374 530.749,281.829 C529.358,283.533 528.343,286.576 527.379,290.374 C526.847,292.26 526.309,294.376 525.197,296.447 C524.9,296.953 524.633,297.489 524.241,297.96 C524.054,298.199 523.884,298.457 523.679,298.687 L523.015,299.35 C522.115,300.235 520.976,300.902 519.775,301.429 C517.363,302.486 514.641,302.987 512.153,304.235 C509.65,305.454 507.774,307.817 506.624,310.538 C505.411,313.248 504.675,316.093 503.663,318.749 C502.669,321.384 501.316,323.949 499.166,325.569 C497.033,327.248 494.398,327.632 492.115,327.779 C489.796,327.914 487.648,327.848 485.721,328.139 C483.802,328.405 482.101,329.014 480.899,329.959 C479.692,330.907 478.988,332.096 478.657,333.114 C478.316,334.144 478.377,335.013 478.49,335.566 C478.602,336.128 478.76,336.396 478.725,336.411 C478.725,336.411 478.536,336.158 478.389,335.591 C478.238,335.031 478.14,334.132 478.464,333.055 C478.777,331.989 479.478,330.743 480.717,329.731 C481.96,328.719 483.709,328.071 485.666,327.775 C487.628,327.455 489.8,327.501 492.086,327.348 C494.347,327.184 496.869,326.788 498.874,325.187 C500.905,323.643 502.21,321.176 503.187,318.567 C504.181,315.942 504.912,313.093 506.15,310.324 C507.311,307.556 509.301,305.042 511.923,303.78 C514.509,302.496 517.233,302.011 519.584,300.988 C520.755,300.481 521.843,299.851 522.703,299.015 L523.34,298.389 C523.538,298.17 523.702,297.923 523.884,297.694 C524.263,297.247 524.526,296.728 524.818,296.242 C525.913,294.243 526.472,292.15 527.024,290.275 C528.031,286.498 529.117,283.405 530.59,281.703 C530.913,281.25 531.285,280.924 531.605,280.64 C531.764,280.499 531.903,280.358 532.045,280.249 C532.194,280.155 532.332,280.068 532.458,279.988 C532.952,279.679 533.213,279.526 533.222,279.542" id="Fill-106" fill="#FAF9F6"></path>
        <path d="M533.487,249.998 C533.505,249.997 533.525,250.29 533.543,250.853 C533.552,251.415 533.484,252.249 533.244,253.296 C532.744,255.377 531.224,258.235 528.377,260.821 C526.971,262.12 525.273,263.376 523.332,264.507 C521.401,265.652 519.272,266.742 517.09,267.975 C514.916,269.212 512.674,270.609 510.704,272.466 C508.708,274.3 507.213,276.71 505.867,279.263 C504.507,281.811 503.303,284.406 501.673,286.652 C500.864,287.774 499.95,288.799 498.939,289.676 C497.921,290.547 496.813,291.255 495.687,291.842 C493.427,293.015 491.125,293.74 488.992,294.408 C486.855,295.069 484.86,295.654 483.117,296.385 C481.371,297.105 479.858,297.92 478.636,298.785 C477.413,299.65 476.483,300.558 475.823,301.379 C474.491,303.028 474.211,304.223 474.136,304.183 C474.119,304.178 474.214,303.9 474.413,303.373 C474.645,302.862 475.002,302.101 475.664,301.254 C476.311,300.399 477.238,299.452 478.466,298.549 C479.693,297.646 481.217,296.797 482.975,296.046 C484.733,295.284 486.736,294.674 488.862,293.996 C490.985,293.312 493.26,292.576 495.464,291.417 C496.562,290.837 497.635,290.143 498.614,289.299 C499.589,288.447 500.471,287.453 501.259,286.354 C502.847,284.157 504.04,281.583 505.407,279.018 C506.758,276.454 508.297,273.974 510.354,272.095 C512.379,270.197 514.661,268.79 516.855,267.557 C519.056,266.329 521.189,265.255 523.113,264.134 C525.045,263.03 526.727,261.812 528.129,260.55 C530.963,258.036 532.496,255.271 533.049,253.244 C533.586,251.197 533.407,249.993 533.487,249.998" id="Fill-107" fill="#FAF9F6"></path>
        <path d="M472.759,273.975 C472.75,273.978 472.721,273.914 472.671,273.782 C472.628,273.648 472.536,273.456 472.478,273.186 C472.356,272.652 472.279,271.808 472.578,270.789 C473.134,268.753 475.346,266.22 478.91,264.95 C480.684,264.341 482.696,263.973 484.792,263.425 C486.864,262.866 489.122,262.084 490.809,260.351 C491.646,259.496 492.354,258.478 492.942,257.359 C493.517,256.23 493.99,255.018 494.437,253.767 C495.333,251.273 496.085,248.562 497.607,246.099 C499.118,243.616 501.581,241.891 504.13,241.027 C506.673,240.093 509.236,239.679 511.615,239.13 C514.001,238.611 516.231,237.939 518.124,236.914 C519.989,235.854 521.476,234.443 522.528,232.947 C524.686,229.947 525.25,226.875 525.327,224.846 C525.374,222.783 525.046,221.66 525.114,221.65 C525.114,221.65 525.514,222.754 525.529,224.85 C525.514,226.91 525,230.057 522.828,233.16 C521.768,234.707 520.256,236.178 518.334,237.291 C516.394,238.365 514.117,239.063 511.722,239.598 C509.331,240.162 506.782,240.587 504.308,241.505 C501.818,242.362 499.505,243.995 498.048,246.375 C496.579,248.748 495.824,251.428 494.917,253.938 C494.464,255.198 493.979,256.431 493.384,257.589 C492.774,258.74 492.03,259.8 491.147,260.692 C489.356,262.509 486.997,263.296 484.901,263.842 C482.775,264.379 480.775,264.723 479.026,265.3 C475.559,266.483 473.358,268.911 472.772,270.849 C472.455,271.821 472.494,272.637 472.58,273.166 C472.692,273.692 472.782,273.968 472.759,273.975" id="Fill-108" fill="#FAF9F6"></path>
        <path d="M529.782,327.958 C529.8,327.956 529.823,328.171 529.852,328.585 C529.875,328.998 529.843,329.617 529.667,330.39 C529.315,331.931 528.125,334.039 525.888,335.793 C524.786,336.681 523.453,337.496 521.922,338.147 C520.396,338.802 518.707,339.32 516.943,339.869 C515.182,340.419 513.333,340.995 511.535,341.844 C509.725,342.673 508.053,343.887 506.613,345.434 C505.154,346.962 503.896,348.632 502.499,350.105 C501.108,351.588 499.528,352.809 497.891,353.712 C494.6,355.529 491.188,356.153 488.38,356.184 C485.552,356.216 483.307,355.621 481.835,355.097 C481.092,354.838 480.54,354.579 480.174,354.385 C479.805,354.2 479.615,354.097 479.623,354.08 C479.631,354.064 479.836,354.137 480.218,354.29 C480.595,354.452 481.155,354.679 481.9,354.905 C483.376,355.365 485.598,355.893 488.374,355.816 C491.129,355.738 494.461,355.088 497.656,353.293 C499.25,352.398 500.77,351.212 502.128,349.755 C503.495,348.304 504.749,346.635 506.236,345.074 C507.701,343.496 509.463,342.221 511.316,341.383 C513.163,340.519 515.036,339.949 516.803,339.411 C518.57,338.874 520.251,338.374 521.755,337.75 C523.256,337.131 524.57,336.352 525.659,335.504 C527.872,333.826 529.067,331.821 529.472,330.339 C529.866,328.842 529.71,327.956 529.782,327.958" id="Fill-109" fill="#FAF9F6"></path>
        <path d="M524.871,195.403 L516.541,195.6 C515.994,198.406 514.657,200.326 514.657,200.326 C507.691,188.234 502.29,172.034 500.949,165.523 C501.145,164.872 501.376,164.153 501.665,163.348 C501.998,162.42 501.712,160.663 501.555,159.687 C501.321,158.238 500.916,156.287 500.794,155.384 C500.423,152.633 499.98,152.201 499.02,152.512 C497.715,152.935 499.555,160.239 498.485,160.397 C497.91,160.482 497.207,157.98 497.004,155.927 C496.8,153.874 495.871,147.559 495.192,147.138 C494.198,146.521 493.331,147.497 493.582,149.541 C493.836,151.611 494.157,157.781 493.072,157.865 C492.003,157.947 491.106,147.477 491.106,147.477 C491.106,147.477 491.275,145.199 490.019,145.253 C487.753,145.352 489.524,156.39 489.717,157.435 C489.853,158.163 488.676,158.296 488.572,157.507 C488.466,156.694 487.919,147.036 485.612,147.114 C483.841,147.174 486.983,156.21 485.989,158.305 C484.995,160.399 484.305,151.191 482.614,151.318 C481.985,151.365 481.52,151.488 482.676,156.699 C483.298,159.5 485.123,164.65 486.719,168.913 C489.398,183.364 501.155,229.59 519.589,221.128 C529.903,216.393 534.089,195.408 534.089,195.408 L524.871,195.403" id="Fill-110" fill="#B67E6D"></path>
        <path d="M489.323,158.143 C489.323,158.143 489.407,158.159 489.564,158.11 C489.704,158.067 489.983,157.891 489.94,157.533 C489.916,156.912 489.818,156.008 489.675,154.839 C489.568,153.662 489.216,152.25 489.215,150.578 C489.201,149.741 489.223,148.841 489.271,147.887 C489.302,147.41 489.311,146.915 489.416,146.447 C489.495,145.994 489.798,145.476 490.148,145.538 L490.187,145.545 L490.203,145.544 C490.559,145.528 490.837,145.805 490.951,146.228 C491.076,146.634 491.108,147.112 491.082,147.567 L491.081,147.586 L491.083,147.599 C491.316,150.158 491.568,152.958 492.151,155.949 C492.233,156.322 492.316,156.698 492.432,157.077 C492.489,157.267 492.557,157.458 492.64,157.65 C492.693,157.749 492.728,157.843 492.81,157.947 C492.881,158.034 492.971,158.186 493.228,158.209 C493.643,158.178 493.763,157.864 493.857,157.684 C493.946,157.476 494.002,157.272 494.044,157.069 C494.13,156.662 494.173,156.257 494.204,155.848 C494.315,154.218 494.258,152.553 494.138,150.847 C494.099,149.984 493.887,149.123 494.033,148.342 C494.103,147.957 494.263,147.569 494.525,147.409 C494.653,147.331 494.798,147.314 494.956,147.354 L495.193,147.457 C495.259,147.521 495.244,147.492 495.304,147.605 C495.638,148.32 495.81,149.253 495.997,150.119 C496.175,151.003 496.328,151.905 496.47,152.817 C496.61,153.729 496.739,154.652 496.848,155.582 C496.938,156.511 497.072,157.487 497.309,158.426 C497.429,158.899 497.562,159.371 497.76,159.839 C497.861,160.074 497.967,160.307 498.172,160.546 C498.246,160.648 498.48,160.839 498.771,160.764 C499.053,160.67 499.133,160.446 499.179,160.315 C499.341,159.74 499.293,159.262 499.285,158.759 C499.264,158.263 499.223,157.772 499.181,157.282 C499.109,156.44 499.029,155.607 499,154.785 C498.987,154.376 498.986,153.968 499.03,153.582 C499.055,153.394 499.087,153.201 499.151,153.061 L499.248,152.912 L499.287,152.887 L499.416,152.85 C500.08,152.576 500.3,153.499 500.477,154.243 C500.63,155.018 500.728,155.82 500.884,156.609 C501.148,158.184 501.483,159.749 501.659,161.253 C501.732,161.999 501.785,162.774 501.571,163.406 C501.335,164.129 501.101,164.844 500.869,165.551 L500.849,165.615 L500.863,165.682 C502.082,171.059 503.771,175.87 505.338,180.141 C506.921,184.408 508.504,188.096 509.901,191.112 C511.294,194.13 512.544,196.456 513.407,198.042 C513.845,198.794 514.191,199.389 514.447,199.83 C514.689,200.233 514.82,200.439 514.834,200.431 C514.848,200.423 514.742,200.203 514.526,199.785 C514.288,199.334 513.968,198.727 513.563,197.959 C512.75,196.348 511.549,194.005 510.202,190.974 C508.851,187.947 507.31,184.252 505.764,179.985 C504.234,175.718 502.574,170.894 501.389,165.574 L501.383,165.705 C501.613,165.008 501.848,164.302 502.083,163.589 C502.353,162.773 502.273,161.976 502.206,161.196 C502.027,159.632 501.7,158.113 501.44,156.53 C501.285,155.748 501.191,154.945 501.029,154.125 C500.935,153.717 500.846,153.304 500.621,152.887 C500.513,152.685 500.346,152.455 500.069,152.331 C499.79,152.21 499.505,152.244 499.28,152.299 L499.112,152.347 L498.885,152.475 C498.758,152.587 498.685,152.713 498.632,152.831 C498.527,153.071 498.497,153.293 498.466,153.514 C498.416,153.953 498.419,154.38 498.432,154.804 C498.461,155.652 498.542,156.491 498.613,157.33 C498.654,157.819 498.695,158.305 498.716,158.784 C498.733,159.251 498.749,159.766 498.642,160.128 C498.617,160.233 498.567,160.213 498.625,160.264 L498.627,160.268 L498.633,160.306 L498.631,160.295 L498.634,160.261 L498.649,160.214 L498.588,160.159 C498.479,160.032 498.368,159.824 498.283,159.617 C498.105,159.198 497.974,158.743 497.858,158.289 C497.629,157.372 497.5,156.462 497.407,155.517 C497.296,154.577 497.164,153.649 497.021,152.731 C496.876,151.813 496.72,150.906 496.538,150.009 C496.332,149.107 496.199,148.24 495.777,147.338 C495.752,147.247 495.573,147.046 495.464,146.987 C495.352,146.92 495.227,146.868 495.092,146.83 C494.822,146.756 494.493,146.79 494.246,146.948 C493.75,147.276 493.597,147.797 493.507,148.249 C493.427,148.715 493.439,149.175 493.49,149.619 C493.54,150.046 493.582,150.465 493.615,150.887 C493.741,152.571 493.805,154.228 493.705,155.812 C493.678,156.206 493.637,156.598 493.561,156.967 C493.525,157.153 493.474,157.331 493.409,157.485 L493.3,157.672 C493.263,157.756 493.232,157.653 493.234,157.788 C493.285,157.685 493.236,157.743 493.197,157.657 L493.078,157.449 C493.007,157.286 492.945,157.114 492.89,156.936 C492.778,156.581 492.693,156.214 492.612,155.85 C492.019,152.913 491.74,150.105 491.483,147.565 L491.483,147.597 C491.504,147.083 491.471,146.593 491.319,146.11 C491.243,145.873 491.131,145.632 490.929,145.444 C490.73,145.252 490.443,145.165 490.188,145.174 L490.242,145.18 C489.841,145.108 489.547,145.352 489.38,145.593 C489.209,145.841 489.132,146.11 489.073,146.369 C488.963,146.894 488.965,147.394 488.94,147.872 C488.903,148.834 488.896,149.739 488.924,150.585 C488.956,152.291 489.34,153.704 489.476,154.866 C489.65,156.028 489.779,156.93 489.836,157.538 C489.899,157.827 489.666,158.013 489.544,158.061 C489.404,158.122 489.321,158.131 489.323,158.143" id="Fill-111" fill="#A16354"></path>
        <path d="M424.198,209.171 C424.198,209.171 421.431,209.039 418.405,209.835 C413.241,211.194 404.326,216.597 403.957,223.271 L410.432,223.271 C410.432,223.271 406.806,230.99 407.871,230.275 C410.636,228.42 416.14,222.828 416.14,222.828 L424.198,209.171" id="Fill-112" fill="#B67E6D"></path>
        <path d="M512.525,92.983 C512.381,92.995 511.793,87.641 511.212,81.026 C510.63,74.409 510.275,69.036 510.418,69.023 C510.562,69.011 511.149,74.363 511.731,80.981 C512.313,87.596 512.668,92.97 512.525,92.983" id="Fill-113" fill="#132529"></path>
        <path d="M540.932,69.35 C541.049,69.434 536.674,75.783 531.161,83.531 C525.648,91.281 521.083,97.493 520.966,97.41 C520.849,97.327 525.223,90.979 530.737,83.228 C536.25,75.481 540.815,69.266 540.932,69.35" id="Fill-114" fill="#132529"></path>
        <path d="M552.734,98.127 C552.764,98.268 547.658,99.437 541.333,100.737 C535.005,102.037 529.854,102.977 529.824,102.836 C529.796,102.695 534.901,101.527 541.228,100.226 C547.554,98.927 552.706,97.987 552.734,98.127" id="Fill-115" fill="#132529"></path>
        <path d="M212.625,235.483 L172.635,441.081 L408.698,439.917 C419.292,439.864 428.681,430.458 432.089,416.482 L473.948,244.845 C476.536,234.236 470.858,223.201 462.817,223.209 L223.893,223.46 C218.618,223.466 214.005,228.388 212.625,235.483" id="Fill-116" fill="#E0565F"></path>
        <path d="M411.715,439.647 C413.414,439.238 414.86,438.784 416.092,438.311 C414.678,438.934 413.214,439.384 411.715,439.647" id="Fill-117" fill="#6D232C"></path>
        <path d="M414.13,434.292 C388.525,434.292 386.056,404.986 386.054,404.965 L363.511,223.313 L462.817,223.209 C462.82,223.209 462.822,223.209 462.826,223.209 C469.528,223.209 474.586,230.882 474.581,239.58 C474.579,241.312 474.378,243.084 473.948,244.845 L432.089,416.482 C430.332,423.688 426.985,429.679 422.702,433.8 C422.918,433.458 422.984,433.255 422.984,433.255 C419.763,433.968 416.817,434.292 414.13,434.292" id="Fill-118" fill="#6D232C"></path>
        <path d="M386.054,404.965 L361.06,203.557 C360.036,195.305 353.462,189.149 345.7,189.174 L290.894,189.353 C286.837,189.367 282.948,191.091 280.067,194.154 L254.043,221.818 L101.616,222.614 C92.302,222.662 85.146,231.476 86.38,241.379 L109.586,427.531 C110.613,435.772 117.175,441.92 124.926,441.905 L390.572,441.38 C420.159,441.993 422.984,433.255 422.984,433.255 C389.076,440.769 386.057,404.988 386.054,404.965" id="Fill-119" fill="#E0565F"></path>
        <path d="M262.549,374.278 L232.999,347.695 L241.958,338.072 L271.509,364.656 L262.549,374.278 M223.097,338.787 L193.547,312.204 L202.506,302.581 L232.056,329.164 L223.097,338.787" id="Fill-120" fill="#EC979D"></path>
        <polyline id="Fill-121" fill="#EC979D" points="206.261 376.412 196.36 367.504 258.794 300.447 268.696 309.355 206.261 376.412"></polyline>
        <path d="M423.986,104.723 C423.348,104.45 422.889,103.828 422.856,103.087 L422.457,93.804 C422.431,93.22 422.681,92.658 423.131,92.285 C423.581,91.913 424.181,91.773 424.749,91.908 C426.241,92.26 427.887,91.935 429.264,91.016 C430.532,90.17 431.383,88.924 431.599,87.597 C431.815,86.275 431.405,84.811 430.477,83.581 C429.481,82.265 428.011,81.377 426.536,81.208 C423.525,80.862 420.274,83.169 419.437,86.246 C419.167,87.241 418.142,87.828 417.148,87.558 C416.137,87.28 415.566,86.262 415.836,85.268 C417.15,80.43 422.142,76.946 426.964,77.501 C429.464,77.789 431.833,79.185 433.453,81.331 C434.995,83.371 435.661,85.873 435.282,88.198 C434.9,90.543 433.462,92.701 431.336,94.12 C429.8,95.145 428.037,95.71 426.275,95.772 L426.585,102.928 C426.629,103.957 425.83,104.828 424.801,104.871 C424.512,104.884 424.235,104.83 423.986,104.723" id="Fill-122" fill="#E0565F"></path>
        <path d="M426.722,108.516 C426.779,109.357 426.145,110.086 425.304,110.144 C424.463,110.202 423.733,109.567 423.676,108.725 C423.618,107.885 424.253,107.156 425.094,107.098 C425.936,107.04 426.664,107.675 426.722,108.516" id="Fill-123" fill="#E0565F"></path>
        <path d="M391.853,91.633 C391.865,91.633 391.896,91.427 391.943,91.024 C391.99,90.589 392.056,89.997 392.139,89.236 C392.184,88.445 392.386,87.49 392.623,86.362 C392.754,85.802 392.823,85.179 393.028,84.549 C393.223,83.915 393.43,83.242 393.649,82.53 C394.616,79.721 396.108,76.353 398.621,73.003 C401.115,69.66 404.622,66.358 409.124,63.855 C411.34,62.533 413.876,61.612 416.533,60.799 C419.233,60.159 422.094,59.612 425.083,59.682 C426.578,59.602 428.085,59.822 429.62,59.951 C430.388,60.024 431.143,60.229 431.913,60.363 C432.684,60.506 433.459,60.656 434.214,60.918 C437.301,61.71 440.3,63.166 443.158,64.971 C448.895,68.581 453.726,74.453 456.376,81.571 C457.705,85.132 458.341,89.036 458.336,92.979 C458.415,96.93 457.65,100.944 456.244,104.721 L455.793,105.863 L455.733,106.014 L455.795,106.155 C458.303,111.932 460.763,117.598 463.147,123.087 L463.566,122.61 C458.402,120.625 453.395,118.702 448.591,116.856 L448.405,116.785 L448.26,116.926 C444.105,120.951 439.143,123.673 434.118,125.09 C429.078,126.511 424.002,126.584 419.385,125.764 C414.758,124.944 410.592,123.174 407.118,120.899 C403.634,118.624 400.84,115.858 398.686,113.048 C396.548,110.205 395.139,107.291 394.076,104.689 C393.14,102.029 392.566,99.668 392.288,97.714 C392.17,96.738 392.065,95.87 391.974,95.113 C391.954,94.365 391.938,93.729 391.924,93.202 C391.907,92.711 391.895,92.324 391.885,92.031 C391.873,91.767 391.862,91.633 391.853,91.633 C391.844,91.633 391.836,91.766 391.829,92.03 C391.825,92.323 391.819,92.71 391.814,93.203 C391.813,93.733 391.811,94.373 391.81,95.125 C391.887,95.888 391.975,96.763 392.074,97.748 C392.321,99.721 392.867,102.11 393.783,104.81 C394.828,107.451 396.227,110.414 398.368,113.31 C400.526,116.175 403.34,118.999 406.861,121.329 C410.372,123.659 414.593,125.48 419.29,126.334 C423.977,127.188 429.137,127.134 434.271,125.705 C439.389,124.279 444.452,121.52 448.697,117.424 L448.366,117.494 C453.168,119.347 458.172,121.278 463.334,123.271 L464.089,123.562 L463.755,122.793 C461.375,117.301 458.918,111.635 456.413,105.856 L456.415,106.147 L456.876,104.981 C458.314,101.119 459.093,97.015 459.012,92.977 C459.015,88.947 458.358,84.956 456.997,81.319 C454.282,74.048 449.34,68.074 443.487,64.411 C440.572,62.579 437.514,61.109 434.37,60.311 C433.601,60.049 432.813,59.898 432.028,59.755 C431.243,59.621 430.475,59.416 429.695,59.345 C428.134,59.219 426.601,59.004 425.083,59.091 C422.045,59.033 419.139,59.6 416.403,60.266 C413.707,61.105 411.14,62.056 408.899,63.41 C404.347,65.977 400.817,69.352 398.322,72.759 C395.809,76.172 394.336,79.595 393.399,82.44 C393.189,83.161 392.989,83.844 392.803,84.486 C392.607,85.123 392.547,85.753 392.425,86.319 C392.208,87.459 392.026,88.423 392.003,89.22 C391.948,89.985 391.905,90.582 391.874,91.02 C391.849,91.425 391.841,91.632 391.853,91.633" id="Fill-124" fill="#132529"></path>
    </g>
</svg>