<?xml version="1.0" encoding="UTF-8"?>
<svg width="445px" height="448px" viewBox="0 0 445 448" version="1.1" xmlns="http://www.w3.org/2000/svg" xmlns:xlink="http://www.w3.org/1999/xlink">
    <title>3545756</title>
    <defs>
        <polygon id="path-1" points="0.861999498 0.160995485 232.092 0.160995485 232.092 406 0.861999498 406"></polygon>
    </defs>
    <g id="Page-1" stroke="none" strokeWidth="1" fill="none" fillRule="evenodd">
        <g id="3545756">
            <path d="M108.803,103.325 L108.803,103.325 C89.882,103.325 74.544,87.986 74.544,69.066 C74.544,50.145 89.882,34.806 108.803,34.806 C127.724,34.806 143.062,50.145 143.062,69.066 C143.062,87.986 127.724,103.325 108.803,103.325" id="Fill-1" fill="#E4E4DE"></path>
            <polygon id="Fill-2" fill="#FFFFFE" points="93.268 84.335 100.359 84.335 100.359 61.429 93.268 61.429"></polygon>
            <path d="M96.78,58.429 C99.096,58.429 100.973,56.535 100.973,54.202 C100.973,51.868 99.096,49.976 96.78,49.976 C94.463,49.976 92.587,51.868 92.587,54.202 C92.587,56.535 94.463,58.429 96.78,58.429" id="Fill-3" fill="#FFFFFE"></path>
            <g id="Group-7" transform="translate(104.000000, 0.000000)">
                <path d="M7.693,72.311 C7.693,69.09 9.175,67.172 12.013,67.172 C14.62,67.172 15.873,69.013 15.873,72.311 C15.873,75.61 15.873,84.335 15.873,84.335 L22.93,84.335 C22.93,84.335 22.93,75.967 22.93,69.832 C22.93,63.696 19.452,60.73 14.596,60.73 C9.737,60.73 7.693,64.514 7.693,64.514 L7.693,61.429 L0.891,61.429 L0.891,84.335 L7.693,84.335 C7.693,84.335 7.693,75.839 7.693,72.311" id="Fill-4" fill="#FFFFFE"></path>
                <polyline id="Fill-6" fill="#F1F0EC" points="50.717 0.84 55.409 9.418 63.986 14.109 55.409 18.8 50.717 27.378 46.026 18.8 37.448 14.109 46.026 9.418 50.717 0.84"></polyline>
            </g>
            <polyline id="Fill-8" fill="#E4E4DE" points="350.368 233.227 353.885 239.66 360.319 243.178 353.885 246.696 350.368 253.13 346.849 246.696 340.415 243.178 346.849 239.66 350.368 233.227"></polyline>
            <polyline id="Fill-9" fill="#D4D5CF" points="360.319 201.462 361.907 204.364 364.809 205.952 361.907 207.54 360.319 210.442 358.732 207.54 355.828 205.952 358.732 204.364 360.319 201.462"></polyline>
            <polyline id="Fill-10" fill="#D4D5CF" points="121.21 4.066 122.798 6.969 125.7 8.556 122.798 10.144 121.21 13.046 119.623 10.144 116.72 8.556 119.623 6.969 121.21 4.066"></polyline>
            <path d="M41.63,273.712 C45.209,272.155 47.721,268.411 47.685,264.038 C47.634,258.309 43.239,253.7 37.867,253.744673 C32.496,253.79 28.182,258.471 28.233,264.199 C28.271,268.613 30.898,272.336 34.556,273.803 C19.617,276.252 20.507,292.51 20.507,292.51 L55.902,292.215 C55.902,292.215 56.496,275.76 41.63,273.712" id="Fill-11" fill="#D4D5CF"></path>
            <path d="M381.132,380.892 C380.631,378.345 378.12,376.354 375.527,376.447 C372.956,376.54 370.617,378.67 370.267,381.215 C369.895,378.673 367.536,376.564 364.966,376.494 C362.371,376.424 359.877,378.437 359.4,380.987 C359.051,382.845 359.688,384.778 360.734,386.353 C361.78,387.927 363.207,389.202 364.62,390.459 C366.597,392.219 368.424,393.874 370.403,395.634 C372.365,393.857 374.034,392.187 375.996,390.408 C377.397,389.14 378.814,387.852 379.845,386.269 C380.876,384.685 381.496,382.746 381.132,380.892" id="Fill-12" fill="#E4E4DE"></path>
            <path d="M404.184,170.104 L407.977,169.352 L413.966,156.176 L412.465,148.605 C412.465,148.605 418.255,147.082 419.532,157.132 C420.808,167.183 421.054,164.51 421.054,164.51 C421.054,164.51 433.511,162.089 434.759,162.966 C435.667,163.602 438.459,175.9 439.92,182.579 C440.655,185.942 439.206,189.492 436.226,190.913 C435.802,191.115 435.365,191.271 434.921,191.359 C431.818,191.974 415.454,192.596 415.454,192.596 L408.903,193.895 L404.184,170.104" id="Fill-13" fill="#D4D5CF"></path>
            <g id="Group-17" transform="translate(0.000000, 168.000000)">
                <polyline id="Fill-14" fill="#D4D5CF" points="392.915 2.179 400.392 27.657 406.887 26.369 401.846 0.95 392.915 2.179"></polyline>
                <path d="M442.966,278.276 C442.966,278.421 343.796,278.537 221.494,278.537 C99.148,278.537 0,278.421 0,278.276 C0,278.133 99.148,278.017 221.494,278.017 C343.796,278.017 442.966,278.133 442.966,278.276" id="Fill-16" fill="#132529"></path>
            </g>
            <path d="M365.929,160.104 L365.929,160.104 C345.75,169.918 321.435,161.516 311.62,141.337 C301.806,121.157 310.208,96.842 330.388,87.028 C350.568,77.213 374.882,85.616 384.697,105.795 C394.511,125.975 386.109,150.289 365.929,160.104" id="Fill-18" fill="#E0565F"></path>
            <g id="Group-22" transform="translate(326.000000, 99.000000)">
                <path d="M12.118,33.648 C12.801,33.604 13.204,33.131 13.063,32.418 C12.964,31.925 12.701,30.689 12.598,30.17 C12.461,29.462 12.29,29.276 11.564,28.956 C9.985,28.259 8.597,27.037 7.541,24.866 C4.478,18.567 6.448,10.636 14.007,6.959 C20.701,3.704 26.368,6.005 29.025,11.468 C32.52,18.655 32.289,26.267 27.568,28.564 C24.959,29.832 21.959,28.625 21.298,25.677 C20.513,22.154 20.306,18.041 19.197,15.761 C18.204,13.721 16.282,12.551 14.015,13.653 C11.349,14.95 10.548,18.75 12.345,22.444 C13.49,24.796 15.06,26.001 15.06,26.001 C15.06,26.001 17.953,38.887 18.459,41.143 C19.466,45.637 22.68,50.186 22.992,50.651 C23.177,50.928 23.59,50.813 23.654,50.507 C23.745,50.066 25.012,44.601 24.185,40.161 C23.953,38.903 22.608,32.457 22.608,32.457 C24.277,33.688 27.516,33.91 30.206,32.602 C38.22,28.704 40.104,18.756 35.348,8.978 C31.751,1.584 22.142,-2.256 12.623,2.373 C0.781,8.133 -1.062,19.528 2.382,26.609 C4.467,30.896 7.946,33.921 12.118,33.648" id="Fill-19" fill="#FFFFFE"></path>
                <path d="M80.509,175.709 L80.509,175.709 C66.052,170.185 58.811,153.987 64.335,139.53 C69.859,125.073 86.057,117.831 100.514,123.356 C114.971,128.88 122.212,145.077 116.689,159.534 C111.164,173.991 94.966,181.233 80.509,175.709" id="Fill-21" fill="#E0565F"></path>
            </g>
            <path d="M412.42,260.023 C410.011,259.103 408.046,257.534 406.643,255.585 L401.535,255.296 L404.682,251.492 C404.005,249.01 404.077,246.307 405.06,243.733 C405.206,243.35 405.373,242.975 405.556,242.614 C408.411,236.883 415.263,234.153 421.408,236.501 C427.631,238.879 430.917,245.618 429.078,251.859 C428.989,252.173 428.885,252.481 428.767,252.791 C426.288,259.278 418.953,262.52 412.42,260.023 Z M431.141,253.29 C433.839,245.653 429.929,237.201 422.26,234.271 C414.683,231.376 406.239,234.948 403.064,242.267 C402.98,242.469 402.895,242.671 402.817,242.875 C401.805,245.523 401.601,248.273 402.075,250.874 L396.666,257.407 L405.422,257.908 C407.018,259.789 409.099,261.311 411.568,262.254 C419.356,265.23 428.058,261.377 431.011,253.649 C431.056,253.529 431.102,253.411 431.141,253.29 L431.141,253.29 Z" id="Fill-23" fill="#FFFFFE"></path>
            <path d="M422.296,253.556 C422.011,253.251 420.633,251.771 420.359,251.537 C420.087,251.297 419.876,251.156 419.515,251.411 C419.153,251.666 418.191,252.184 417.907,252.332 C417.615,252.485 417.407,252.437 417.122,252.131 C416.844,251.828 415.866,251.046 414.995,249.366 C414.317,248.071 414.046,246.682 413.979,246.264 C413.912,245.845 414.161,245.728 414.398,245.622 C414.617,245.524 414.895,245.351 415.149,245.221 L415.337,245.104 C415.464,245.008 415.569,244.912 415.711,244.777 C415.918,244.592 415.935,244.371 415.914,244.167 C415.895,243.962 415.847,242.008 415.819,241.21 C415.797,240.416 415.461,240.424 415.257,240.346 C415.059,240.27 414.84,240.149 414.61,240.061 C414.378,239.972 413.969,239.914 413.522,240.136 C413.074,240.359 411.866,240.85 411.219,242.539 C411.069,242.935 410.99,243.359 410.952,243.776 C410.839,245.116 411.211,246.401 411.278,246.623 C411.364,246.913 412.214,251.337 415.199,254.059 C418.194,256.769 418.368,256.313 419.025,256.496 C419.678,256.685 421.386,256.452 421.977,255.756 C422.573,255.068 422.834,254.382 422.804,254.204 C422.772,254.032 422.573,253.859 422.296,253.556" id="Fill-24" fill="#FFFFFE"></path>
            <path d="M42.128,145.194 L42.128,145.194 C30.327,145.194 20.76,135.628 20.76,123.826 C20.76,112.025 30.327,102.458 42.128,102.458 C53.93,102.458 63.496,112.025 63.496,123.826 C63.496,135.628 53.93,145.194 42.128,145.194" id="Fill-25" fill="#E0565F"></path>
            <path d="M30.743,130.98 C32.81,132.305 35.266,133.079 37.904,133.079 C46.577,133.079 51.477,125.753 51.182,119.182 C52.095,118.524 52.887,117.701 53.513,116.764 C52.675,117.135 51.774,117.386 50.83,117.499 C51.794,116.922 52.535,116.006 52.884,114.915 C51.981,115.45 50.981,115.839 49.918,116.048 C49.065,115.141 47.851,114.574 46.507,114.574 C43.492,114.574 41.276,117.387 41.957,120.31 C38.074,120.115 34.632,118.255 32.329,115.428 C31.104,117.528 31.694,120.276 33.774,121.666 C33.008,121.642 32.287,121.431 31.658,121.081 C31.607,123.246 33.158,125.27 35.404,125.721 C34.747,125.901 34.027,125.941 33.296,125.801 C33.889,127.657 35.615,129.007 37.659,129.046 C35.695,130.585 33.221,131.273 30.743,130.98" id="Fill-26" fill="#FFFFFE"></path>
            <path d="M80.529,384.568 L80.528,384.568 C60.756,389.277 40.909,377.068 36.198,357.294 C31.488,337.522 43.698,317.674 63.471,312.964 C83.243,308.254 103.091,320.464 107.801,340.236 C112.512,360.01 100.302,379.857 80.529,384.568" id="Fill-27" fill="#334F55"></path>
            <path d="M67.324,329.136 C61.992,330.405 61.329,330.588 59.258,331.182 C57.191,331.776 55.844,332.447 54.71,333.23 C53.539,334.039 52.604,334.971 51.773,336.321 C50.941,337.673 50.531,338.929 50.338,340.339 C50.149,341.702 50.157,343.208 50.56,345.32 C50.963,347.438 51.1,348.11 52.37,353.443 C53.64,358.774 53.822,359.437 54.416,361.508 C55.009,363.574 55.681,364.922 56.464,366.055 C57.272,367.227 58.204,368.161 59.556,368.993 C60.907,369.824 62.162,370.235 63.572,370.429 C64.936,370.616 66.442,370.609 68.555,370.206 C70.671,369.803 71.345,369.666 76.676,368.396 C82.007,367.126 82.67,366.944 84.742,366.35 C86.808,365.757 88.156,365.085 89.289,364.302 C90.46,363.493 91.395,362.561 92.226,361.21 C93.058,359.859 93.468,358.604 93.662,357.193 C93.85,355.829 93.842,354.323 93.44,352.211 C93.037,350.095 92.899,349.421 91.629,344.09 C90.359,338.758 90.178,338.095 89.584,336.024 C88.991,333.957 88.319,332.61 87.536,331.477 C86.727,330.306 85.795,329.37 84.444,328.539 C83.092,327.708 81.838,327.297 80.427,327.104 C79.063,326.916 77.557,326.923 75.445,327.325 C73.328,327.73 72.655,327.865 67.324,329.136 M68.166,332.672 C73.408,331.424 74.033,331.296 76.125,330.898 C78.06,330.528 79.176,330.601 79.932,330.705 C80.933,330.843 81.688,331.112 82.538,331.636 C83.389,332.159 83.97,332.711 84.544,333.542 C84.978,334.171 85.545,335.134 86.089,337.027 C86.676,339.074 86.845,339.691 88.093,344.932 C89.342,350.173 89.469,350.799 89.868,352.892 C90.236,354.826 90.164,355.942 90.06,356.697 C89.923,357.699 89.653,358.453 89.13,359.305 C88.607,360.155 88.054,360.736 87.223,361.311 C86.595,361.744 85.631,362.312 83.739,362.856 C81.691,363.443 81.076,363.61 75.833,364.859 C70.592,366.108 69.966,366.235 67.874,366.635 C65.939,367.003 64.824,366.931 64.068,366.826 C63.067,366.689 62.312,366.419 61.461,365.896 C60.611,365.372 60.03,364.82 59.455,363.988 C59.022,363.36 58.454,362.398 57.91,360.505 C57.323,358.457 57.155,357.841 55.907,352.6 C54.658,347.359 54.53,346.733 54.131,344.641 C53.763,342.705 53.835,341.59 53.939,340.834 C54.077,339.833 54.346,339.077 54.87,338.228 C55.393,337.376 55.946,336.795 56.777,336.221 C57.405,335.787 58.368,335.22 60.261,334.677 C62.308,334.089 62.924,333.921 68.166,332.672" id="Fill-28" fill="#FFFFFE"></path>
            <path d="M73.559,355.31 C69.945,356.17 66.317,353.938 65.456,350.324 C64.596,346.711 66.827,343.083 70.441,342.223 C74.055,341.361 77.682,343.593 78.543,347.207 C79.404,350.82 77.172,354.448 73.559,355.31 M69.599,338.686 C64.032,340.012 60.593,345.6 61.919,351.167 C63.245,356.735 68.834,360.172 74.401,358.846 C79.969,357.52 83.406,351.932 82.08,346.364 C80.754,340.797 75.166,337.36 69.599,338.686" id="Fill-29" fill="#FFFFFE"></path>
            <path d="M82.338,335.23 C82.647,336.53 81.844,337.837 80.543,338.147 C79.242,338.456 77.936,337.652 77.626,336.352 C77.316,335.051 78.12,333.745 79.421,333.435 C80.722,333.125 82.028,333.929 82.338,335.23" id="Fill-30" fill="#FFFFFE"></path>
            <path d="M359.304,352.176 L359.304,352.176 C349.825,352.176 342.14,344.491 342.14,335.012 C342.14,325.533 349.825,317.849 359.304,317.849 C368.783,317.849 376.467,325.533 376.467,335.012 C376.467,344.491 368.783,352.176 359.304,352.176" id="Fill-31" fill="#334F55"></path>
            <g id="Group-35" transform="translate(132.000000, 41.000000)">
                <mask id="mask-2" fill="white">
                    <use xlink:href="#path-1"></use>
                </mask>
                <g id="Clip-33"></g>
                <path d="M224.688,304.387 L228.867,304.387 L228.867,293.924 L231.782,293.924 L232.092,290.421 L228.867,290.421 C228.867,290.421 228.867,289.113 228.867,288.426 C228.867,287.6 229.033,287.274 229.83,287.274 C230.473,287.274 232.092,287.274 232.092,287.274 L232.092,283.638 C232.092,283.638 229.708,283.638 229.199,283.638 C226.09,283.638 224.688,285.007 224.688,287.628 C224.688,289.911 224.688,290.421 224.688,290.421 L222.515,290.421 L222.515,293.968 L224.688,293.968 L224.688,304.387" id="Fill-32" fill="#FFFFFE" mask="url(#mask-2)"></path>
                <path d="M168.767,406.000007 L30.88,405.918 C14.297,405.91 0.859,392.461 0.861999498,375.877 L0.93,30.192 C0.933,13.599 14.39,0.152 30.983,0.160995485 L168.87,0.242 C185.454,0.252 198.892,13.701 198.888001,30.284 L198.821,375.971 C198.818,392.564 185.361,406.011 168.767,406.000007" id="Fill-34" fill="#132529" mask="url(#mask-2)"></path>
            </g>
            <path d="M300.724,53.469 L273.991,53.454 C270.406,53.452 267.497,56.489 267.497,60.236 L267.495,65.086 C267.496,68.833 264.588,71.87 261.003,71.868 L208.893,71.837 C205.308,71.835 202.402,68.795 202.403,65.047 L202.404,60.198 C202.405,56.45 199.498,53.41 195.913,53.408 L186.511,53.402 L163.112,53.3879971 C151.492,53.382 142.067,62.799 142.065,74.42 L141.998999,411.834 C141.996,423.449 151.408,432.867 163.022,432.875 L300.633,432.955004 C312.253,432.962 321.678,423.545 321.681,411.924 L321.747,74.509 C321.749,62.894 312.338,53.476 300.724,53.469" id="Fill-36" fill="#FFFFFE"></path>
            <path d="M302.738,80.88 C302.738,80.971 299.261,81.073 294.973,81.108 C290.684,81.144 287.206,81.1 287.205,81.009 C287.205,80.919 290.681,80.816 294.97,80.781 C299.259,80.746 302.737,80.79 302.738,80.88" id="Fill-37" fill="#132529"></path>
            <path d="M302.77,84.855 C302.771,84.945 299.294,85.047 295.006,85.083 C290.716,85.118 287.24,85.073 287.239,84.983 C287.238,84.892 290.713,84.79 295.003,84.755 C299.291,84.719 302.769,84.764 302.77,84.855" id="Fill-38" fill="#132529"></path>
            <path d="M302.803,88.828 C302.804,88.919 299.328,89.021 295.038,89.056 C290.749,89.092 287.272,89.047 287.272,88.957 C287.271,88.866 290.746,88.764 295.036,88.729 C299.325,88.693 302.802,88.738 302.803,88.828" id="Fill-39" fill="#132529"></path>
            <path d="M156.516,92.704 C156.524,92.696 156.663,92.688 156.923,92.677 C157.244,92.666 157.616,92.654 158.055,92.639 C159.123,92.614 160.52,92.581 162.234,92.54 L162.119,92.657 C162.104,91.731 162.087,90.719 162.07,89.627 C162.076,89.064 162.021,88.533 162.076,87.882 C162.189,87.233 162.767,86.661 163.478,86.594 C164.152,86.581 164.745,86.55 165.475,86.584 C166.228,86.676 166.869,87.4 166.846,88.198 C166.862,89.611 166.879,91.087 166.896,92.618 L166.702,92.427 C168.395,92.41 170.158,92.392 171.974,92.374 L171.774,92.578 C171.755,90.454 171.735,88.258 171.715,86.008 C171.71,85.447 171.706,84.89 171.701,84.336 C171.699,83.82 171.385,83.475 170.96,83.09 C170.18,82.321 169.411,81.563 168.655,80.818 C167.9,80.073 167.158,79.341 166.432,78.624 C166.069,78.266 165.709,77.911 165.354,77.56 C164.984,77.203 164.693,76.834 164.264,76.746 C163.848,76.634 163.389,76.722 163.054,76.977 C162.735,77.247 162.394,77.629 162.073,77.942 C161.424,78.597 160.792,79.233 160.181,79.85 C158.991,81.086 157.752,82.215 156.85,83.283 C156.471,83.872 156.613,84.593 156.585,85.25 C156.584,85.903 156.582,86.523 156.581,87.108 C156.575,88.247 156.568,89.245 156.563,90.1 C156.554,90.865 156.547,91.497 156.541,92.014 C156.534,92.456 156.526,92.694 156.516,92.704 C156.506,92.714 156.495,92.496 156.48,92.07 C156.466,91.561 156.448,90.939 156.427,90.186 C156.408,89.324 156.385,88.317 156.359,87.169 C156.348,86.573 156.336,85.941 156.324,85.275 C156.319,84.938 156.313,84.592 156.307932,84.239 C156.305,83.864 156.401,83.478 156.599,83.135 C157.574,81.94 158.738,80.882 159.937,79.61 C160.544,78.989 161.17,78.347 161.814,77.687 C162.152,77.356 162.429,77.025 162.831,76.679 C163.253,76.355 163.832,76.238 164.36,76.378 C164.921,76.502 165.286,76.961 165.626,77.283 C165.983,77.633 166.344,77.986 166.708,78.343 C167.437,79.058 168.182,79.788 168.938,80.53 C169.696,81.273 170.466,82.029 171.248,82.797 C171.433,82.993 171.656,83.159 171.837,83.435 C172.007,83.697 172.105,84.008 172.113,84.324 C172.118,84.88 172.123,85.441 172.128,86.005 C172.145,88.255 172.162,90.451 172.178,92.574 L172.18,92.777 L171.977,92.778 C170.161,92.79 168.398,92.801 166.705,92.812 L166.512,92.813 L166.511,92.621 C166.503,91.09 166.495,89.614 166.488,88.201 C166.51,87.564 166.015,87.002 165.423,86.921 C164.816,86.889 164.101,86.91 163.511,86.915 C162.944,86.962 162.471,87.417 162.374,87.94 C162.323,88.47 162.362,89.088 162.351,89.625 C162.351,90.717 162.352,91.729 162.352,92.655 L162.352,92.774 L162.236,92.773 C160.493,92.761 159.073,92.751 157.987,92.744 C157.557,92.736 157.194,92.73 156.881,92.725 C156.633,92.718 156.509,92.711 156.516,92.704" id="Fill-40" fill="#132529"></path>
            <path d="M247.476,356.36 C247.476,356.397 246.962,356.431 246.032,356.462 C245.003,356.483 243.68,356.511 242.091,356.544 C238.765,356.592 234.169,356.62 229.093,356.62 C224.016,356.62 219.419,356.592 216.092,356.544 C214.504,356.511 213.181,356.483 212.153,356.462 C211.223,356.431 210.708,356.397 210.708,356.36 C210.708,356.324 211.223,356.29 212.153,356.259 C213.181,356.237 214.504,356.209 216.092,356.176 C219.419,356.129 224.016,356.1 229.093,356.1 C234.169,356.1 238.765,356.129 242.091,356.176 C243.68,356.209 245.003,356.237 246.032,356.259 C246.962,356.29 247.476,356.324 247.476,356.36" id="Fill-41" fill="#334F55"></path>
            <path d="M305.268,365.405 C305.268,365.55 284.098,365.666 257.991,365.666 C231.873,365.666 210.708,365.55 210.708,365.405 C210.708,365.262 231.873,365.146 257.991,365.146 C284.098,365.146 305.268,365.262 305.268,365.405" id="Fill-42" fill="#334F55"></path>
            <path d="M275.718,373.915 C275.718,374.06 261.163,374.176 243.214,374.176 C225.259,374.176 210.708,374.06 210.708,373.915 C210.708,373.772 225.259,373.655 243.214,373.655 C261.163,373.655 275.718,373.772 275.718,373.915" id="Fill-43" fill="#334F55"></path>
            <path d="M304.2,387.166 L304.291,387.258 L306.878,389.853 L306.89,382.156 L301.674,382.148 L301.662,389.697 L304.2,387.166 Z M307.137,390.48 L304.2,387.533 L301.402,390.322 L301.414,381.888 L307.15,381.897 L307.137,390.48 L307.137,390.48 Z" id="Fill-44" fill="#132529"></path>
            <path d="M226.482,383.767 C225.002,383.778 223.808,384.991 223.82,386.471 C223.832,387.949 225.045,389.144 226.525,389.132 C226.905,389.128 227.327,388.995 227.817,388.725 L227.86,388.7 L228.623,389.041 L228.451,388.29 L228.485,388.252 C228.942,387.75 229.191,387.102 229.185,386.428 C229.173,384.948 227.96,383.755 226.482,383.767 Z M228.906,389.383 L227.869,388.92 C227.368,389.192 226.928,389.325 226.526,389.329 C224.938,389.342 223.636,388.06 223.623,386.473 C223.611,384.885 224.892,383.582 226.48,383.569 C228.068,383.557 229.37,384.839 229.382,386.426 C229.388,387.133 229.134,387.813 228.665,388.346 L228.906,389.383 L228.906,389.383 Z" id="Fill-45" fill="#132529"></path>
            <path d="M232.659,384.2 L234.556,385.942 L235.569,388.412 L237.267,384.163 L232.659,384.2 Z M235.571,388.938 L234.382,386.038 L232.154,384.007 L237.559,383.964 L235.571,388.938 L235.571,388.938 Z" id="Fill-46" fill="#132529"></path>
            <polyline id="Fill-47" fill="#132529" points="234.611 386.046 234.503 385.88 237.451 383.964 237.559 384.129 234.611 386.046"></polyline>
            <path d="M220.4,384.613 C220.245,383.841 219.481,383.239 218.695,383.271 C217.915,383.302 217.207,383.95 217.104,384.723 C216.988,383.952 216.27,383.315 215.49,383.296 C214.703,383.277 213.948,383.892 213.806,384.666 C213.703,385.23 213.898,385.816 214.217,386.292 C214.536,386.769 214.971,387.154 215.4,387.534 C216.002,388.067 216.558,388.567 217.161,389.098 C217.754,388.557 218.259,388.048 218.852,387.506 C219.276,387.12 219.704,386.728 220.016,386.246 C220.327,385.765 220.513,385.175 220.4,384.613" id="Fill-48" fill="#E0565F"></path>
            <path d="M313.159,397.942 C313.159,397.942 313.147,397.618 313.141,397.001 C313.137,396.374 313.131,395.462 313.122,394.265 C313.114,391.852 313.099,388.303 313.08,383.706 C313.059,374.516 313.027,361.145 312.987,344.372 L313.159,344.544 C274.682,344.566 217.25,344.597 153.242,344.633 L153.232,344.633 L153.493,344.372 C153.49,362.989 153.487,381.048 153.484,397.942 L153.232,397.69 C199.268,397.736 239.214,397.777 267.665,397.807 C281.902,397.837 293.259,397.86 301.072,397.877 C304.972,397.892 307.985,397.902 310.036,397.909 C311.051,397.917 311.826,397.922 312.359,397.926 C312.883,397.931 313.159,397.942 313.159,397.942 C313.159,397.942 312.905,397.952 312.391,397.957 C311.864,397.961 311.099,397.966 310.097,397.974 C308.059,397.981 305.064,397.991 301.187,398.006 C293.388,398.023 282.05,398.047 267.838,398.076 C239.344,398.106 199.338,398.147 153.232,398.193 L152.98,398.193 L152.98,397.942 C152.977,381.048 152.974,362.989 152.972,344.372 L152.972,344.111 L153.242,344.111 C217.25,344.148 274.682,344.179 313.159,344.2 L313.33,344.2 L313.33,344.372 C313.29,361.189 313.258,374.595 313.237,383.81 C313.218,388.39 313.203,391.925 313.194,394.329 C313.186,395.513 313.18,396.415 313.176,397.035 C313.17,397.641 313.159,397.942 313.159,397.942" id="Fill-49" fill="#132529"></path>
            <polyline id="Fill-50" fill="#E4E4DE" points="204.182 353.574 203.981 388.99 159.682 388.738 159.883 353.323 204.182 353.574"></polyline>
            <path d="M204.182,353.574 C204.177,353.579 204.102,353.583 203.96,353.587 C203.797,353.589 203.592,353.593 203.332,353.597 C202.757,353.6 201.95,353.605 200.913,353.61 C198.783,353.613 195.712,353.616 191.83,353.621 C184.039,353.605 172.998,353.582 159.882,353.556 L160.116,353.324 C160.064,363.869 160.005,375.95 159.942,388.736 C159.996,388.799 159.456,388.244 159.691,388.479 L159.775,388.479 L159.871,388.48 L160.063,388.481 L160.447,388.483 L161.214,388.487 L162.741,388.496 C163.757,388.502 164.767,388.508 165.773,388.514 C167.785,388.525 169.775,388.538 171.742,388.55 C175.675,388.575 179.513,388.6 183.235,388.624 C190.676,388.678 197.65,388.729 203.982,388.774 L203.764,388.989 C203.871,378.355 203.96,369.532 204.022,363.338 C204.063,360.258 204.096,357.832 204.119,356.148 C204.134,355.334 204.146,354.7 204.154,354.243 C204.165,353.81 204.182,353.574 204.182,353.574 C204.182,353.574 204.197,353.778 204.202,354.197 C204.205,354.645 204.21,355.265 204.216,356.061 C204.22,357.734 204.225,360.144 204.231,363.203 C204.223,369.431 204.211,378.3 204.197,388.991 L204.197,389.208 L203.979,389.207 C197.648,389.181 190.674,389.152 183.232,389.121 C179.511,389.103 175.672,389.084 171.739,389.065 C169.772,389.054 167.781,389.044 165.77,389.033 C164.765,389.027 163.753,389.022 162.738,389.017 L161.211,389.008 L160.444,389.003 L160.06,389.001 L159.869,389 L159.772,389 L159.724,388.999 L159.688,388.999 C159.916,389.233 159.363,388.683 159.421,388.733 C159.504,375.947 159.582,363.866 159.65,353.321 L159.651,353.088 L159.884,353.09 C173.062,353.213 184.155,353.316 191.983,353.389 C195.842,353.438 198.895,353.476 201.013,353.502 C202.029,353.52 202.821,353.533 203.385,353.543 C203.634,353.55 203.831,353.556 203.987,353.56 C204.12,353.566 204.186,353.57 204.182,353.574" id="Fill-51" fill="#132529"></path>
            <polyline id="Fill-52" fill="#D4D5CF" points="161.222 386.518 202.408 386.752 202.584 355.795 161.397 355.561 161.222 386.518"></polyline>
            <polyline id="Fill-53" fill="#F1F0EC" points="161.222 386.518 175.716 367.358 184.559 379.446 190.64 373.045 202.408 386.752 161.222 386.518"></polyline>
            <path d="M188.424042,365.072 C188.413,366.863 186.953,368.307 185.162,368.297052 C183.371,368.286 181.928,366.826 181.936958,365.035 C181.948,363.244 183.408,361.801 185.199,361.810948 C186.99,361.821 188.433,363.281 188.424042,365.072" id="Fill-54" fill="#F1F0EC"></path>
            <path d="M234.584,123.826 C234.584,123.844 234.421,123.862 234.111,123.879 C233.74,123.892 233.292,123.908 232.754,123.927 C231.494,123.948 229.809,123.976 227.766,124.01 C223.553,124.057 217.733,124.087 211.306,124.087 C204.875,124.087 199.055,124.057 194.842,124.01 C192.799,123.976 191.115,123.948 189.853,123.927 C189.315,123.908 188.868,123.892 188.497,123.879 C188.187,123.862 188.024,123.844 188.024,123.826 C188.024,123.808 188.187,123.791 188.497,123.774 C188.868,123.76 189.315,123.744 189.853,123.725 C191.115,123.704 192.799,123.676 194.842,123.642 C199.055,123.595 204.875,123.566 211.306,123.566 C217.733,123.566 223.553,123.595 227.766,123.642 C229.809,123.676 231.494,123.704 232.754,123.725 C233.292,123.744 233.741,123.76 234.111,123.774 C234.421,123.791 234.584,123.808 234.584,123.826" id="Fill-55" fill="#132529"></path>
            <path d="M295.664,314.683 L295.801,314.818 L299.645,318.675 L299.662,307.236 L291.911,307.225 L291.893,318.443 L295.664,314.683 Z M300.029,319.607 L295.663,315.228 L291.506,319.373 L291.526,306.838 L300.048,306.852 L300.029,319.607 L300.029,319.607 Z" id="Fill-56" fill="#132529"></path>
            <path d="M184.4,307.234 C181.488,307.257 179.139,309.645 179.162,312.556 C179.185,315.468 181.573,317.817 184.485,317.794 C185.232,317.787 186.064,317.525 187.028,316.992 L187.112,316.944 L188.616,317.616 L188.275,316.138 L188.344,316.063 C189.244,315.074 189.733,313.798 189.722,312.472 C189.699,309.56 187.311,307.211 184.4,307.234 Z M189.171,318.288 L187.13,317.378 C186.144,317.912 185.279,318.175 184.488,318.182 C181.362,318.207 178.799,315.685 178.774,312.56 C178.749,309.435 181.271,306.871 184.397,306.846 C187.522,306.82 190.085,309.343 190.11,312.468 C190.121,313.86 189.621,315.197 188.7,316.248 L189.171,318.288 L189.171,318.288 Z" id="Fill-57" fill="#132529"></path>
            <path d="M196.558,308.087 L200.294,311.516 L202.286,316.378 L205.629,308.015 L196.558,308.087 M202.29,317.412 L199.952,311.704 L195.565,307.707 L206.204,307.621 L202.29,317.412" id="Fill-58" fill="#132529"></path>
            <polyline id="Fill-59" fill="#132529" points="200.402 311.72 200.19 311.394 205.992 307.621 206.204 307.947 200.402 311.72"></polyline>
            <path d="M172.43,308.9 C172.125,307.379 170.621,306.195 169.072,306.257 C167.537,306.317 166.144,307.595 165.941,309.116 C165.714,307.599 164.3,306.344 162.765,306.308 C161.215,306.272 159.73,307.479 159.45,309.003 C159.245,310.113 159.63,311.268 160.258,312.205 C160.886,313.144 161.742,313.901 162.588,314.65 C163.773,315.696 164.868,316.681 166.053,317.728 C167.221,316.662 168.215,315.66 169.383,314.595 C170.217,313.834 171.06,313.062 171.673,312.113 C172.286,311.165 172.652,310.006 172.43,308.9" id="Fill-60" fill="#E0565F"></path>
            <path d="M178.677,123.826 C178.677,127.812 175.446,131.043 171.46,131.043 C167.474,131.043 164.244,127.812 164.244,123.826 C164.244,119.841 167.474,116.61 171.46,116.61 C175.446,116.61 178.677,119.841 178.677,123.826" id="Fill-61" fill="#E4E4DE"></path>
            <path d="M297.304,278.209 C297.304,278.353 267.043,278.469 229.725,278.469 C192.393,278.469 162.14,278.353 162.14,278.209 C162.14,278.065 192.393,277.948 229.725,277.948 C267.043,277.948 297.304,278.065 297.304,278.209" id="Fill-62" fill="#334F55"></path>
            <path d="M297.304,266.953 C297.304,267.097 267.043,267.214 229.725,267.214 C192.393,267.214 162.14,267.097 162.14,266.953 C162.14,266.81 192.393,266.693 229.725,266.693 C267.043,266.693 297.304,266.81 297.304,266.953" id="Fill-63" fill="#334F55"></path>
            <path d="M235.71,289.614 C235.71,289.758 219.24,289.875 198.927,289.875 C178.607,289.875 162.14,289.758 162.14,289.614 C162.14,289.471 178.607,289.354 198.927,289.354 C219.24,289.354 235.71,289.471 235.71,289.614" id="Fill-64" fill="#334F55"></path>
            <path d="M226.632021,412.244 C226.625,413.853 225.333,415.15 223.748,415.144021 C222.162,415.136 220.882,413.825 220.888971,412.217 C220.896,410.608 222.187,409.309 223.773,409.316963 C225.359,409.323 226.638,410.634 226.632021,412.244" id="Fill-65" fill="#132529"></path>
            <path d="M235.531015,412.284 C235.523,413.893 234.232,415.192 232.647,415.185028 C231.061,415.178 229.781,413.867 229.786979,412.258 C229.793,410.65 231.085,409.351 232.671,409.357972 C234.257,409.364 235.536,410.675 235.531015,412.284" id="Fill-66" fill="#132529"></path>
            <path d="M244.428029,412.325 C244.421,413.934 243.13,415.233 241.544,415.225037 C239.958,415.219 238.678,413.908 238.684971,412.298 C238.692,410.69 239.983,409.392 241.569,409.398972 C243.155,409.405 244.435,410.716 244.428029,412.325" id="Fill-67" fill="#132529"></path>
            <polyline id="Fill-68" fill="#D4D5CF" points="154.204 235.935 314.132 235.888 314.103 138.085 154.176 138.131 154.204 235.935"></polyline>
            <polyline id="Fill-69" fill="#F1F0EC" points="168.954 235.929 214.782 174.591 243.193 212.95 262.449 192.434 300.214 235.891 168.954 235.929"></polyline>
            <path d="M255.235,167.067 C255.236,172.775 250.611,177.403 244.903,177.405001 C239.194,177.407 234.566,172.781 234.564,167.073 C234.563,161.365 239.188,156.736 244.896,156.735 C250.605,156.734 255.233,161.359 255.235,167.067" id="Fill-70" fill="#F1F0EC"></path>
            <path d="M313.687,326.807 C313.685,324.715 313.59,236.362 313.451,105.567 L313.687,105.803 C265.459,105.811 211.095,105.819 153.779,105.828 L153.761,105.828 L154.021,105.567 C154.003,188.306 153.986,264.878 153.972,326.807 L153.761,326.596 C250.743,326.724 311.942,326.805 313.687,326.807 C311.943,326.81 250.743,326.891 153.761,327.02 L153.549,327.02 L153.549,326.807 C153.535,264.878 153.518,188.306 153.5,105.567 L153.5,105.307 L153.779,105.307 C211.095,105.316 265.459,105.324 313.687,105.331 L313.923,105.331 L313.923,105.567 C313.875,171.029 313.834,226.363 313.806,265.339 C313.779,284.8 313.757,300.175 313.743,310.691 C313.731,315.936 313.721,319.968 313.714,322.695 C313.708,324.048 313.703,325.076 313.701,325.774 C313.696,326.463 313.687,326.807 313.687,326.807" id="Fill-71" fill="#132529"></path>
            <path d="M238.54,354.251 L242.077,342.363 C242.696,339.785 243.515,336.745 244.618,333.274 C245.61,330.155 248.154,326.879 250.474,324.519 C254.085,320.846 255.803,320.821 258.231,318.872 C258.451,318.73 258.699,318.527 258.907,318.415 C259.409,318.143 259.778,317.782 260.087,317.394 C262.179,315.131 260.17,311.629 255.921,311.962 C252.723,312.213 247.507,313.128 239.026,321.878 C238.92,322.011 238.809,322.122 238.704,322.258 C234.253,328.044 230.073,311.526 229.319,305.378 C228.829,301.389 224.514,298.937 220.61,300.38 L199.949,310.044 C198.243,309.443 196.217,309.544 193.917,310.248 C190.875,311.373 189.186,314.501 189.981,317.536 L198.362,350.988 L173.749,432.881 L226.797,432.881 L238.54,354.251" id="Fill-72" fill="#F1AD92"></path>
            <path d="M279.292,279.038 L262.894,311.171 L254.696,308.894 L213.48,342.419 C209.973,345.273 204.831,344.816 201.883,341.389 L186.19,323.153 C186.19,323.153 217.832,309.524 223.684,298.24 C229.536,286.957 222.773,284.399 222.773,284.399 L237.665,267.476 L279.292,279.038" id="Fill-73" fill="#E0565F"></path>
            <path d="M258.024,213.397 C258.024,213.397 234.02,208.088 200.241,175.605 C166.463,143.123 150.59,99.988 146.456,100.198 C146.068,100.217 145.559,100.162 144.925,100.106 C138.794,99.566 121.05,99.027 89.932,166.718 C55.595,241.409 69.12,258.753 75.953,258.614 C82.786,258.474 129.18,245.545 158.158,248.839 C187.135,252.133 224.383,267.235 224.383,267.235 L258.024,213.397" id="Fill-74" fill="#E0565F"></path>
            <path d="M309.017,254.108 L297.159,276.653 C292.128,286.221 280.489,290.175 270.67,285.651 L219.221,267.726 L249.185,199.322 L300.587,226.715 C310.453,231.974 314.221,244.213 309.017,254.108" id="Fill-75" fill="#E0565F"></path>
            <path d="M279.162,287.52 C277.833,287.52 276.496,287.389 275.167,287.121 C273.646,286.814 272.138,286.328 270.67,285.651 L219.221,267.726 L249.185,199.322 L300.587,226.715 C307.447,230.371 311.359,237.403 311.356002,244.674 C311.355,247.861 310.603,251.093 309.017,254.108 L297.159,276.653 C293.537,283.541 286.489,287.52 279.162,287.52" id="Fill-76" fill="#8C2F39"></path>
            <path d="M92.706,168.078 C74.432,208.538 66.826,244.593 75.716,248.609 C84.606,252.624 106.627,223.078 124.901,182.618 C143.174,142.158 150.781,106.103 141.891,102.088 C133,98.072 110.98,127.617 92.706,168.078" id="Fill-77" fill="#E0565F"></path>
            <path d="M77.488,248.974 C76.852,248.974 76.259,248.854 75.716,248.609 C73.194,247.469 72,243.752 72,238.086 C72,223.782 79.617,197.06 92.706,168.078 C109.865,130.086 130.325,101.722 140.119,101.722 C140.755,101.722 141.348,101.842 141.891,102.088 C144.413,103.227 145.607,106.944 145.607,112.61 C145.606,126.914 137.99,153.636 124.901,182.618 C107.742,220.609 87.282,248.977 77.488,248.974" id="Fill-78" fill="#6D232C"></path>
            <polyline id="Fill-79" fill="#E0565F" points="313.432 276.607 299.488 272.227 308.117 255.819 318.576 262.32 313.432 276.607"></polyline>
            <path d="M302.353,273.127 L299.488,272.227 L302.353,273.127 M309.369,256.597 L308.117,255.819 L309.369,256.597" id="Fill-80" fill="#565A58"></path>
            <polyline id="Fill-81" fill="#501820" points="302.353 273.127 299.488 272.227 308.117 255.819 309.369 256.597 302.353 273.127"></polyline>
            <path d="M298.508,259.604 C298.304,260.055 291.344,257.35 282.965,253.562 C274.58,249.774 267.953,246.337 268.158,245.887 C268.361,245.437 275.319,248.142 283.703,251.93 C292.083,255.718 298.711,259.153 298.508,259.604" id="Fill-82" fill="#E0565F"></path>
            <path d="M302.797,249.831 C302.577,250.276 296.28,247.622 288.73,243.904 C281.177,240.184 275.235,236.811 275.454,236.366 C275.672,235.923 281.968,238.577 289.521,242.297 C297.071,246.016 303.015,249.388 302.797,249.831" id="Fill-83" fill="#E0565F"></path>
            <path d="M293.099,269.854 C293.025,270.091 291.369,269.709 288.726,268.893 C287.407,268.485 285.841,267.969 284.111,267.37 C282.391,266.746 280.607,265.844 278.695,264.978 C271.065,261.437 265.241,257.969 265.43,257.558 C265.656,257.072 271.883,259.843 279.442,263.35 C281.337,264.209 283.095,265.155 284.753,265.848 C286.418,266.521 287.911,267.149 289.158,267.702 C291.652,268.81 293.171,269.617 293.099,269.854" id="Fill-84" fill="#E0565F"></path>
            <path d="M129.961,159.08 C129.961,159.08 109.098,146.143 97.684,174.33 C86.269,202.517 108.22,207.152 108.22,207.152 C117.203,193.222 124.5,177.258 129.961,159.08" id="Fill-85" fill="#E0565F"></path>
            <path d="M92.39,248.533 C92.386,248.533 92.382,248.533 92.38,248.529 C92.285,248.45 93.427,246.881 95.573,244.11 C97.799,241.287 100.925,237.324 104.763,232.457 C106.528,229.871 108.454,227.048 110.521,224.021 C111.559,222.508 112.633,220.944 113.739,219.335 C114.293,218.531 114.854,217.714 115.424,216.887 C115.973,216.047 116.452,215.142 116.979,214.255 C119.056,210.682 121.235,206.935 123.493,203.052 C124.06,202.081 124.631,201.103 125.207,200.116 C125.793,199.135 126.23,198.064 126.757,197.029 C127.769,194.942 128.796,192.823 129.835,190.679 C130.878,188.537 131.908,186.42 132.923,184.334 C133.41,183.282 133.984,182.277 134.39,181.21 C134.809,180.148 135.225,179.094 135.638,178.049 C137.294,173.875 138.892,169.847 140.416,166.007 C140.787,165.044 141.202,164.11 141.524,163.158 C141.822,162.198 142.116,161.251 142.407,160.317 C142.989,158.45 143.555,156.637 144.103,154.883 C145.206,151.385 146.234,148.122 147.178,145.133 C148.627,139.12 149.807,134.224 150.649,130.736 C151.495,127.357 152.023,125.487 152.148,125.487 C152.149,125.487 152.15,125.487 152.15,125.487 C152.272,125.508 151.975,127.422 151.333,130.872 C150.673,134.316 149.74,139.317 148.402,145.455 C147.52,148.479 146.556,151.78 145.522,155.319 C144.999,157.093 144.457,158.926 143.901,160.813 C143.621,161.758 143.337,162.715 143.049,163.685 C142.738,164.648 142.331,165.592 141.969,166.565 C140.466,170.444 138.89,174.512 137.256,178.727 C136.846,179.782 136.432,180.844 136.014,181.917 C135.608,182.993 135.034,184.006 134.547,185.067 C133.527,187.17 132.494,189.303 131.447,191.461 C130.396,193.619 129.359,195.751 128.336,197.853 C127.804,198.892 127.36,199.97 126.766,200.956 C126.181,201.946 125.601,202.93 125.026,203.905 C122.722,207.796 120.498,211.551 118.378,215.131 C117.836,216.018 117.346,216.921 116.781,217.761 C116.195,218.589 115.618,219.406 115.046,220.211 C113.906,221.819 112.797,223.379 111.725,224.889 C109.579,227.892 107.576,230.694 105.743,233.26 C101.754,238.094 98.409,241.906 96.111,244.554 C93.86,247.119 92.546,248.533 92.39,248.533" id="Fill-86" fill="#6D232C"></path>
            <path d="M222.442,299.981 C223.273,298.861 223.876,297.844 224.318,296.946 C224.126,297.364 223.915,297.795 223.684,298.24 C223.387,298.812 223.025,299.389 222.604,299.971 C222.55,299.973 222.496,299.977 222.442,299.981 M225.054,295.182 C225.653,293.423 225.585,292.436 225.839,292.434 C225.84,292.434 225.842,292.433 225.843,292.433 C225.681,293.266 225.426,294.18 225.054,295.182" id="Fill-87" fill="#898C88"></path>
            <path d="M198.473,317.233 C200.683,316.04 203.475,314.49 206.956,312.491 C206.969,312.483 206.982,312.476 206.996,312.468 C204.116,314.2 201.188,315.812 198.473,317.233 M217.414,305.267 C219.663,303.327 221.277,301.551 222.442,299.981 C222.496,299.977 222.55,299.973 222.604,299.971 C221.337,301.719 219.539,303.504 217.414,305.267" id="Fill-88" fill="#916756"></path>
            <path d="M207.445,335.013 C203.876,335.012 200.425,333.162 197.851,330.64 C195.035,327.878 193.093,324.369 191.19,320.915 C191.19,320.915 193.123,320.121 198.473,317.233 C201.188,315.812 204.116,314.2 206.996,312.468 C211.474,309.894 214.855,307.474 217.414,305.267 C219.539,303.504 221.337,301.719 222.604,299.971 C223.025,299.389 223.387,298.812 223.684,298.24 C223.915,297.795 224.126,297.364 224.318,296.946 C224.64,296.294 224.876,295.704 225.054,295.182 C225.426,294.18 225.681,293.266 225.843,292.433 C226.406,292.368 226.937,292.338 227.447,292.338 C229.842,292.338 231.761,293.004 234.306,293.8 C235.413,294.147 236.571,294.639 237.174,295.629 C238.202,297.317 237.013,299.648 235.25,300.541 C234.151,301.098 232.926,301.255 231.681,301.255 C230.93,301.255 230.172,301.198 229.431,301.138 C231.06,303.621 232.711,306.151 233.538,309.004 C234.367,311.857 234.26,315.131 232.553,317.561 C231.365,319.252 229.28,320.346 227.26,320.346 C226.378,320.346 225.507,320.137 224.73,319.679 C224.542,322.027 224.036,324.481 222.476,326.246 C221.476,327.378 219.932,328.099 218.456,328.099 C217.628,328.099 216.822,327.872 216.145,327.363 C216.103,331.307 212.385,334.567 208.46,334.962 C208.121,334.996 207.783,335.013 207.445,335.013" id="Fill-89" fill="#8C2F39"></path>
            <path d="M236.611081,333.15 C236.597,333.243 235.254,332.986 233.077,333.045 C230.913,333.094 227.889,333.568 224.902,335.001 C221.912,336.434 219.648,338.495 218.254,340.151 C216.846,341.812 216.206,343.02 216.125,342.972 C216.096,342.956 216.225,342.64 216.519,342.097 C216.812,341.553 217.289,340.793 217.969,339.919 C219.314,338.172 221.601,336.005 224.676,334.532 C227.749,333.058 230.87,332.631 233.075,332.677 C234.182,332.693 235.074,332.798 235.681,332.91 C236.288,333.021 236.617,333.118 236.611081,333.15" id="Fill-90" fill="#EA8E6C"></path>
            <path d="M192.505,315.544 C195.754,318.665 197.976,322.11 201.384,325.254 C202.932,326.682 205.338,329.388 207.413,329.747 C209.489,330.108 210.819,329.832 211.64,327.892 C212.306,326.32 211.111,324.174 210.286,322.879 C208.115,319.474 206.038,316.811 204.412,314.163 C203.651,312.923 204.637,312.667 204.996,313.241 C206.561,314.862 208.893,316.267 210.294,318.031 C212.212,320.448 212.56,323.65 217.578,322.637 C218.242,322.503 218.904,322.274 219.442,321.862 C221.331,320.417 221.41,317.902 220.615,315.889 C219.992,314.311 218.898,312.972 217.821,311.661 C219.957,314.073 222.289,316.614 225.685,316.888 C227.661,317.047 229.643,316.127 230.442,314.314 C231.447,312.032 230.006,309.826 228.56,308.042 C225.996,304.88 223.137,301.959 220.031,299.328 C218.874,298.35 217.4,297.802 215.885,297.790737 C214.128,297.78 211.93,298.11 210.844,299.639 C208.872,302.413 209.48,304.865 209.48,304.865 C209.48,304.865 205.074,302.632 201.534,304.968 C197.994,307.305 197.118,311.32 197.118,311.32 L192.505,315.544" id="Fill-91" fill="#F1AD92"></path>
            <path d="M215.95,296.823 C214.586,295.45 214.269,292.939 215.327,290.864 C216.076,289.396 217.021,287.969 217.98,287.646 C222.171,286.232 240.482,289.4 240.315,293.463 C240.144,297.637 238.811,299.473 228.873,298.038 C227.125,297.785 224.382,297.441 224.382,297.441 L221.983,301.041 L215.95,296.823" id="Fill-92" fill="#F1AD92"></path>
            <path d="M219.229,313.841 C219.084,313.93 217.69,311.086 214.846,308.537 C212.03,305.954 209.064,304.846 209.139,304.692 C209.16,304.635 209.925,304.832 211.077,305.376 C212.228,305.915 213.747,306.843 215.195,308.151 C216.639,309.464 217.71,310.885 218.36,311.978 C219.013,313.072 219.285,313.815 219.229,313.841" id="Fill-93" fill="#EA8E6C"></path>
            <path d="M222.31,301.353 C222.219,301.439 221.011,300.451 219.361,299.442 C218.541,298.938 217.781,298.514 217.212,298.258 C216.647,297.992 216.272,297.919 216.272973,297.841 C216.269,297.775 216.703,297.721 217.339,297.912 C217.975,298.093 218.794,298.482 219.636,299 C221.326,300.033 222.432,301.243 222.31,301.353" id="Fill-94" fill="#EA8E6C"></path>
            <path d="M225.384,297.575 C225.372,297.686 223.778,297.731 221.857,297.178 C220.903,296.886 220.098,296.426 219.601,295.995 C219.098,295.567 218.889,295.21 218.938,295.167 C219.035,295.078 220.172,296.159 222.012,296.68 C223.827,297.206 225.411,297.402 225.384,297.575" id="Fill-95" fill="#EA8E6C"></path>
            <path d="M207.588,318.872 C207.529,318.914 206.881,318.087 205.918,316.701 C204.935,315.348 203.685,313.329 201.644,311.844 C199.603,310.357 197.2,310.004 195.59,310.24 C193.947,310.469 193.09,311.147 193.039,311.051 C193.022,311.027 193.214,310.842 193.623,310.589 C194.029,310.33 194.68,310.047 195.531,309.877 C197.215,309.53 199.782,309.843 201.948,311.421 C204.104,312.997 205.319,315.097 206.225,316.498 C207.11,317.938 207.646,318.83 207.588,318.872" id="Fill-96" fill="#EA8E6C"></path>
            <path d="M221.59705,359.372 C221.612,359.515 218.261,359.997 214.112,360.447 C209.962,360.899 206.587,361.149 206.57095,361.006 C206.556,360.862 209.906,360.381 214.056,359.93 C218.204,359.479 221.581,359.23 221.59705,359.372" id="Fill-97" fill="#EA8E6C"></path>
            <polyline id="Fill-98" fill="#E0565F" points="379.128 26.797 380.257 28.861 382.322 29.99 380.257 31.119 379.128 33.183 377.999 31.119 375.935 29.99 377.999 28.861 379.128 26.797"></polyline>
            <polyline id="Fill-99" fill="#E0565F" points="402.733 77.967 403.862 80.032 405.926 81.16 403.862 82.29 402.733 84.354 401.605 82.29 399.54 81.16 401.605 80.032 402.733 77.967"></polyline>
            <polyline id="Fill-100" fill="#E0565F" points="24.4 214.487 25.529 216.551 27.593 217.68 25.529 218.809 24.4 220.873 23.271 218.809 21.207 217.68 23.271 216.551 24.4 214.487"></polyline>
            <polyline id="Fill-101" fill="#E0565F" points="348.159 39.516 350.765 44.282 355.532 46.889 350.765 49.496 348.159 54.262 345.552 49.496 340.786 46.889 345.552 44.282 348.159 39.516"></polyline>
            <polyline id="Fill-102" fill="#E0565F" points="45.558 182.051 48.159 186.807 52.915 189.408 48.159 192.009 45.558 196.765 42.957 192.009 38.201 189.408 42.957 186.807 45.558 182.051"></polyline>
            <polyline id="Fill-103" fill="#E0565F" points="409.155 295.52 411.756 300.275 416.512 302.876 411.756 305.478 409.155 310.233 406.554 305.478 401.797 302.876 406.554 300.275 409.155 295.52"></polyline>
        </g>
    </g>
</svg>