<?xml version="1.0" encoding="UTF-8"?>
<svg width="474px" height="447px" viewBox="0 0 474 447" version="1.1" xmlns="http://www.w3.org/2000/svg" xmlns:xlink="http://www.w3.org/1999/xlink">
    <!-- Generator: Sketch 55 (78076) - https://sketchapp.com -->
    <title>3704255</title>
    <desc>Created with Sketch.</desc>
    <g id="Cover-Default" stroke="none" strokeWidth="1" fill="none" fill-rule="evenodd">
        <g id="3704255">
            <path d="M396.266,176.867 C383.034,157.62 352.182,153.896 334.75,169.441 C334.393,153.807 324.039,138.853 309.532,133.017 C295.024,127.18 277.199,130.798 266.114,141.828 C268.613,133.08 259.428,124.551 250.342,124.078 C241.257,123.605 232.86,128.492 225.065,133.184 C217.27,137.876 208.816,142.701 199.739,142.089 C189.912,141.425 181.74,134.571 172.554,131.018 C150.077,122.327 121.628,137.752 116.647,161.33 C91.768,151.286 59.847,167.731 53.583,193.819 L417.872,198.073 C415.416,187.717 406.666,179.129 396.266,176.867" id="Fill-1" fill="#F1F0EC"></path>
            <path d="M381.604,59.636 C382.234,55.059 375.774,51.294 370.92,50.903 C368.606,50.716 366.201,51.07 364.008,50.305 C359.257,48.65 357.359,42.511 352.723,40.556 C349.257,39.094 345.267,40.395 341.907,42.086 C338.546,43.778 335.226,45.906 331.472,46.146 C328.207,46.355 324.661,45.144 321.804,46.739 C319.675,47.928 318.56,50.381 316.597,51.828 C314.678,53.244 312.173,53.544 309.792,53.673 C307.411,53.803 304.945,53.827 302.776,54.82 C300.607,55.813 298.813,58.106 299.262,60.449 L381.604,59.636" id="Fill-2" fill="#FAF9F6"></path>
            <path d="M64.497,21.978 C64.849,19.424 61.244,17.323 58.536,17.105 C57.244,17.001 55.902,17.198 54.679,16.772 C52.027,15.847 50.968,12.423 48.381,11.331 C46.447,10.516 44.221,11.242 42.346,12.185 C40.471,13.129 38.618,14.317 36.523,14.451 C34.702,14.567 32.723,13.892 31.129,14.782 C29.941,15.445 29.319,16.814 28.224,17.621 C27.153,18.411 25.755,18.579 24.426,18.651 C23.097,18.723 21.721,18.737 20.511,19.291 C19.301,19.845 18.3,21.125 18.551,22.431 L64.497,21.978" id="Fill-3" fill="#FAF9F6"></path>
            <g id="Group-7" transform="translate(345.000000, 0.000000)" fill="#E4E4DE">
                <path d="M94.985,106.328 C95.708,101.067 88.283,96.738 82.704,96.288 C80.042,96.074 77.278,96.481 74.757,95.602 C69.295,93.698 67.114,86.642 61.785,84.394 C57.8,82.714 53.213,84.21 49.351,86.154 C45.488,88.098 41.67,90.545 37.356,90.821 C33.602,91.061 29.526,89.669 26.242,91.503 C23.794,92.869 22.512,95.689 20.256,97.352 C18.05,98.98 15.171,99.325 12.433,99.474 C9.696,99.623 6.861,99.65 4.368,100.792 C1.875,101.933 -0.188,104.57 0.33,107.262 L94.985,106.328" id="Fill-4"></path>
                <path d="M84.793,16.047 C85.303,12.344 80.077,9.297 76.149,8.981 C74.276,8.829 72.331,9.116 70.556,8.497 C66.711,7.157 65.176,2.191 61.425,0.609 C58.621,-0.574 55.392,0.479 52.673,1.847 C49.955,3.216 47.268,4.938 44.23,5.132 C41.588,5.301 38.719,4.322 36.408,5.612 C34.685,6.573 33.783,8.558 32.195,9.73 C30.642,10.875 28.616,11.118 26.689,11.222 C24.761,11.327 22.766,11.347 21.011,12.15 C19.256,12.954 17.805,14.809 18.169,16.705 L84.793,16.047" id="Fill-6"></path>
            </g>
            <path d="M79.545,104.48 C79.925,101.724 76.036,99.457 73.113,99.222 C71.72,99.11 70.272,99.323 68.952,98.863 C66.091,97.866 64.949,94.17 62.158,92.993 C60.071,92.113 57.669,92.896 55.646,93.914 C53.623,94.932 51.624,96.214 49.363,96.358 C47.398,96.484 45.263,95.755 43.543,96.716 C42.261,97.431 41.59,98.908 40.409,99.779 C39.253,100.632 37.745,100.812 36.312,100.89 C34.877,100.968 33.393,100.983 32.087,101.58 C30.781,102.178 29.701,103.559 29.972,104.969 L79.545,104.48" id="Fill-8" fill="#E4E4DE"></path>
            <path d="M182.344,62.208 C183.146,56.385 174.928,51.595 168.753,51.097 C165.809,50.86 162.75,51.31 159.96,50.338 C153.916,48.231 151.501,40.423 145.604,37.935 C141.194,36.075 136.118,37.731 131.844,39.882 C127.569,42.033 123.345,44.741 118.569,45.047 C114.416,45.313 109.905,43.772 106.271,45.801 C103.562,47.313 102.144,50.434 99.648,52.275 C97.205,54.076 94.02,54.458 90.99,54.622 C87.96,54.787 84.823,54.818 82.064,56.081 C79.305,57.345 77.023,60.262 77.595,63.242 L182.344,62.208" id="Fill-9" fill="#F1F0EC"></path>
            <path d="M14.582,271.185 C14.582,271.185 6.06,272.395 10.902,291.053 C15.745,309.712 19.834,319.323 19.834,319.323 C19.834,319.323 20.49,323.55 17.08,323.429 C13.67,323.309 6.711,320.562 4.363,324.248 C1.929,328.071 4.082,332.662 9.443,337.458 C14.805,342.254 26.167,353.193 27.191,354.186 C28.195,355.161 28.961,357.23 26.626,357.52 C26.2,357.573 25.302,357.553 24.115,357.534 C18.781,357.445 7.61,357.357 7.259,363.843 C6.83,371.775 23.963,382.682 25.813,383.91 C27.663,385.138 27.957,386.103 27.546,387.176 C27.136,388.251 21.616,387.087 16.873,386.74 C12.129,386.394 6.567,386.824 6.703,391.421 C6.839,396.017 15.853,407.606 42.073,416.166 L54.482,419.336 L63.622,410.282 C81.999,389.714 83.974,375.166 81.784,371.122 C79.593,367.079 74.568,369.5 70.64,372.181 C66.711,374.863 62.522,378.641 61.628,377.919 C60.733,377.196 60.503,376.215 61.487,374.223 C62.47,372.232 71.809,354.197 67.456,347.553 C63.102,340.91 49.699,350.887 47.533,351.809 C45.367,352.731 44.99,350.557 45.37,349.21 C45.756,347.837 50.089,332.672 52.317,325.832 C54.546,318.992 54.102,313.941 50.078,311.858 C46.197,309.848 41.558,315.718 38.669,317.535 C35.781,319.351 34.225,315.366 34.225,315.366 C34.225,315.366 32.935,305.002 27.754,286.434 C22.573,267.868 14.411,271.221 14.411,271.221 L14.582,271.185" id="Fill-10" fill="#E4E4DE"></path>
            <path d="M54.479,422.42 C50.728,408.769 44.468,384.395 38.985,363.497 C33.504,342.606 28.524,323.696 24.842,310.027 C22.997,303.207 21.503,297.682 20.465,293.845 C19.953,291.946 19.554,290.467 19.278,289.444 C19.15,288.952 19.051,288.57 18.979,288.297 C18.914,288.038 18.891,287.902 18.891,287.902 C18.891,287.902 18.94,288.03 19.019,288.286 C19.099,288.556 19.211,288.934 19.355,289.423 C19.648,290.44 20.071,291.914 20.614,293.803 C21.704,297.609 23.241,303.128 25.114,309.954 C28.865,323.604 33.889,342.505 39.37,363.396 C44.852,384.295 51.069,408.677 54.751,422.346" id="Fill-11" fill="#D4D5CF"></path>
            <path d="M13.944,328.483 C13.959,328.461 14.25,328.617 14.762,328.919 C15.277,329.219 16.007,329.676 16.904,330.248 C18.697,331.395 21.132,333.044 23.787,334.91 C26.398,336.76 28.758,338.434 30.564,339.715 C31.382,340.287 32.072,340.769 32.626,341.157 C33.115,341.495 33.378,341.694 33.364,341.717 C33.35,341.74 33.058,341.587 32.543,341.287 C32.029,340.985 31.298,340.529 30.406,339.947 C28.625,338.782 26.212,337.102 23.558,335.236 C20.935,333.405 18.564,331.749 16.749,330.482 C15.928,329.914 15.235,329.434 14.678,329.05 C14.191,328.707 13.93,328.507 13.944,328.483" id="Fill-12" fill="#D4D5CF"></path>
            <path d="M34.395,341.107 C34.302,341.048 37.479,335.878 41.489,329.56 C45.501,323.241 48.827,318.167 48.919,318.225 C49.012,318.285 45.836,323.454 41.825,329.773 C37.814,336.091 34.488,341.166 34.395,341.107" id="Fill-13" fill="#D4D5CF"></path>
            <path d="M41.367,373.574 C41.349,373.552 41.592,373.319 42.045,372.915 C42.562,372.46 43.208,371.89 43.974,371.217 C45.601,369.78 47.839,367.788 50.227,365.499 C52.622,363.215 54.717,361.072 56.221,359.509 C56.93,358.773 57.526,358.154 58.005,357.658 C58.429,357.222 58.672,356.991 58.693,357.01 C58.713,357.028 58.509,357.295 58.12,357.761 C57.73,358.228 57.155,358.894 56.426,359.7 C54.973,361.315 52.903,363.496 50.502,365.786 C48.106,368.082 45.833,370.047 44.157,371.43 C43.316,372.119 42.629,372.668 42.144,373.034 C41.66,373.402 41.384,373.595 41.367,373.574" id="Fill-14" fill="#D4D5CF"></path>
            <path d="M20.355,366.227 C20.364,366.201 20.667,366.275 21.207,366.43 C21.824,366.62 22.583,366.852 23.479,367.126 C25.393,367.73 28.027,368.59 30.929,369.563 C33.832,370.537 36.452,371.439 38.343,372.111 C39.222,372.432 39.968,372.705 40.575,372.927 C41.099,373.128 41.385,373.251 41.377,373.277 C41.368,373.302 41.065,373.229 40.526,373.073 C39.908,372.884 39.149,372.652 38.253,372.378 C36.34,371.774 33.705,370.914 30.802,369.94 C27.9,368.967 25.28,368.065 23.389,367.393 C22.51,367.072 21.764,366.8 21.157,366.578 C20.633,366.377 20.347,366.253 20.355,366.227" id="Fill-15" fill="#D4D5CF"></path>
            <path d="M22.869,395.672 C22.877,395.645 23.264,395.743 23.955,395.942 C24.714,396.172 25.694,396.468 26.871,396.823 C29.327,397.583 32.712,398.659 36.443,399.871 C40.176,401.083 43.547,402.202 45.982,403.03 C47.142,403.433 48.109,403.77 48.858,404.031 C49.535,404.275 49.905,404.423 49.896,404.449 C49.888,404.475 49.501,404.378 48.811,404.177 C48.051,403.948 47.071,403.653 45.895,403.298 C43.438,402.538 40.053,401.462 36.32,400.249 C32.589,399.037 29.218,397.919 26.783,397.091 C25.623,396.687 24.656,396.35 23.907,396.09 C23.231,395.845 22.86,395.697 22.869,395.672" id="Fill-16" fill="#D4D5CF"></path>
            <g id="Group-20" transform="translate(49.000000, 275.000000)">
                <path d="M0.309,129.057 C0.291,129.037 0.59,128.732 1.147,128.2 C1.758,127.622 2.555,126.868 3.516,125.959 C5.513,124.064 8.262,121.437 11.214,118.451 C14.172,115.469 16.778,112.699 18.65,110.681 C19.55,109.713 20.297,108.908 20.87,108.292 C21.396,107.73 21.697,107.427 21.718,107.445 C21.739,107.464 21.477,107.8 20.986,108.394 C20.495,108.988 19.771,109.837 18.859,110.87 C17.038,112.938 14.459,115.744 11.497,118.731 C8.54,121.722 5.755,124.322 3.707,126.166 C2.68,127.085 1.841,127.82 1.251,128.315 C0.662,128.812 0.327,129.078 0.309,129.057" id="Fill-17" fill="#D4D5CF"></path>
                <path d="M359.876,148.432 C339.15,136.96 331.362,111.433 328.948,87.855 C328.544,83.92 327.586,79.845 328.867,76.166 C330.148,72.488 333.899,69.577 337.402,70.776 C340.308,71.77 341.95,74.992 343.849,77.582 C346.375,81.027 349.808,83.693 353.624,85.175 C356.132,86.147 359.126,86.541 361.248,84.865 C364.157,82.564 363.901,77.843 363.354,73.949 C362.333,66.69 361.314,59.432 360.294,52.175 C359.747,48.282 359.201,44.303 359.836,40.449 C360.472,36.593 362.514,32.812 365.841,31.296 C369.169,29.779 373.745,31.325 374.99,35.039 C375.508,36.585 375.428,38.274 375.747,39.878 C376.066,41.482 377.011,43.174 378.509,43.427 C380.026,43.683 381.335,42.378 382.271,41.087 C385.503,36.632 387.374,31.212 389.082,25.841 C390.789,20.471 392.41,14.991 395.246,10.228 C398.082,5.466 402.345,1.414 407.522,0.378 C412.7,-0.657 418.725,2.02 420.781,7.318 C422.843,12.631 420.596,18.618 417.932,23.515 C413.981,30.781 409.04,37.406 403.317,43.116 C402.286,44.146 401.167,45.26 400.921,46.764 C400.48,49.472 403.129,51.735 405.643,52.258 C408.491,52.851 411.398,52.143 414.288,52.109 C417.177,52.075 420.437,52.991 421.898,55.716 C423.927,59.493 421.374,64.097 418.676,67.255 C413.275,73.578 406.847,78.87 399.763,82.83 C397.223,84.249 394.526,85.558 392.634,87.871 C390.744,90.183 389.911,93.866 391.585,96.43 C393.262,98.999 396.734,99.415 399.467,98.47 C402.2,97.527 404.495,95.55 407.026,94.1 C411.762,91.388 418.28,90.866 422.112,95.052 C424.629,97.804 425.385,102.015 424.807,105.79 C424.229,109.563 422.487,112.985 420.578,116.183 C413.905,127.361 404.719,136.885 393.679,142.796 C382.641,148.706 372.032,151.356 359.876,148.432" id="Fill-19" fill="#F1F0EC"></path>
            </g>
            <path d="M412.563,407.935 C414.2,395.642 417.043,382.343 420.467,368.55 C421.334,365.105 422.193,361.701 423.038,358.346 C423.888,355.001 424.732,351.681 425.746,348.494 C427.748,342.105 430.131,336.134 432.561,330.543 C434.989,324.949 437.485,319.738 439.852,314.885 C442.231,310.035 444.529,305.561 446.787,301.581 C451.281,293.597 455.619,287.64 458.754,283.683 C460.318,281.698 461.579,280.202 462.447,279.2 C462.866,278.723 463.194,278.348 463.441,278.066 C463.667,277.815 463.788,277.69 463.796,277.698 C463.805,277.707 463.703,277.849 463.493,278.118 C463.257,278.412 462.946,278.802 462.549,279.299 C461.715,280.333 460.488,281.858 458.957,283.868 C455.888,287.877 451.625,293.861 447.198,301.854 C444.971,305.841 442.704,310.319 440.351,315.175 C438.006,320.038 435.533,325.25 433.125,330.838 C430.718,336.422 428.357,342.378 426.375,348.733 C425.371,351.906 424.538,355.197 423.687,358.552 C422.843,361.904 421.988,365.306 421.121,368.75 C417.701,382.533 414.846,395.795 413.179,408.045" id="Fill-21" fill="#D4D5CF"></path>
            <path d="M425.934,348.439 C425.889,348.453 425.686,347.878 425.354,346.826 C425.017,345.775 424.578,344.239 424.061,342.334 C423.023,338.524 421.757,333.214 420.383,327.354 C419.008,321.491 417.676,316.215 416.587,312.431 C416.048,310.539 415.597,309.01 415.273,307.959 C414.954,306.905 414.797,306.313 414.841,306.296 C414.885,306.278 415.125,306.837 415.52,307.866 C415.92,308.891 416.443,310.399 417.042,312.28 C418.251,316.037 419.663,321.316 421.039,327.184 C422.381,332.97 423.595,338.205 424.522,342.205 C424.952,344.009 425.315,345.529 425.607,346.749 C425.859,347.823 425.979,348.425 425.934,348.439" id="Fill-22" fill="#D4D5CF"></path>
            <path d="M471.534,332.614 C471.542,332.664 470.886,332.839 469.697,333.111 C468.509,333.391 466.79,333.787 464.681,334.348 C460.457,335.435 454.671,337.156 448.372,339.353 C442.074,341.564 436.458,343.824 432.442,345.585 C430.427,346.45 428.815,347.198 427.698,347.707 C426.583,348.221 425.956,348.484 425.934,348.439 C425.913,348.392 426.501,348.044 427.584,347.448 C428.668,346.859 430.254,346.037 432.25,345.107 C436.229,343.219 441.836,340.875 448.153,338.656 C454.471,336.454 460.299,334.804 464.568,333.844 C466.698,333.345 468.438,333.025 469.645,332.832 C470.854,332.644 471.524,332.563 471.534,332.614" id="Fill-23" fill="#D4D5CF"></path>
            <path d="M413.015,406.933 C412.996,406.947 412.857,406.752 412.612,406.367 C412.329,405.907 411.984,405.344 411.566,404.665 C410.664,403.182 409.412,401.002 407.897,398.287 C404.864,392.858 400.893,385.222 396.618,376.735 C392.338,368.244 388.439,360.58 385.516,355.095 C384.086,352.428 382.91,350.235 382.036,348.605 C381.66,347.897 381.351,347.314 381.097,346.834 C380.89,346.426 380.79,346.205 380.809,346.19 C380.83,346.178 380.967,346.374 381.213,346.759 C381.496,347.218 381.84,347.779 382.258,348.46 C383.16,349.942 384.413,352.123 385.927,354.838 C388.961,360.266 392.932,367.902 397.21,376.392 C401.486,384.881 405.385,392.544 408.309,398.031 C409.74,400.696 410.916,402.889 411.79,404.518 C412.164,405.226 412.474,405.811 412.727,406.29 C412.935,406.7 413.036,406.921 413.015,406.933" id="Fill-24" fill="#D4D5CF"></path>
            <path d="M472.397,376.889 C472.406,376.913 472.206,377.035 471.815,377.247 C471.352,377.488 470.783,377.784 470.094,378.144 C468.501,378.954 466.352,380.046 463.737,381.374 C458.37,384.103 450.999,387.963 442.859,392.24 C434.717,396.519 427.303,400.31 421.88,402.92 C419.168,404.225 416.965,405.259 415.428,405.938 C414.716,406.248 414.13,406.503 413.654,406.711 C413.245,406.88 413.024,406.957 413.015,406.933 C413.006,406.91 413.207,406.788 413.596,406.575 C414.059,406.335 414.627,406.039 415.318,405.678 C416.911,404.869 419.059,403.778 421.673,402.449 C427.042,399.721 434.414,395.86 442.555,391.582 C450.695,387.303 458.107,383.512 463.531,380.903 C466.242,379.596 468.446,378.564 469.984,377.885 C470.696,377.575 471.281,377.319 471.758,377.112 C472.167,376.942 472.386,376.866 472.397,376.889" id="Fill-25" fill="#D4D5CF"></path>
            <path d="M471.455,446.634 C471.455,446.778 365.908,446.895 235.739,446.895 C105.524,446.895 0,446.778 0,446.634 C0,446.491 105.524,446.374 235.739,446.374 C365.908,446.374 471.455,446.491 471.455,446.634" id="Fill-26" fill="#132529"></path>
            <path d="M410.081,441.096 L57.501,441.096 C49.456,441.096 42.934,434.574 42.934,426.529 L42.934,203.24 C42.934,195.195 49.456,188.673 57.501,188.673 L410.08,188.673 C418.125,188.673 424.647,195.195 424.647,203.24 L424.647,426.529 C424.647,434.574 418.125,441.096 410.081,441.096" id="Fill-27" fill="#334F55"></path>
            <path d="M424.149,446.881 L45.44,446.881 C35.817,446.881 28.016,439.08 28.016,429.457 L28.016,424.794 L441.573,424.794 L441.573,429.457 C441.573,439.08 433.772,446.881 424.149,446.881" id="Fill-28" fill="#334F55"></path>
            <polygon id="Fill-29" fill="#132529" points="53.18 411.87 413.333 411.87 413.333 198.701 53.18 198.701"></polygon>
            <polyline id="Fill-30" fill="#132529" points="196.162 422.427 201.293 430.59 273.505 430.59 278.271 422.427 196.162 422.427"></polyline>
            <path d="M403.384,411.187 L63.872,411.187 C62.063,411.187 60.598,409.721 60.598,407.914 L60.598,209.191 C60.598,207.384 62.063,205.918 63.871,205.918 L403.384,205.918 C405.191,205.918 406.657,207.383 406.657,209.191 L406.657,407.915 C406.657,409.722 405.191,411.187 403.384,411.187" id="Fill-31" fill="#E4E4DE"></path>
            <polyline id="Fill-32" fill="#FAF9F6" points="406.286 411.488 60.228 411.488 60.598 221.259 406.286 221.259 406.286 411.488"></polyline>
            <path d="M88.98,213.845 C88.98,215.372 87.743,216.609 86.216,216.609 C84.69,216.609 83.453,215.372 83.453,213.845 C83.453,212.319 84.69,211.082 86.216,211.082 C87.743,211.082 88.98,212.319 88.98,213.845" id="Fill-33" fill="#132529"></path>
            <path d="M72.23,213.845 C72.23,215.372 70.993,216.609 69.466,216.609 C67.94,216.609 66.702,215.372 66.702,213.845 C66.702,212.319 67.94,211.082 69.466,211.082 C70.993,211.082 72.23,212.319 72.23,213.845" id="Fill-34" fill="#132529"></path>
            <path d="M80.27,213.845 C80.27,215.372 79.033,216.609 77.506,216.609 C75.98,216.609 74.743,215.372 74.743,213.845 C74.743,212.319 75.98,211.082 77.506,211.082 C79.033,211.082 80.27,212.319 80.27,213.845" id="Fill-35" fill="#132529"></path>
            <path d="M421.367,422.427 C421.367,422.563 336.645,422.674 232.16,422.674 C127.638,422.674 42.934,422.563 42.934,422.427 C42.934,422.29 127.638,422.179 232.16,422.179 C336.645,422.179 421.367,422.29 421.367,422.427" id="Fill-36" fill="#132529"></path>
            <path d="M369.832,303.159 C360.092,311.296 355.617,325.231 358.797,337.518 C349.818,335.731 340.031,338.681 333.536,345.135 C327.04,351.589 324.027,361.356 325.757,370.347 C315.843,363.528 300.701,366.084 293.572,375.778 C293.419,369.376 293.17,362.63 289.805,357.181 C286.44,351.732 278.801,348.37 273.414,351.831 C277.472,347.219 278.084,339.909 274.849,334.686 C271.615,329.464 264.798,326.755 258.861,328.333 C258.709,320.645 253.837,266.269 249.825,220.388 L215.778,220.388 C211.83,265.469 207.205,317.249 207.057,324.736 C201.12,323.158 194.303,325.867 191.068,331.09 C187.834,336.312 188.446,343.623 192.505,348.234 C187.117,344.773 179.478,348.135 176.113,353.585 C172.748,359.033 172.498,365.779 172.346,372.181 C165.217,362.487 150.075,359.931 140.161,366.751 C141.891,357.76 138.877,347.992 132.382,341.539 C125.888,335.085 116.101,332.135 107.121,333.922 C110.301,321.634 105.826,307.699 96.085,299.562 C86.345,291.424 71.835,289.499 60.31,294.815 L60.31,411.388 L405.608,411.388 L405.608,298.411 C394.082,293.095 379.573,295.021 369.832,303.159" id="Fill-37" fill="#E0565F"></path>
            <path d="M290.147,405.999 C287.142,401.887 283.115,398.585 278.571,396.295 C278.889,395.432 279.168,394.554 279.374,393.655 C279.74,392.051 279.916,390.414 279.916,388.775 C279.914,381.296 276.223,373.805 270.072,369.495 C266.201,366.783 261.479,365.425 256.759,365.425 C254.995,365.425 253.232,365.614 251.512,365.994 L242.687,240.247 C242.787,239.98 242.884,239.712 242.977,239.444 C244.006,236.486 244.78,233.373 246.557,230.794 C247.616,229.258 248.978,227.988 250.382,226.75 C254.274,271.16 258.716,320.998 258.861,328.333 C259.999,328.03 261.169,327.885 262.34,327.885 C267.279,327.885 272.235,330.465 274.849,334.686 C276.239,336.93 276.919,339.56 276.92,342.195 C276.922,345.693 275.728,349.201 273.414,351.831 C274.928,350.858 276.619,350.424 278.344,350.424 C282.757,350.424 287.386,353.264 289.805,357.181 C293.17,362.63 293.419,369.376 293.572,375.778 C297.985,369.777 305.467,366.512 312.881,366.512 C317.051,366.512 321.199,367.545 324.765,369.707 L325.314,380.186 C325.235,380.204 325.156,380.222 325.078,380.24 C310.58,383.58 297.623,393.135 290.147,405.999 M367.757,388.118 C361.737,384.074 354.886,381.306 347.769,379.919 L347.769,375.754 C347.769,375.754 357.528,379.951 368.716,384.626 C368.325,385.763 368.003,386.929 367.757,388.118 M327.7,353.723 C329.094,350.531 331.062,347.593 333.536,345.135 C336.6,342.09 340.399,339.825 344.499,338.469 L340.047,346.335 C337.7,346.625 335.408,347.384 333.316,348.595 C331.06,349.901 329.158,351.661 327.7,353.723 M405.608,347.749 L401.779,340.558 L395.871,320.904 C393.631,313.456 393.861,309.613 388.318,304.158 L378.91,297.828 C382.974,296.244 387.345,295.432 391.71,295.432 C396.489,295.432 401.262,296.407 405.608,298.411 L405.608,347.749 M366.943,344.543 L344.912,338.336 C347.695,337.461 350.611,337.004 353.524,337.004 C355.292,337.004 357.06,337.173 358.797,337.518 C358.72,337.221 358.647,336.921 358.579,336.622 C361.483,339.811 365.89,342.308 365.89,342.308 L366.943,344.543" id="Fill-38" fill="#F7D0CE"></path>
            <path d="M176.942,405.999 C169.467,393.135 156.51,383.58 142.012,380.24 C138.07,379.332 134.028,378.887 129.986,378.887 C119.161,378.887 108.324,382.078 99.332,388.118 C96.283,373.352 81.538,362.297 66.653,362.297 C64.53,362.297 62.406,362.522 60.31,362.993 L60.31,294.815 C64.657,292.81 69.428,291.835 74.209,291.835 C82.102,291.835 90.019,294.494 96.085,299.562 C103.733,305.951 108.135,315.914 108.134,325.848 C108.134,328.566 107.804,331.282 107.121,333.922 C108.859,333.576 110.626,333.407 112.394,333.407 C119.764,333.407 127.145,336.334 132.382,341.539 C137.66,346.782 140.638,354.213 140.642,361.638 C140.643,363.352 140.485,365.065 140.161,366.751 C143.939,364.152 148.474,362.915 153.038,362.915 C160.45,362.915 167.934,366.181 172.346,372.181 C172.498,365.779 172.748,359.033 176.113,353.585 C178.532,349.667 183.161,346.828 187.574,346.828 C189.299,346.828 190.991,347.262 192.505,348.234 C190.19,345.604 188.996,342.096 188.998,338.599 C188.999,335.963 189.679,333.334 191.068,331.09 C193.683,326.868 198.639,324.289 203.578,324.289 C204.749,324.289 205.919,324.434 207.057,324.736 C207.194,317.831 211.138,273.251 214.848,230.999 C216.132,232.219 217.685,233.137 219.414,233.589 C222.044,234.275 225.193,234.157 226.955,236.226 C227.382,236.727 227.669,237.291 227.868,237.896 L227.868,354.227 C221.057,355.267 215.94,362.072 215.936,368.83 C215.935,370.31 216.179,371.788 216.705,373.203 C210.928,374.046 205.686,377.941 203.211,383.229 C202.762,384.19 202.527,385.749 202.527,387.656 C202.527,389.163 202.675,390.888 202.98,392.706 C192.897,392.842 182.909,397.837 176.942,405.999" id="Fill-39" fill="#F7D0CE"></path>
            <path d="M367.757,388.118 C355.407,379.822 339.576,376.9 325.078,380.24 C310.58,383.58 297.623,393.135 290.147,405.999 C287.142,401.887 283.115,398.585 278.571,396.295 C278.889,395.432 279.168,394.554 279.374,393.655 C281.413,384.73 277.57,374.749 270.072,369.495 C264.754,365.77 257.833,364.598 251.512,365.994 L241.293,220.388 L227.868,220.388 L227.868,354.227 C219.565,355.495 213.78,365.33 216.705,373.203 C210.928,374.046 205.686,377.941 203.211,383.229 C202.407,384.95 202.288,388.587 202.98,392.706 C192.897,392.842 182.909,397.837 176.942,405.999 C169.467,393.135 156.51,383.58 142.012,380.24 C127.514,376.9 111.683,379.822 99.332,388.118 C95.821,371.118 76.812,359.039 59.93,363.081 L59.93,411.614 L215.717,411.41 C216.747,411.698 217.837,411.867 219.002,411.867 L257.09,411.418 L407.16,411.614 L407.16,363.081 C390.278,359.039 371.268,371.118 367.757,388.118" id="Fill-40" fill="#E0565F"></path>
            <path d="M219.002,411.867 C217.947,411.867 216.953,411.728 216.009,411.488 C215.911,411.463 215.814,411.437 215.717,411.41 L156.084,411.488 L59.93,411.614 L59.93,363.081 C62.148,362.55 64.401,362.297 66.653,362.297 C81.538,362.297 96.283,373.352 99.332,388.118 C108.324,382.078 119.161,378.887 129.986,378.887 C134.028,378.887 138.07,379.332 142.012,380.24 C156.51,383.58 169.467,393.135 176.942,405.999 C182.909,397.837 192.897,392.842 202.98,392.706 C202.675,390.888 202.527,389.163 202.527,387.656 C202.527,385.749 202.762,384.19 203.211,383.229 C205.686,377.941 210.928,374.046 216.705,373.203 C216.179,371.788 215.935,370.31 215.936,368.83 C215.94,362.072 221.057,355.267 227.868,354.227 L227.868,237.896 C228.716,240.479 227.946,243.804 229.504,246.143 C230.486,247.618 232.209,248.299 233.993,248.3 C235.362,248.3 236.767,247.898 237.9,247.146 C240.274,245.571 241.678,242.937 242.687,240.247 L251.512,365.994 C253.232,365.614 254.995,365.425 256.759,365.425 C261.479,365.425 266.201,366.783 270.072,369.495 C276.223,373.805 279.914,381.296 279.916,388.775 C279.916,390.414 279.74,392.051 279.374,393.655 C279.168,394.554 278.889,395.432 278.571,396.295 C283.115,398.585 287.142,401.887 290.147,405.999 C297.623,393.135 310.58,383.58 325.078,380.24 C325.156,380.222 325.235,380.204 325.314,380.186 L326.952,411.509 L310.836,411.488 L257.09,411.418 L251.13,411.488 L219.002,411.867 M407.16,411.614 L347.769,411.536 L347.769,379.919 C354.886,381.306 361.737,384.074 367.757,388.118 C368.003,386.929 368.325,385.763 368.716,384.626 C380.887,389.712 394.749,395.364 399.577,396.795 C400.759,397.145 401.967,397.311 403.172,397.311 C404.518,397.311 405.86,397.104 407.16,396.717 L407.16,411.614" id="Fill-41" fill="#EEA8AB"></path>
            <path d="M219.98,174.805 C212.295,178.455 208.82,188.979 212.821,196.488 C214.4,199.45 216.973,202.056 217.314,205.396 C217.838,210.515 212.995,214.52 211.498,219.444 C209.745,225.217 213.576,232.064 219.414,233.589 C222.044,234.275 225.193,234.157 226.955,236.226 C229.204,238.867 227.582,243.257 229.504,246.143 C231.24,248.751 235.291,248.878 237.9,247.146 C240.51,245.415 241.948,242.402 242.977,239.444 C244.006,236.486 244.78,233.373 246.557,230.794 C248.513,227.956 251.505,226.024 253.884,223.529 C259.607,217.525 261.355,208.517 260.068,200.323 C258.781,192.128 254.808,184.602 250.321,177.626 L219.98,174.805" id="Fill-42" fill="#E0565F"></path>
            <path d="M233.993,248.3 C232.209,248.299 230.486,247.618 229.504,246.143 C227.582,243.257 229.204,238.867 226.955,236.226 C225.193,234.157 222.044,234.275 219.414,233.589 C214.545,232.317 211.072,227.344 211.07,222.379 C211.07,221.391 211.207,220.403 211.498,219.444 C212.919,214.77 217.355,210.924 217.354,206.167 C217.354,205.913 217.341,205.656 217.314,205.396 C216.973,202.056 214.4,199.45 212.821,196.488 C211.68,194.346 211.147,191.96 211.146,189.558 C211.145,186.311 212.116,183.035 213.873,180.297 L224.705,180.297 C219.667,183.959 217.773,191.7 221.045,197.112 C223.293,200.829 227.655,204.187 226.598,208.4 C225.882,211.257 222.816,213.009 221.936,215.82 C220.764,219.562 224.31,223.532 228.203,224.005 C228.577,224.05 228.95,224.072 229.321,224.072 C232.814,224.072 236.152,222.144 238.815,219.804 C249.031,210.831 251.516,193.201 245.151,181.187 L237.172,180.297 L251.739,180.297 L251.869,180.093 C255.7,186.369 258.931,193.085 260.068,200.323 C260.332,202.003 260.468,203.718 260.469,205.434 C260.471,212.085 258.433,218.756 253.884,223.529 C251.505,226.024 248.513,227.956 246.557,230.794 C244.78,233.373 244.006,236.486 242.977,239.444 C241.948,242.402 240.51,245.415 237.9,247.146 C236.767,247.898 235.362,248.3 233.993,248.3" id="Fill-43" fill="#E67C84"></path>
            <path d="M226.727,179.132 C220.219,181.998 217.366,191.027 221.045,197.112 C223.293,200.829 227.655,204.187 226.598,208.4 C225.882,211.257 222.816,213.009 221.936,215.82 C220.764,219.562 224.31,223.532 228.203,224.005 C232.096,224.477 235.869,222.392 238.815,219.804 C249.031,210.831 251.516,193.201 245.151,181.187 L226.727,179.132" id="Fill-44" fill="#E0565F"></path>
            <path d="M260.292,121.888 C260.292,121.888 293.73,144.01 290.078,182.259 L259.333,168.462 L260.292,121.888" id="Fill-45" fill="#E0565F"></path>
            <polyline id="Fill-46" fill="#132529" points="204.729 167.707 212.323 180.297 251.739 180.297 259.333 168.429 204.729 167.707"></polyline>
            <path d="M229.99,40.68 C214.412,41.723 202.405,54.828 202.726,70.438 L204.729,168.429 L259.333,168.429 L261.158,70.38 C261.476,53.261 247.074,39.537 229.99,40.68" id="Fill-47" fill="#E0565F"></path>
            <path d="M259.333,168.429 L235.314,168.429 C235.402,160.063 235.503,150.217 235.582,141.704 C242.085,141.78 247.914,142.079 252.3,142.389 C254.8,142.581 256.853,142.738 258.366,142.854 C258.929,142.895 259.407,142.931 259.807,142.96 L259.333,168.429 M228.668,168.429 L204.729,168.429 L204.21,143.048 C204.29,143.044 204.386,143.04 204.497,143.033 C204.937,143 205.483,142.958 206.148,142.908 C207.66,142.789 209.712,142.627 212.212,142.43 C216.418,142.124 221.951,141.826 228.135,141.723 L228.668,168.429 M204.209,142.967 L202.726,70.438 C202.722,70.24 202.72,70.042 202.72,69.845 C202.71,54.497 214.61,41.71 229.99,40.68 C230.658,40.636 231.319,40.614 231.978,40.614 C247.984,40.614 261.151,53.62 261.163,69.803 C261.163,69.995 261.161,70.186 261.158,70.38 L259.81,142.834 C259.414,142.779 258.943,142.715 258.387,142.638 C256.962,142.449 254.892,142.226 252.332,141.997 C247.945,141.6 242.105,141.242 235.587,141.151 C235.645,134.909 235.69,129.426 235.708,125.834 C235.708,125.825 235.708,125.816 235.708,125.808 C235.705,123.605 233.91,121.888 231.777,121.888 C231.581,121.888 231.384,121.903 231.184,121.932 C229.248,122.22 227.82,123.883 227.819,125.831 C227.819,125.858 227.82,125.885 227.82,125.912 L228.124,141.172 C221.927,141.293 216.386,141.649 212.18,142.038 C209.619,142.274 207.55,142.5 206.125,142.693 C205.464,142.785 204.922,142.861 204.485,142.921 C204.378,142.938 204.286,142.953 204.209,142.967" id="Fill-48" fill="#F7D0CE"></path>
            <path d="M203.77,121.888 C203.77,121.888 170.332,144.011 173.985,182.259 L204.729,168.462 L203.77,121.888" id="Fill-49" fill="#E0565F"></path>
            <path d="M203.032,67.189 C214.574,57.08 250.825,57.301 260.558,65.527 C258.054,29.146 230.278,15.542 230.278,15.542 C201.855,35.209 203.032,67.189 203.032,67.189" id="Fill-50" fill="#E0565F"></path>
            <path d="M230.278,15.542 C230.278,15.542 230.392,15.638 230.604,15.835 C230.821,16.04 231.132,16.334 231.539,16.718 C231.951,17.11 232.458,17.592 233.055,18.16 C233.354,18.446 233.676,18.754 234.021,19.082 C234.344,19.432 234.688,19.804 235.053,20.199 C235.777,20.992 236.596,21.864 237.465,22.84 C238.284,23.86 239.174,24.968 240.129,26.158 C240.583,26.773 241.025,27.427 241.497,28.094 C241.952,28.77 242.474,29.433 242.916,30.179 C243.809,31.662 244.801,33.204 245.649,34.933 C247.424,38.34 249.035,42.264 250.158,46.65 C250.739,48.837 251.167,51.143 251.47,53.533 C251.633,54.726 251.731,55.95 251.895,57.164 C252.041,58.386 252.019,59.68 252.029,60.937 C252.046,71.093 251.901,82.253 251.77,93.969 C251.487,117.407 251.16,138.623 250.908,153.979 C250.773,161.651 250.664,167.861 250.587,172.163 C250.542,174.304 250.507,175.968 250.484,177.107 C250.468,177.666 250.458,178.094 250.449,178.393 C250.44,178.682 250.427,178.83 250.427,178.83 C250.427,178.83 250.419,178.682 250.419,178.392 C250.42,178.094 250.422,177.665 250.424,177.106 C250.435,175.967 250.452,174.302 250.472,172.161 C250.526,167.859 250.603,161.649 250.699,153.976 C250.897,138.613 251.171,117.4 251.474,93.965 C251.605,82.251 251.759,71.088 251.756,60.938 C251.747,59.659 251.776,58.436 251.632,57.204 C251.466,55.968 251.374,54.757 251.213,53.566 C250.915,51.185 250.494,48.889 249.92,46.711 C248.813,42.343 247.22,38.43 245.463,35.029 C244.625,33.303 243.642,31.762 242.756,30.28 C242.32,29.534 241.802,28.871 241.351,28.194 C240.884,27.528 240.446,26.872 239.998,26.257 C239.05,25.064 238.169,23.954 237.357,22.931 C236.496,21.951 235.686,21.076 234.969,20.277 C234.608,19.88 234.268,19.506 233.948,19.153 C233.607,18.822 233.289,18.511 232.993,18.223 C232.404,17.647 231.904,17.158 231.499,16.761 C231.101,16.368 230.795,16.068 230.583,15.858 C230.378,15.653 230.278,15.542 230.278,15.542" id="Fill-51" fill="#132529"></path>
            <path d="M233.067,75.001 C240.293,76.596 244.76,84.193 243.043,91.967 C241.327,99.741 234.077,104.749 226.851,103.154 C219.624,101.558 215.157,93.962 216.874,86.188 C218.59,78.414 225.84,73.405 233.067,75.001" id="Fill-52" fill="#FAF9F6"></path>
            <path d="M233.067,75.001 C233.065,75.006 232.989,74.998 232.841,74.979 C232.68,74.956 232.463,74.926 232.187,74.887 C232.042,74.865 231.881,74.841 231.705,74.815 C231.525,74.807 231.33,74.799 231.119,74.79 C230.906,74.78 230.678,74.77 230.435,74.759 C230.191,74.76 229.932,74.786 229.657,74.8 C229.105,74.806 228.504,74.929 227.844,75.035 C227.197,75.2 226.486,75.365 225.767,75.671 C224.317,76.24 222.758,77.156 221.331,78.505 C219.913,79.851 218.595,81.617 217.761,83.773 C217.561,84.313 217.339,84.857 217.207,85.44 C217.134,85.728 217.043,86.015 216.982,86.311 C216.932,86.61 216.88,86.91 216.829,87.213 L216.752,87.669 L216.718,88.133 C216.694,88.443 216.671,88.756 216.647,89.071 C216.653,89.386 216.658,89.703 216.664,90.023 L216.674,90.504 L216.728,90.985 C216.974,93.556 217.931,96.219 219.684,98.427 C221.387,100.672 223.978,102.332 226.88,103.009 C229.799,103.619 232.848,103.204 235.34,101.885 C237.86,100.62 239.85,98.607 241.156,96.379 L241.408,95.966 L241.619,95.533 C241.758,95.245 241.897,94.96 242.035,94.676 C242.146,94.381 242.256,94.087 242.367,93.796 L242.531,93.36 L242.653,92.914 C242.734,92.618 242.814,92.324 242.893,92.032 C242.962,91.738 243.001,91.44 243.056,91.147 C243.182,90.563 243.21,89.976 243.256,89.401 C243.407,87.095 242.955,84.938 242.235,83.12 C241.509,81.295 240.481,79.808 239.406,78.682 C238.882,78.101 238.306,77.653 237.789,77.231 C237.235,76.856 236.742,76.492 236.244,76.254 C236,76.126 235.776,75.992 235.555,75.89 C235.33,75.797 235.119,75.71 234.922,75.63 C234.727,75.549 234.546,75.474 234.38,75.405 C234.209,75.355 234.054,75.309 233.914,75.268 C233.646,75.187 233.437,75.123 233.281,75.076 C233.138,75.031 233.065,75.006 233.067,75.001 C233.068,74.996 233.143,75.012 233.288,75.047 C233.446,75.087 233.659,75.141 233.93,75.211 C234.073,75.248 234.23,75.29 234.404,75.335 C234.573,75.401 234.756,75.471 234.955,75.548 C235.154,75.625 235.369,75.709 235.597,75.797 C235.822,75.897 236.05,76.027 236.298,76.152 C236.805,76.385 237.308,76.745 237.873,77.118 C238.401,77.537 238.989,77.985 239.524,78.568 C240.625,79.697 241.679,81.196 242.429,83.042 C243.171,84.882 243.643,87.07 243.5,89.414 C243.457,89.998 243.43,90.594 243.306,91.189 C243.251,91.486 243.212,91.79 243.143,92.089 C243.063,92.386 242.983,92.685 242.902,92.987 L242.779,93.44 L242.614,93.884 C242.503,94.181 242.392,94.48 242.28,94.781 C242.141,95.07 242,95.362 241.859,95.655 L241.645,96.095 L241.39,96.517 C240.067,98.79 238.043,100.847 235.471,102.143 C232.928,103.493 229.804,103.923 226.816,103.297 C223.844,102.606 221.193,100.901 219.456,98.606 C217.669,96.348 216.7,93.63 216.457,91.012 L216.403,90.522 L216.395,90.032 C216.39,89.707 216.386,89.384 216.381,89.062 C216.406,88.742 216.431,88.424 216.456,88.109 L216.493,87.637 L216.572,87.174 C216.626,86.866 216.679,86.561 216.732,86.258 C216.794,85.957 216.888,85.666 216.963,85.373 C217.101,84.781 217.328,84.229 217.534,83.681 C218.392,81.495 219.74,79.709 221.188,78.353 C222.646,76.993 224.233,76.078 225.707,75.517 C226.438,75.214 227.16,75.055 227.816,74.898 C228.485,74.797 229.093,74.682 229.651,74.685 C229.928,74.676 230.19,74.654 230.436,74.658 C230.68,74.674 230.91,74.688 231.124,74.702 C231.336,74.716 231.532,74.729 231.713,74.742 C231.889,74.773 232.05,74.802 232.195,74.827 C232.47,74.879 232.686,74.919 232.847,74.95 C232.994,74.979 233.068,74.996 233.067,75.001" id="Fill-53" fill="#132529"></path>
            <path d="M216.147,86.922 C216.143,87.092 213.065,87.008 209.359,87.679 C205.648,88.326 202.788,89.467 202.725,89.307 C202.698,89.242 203.379,88.872 204.548,88.423 C205.715,87.973 207.377,87.468 209.262,87.131 C211.146,86.798 212.88,86.699 214.131,86.719 C215.383,86.738 216.15,86.851 216.147,86.922" id="Fill-54" fill="#132529"></path>
            <path d="M260.292,86.901 C260.277,86.981 259.344,86.86 257.84,86.673 C256.336,86.485 254.259,86.248 251.957,86.085 C249.654,85.924 247.563,85.867 246.048,85.843 C244.533,85.817 243.592,85.806 243.588,85.725 C243.584,85.653 244.519,85.525 246.042,85.449 C247.564,85.373 249.673,85.367 251.996,85.53 C254.317,85.694 256.406,85.995 257.902,86.284 C259.398,86.572 260.306,86.83 260.292,86.901" id="Fill-55" fill="#132529"></path>
            <path d="M260.596,142.98 C260.594,142.999 260.394,142.997 260.016,142.975 C259.576,142.943 259.031,142.903 258.366,142.854 C256.853,142.738 254.8,142.581 252.3,142.389 C247.178,142.027 240.09,141.68 232.257,141.685 C224.421,141.696 217.333,142.058 212.212,142.43 C209.712,142.627 207.66,142.789 206.148,142.908 C205.483,142.958 204.937,143 204.497,143.033 C204.12,143.055 203.92,143.058 203.917,143.039 C203.915,143.02 204.111,142.98 204.485,142.921 C204.922,142.861 205.464,142.785 206.125,142.693 C207.55,142.5 209.619,142.274 212.18,142.038 C217.301,141.564 224.402,141.14 232.256,141.128 C240.107,141.124 247.209,141.533 252.332,141.997 C254.892,142.226 256.962,142.449 258.387,142.638 C259.049,142.729 259.591,142.803 260.029,142.864 C260.403,142.922 260.598,142.961 260.596,142.98" id="Fill-56" fill="#132529"></path>
            <path d="M217.598,100.967 C217.602,101.05 217.259,101.081 217.024,101.471 C216.913,101.656 216.838,101.926 216.917,102.155 C216.983,102.382 217.23,102.557 217.54,102.584 C217.85,102.606 218.122,102.471 218.223,102.257 C218.335,102.042 218.304,101.764 218.222,101.564 C218.05,101.143 217.717,101.059 217.733,100.977 C217.708,100.909 218.194,100.832 218.567,101.375 C218.731,101.628 218.861,102.03 218.69,102.467 C218.523,102.915 217.987,103.188 217.497,103.139 C217.004,103.111 216.518,102.759 216.422,102.29 C216.32,101.832 216.511,101.455 216.713,101.23 C217.165,100.752 217.633,100.903 217.598,100.967" id="Fill-57" fill="#132529"></path>
            <path d="M229.499,107.384 C229.502,107.468 229.16,107.499 228.925,107.889 C228.813,108.073 228.739,108.343 228.817,108.573 C228.884,108.8 229.131,108.975 229.44,109.002 C229.75,109.024 230.022,108.888 230.123,108.675 C230.236,108.46 230.205,108.182 230.123,107.982 C229.951,107.56 229.617,107.476 229.634,107.395 C229.609,107.327 230.095,107.25 230.467,107.792 C230.632,108.046 230.762,108.448 230.591,108.884 C230.423,109.333 229.888,109.606 229.397,109.557 C228.905,109.529 228.418,109.177 228.322,108.707 C228.221,108.249 228.412,107.873 228.614,107.648 C229.065,107.17 229.534,107.321 229.499,107.384" id="Fill-58" fill="#132529"></path>
            <path d="M242.631,101.913 C242.635,101.996 242.293,102.028 242.058,102.418 C241.946,102.602 241.873,102.872 241.951,103.101 C242.017,103.329 242.264,103.504 242.574,103.531 C242.883,103.552 243.155,103.417 243.256,103.203 C243.369,102.989 243.337,102.711 243.255,102.511 C243.083,102.089 242.75,102.005 242.767,101.924 C242.742,101.855 243.228,101.779 243.6,102.321 C243.765,102.575 243.895,102.976 243.724,103.413 C243.556,103.862 243.021,104.135 242.53,104.086 C242.038,104.057 241.551,103.706 241.456,103.236 C241.354,102.778 241.545,102.402 241.747,102.177 C242.199,101.698 242.667,101.849 242.631,101.913" id="Fill-59" fill="#132529"></path>
            <path d="M246.894,92.099 C246.898,92.183 246.556,92.214 246.321,92.604 C246.208,92.789 246.135,93.058 246.213,93.288 C246.28,93.515 246.527,93.69 246.836,93.717 C247.146,93.739 247.417,93.604 247.519,93.389 C247.631,93.175 247.6,92.897 247.518,92.697 C247.346,92.276 247.013,92.192 247.03,92.11 C247.004,92.042 247.491,91.965 247.863,92.508 C248.028,92.762 248.158,93.163 247.987,93.599 C247.819,94.049 247.284,94.321 246.792,94.272 C246.3,94.244 245.814,93.892 245.718,93.423 C245.617,92.965 245.808,92.589 246.009,92.363 C246.461,91.885 246.93,92.036 246.894,92.099" id="Fill-60" fill="#132529"></path>
            <path d="M213.258,91.15 C213.262,91.233 212.919,91.265 212.685,91.655 C212.573,91.84 212.499,92.109 212.577,92.339 C212.643,92.566 212.891,92.741 213.2,92.768 C213.51,92.789 213.782,92.655 213.883,92.44 C213.996,92.226 213.964,91.948 213.882,91.748 C213.71,91.326 213.377,91.242 213.394,91.161 C213.368,91.093 213.854,91.016 214.227,91.558 C214.391,91.812 214.521,92.213 214.351,92.65 C214.183,93.099 213.648,93.371 213.157,93.323 C212.665,93.295 212.178,92.943 212.082,92.473 C211.98,92.015 212.172,91.639 212.373,91.414 C212.825,90.936 213.294,91.087 213.258,91.15" id="Fill-61" fill="#132529"></path>
            <path d="M242.607,77.69 C242.603,77.607 242.946,77.576 243.18,77.186 C243.292,77.001 243.367,76.731 243.289,76.502 C243.222,76.275 242.974,76.099 242.666,76.073 C242.355,76.051 242.083,76.186 241.983,76.4 C241.87,76.615 241.901,76.893 241.983,77.093 C242.155,77.514 242.488,77.598 242.471,77.68 C242.497,77.748 242.01,77.825 241.638,77.282 C241.474,77.029 241.343,76.627 241.514,76.191 C241.682,75.742 242.217,75.469 242.708,75.518 C243.201,75.546 243.687,75.898 243.784,76.367 C243.884,76.825 243.694,77.201 243.492,77.427 C243.041,77.905 242.572,77.754 242.607,77.69" id="Fill-62" fill="#132529"></path>
            <path d="M229.474,71.872 C229.47,71.789 229.813,71.758 230.047,71.368 C230.16,71.183 230.233,70.913 230.155,70.684 C230.089,70.457 229.842,70.281 229.532,70.255 C229.222,70.233 228.95,70.368 228.849,70.582 C228.737,70.797 228.768,71.075 228.85,71.275 C229.022,71.696 229.355,71.78 229.338,71.862 C229.364,71.93 228.877,72.007 228.505,71.464 C228.341,71.211 228.21,70.809 228.381,70.372 C228.549,69.924 229.084,69.651 229.575,69.7 C230.067,69.728 230.554,70.08 230.65,70.549 C230.751,71.007 230.561,71.384 230.359,71.609 C229.907,72.087 229.438,71.936 229.474,71.872" id="Fill-63" fill="#132529"></path>
            <path d="M216.494,77.69 C216.49,77.607 216.833,77.576 217.068,77.186 C217.18,77.001 217.253,76.731 217.175,76.502 C217.109,76.275 216.862,76.099 216.552,76.073 C216.242,76.051 215.971,76.186 215.87,76.4 C215.757,76.615 215.788,76.893 215.87,77.093 C216.042,77.514 216.375,77.598 216.359,77.68 C216.384,77.748 215.897,77.825 215.525,77.282 C215.361,77.029 215.23,76.627 215.402,76.191 C215.569,75.742 216.104,75.469 216.596,75.518 C217.088,75.546 217.574,75.898 217.67,76.367 C217.771,76.825 217.581,77.201 217.379,77.427 C216.927,77.905 216.458,77.754 216.494,77.69" id="Fill-64" fill="#132529"></path>
            <path d="M227.82,125.912 L228.987,184.422 C229.021,186.117 230.419,187.466 232.115,187.437 C233.781,187.409 235.123,186.069 235.141,184.403 C235.257,173.863 235.644,138.359 235.708,125.834 C235.721,123.416 233.575,121.577 231.184,121.932 C229.221,122.224 227.781,123.929 227.82,125.912" id="Fill-65" fill="#E0565F"></path>
            <path d="M232.063,187.438 C230.391,187.438 229.02,186.099 228.987,184.422 L227.82,125.912 C227.82,125.885 227.819,125.858 227.819,125.831 C227.82,123.883 229.248,122.22 231.184,121.932 C231.384,121.903 231.581,121.888 231.777,121.888 C233.91,121.888 235.705,123.605 235.708,125.808 C235.708,125.816 235.708,125.825 235.708,125.834 C235.69,129.426 235.645,134.909 235.587,141.151 C235.585,141.334 235.584,141.519 235.582,141.704 C235.503,150.217 235.402,160.063 235.314,168.429 C235.266,172.972 235.221,177.076 235.186,180.297 C235.169,181.905 235.153,183.292 235.141,184.403 C235.123,186.069 233.781,187.409 232.115,187.437 C232.098,187.438 232.08,187.438 232.063,187.438" id="Fill-66" fill="#A93B44"></path>
            <path d="M229.625,18.879 C229.802,19.077 227.854,20.963 225.03,24.26 C223.61,25.902 222.019,27.938 220.356,30.267 C218.724,32.617 217.037,35.274 215.462,38.175 C213.91,41.09 212.624,43.963 211.563,46.621 C210.537,49.293 209.716,51.743 209.13,53.833 C207.937,58.007 207.438,60.672 207.175,60.634 C206.981,60.61 207.066,57.87 207.985,53.544 C208.434,51.381 209.152,48.843 210.123,46.081 C211.126,43.333 212.401,40.369 213.991,37.385 C215.604,34.413 217.373,31.716 219.111,29.363 C220.88,27.032 222.601,25.033 224.158,23.465 C227.259,20.312 229.499,18.73 229.625,18.879" id="Fill-67" fill="#FFFFFE"></path>
            <path d="M202.493,127.709 C202.653,127.956 199.887,129.755 196.029,133.331 C195.552,133.785 195.053,134.259 194.535,134.751 C194.018,135.247 193.531,135.816 192.998,136.373 C191.911,137.469 190.889,138.766 189.777,140.095 C187.652,142.832 185.512,145.992 183.623,149.518 C181.775,153.066 180.37,156.616 179.308,159.915 C178.836,161.583 178.341,163.157 178.048,164.674 C177.889,165.428 177.693,166.151 177.575,166.857 C177.46,167.563 177.35,168.242 177.244,168.893 C176.465,174.095 176.539,177.393 176.244,177.4 C176.129,177.404 176.018,176.586 175.917,175.09 C175.894,174.708 175.869,174.293 175.843,173.844 C175.832,173.388 175.855,172.893 175.865,172.361 C175.905,171.298 175.893,170.077 176.073,168.746 C176.146,168.076 176.224,167.376 176.304,166.649 C176.391,165.92 176.558,165.175 176.691,164.395 C176.934,162.829 177.389,161.199 177.833,159.475 C178.841,156.062 180.244,152.388 182.146,148.738 C184.089,145.111 186.332,141.882 188.583,139.125 C189.756,137.786 190.846,136.492 192.003,135.409 C192.571,134.86 193.093,134.302 193.646,133.819 C194.201,133.343 194.736,132.885 195.248,132.446 C196.246,131.547 197.261,130.869 198.117,130.237 C198.551,129.928 198.946,129.631 199.329,129.382 C199.715,129.151 200.072,128.937 200.4,128.741 C201.693,127.981 202.432,127.612 202.493,127.709" id="Fill-68" fill="#FFFFFE"></path>
            <path d="M159.458,318.489 C156.806,316.968 155.263,313.719 155.76,310.703 C156.257,307.686 158.76,305.104 161.76,304.513 C164.5,303.974 167.924,304.75 169.651,302.554 C171.221,300.561 170.036,297.915 170.726,294.707 C171.396,291.588 174.163,289.998 177.196,290.043 C180.229,290.087 183.04,292.055 184.554,294.684 C186.067,297.313 187.024,301.364 186.669,304.377 C185.856,311.29 182.165,314.833 177.58,317.761 C172.994,320.691 164.294,321.358 159.458,318.489" id="Fill-69" fill="#E0565F"></path>
            <path d="M167.419,320.331 C164.47,320.331 161.589,319.753 159.458,318.489 C157.138,317.158 155.666,314.504 155.668,311.841 C155.668,311.461 155.698,311.08 155.76,310.703 C156.257,307.686 158.76,305.104 161.76,304.513 C164.5,303.974 167.924,304.75 169.651,302.554 C170.393,301.612 170.52,300.524 170.52,299.3 C170.52,298.668 170.486,297.999 170.486,297.295 C170.485,296.479 170.53,295.615 170.726,294.707 C171.386,291.631 174.087,290.042 177.071,290.042 C177.112,290.042 177.154,290.042 177.196,290.043 C180.229,290.087 183.04,292.055 184.554,294.684 C185.855,296.944 186.744,300.253 186.743,303.051 C186.743,303.509 186.719,303.953 186.669,304.377 C185.856,311.29 182.165,314.833 177.58,317.761 C175.015,319.4 171.162,320.331 167.419,320.331" id="Fill-70" fill="#F7D0CE"></path>
            <path d="M271.647,263.099 C273.862,258.87 278.838,256.268 283.575,256.862 C288.312,257.457 292.491,261.207 293.592,265.852 C294.598,270.096 293.593,275.484 297.122,278.048 C299.045,279.445 301.276,279.281 303.843,279.118 C305.553,279.009 307.414,278.9 309.432,279.253 C314.338,280.111 316.985,284.334 317.097,289.069 C317.209,293.804 314.307,298.308 310.296,300.828 C306.286,303.347 300.022,305.083 295.3,304.711 C284.464,303.856 278.715,298.31 273.87,291.331 C269.024,284.351 267.461,270.817 271.647,263.099" id="Fill-71" fill="#E0565F"></path>
            <path d="M296.623,304.761 C296.171,304.761 295.729,304.745 295.3,304.711 C284.464,303.856 278.715,298.31 273.87,291.331 C270.955,287.132 269.228,280.562 269.226,274.312 C269.224,270.173 269.979,266.174 271.647,263.099 C273.651,259.272 277.917,256.778 282.219,256.778 C282.671,256.778 283.124,256.806 283.575,256.862 C288.312,257.457 292.491,261.207 293.592,265.852 C294.598,270.096 293.593,275.484 297.122,278.048 C298.422,278.993 299.863,279.224 301.454,279.224 C302.216,279.224 303.011,279.171 303.843,279.118 C304.674,279.065 305.54,279.012 306.443,279.012 C307.398,279.012 308.394,279.071 309.432,279.253 C314.338,280.111 316.985,284.334 317.097,289.069 C317.099,289.162 317.1,289.254 317.1,289.346 C317.096,293.98 314.229,298.357 310.296,300.828 C306.65,303.118 301.142,304.761 296.623,304.761" id="Fill-72" fill="#F7D0CE"></path>
            <path d="M190.834,248.917 C188.983,249.727 186.771,252.444 186.883,255.481 C187.031,259.467 191.172,262.812 195.1,262.119 C199.027,261.426 201.772,256.865 200.546,253.07 C199.32,249.274 194.425,247.181 190.834,248.917" id="Fill-73" fill="#E0565F"></path>
            <path d="M194.046,262.21 C190.465,262.21 187.018,259.112 186.883,255.481 C186.88,255.404 186.879,255.327 186.879,255.25 C186.883,252.307 189.03,249.707 190.834,248.917 C191.707,248.495 192.657,248.299 193.612,248.299 C196.588,248.299 199.618,250.197 200.546,253.07 C200.747,253.693 200.841,254.336 200.841,254.979 C200.839,258.257 198.383,261.539 195.1,262.119 C194.749,262.181 194.397,262.21 194.046,262.21" id="Fill-74" fill="#F7D0CE"></path>
            <path d="M297.158,332.781 C296.232,333.186 295.126,334.545 295.182,336.063 C295.256,338.056 297.327,339.728 299.29,339.382 C301.254,339.035 302.626,336.755 302.013,334.857 C301.401,332.96 298.954,331.913 297.158,332.781" id="Fill-75" fill="#E0565F"></path>
            <path d="M298.764,339.427 C296.973,339.427 295.25,337.879 295.182,336.063 C295.181,336.028 295.18,335.992 295.18,335.957 C295.178,334.481 296.254,333.177 297.158,332.781 C297.594,332.57 298.069,332.472 298.547,332.472 C300.035,332.472 301.55,333.421 302.013,334.857 C302.114,335.168 302.161,335.49 302.161,335.812 C302.16,337.451 300.932,339.092 299.29,339.382 C299.115,339.413 298.939,339.427 298.764,339.427" id="Fill-76" fill="#F7D0CE"></path>
            <path d="M269.305,347.667 L207.153,347.667 C196.25,347.667 187.411,338.827 187.411,327.924 L187.411,325.157 C187.411,314.254 196.25,305.414 207.153,305.414 L269.305,305.414 C280.209,305.414 289.048,314.254 289.048,325.157 L289.048,327.924 C289.048,338.827 280.209,347.667 269.305,347.667" id="Fill-77" fill="#E0565F"></path>
            <path d="M217.795,329.332 L218.484,327.803 C219.224,328.342 220.326,328.718 221.378,328.718 C222.581,328.718 223.07,328.317 223.07,327.778 C223.07,326.137 217.971,327.264 217.971,324.008 C217.971,322.516 219.174,321.276 221.667,321.276 C222.769,321.276 223.896,321.54 224.711,322.053 L224.084,323.594 C223.27,323.131 222.431,322.905 221.654,322.905 C220.452,322.905 219.988,323.356 219.988,323.907 C219.988,325.523 225.086,324.408 225.086,327.628 C225.086,329.093 223.872,330.346 221.366,330.346 C219.976,330.346 218.572,329.933 217.795,329.332" id="Fill-78" fill="#FFFFFE"></path>
            <polyline id="Fill-79" fill="#FFFFFE" points="228.164 323.081 225.357 323.081 225.357 321.427 232.999 321.427 232.999 323.081 230.193 323.081 230.193 330.196 228.164 330.196 228.164 323.081"></polyline>
            <path d="M238.782,326.776 L237.391,323.419 L236,326.776 L238.782,326.776 Z M239.42,328.317 L235.349,328.317 L234.573,330.196 L232.494,330.196 L236.402,321.427 L238.406,321.427 L242.328,330.196 L240.198,330.196 L239.42,328.317 L239.42,328.317 Z" id="Fill-80" fill="#FFFFFE"></path>
            <path d="M246.919,323.081 L245.266,323.081 L245.266,326.137 L246.919,326.137 C248.16,326.137 248.787,325.561 248.787,324.609 C248.787,323.644 248.16,323.081 246.919,323.081 Z M248.824,330.196 L247.132,327.754 L245.266,327.754 L245.266,330.196 L243.237,330.196 L243.237,321.427 L247.033,321.427 C249.375,321.427 250.84,322.642 250.84,324.609 C250.84,325.925 250.177,326.888 249.037,327.378 L251.003,330.196 L248.824,330.196 L248.824,330.196 Z" id="Fill-81" fill="#FFFFFE"></path>
            <polyline id="Fill-82" fill="#FFFFFE" points="254.129 323.081 251.323 323.081 251.323 321.427 258.964 321.427 258.964 323.081 256.159 323.081 256.159 330.196 254.129 330.196 254.129 323.081"></polyline>
            <path d="M391.908,427.032 L403.726,431.177 L403.599,442.543 C397.942,444.138 397.149,447 397.149,447 L408.976,446.729 L419.265,425.804 L411.125,420.478 L395.908,413.822 L391.908,427.032" id="Fill-83" fill="#E0565F"></path>
            <polyline id="Fill-84" fill="#EEA8AB" points="397.149 447 398.441 445.192 408.046 444.443 417.534 424.672 419.265 425.804 408.976 446.729 402.362 446.881 397.149 447"></polyline>
            <path d="M403.558,437.338 C403.649,437.456 404.322,437.053 405.237,437.058 C406.152,437.038 406.832,437.429 406.92,437.309 C407.029,437.218 406.347,436.524 405.233,436.539 C404.119,436.543 403.448,437.248 403.558,437.338" id="Fill-85" fill="#132529"></path>
            <path d="M403.686,434.516 C403.806,434.597 404.317,433.887 405.256,433.682 C406.193,433.468 406.958,433.892 407.032,433.767 C407.071,433.714 406.93,433.518 406.594,433.344 C406.264,433.172 405.723,433.046 405.142,433.175 C404.562,433.304 404.125,433.649 403.902,433.947 C403.671,434.248 403.627,434.484 403.686,434.516" id="Fill-86" fill="#132529"></path>
            <path d="M403.528,430.9 C403.659,430.963 404.046,430.27 404.864,429.967 C405.678,429.653 406.427,429.915 406.484,429.782 C406.514,429.721 406.361,429.56 406.031,429.445 C405.707,429.329 405.194,429.286 404.68,429.48 C404.167,429.675 403.811,430.046 403.645,430.347 C403.473,430.652 403.465,430.875 403.528,430.9" id="Fill-87" fill="#132529"></path>
            <path d="M402.658,430.892 C402.803,430.857 402.713,430.112 403.069,429.312 C403.4,428.503 404,428.052 403.925,427.923 C403.884,427.786 403.006,428.119 402.59,429.108 C402.164,430.093 402.531,430.958 402.658,430.892" id="Fill-88" fill="#132529"></path>
            <path d="M401.258,429.56 C401.33,429.564 401.431,428.958 401.537,427.972 C401.589,427.403 401.641,426.829 401.696,426.241 C401.706,425.916 401.792,425.588 401.695,425.139 C401.638,424.917 401.504,424.692 401.274,424.552 C401.044,424.394 400.676,424.423 400.469,424.584 C400.059,424.906 399.942,425.28 399.797,425.632 C399.67,425.992 399.605,426.355 399.583,426.701 C399.543,427.397 399.693,428.015 399.896,428.491 C400.318,429.455 400.911,429.802 400.933,429.758 C401.002,429.695 400.533,429.267 400.24,428.361 C400.097,427.912 400.001,427.35 400.061,426.737 C400.093,426.432 400.161,426.116 400.276,425.806 C400.391,425.509 400.562,425.154 400.761,425.014 C400.861,424.952 400.924,424.951 401.009,424.996 C401.095,425.047 401.171,425.15 401.203,425.271 C401.273,425.521 401.221,425.888 401.217,426.213 C401.201,426.802 401.185,427.38 401.169,427.951 C401.158,428.941 401.187,429.556 401.258,429.56" id="Fill-89" fill="#132529"></path>
            <path d="M401.067,430.076 C401.113,430.045 400.764,429.528 399.854,429.231 C398.979,428.958 397.436,429.015 396.499,430.429 C396.451,430.563 396.46,430.752 396.55,430.887 C396.637,431.026 396.758,431.096 396.86,431.141 C397.073,431.23 397.252,431.232 397.414,431.253 C397.748,431.283 398.072,431.279 398.376,431.251 C398.988,431.194 399.522,431.036 399.942,430.852 C400.789,430.48 401.18,430.05 401.141,430.005 C401.094,429.936 400.634,430.248 399.813,430.508 C399.404,430.636 398.903,430.746 398.342,430.772 C398.062,430.786 397.767,430.779 397.465,430.746 C397.311,430.725 397.159,430.712 397.067,430.667 C396.965,430.605 396.994,430.624 396.995,430.588 C397.005,430.53 397.119,430.409 397.228,430.306 C397.337,430.204 397.454,430.11 397.575,430.029 C397.817,429.865 398.077,429.744 398.333,429.662 C398.851,429.497 399.354,429.508 399.763,429.588 C400.589,429.759 401.014,430.144 401.067,430.076" id="Fill-90" fill="#132529"></path>
            <path d="M411.227,427.029 C410.465,427.029 409.84,426.421 409.824,425.657 C409.806,424.882 410.42,424.24 411.196,424.223 C411.206,424.223 411.216,424.223 411.227,424.223 C411.987,424.223 412.613,424.831 412.629,425.595 C412.646,426.371 412.032,427.012 411.257,427.029 C411.247,427.029 411.237,427.029 411.227,427.029" id="Fill-91" fill="#EEA8AB"></path>
            <path d="M331.263,422.278 L331.423,437.762 C331.423,437.762 315.738,443.126 315.49,445.99 L345.524,446.757 L346.264,422.621 L331.263,422.278" id="Fill-92" fill="#E0565F"></path>
            <path d="M340.426,438.974 C340.335,438.974 340.244,438.962 340.155,438.937 C339.575,438.773 339.088,437.991 339.302,437.427 C339.467,436.992 339.991,436.64 340.462,436.64 C340.598,436.64 340.73,436.67 340.848,436.735 C341.367,436.952 341.697,437.571 341.556,438.12 C341.43,438.614 340.929,438.974 340.426,438.974" id="Fill-93" fill="#EEA8AB"></path>
            <path d="M345.524,446.757 L315.49,445.99 C315.397,445.303 316.086,444.826 316.469,444.616 C315.883,445.111 315.526,445.576 315.49,445.99 L345.524,446.757" id="Fill-94" fill="#A1B0B0"></path>
            <path d="M345.524,446.757 L315.49,445.99 C315.526,445.576 315.883,445.111 316.469,444.616 C316.613,444.538 316.714,444.497 316.714,444.497 L345.503,444.322 L345.524,446.757" id="Fill-95" fill="#EEA8AB"></path>
            <path d="M330.941,437.597 C330.942,437.744 331.673,437.829 332.383,438.319 C333.106,438.791 333.461,439.435 333.598,439.381 C333.734,439.356 333.538,438.473 332.667,437.895 C331.803,437.309 330.913,437.462 330.941,437.597" id="Fill-96" fill="#132529"></path>
            <path d="M327.757,438.82 C327.72,438.961 328.349,439.226 328.832,439.859 C329.332,440.478 329.441,441.152 329.586,441.149 C329.724,441.177 329.847,440.32 329.233,439.544 C328.625,438.763 327.764,438.679 327.757,438.82" id="Fill-97" fill="#132529"></path>
            <path d="M325.872,442.544 C326.004,442.579 326.227,441.851 325.871,441.039 C325.521,440.223 324.837,439.888 324.772,440.01 C324.686,440.128 325.121,440.57 325.403,441.242 C325.7,441.907 325.726,442.526 325.872,442.544" id="Fill-98" fill="#132529"></path>
            <path d="M331.295,434.064 C331.354,434.199 332.032,434.014 332.86,434.092 C333.688,434.152 334.327,434.447 334.406,434.323 C334.494,434.219 333.877,433.661 332.902,433.583 C331.926,433.498 331.227,433.947 331.295,434.064" id="Fill-99" fill="#132529"></path>
            <polyline id="Fill-100" fill="#1E3337" points="346.091 428.275 346.122 427.255 346.124 427.255 346.091 428.275"></polyline>
            <polyline id="Fill-101" fill="#A93B44" points="346.088 428.346 331.324 428.104 331.312 426.875 346.122 427.255 346.091 428.275 346.088 428.346"></polyline>
            <path d="M331.321,430.939 C331.318,431 331.895,431.105 332.826,430.97 C333.289,430.902 333.835,430.765 334.412,430.527 C334.699,430.408 334.994,430.263 335.287,430.091 C335.427,430.006 335.594,429.92 335.75,429.749 C335.917,429.599 336.019,429.214 335.837,428.97 C335.689,428.735 335.42,428.629 335.204,428.618 C334.982,428.605 334.801,428.645 334.637,428.682 C334.3,428.755 333.984,428.857 333.694,428.979 C333.114,429.225 332.639,429.544 332.284,429.854 C331.57,430.481 331.319,431.023 331.368,431.052 C331.433,431.103 331.784,430.652 332.506,430.137 C332.867,429.882 333.326,429.619 333.868,429.416 C334.139,429.316 334.43,429.231 334.738,429.172 C335.058,429.096 335.329,429.101 335.407,429.245 C335.435,429.3 335.438,429.321 335.37,429.412 C335.298,429.497 335.167,429.577 335.029,429.662 C334.759,429.829 334.488,429.972 334.222,430.096 C333.692,430.343 333.187,430.508 332.754,430.616 C331.888,430.835 331.321,430.86 331.321,430.939" id="Fill-102" fill="#132529"></path>
            <path d="M331.506,431.155 C331.558,431.178 331.862,430.661 331.94,429.712 C331.977,429.242 331.943,428.67 331.777,428.06 C331.693,427.757 331.575,427.444 331.417,427.136 C331.249,426.836 331.044,426.432 330.477,426.353 C330.18,426.334 329.927,426.56 329.838,426.757 C329.734,426.957 329.709,427.131 329.67,427.303 C329.606,427.653 329.604,427.998 329.643,428.317 C329.721,428.959 329.969,429.497 330.246,429.887 C330.813,430.68 331.42,430.872 331.434,430.822 C331.485,430.75 330.981,430.454 330.551,429.694 C330.339,429.32 330.155,428.829 330.111,428.268 C330.088,427.99 330.1,427.695 330.161,427.4 C330.216,427.082 330.342,426.828 330.461,426.863 C330.611,426.865 330.858,427.112 330.974,427.369 C331.122,427.642 331.238,427.922 331.327,428.194 C331.5,428.742 331.57,429.263 331.58,429.703 C331.598,430.586 331.427,431.131 331.506,431.155" id="Fill-103" fill="#132529"></path>
            <polyline id="Fill-104" fill="#132529" points="401.083 414.386 366.497 401.525 402.856 396.422 404.686 378.71 336.696 384.643 327.094 398.465 329.623 415.81 395.865 432.65 401.083 414.386"></polyline>
            <path d="M327.751,426.783 L324.44,363.484 C324.62,357.319 327.978,351.685 333.316,348.595 C337.73,346.04 343.028,345.501 347.867,347.114 L391.979,361.821 L416.191,368.046 C416.191,368.046 420.314,378.219 417.89,386.124 C415.517,393.86 407.039,399.007 399.577,396.795 C390.311,394.049 347.769,375.754 347.769,375.754 L347.769,427.298 L327.751,426.783" id="Fill-105" fill="#132529"></path>
            <path d="M398.936,396.965 C398.934,396.97 398.844,396.941 398.673,396.878 C398.483,396.804 398.233,396.709 397.917,396.587 C397.232,396.312 396.262,395.925 395.024,395.429 C392.496,394.397 388.876,392.922 384.415,391.101 C375.451,387.402 363.105,382.307 349.469,376.68 C348.86,376.428 348.253,376.177 347.691,375.943 L347.974,375.754 C347.95,390.076 347.927,402.951 347.912,412.275 C347.884,416.908 347.863,420.657 347.847,423.275 C347.832,424.552 347.819,425.552 347.81,426.259 C347.801,426.582 347.794,426.838 347.79,427.033 C347.783,427.208 347.776,427.298 347.769,427.298 C347.762,427.298 347.755,427.208 347.749,427.033 C347.744,426.838 347.737,426.582 347.729,426.259 C347.719,425.552 347.708,424.552 347.691,423.275 C347.675,420.657 347.654,416.908 347.626,412.275 C347.611,402.951 347.588,390.076 347.564,375.754 L347.564,375.447 L347.848,375.564 C348.411,375.798 349.017,376.05 349.626,376.302 C363.245,381.972 375.574,387.106 384.525,390.834 C388.966,392.704 392.569,394.221 395.085,395.282 C396.311,395.807 397.271,396.219 397.949,396.51 C398.258,396.648 398.503,396.757 398.69,396.84 C398.855,396.916 398.939,396.958 398.936,396.965" id="Fill-106" fill="#334F55"></path>
            <path d="M358.195,397.037 C358.208,396.937 360.379,397.324 362.727,398.635 C365.084,399.93 366.564,401.565 366.487,401.629 C366.401,401.722 364.829,400.256 362.528,398.994 C360.239,397.714 358.161,397.159 358.195,397.037" id="Fill-107" fill="#334F55"></path>
            <path d="M343.932,367.19 C344.027,367.137 345.163,369.01 346.264,371.471 C347.37,373.932 348.012,376.026 347.91,376.061 C347.798,376.101 346.988,374.083 345.889,371.639 C344.796,369.195 343.829,367.247 343.932,367.19" id="Fill-108" fill="#334F55"></path>
            <polyline id="Fill-109" fill="#F1AD92" points="344.03 339.298 336.229 337.84 328.033 346.2 329.545 351.525 339.101 348.006 344.03 339.298"></polyline>
            <path d="M271.953,320.217 L280.829,318.248 L295.107,320.485 L294.555,329.591 C294.555,329.591 290.129,330.232 288.531,329.714 C286.932,329.194 285.608,329.647 285.608,329.647 C285.608,329.647 286.477,331.441 284.975,331.734 C283.473,332.027 281.025,332.649 280.568,330.527 C280.568,330.527 279.431,330.7 278.897,329.309 C278.897,329.309 277.735,329.726 277.219,327.696 C276.704,325.666 276.995,322.621 281.011,321.65 C281.221,321.604 281.315,321.116 280.922,321.137 L274.577,322.326 C274.577,322.326 270.351,322.488 271.953,320.217" id="Fill-110" fill="#F1AD92"></path>
            <path d="M279.504,326.571 C279.5,326.518 280.079,326.418 281.016,326.3 C281.495,326.256 282.021,326.138 282.698,326.15 C283.032,326.173 283.424,326.289 283.69,326.624 C283.965,326.968 283.942,327.473 283.749,327.836 C283.326,328.602 282.505,328.79 281.937,328.948 C281.331,329.118 280.772,329.237 280.299,329.304 C279.351,329.44 278.758,329.398 278.757,329.351 C278.753,329.293 279.337,329.238 280.251,329.039 C280.709,328.938 281.248,328.795 281.84,328.609 C282.138,328.511 282.456,328.431 282.73,328.287 C283.005,328.142 283.276,327.93 283.414,327.66 C283.556,327.384 283.561,327.06 283.398,326.853 C283.235,326.637 282.948,326.527 282.668,326.502 C282.094,326.472 281.503,326.559 281.04,326.569 C280.096,326.619 279.509,326.624 279.504,326.571" id="Fill-111" fill="#EA8E6C"></path>
            <path d="M281.033,324.614 C281.066,324.718 280.583,324.948 280.244,325.475 C279.887,325.992 279.857,326.532 279.75,326.539 C279.651,326.571 279.498,325.905 279.931,325.26 C280.358,324.613 281.024,324.509 281.033,324.614" id="Fill-112" fill="#EA8E6C"></path>
            <path d="M283.463,327.858 C283.472,327.836 283.553,327.829 283.7,327.885 C283.87,327.935 284.001,328.176 284.12,328.37 C284.27,328.604 284.38,328.967 284.268,329.358 C284.166,329.776 283.724,330.05 283.345,330.144 C282.597,330.349 281.919,330.527 281.402,330.576 C280.887,330.628 280.568,330.576 280.568,330.527 C280.567,330.47 280.875,330.427 281.357,330.309 C281.837,330.197 282.5,329.979 283.238,329.777 C283.592,329.677 283.854,329.511 283.938,329.249 C284.031,328.987 283.983,328.705 283.886,328.501 C283.772,328.247 283.731,328.087 283.625,328.013 C283.524,327.929 283.452,327.884 283.463,327.858" id="Fill-113" fill="#EA8E6C"></path>
            <path d="M284.059,329.408 C284.035,329.368 284.159,329.225 284.438,329.187 C284.715,329.146 285.089,329.246 285.424,329.453 C285.83,329.715 285.914,330.141 285.933,330.387 C285.95,330.65 285.902,330.806 285.852,330.809 C285.798,330.813 285.75,330.662 285.672,330.442 C285.594,330.227 285.472,329.927 285.231,329.781 C284.934,329.599 284.65,329.488 284.44,329.458 C284.23,329.424 284.084,329.459 284.059,329.408" id="Fill-114" fill="#EA8E6C"></path>
            <path d="M288.475,322.331 L284.466,323.922 L280.688,326.583 C280.688,326.583 280.677,327.496 282.816,327.162 C284.954,326.828 286.575,325.697 286.575,325.697 C286.575,325.697 289.373,327.46 291.84,327.052" id="Fill-115" fill="#F1AD92"></path>
            <path d="M291.84,327.052 C291.843,327.07 291.708,327.103 291.447,327.149 C291.186,327.184 290.796,327.208 290.306,327.16 C289.325,327.072 287.954,326.685 286.488,325.841 L286.669,325.836 C285.425,326.64 283.817,327.358 281.954,327.425 C281.677,327.422 281.397,327.402 281.119,327.297 C280.853,327.19 280.54,326.999 280.501,326.581 L280.493,326.488 L280.582,326.427 C281.977,325.459 283.266,324.566 284.379,323.795 L284.395,323.783 L284.411,323.777 C285.635,323.31 286.646,322.933 287.353,322.681 C288.06,322.429 288.463,322.302 288.475,322.331 C288.486,322.361 288.104,322.545 287.417,322.845 C286.728,323.147 285.734,323.565 284.522,324.065 L284.552,324.049 C283.451,324.837 282.175,325.75 280.794,326.738 L280.875,326.585 C280.88,326.7 281.043,326.873 281.25,326.939 C281.458,327.018 281.708,327.04 281.956,327.042 C283.685,326.986 285.293,326.298 286.481,325.558 L286.574,325.5 L286.663,325.553 C288.056,326.392 289.39,326.823 290.331,326.963 C291.279,327.115 291.834,326.999 291.84,327.052" id="Fill-116" fill="#EA8E6C"></path>
            <path d="M282.66,322.134 C282.643,322.235 282.189,322.23 281.725,321.946 C281.26,321.665 281.042,321.26 281.122,321.198 C281.204,321.128 281.515,321.376 281.919,321.618 C282.32,321.866 282.681,322.028 282.66,322.134" id="Fill-117" fill="#EA8E6C"></path>
            <path d="M294.335,331.974 L328.198,336.885 C331.562,337.954 335.212,337.649 338.352,336.038 L368.506,320.567 L359.477,300.657 C358.195,301.128 356.712,301.706 356.079,302.092 L331.269,319.973 L295.226,318.71 L294.335,331.974" id="Fill-118" fill="#E0565F"></path>
            <polyline id="Fill-119" fill="#F1AD92" points="415.517 367.9 413.359 364.113 390.274 358.334 392.994 363.029 415.517 367.9"></polyline>
            <path d="M359.477,300.657 C359.509,301.465 356.089,326.517 356.089,331.636 C356.089,336.754 365.89,342.308 365.89,342.308 L376.622,365.095 L414.845,365.095 L401.779,340.558 L395.871,320.904 C393.631,313.456 393.861,309.613 388.318,304.158 L377.625,296.964 L359.477,300.657" id="Fill-120" fill="#E0565F"></path>
            <path d="M370.579,320.441 L376.999,347.377 L344.621,338.254 L339.101,348.006 L381.231,367.194 C386.42,369.558 392.557,367.887 395.833,363.219 C397.82,360.389 398.469,356.831 397.612,353.481 L388.178,316.626 C386.879,311.552 381.544,308.65 376.58,310.318 C372.348,311.74 369.794,316.046 370.579,320.441" id="Fill-121" fill="#E0565F"></path>
            <path d="M366.49,343.582 C366.483,343.593 365.755,342.266 365.517,342.15 C365.28,342.034 364.934,341.852 364.497,341.604 C363.624,341.108 362.373,340.354 360.946,339.25 C359.553,338.131 357.864,336.689 356.767,334.501 C355.73,332.26 355.803,329.502 356.181,326.802 C356.573,324.077 357.133,321.538 357.462,319.191 C357.822,316.851 358.07,314.733 358.201,312.949 C358.338,311.166 358.361,309.717 358.356,308.716 C358.352,307.715 358.323,307.161 358.358,307.158 C358.373,307.157 358.394,307.295 358.424,307.557 C358.457,307.82 358.488,308.21 358.515,308.712 C358.569,309.715 358.591,311.173 358.491,312.968 C358.396,314.764 358.176,316.895 357.836,319.247 C357.527,321.601 356.974,324.164 356.587,326.858 C356.21,329.533 356.143,332.212 357.11,334.342 C358.133,336.436 359.773,337.891 361.126,339.023 C362.515,340.144 363.734,340.931 364.579,341.468 C365.426,342.001 366.504,343.553 366.49,343.582" id="Fill-122" fill="#132529"></path>
            <path d="M379.365,298.763 C379.384,298.784 379.175,299.015 378.781,299.417 C378.387,299.819 377.801,300.385 377.066,301.071 C375.595,302.444 373.507,304.283 371.112,306.204 C368.713,308.125 366.464,309.761 364.803,310.898 C363.973,311.467 363.293,311.915 362.815,312.211 C362.338,312.509 362.067,312.663 362.05,312.639 C362.035,312.616 362.276,312.418 362.725,312.08 C363.248,311.692 363.885,311.218 364.635,310.662 C366.25,309.468 368.464,307.799 370.855,305.884 C373.244,303.968 375.355,302.171 376.872,300.855 C377.579,300.244 378.179,299.725 378.672,299.3 C379.099,298.934 379.345,298.743 379.365,298.763" id="Fill-123" fill="#132529"></path>
            <path d="M370.579,320.441 C370.59,320.438 370.644,320.614 370.737,320.955 C370.834,321.329 370.965,321.828 371.129,322.458 C371.465,323.806 371.94,325.709 372.529,328.076 C373.699,332.904 375.325,339.62 377.193,347.331 L377.272,347.661 L376.945,347.569 C374.326,346.833 371.547,346.052 368.689,345.249 C359.33,342.589 350.834,340.175 344.581,338.396 L344.75,338.327 C343.034,341.302 341.638,343.72 340.653,345.429 C340.175,346.24 339.797,346.882 339.52,347.35 C339.398,347.55 339.298,347.712 339.216,347.844 C339.146,347.955 339.107,348.01 339.101,348.006 C339.094,348.003 339.121,347.94 339.179,347.823 C339.251,347.685 339.338,347.516 339.447,347.308 C339.707,346.83 340.062,346.176 340.51,345.349 C341.468,343.625 342.824,341.183 344.492,338.181 L344.548,338.08 L344.661,338.112 C350.923,339.861 359.429,342.236 368.8,344.854 C371.658,345.661 374.434,346.446 377.052,347.185 L376.805,347.424 C374.994,339.699 373.416,332.971 372.281,328.135 C371.74,325.757 371.304,323.844 370.996,322.489 C370.859,321.853 370.75,321.349 370.668,320.971 C370.598,320.626 370.567,320.444 370.579,320.441" id="Fill-124" fill="#132529"></path>
            <path d="M388.321,318.764 C388.334,318.76 388.388,318.92 388.479,319.226 C388.576,319.576 388.701,320.021 388.853,320.571 C389.175,321.795 389.617,323.477 390.158,325.535 C391.232,329.782 392.694,335.563 394.309,341.95 C395.102,345.162 395.878,348.211 396.533,351.008 C397.181,353.802 397.468,356.433 397.151,358.611 C396.858,360.79 396.059,362.433 395.342,363.418 C394.627,364.416 394.05,364.794 394.05,364.794 C394.014,364.759 394.55,364.334 395.211,363.327 C395.875,362.333 396.613,360.711 396.864,358.574 C397.136,356.441 396.829,353.864 396.165,351.092 C395.47,348.306 394.71,345.255 393.911,342.05 C392.341,335.651 390.92,329.86 389.876,325.605 C389.388,323.535 388.989,321.841 388.699,320.609 C388.576,320.053 388.476,319.6 388.399,319.246 C388.334,318.933 388.307,318.767 388.321,318.764" id="Fill-125" fill="#132529"></path>
            <path d="M395.178,365.142 C394.862,365.142 394.535,365.127 394.199,365.096 C394.199,365.095 394.199,365.096 394.199,365.095 L396.115,365.095 C395.814,365.126 395.501,365.142 395.178,365.142" id="Fill-126" fill="#051317"></path>
            <path d="M396.115,365.095 L394.199,365.095 C394.799,364.538 395.348,363.912 395.833,363.219 C397.82,360.389 398.469,356.831 397.612,353.481 L391.534,329.738 C395.663,337.08 398.414,345.126 401.137,353.109 C401.801,355.056 402.474,357.091 402.195,359.129 C401.76,362.296 399.681,364.734 396.115,365.095" id="Fill-127" fill="#A93B44"></path>
            <path d="M394.199,365.096 C394.198,365.096 394.197,365.096 394.196,365.095 C394.881,364.327 395.477,363.419 395.95,362.441 C396.466,361.473 396.94,360.181 397.151,358.611 C397.468,356.433 397.181,353.802 396.533,351.008 C395.878,348.211 395.102,345.162 394.309,341.95 C393.072,337.059 391.925,332.523 390.973,328.759 C391.163,329.084 391.35,329.41 391.534,329.738 L397.612,353.481 C398.469,356.831 397.82,360.389 395.833,363.219 C395.348,363.912 394.799,364.538 394.199,365.095 C394.199,365.096 394.199,365.095 394.199,365.096" id="Fill-128" fill="#A93B44"></path>
            <path d="M395.95,362.441 C396.666,360.958 397.097,359.316 397.122,357.756 C397.164,355.167 396.955,353.694 396.386,351.167 C394.645,343.429 392.422,336.001 390.681,328.264 C390.779,328.429 390.877,328.594 390.973,328.759 C391.925,332.523 393.072,337.059 394.309,341.95 C395.102,345.162 395.878,348.211 396.533,351.008 C397.181,353.802 397.468,356.433 397.151,358.611 C396.94,360.181 396.466,361.473 395.95,362.441" id="Fill-129" fill="#051317"></path>
            <path d="M355.324,326.319 C355.279,326.36 354.493,325.602 353.41,324.212 C352.327,322.824 350.986,320.771 349.855,318.326 C348.729,315.876 348.04,313.523 347.688,311.799 C347.333,310.072 347.268,308.982 347.328,308.974 C347.411,308.963 347.604,310.029 348.046,311.714 C348.486,313.399 349.219,315.695 350.328,318.107 C351.442,320.516 352.711,322.565 353.707,323.994 C354.702,325.425 355.386,326.265 355.324,326.319" id="Fill-130" fill="#FAF9F6"></path>
            <path d="M346.044,331.805 C345.985,331.843 345.398,331.018 344.525,329.639 C343.652,328.26 342.5,326.32 341.307,324.133 C340.116,321.944 339.112,319.924 338.427,318.442 C337.742,316.961 337.369,316.021 337.432,315.991 C337.499,315.959 337.989,316.842 338.756,318.278 C339.612,319.872 340.634,321.777 341.765,323.884 C342.92,325.975 343.966,327.868 344.841,329.451 C345.631,330.876 346.107,331.766 346.044,331.805" id="Fill-131" fill="#FAF9F6"></path>
            <path d="M333.281,336.79 C333.139,336.813 332.438,333.23 331.716,328.79 C330.995,324.346 330.524,320.727 330.666,320.705 C330.808,320.681 331.508,324.263 332.23,328.706 C332.953,333.147 333.422,336.766 333.281,336.79" id="Fill-132" fill="#FAF9F6"></path>
            <path d="M321.92,336.021 C321.851,336.025 321.74,335.152 321.655,333.735 C321.569,332.318 321.52,330.357 321.571,328.191 C321.623,326.025 321.764,324.067 321.917,322.656 C322.068,321.245 322.221,320.379 322.291,320.385 C322.364,320.392 322.341,321.269 322.284,322.683 C322.226,324.096 322.143,326.048 322.091,328.204 C322.042,330.359 322.032,332.311 322.023,333.725 C322.013,335.14 321.995,336.017 321.92,336.021" id="Fill-133" fill="#FAF9F6"></path>
            <path d="M310.542,319.475 C310.612,319.47 310.731,320.282 310.828,321.602 C310.924,322.922 310.989,324.751 310.953,326.77 C310.916,328.79 310.786,330.615 310.642,331.93 C310.499,333.246 310.35,334.052 310.281,334.046 C310.13,334.031 310.365,330.778 310.432,326.76 C310.509,322.745 310.392,319.485 310.542,319.475" id="Fill-134" fill="#FAF9F6"></path>
            <path d="M301.208,320.677 C301.35,320.69 301.221,323.422 300.919,326.777 C300.617,330.135 300.255,332.844 300.112,332.832 C299.969,332.819 300.098,330.088 300.401,326.73 C300.703,323.375 301.064,320.664 301.208,320.677" id="Fill-135" fill="#FAF9F6"></path>
            <path d="M357.498,311.425 C357.352,311.47 356.745,309.814 355.726,307.911 C354.717,306.002 353.683,304.574 353.802,304.478 C353.904,304.389 355.148,305.705 356.186,307.667 C357.232,309.623 357.628,311.39 357.498,311.425" id="Fill-136" fill="#FAF9F6"></path>
            <path d="M375.098,338.64 C375.099,338.677 374.82,338.707 374.313,338.73 C373.807,338.76 373.072,338.748 372.167,338.681 C370.358,338.555 367.86,338.115 365.254,337.144 C362.65,336.166 360.477,334.858 359.029,333.765 C358.303,333.22 357.741,332.748 357.378,332.393 C357.011,332.043 356.822,331.837 356.845,331.81 C356.903,331.745 357.755,332.466 359.242,333.465 C360.725,334.466 362.882,335.696 365.437,336.657 C367.994,337.609 370.428,338.097 372.204,338.315 C373.981,338.537 375.098,338.553 375.098,338.64" id="Fill-137" fill="#FAF9F6"></path>
            <path d="M371.451,325.871 C371.44,325.937 370.639,325.877 369.365,325.643 C368.091,325.41 366.347,324.984 364.476,324.341 C362.605,323.695 360.969,322.956 359.823,322.354 C358.674,321.754 358.007,321.308 358.039,321.25 C358.113,321.11 360.942,322.583 364.646,323.848 C368.342,325.133 371.478,325.716 371.451,325.871" id="Fill-138" fill="#FAF9F6"></path>
            <path d="M369.331,316.685 C369.355,316.81 366.843,316.985 364.03,315.844 C361.205,314.729 359.507,312.872 359.61,312.798 C359.714,312.672 361.506,314.293 364.223,315.361 C366.926,316.461 369.342,316.522 369.331,316.685" id="Fill-139" fill="#FAF9F6"></path>
            <path d="M384.298,310.152 C384.25,310.233 383.47,309.701 382.046,309.304 C380.645,308.902 378.527,308.728 376.426,309.508 C374.328,310.294 372.84,311.813 372.044,313.035 C371.228,314.267 370.987,315.18 370.899,315.15 C370.849,315.145 370.963,314.178 371.732,312.841 C372.477,311.518 374.007,309.858 376.244,309.019 C378.483,308.188 380.726,308.441 382.155,308.953 C383.612,309.461 384.332,310.116 384.298,310.152" id="Fill-140" fill="#FAF9F6"></path>
            <path d="M386.063,322.428 C386.091,322.487 385.462,322.886 384.363,323.376 C383.266,323.866 381.687,324.418 379.883,324.779 C378.078,325.137 376.408,325.234 375.207,325.203 C374.003,325.173 373.269,325.046 373.274,324.981 C373.279,324.817 376.239,324.991 379.781,324.268 C383.328,323.576 385.995,322.28 386.063,322.428" id="Fill-141" fill="#FAF9F6"></path>
            <path d="M391.189,337.841 C391.203,337.983 388.057,338.407 384.164,338.787 C380.269,339.167 377.101,339.358 377.087,339.216 C377.073,339.072 380.218,338.648 384.113,338.268 C388.006,337.889 391.175,337.697 391.189,337.841" id="Fill-142" fill="#FAF9F6"></path>
            <path d="M395.697,359.188 C395.686,359.223 395.404,359.166 394.898,359.031 C394.391,358.903 393.673,358.663 392.802,358.323 C391.057,357.65 388.741,356.475 386.362,354.905 C383.984,353.333 381.966,351.728 380.533,350.543 C379.102,349.354 378.25,348.58 378.293,348.525 C378.339,348.468 379.274,349.141 380.761,350.254 C382.25,351.363 384.292,352.913 386.648,354.469 C389.004,356.024 391.257,357.232 392.946,357.984 C394.631,358.742 395.722,359.106 395.697,359.188" id="Fill-143" fill="#FAF9F6"></path>
            <path d="M371.457,362.442 C371.394,362.445 371.279,361.58 371.297,360.173 C371.314,358.767 371.501,356.819 372.006,354.726 C372.517,352.635 373.245,350.817 373.875,349.56 C374.503,348.302 375.001,347.586 375.056,347.617 C375.207,347.692 373.496,350.724 372.512,354.849 C371.495,358.965 371.625,362.444 371.457,362.442" id="Fill-144" fill="#FAF9F6"></path>
            <path d="M359.266,355.906 C359.144,355.931 358.864,353.06 359.902,349.721 C360.913,346.374 362.752,344.153 362.839,344.243 C362.979,344.331 361.378,346.624 360.4,349.875 C359.389,353.113 359.43,355.911 359.266,355.906" id="Fill-145" fill="#FAF9F6"></path>
            <path d="M352.467,339.953 C352.59,340.068 350.366,342.086 348.743,345.328 C347.082,348.553 346.765,351.539 346.6,351.508 C346.539,351.502 346.534,350.751 346.75,349.559 C346.963,348.37 347.441,346.748 348.278,345.093 C349.12,343.44 350.149,342.098 350.983,341.223 C351.817,340.346 352.426,339.906 352.467,339.953" id="Fill-146" fill="#FAF9F6"></path>
            <path d="M397.387,325.984 C397.493,326.063 396.417,327.345 394.543,328.078 C392.676,328.828 391.014,328.632 391.037,328.501 C391.035,328.344 392.601,328.301 394.352,327.593 C396.11,326.91 397.282,325.868 397.387,325.984" id="Fill-147" fill="#FAF9F6"></path>
            <path d="M392.805,311.945 C392.925,312.004 392.299,313.318 390.933,314.427 C389.576,315.548 388.164,315.902 388.13,315.772 C388.076,315.629 389.329,315.08 390.603,314.024 C391.889,312.983 392.674,311.863 392.805,311.945" id="Fill-148" fill="#FAF9F6"></path>
            <path d="M376.482,302.605 C376.568,302.501 377.678,303.371 378.495,304.873 C379.322,306.37 379.458,307.774 379.324,307.79 C379.173,307.822 378.822,306.537 378.038,305.123 C377.268,303.702 376.375,302.714 376.482,302.605" id="Fill-149" fill="#FAF9F6"></path>
            <path d="M400.743,339.19 C400.819,339.3 399.53,340.228 397.659,340.707 C395.79,341.198 394.211,341.012 394.225,340.879 C394.227,340.725 395.743,340.674 397.528,340.203 C399.316,339.748 400.667,339.056 400.743,339.19" id="Fill-150" fill="#FAF9F6"></path>
            <path d="M407.735,351.495 C407.747,351.638 405.31,351.962 402.292,352.217 C399.274,352.471 396.818,352.562 396.806,352.419 C396.793,352.276 399.23,351.953 402.249,351.698 C405.266,351.442 407.722,351.351 407.735,351.495" id="Fill-151" fill="#FAF9F6"></path>
            <path d="M412.588,361.398 C412.584,361.542 408.98,361.568 404.539,361.457 C400.094,361.345 396.497,361.139 396.5,360.995 C396.503,360.851 400.108,360.825 404.551,360.936 C408.994,361.048 412.592,361.255 412.588,361.398" id="Fill-152" fill="#FAF9F6"></path>
            <path d="M377.201,262.156 C377.864,265.547 382.735,266.895 383.215,270.315 C383.421,271.783 382.721,273.241 382.773,274.722 C382.841,276.715 384.225,278.386 384.932,280.249 C386.39,284.087 384.743,288.638 381.663,291.351 C378.582,294.065 374.349,295.159 370.245,295.244" id="Fill-153" fill="#132529"></path>
            <path d="M349.621,265.656 C350.044,267.465 349.094,269.291 348.093,270.856 C347.092,272.422 345.963,274.067 345.987,275.925 C346.029,279.218 349.652,281.709 349.505,284.998 C349.427,286.761 348.246,288.354 348.269,290.119 C348.292,291.826 349.444,293.318 350.752,294.413 C352.062,295.509 353.317,295.12 354.514,296.337 C355.775,297.619 357.672,298.839 359.365,299.445 C363.203,300.822 367,297.354 368.624,296.583" id="Fill-154" fill="#132529"></path>
            <path d="M378.195,264.011 C377.98,262.344 376.243,261.303 374.601,260.94 C372.959,260.576 371.207,260.618 369.682,259.908 C368.333,259.28 367.311,258.129 366.113,257.246 C363.174,255.078 359.051,254.637 355.721,256.136 C352.392,257.635 349.988,261.013 349.662,264.651 C349.442,267.108 350.289,269.84 352.4,271.116 C354.851,272.597 357.994,271.686 360.675,270.681 C363.357,269.677 366.405,268.622 368.976,269.884 C370.526,270.645 371.579,272.115 372.665,273.458 C373.75,274.801 375.06,276.14 376.76,276.44 C378.461,276.741 380.5,275.436 380.293,273.721" id="Fill-155" fill="#132529"></path>
            <path d="M378.781,299.417 L374.735,267.032 C374.539,265.586 373.268,264.529 371.81,264.601 L356.483,263.17 C351.682,263.405 349.448,269.709 349.887,274.495 C350.375,279.812 351.18,286.285 352.416,290.117 C354.901,297.822 361.112,297.885 361.112,297.885 C361.111,297.875 362.272,309.263 362.725,312.08" id="Fill-156" fill="#F1AD92"></path>
            <path d="M351.987,280.407 C352.051,280.945 352.56,281.334 353.124,281.277 C353.685,281.22 354.09,280.739 354.026,280.201 C353.961,279.663 353.453,279.273 352.89,279.33 C352.328,279.387 351.922,279.869 351.987,280.407" id="Fill-157" fill="#132529"></path>
            <path d="M351.699,278.414 C351.845,278.527 352.525,277.839 353.616,277.672 C354.703,277.49 355.59,277.927 355.687,277.774 C355.737,277.706 355.571,277.488 355.183,277.288 C354.801,277.089 354.178,276.934 353.5,277.043 C352.821,277.152 352.289,277.491 352,277.799 C351.705,278.108 351.628,278.364 351.699,278.414" id="Fill-158" fill="#132529"></path>
            <path d="M362.972,278.803 C363.037,279.342 363.545,279.73 364.109,279.674 C364.67,279.617 365.075,279.135 365.011,278.597 C364.947,278.059 364.438,277.67 363.875,277.726 C363.313,277.783 362.908,278.265 362.972,278.803" id="Fill-159" fill="#132529"></path>
            <path d="M362.448,276.949 C362.594,277.061 363.274,276.374 364.365,276.208 C365.452,276.025 366.339,276.462 366.436,276.309 C366.485,276.241 366.322,276.022 365.932,275.823 C365.549,275.624 364.926,275.469 364.248,275.578 C363.57,275.687 363.038,276.026 362.749,276.334 C362.455,276.642 362.377,276.899 362.448,276.949" id="Fill-160" fill="#132529"></path>
            <path d="M359.75,285.65 C359.746,285.588 359.049,285.576 357.929,285.607 C357.646,285.621 357.375,285.607 357.297,285.425 C357.201,285.233 357.271,284.915 357.355,284.57 C357.512,283.856 357.676,283.107 357.848,282.322 C358.522,279.126 358.963,276.515 358.834,276.489 C358.706,276.463 358.054,279.033 357.381,282.229 C357.222,283.016 357.07,283.766 356.924,284.484 C356.869,284.817 356.744,285.205 356.951,285.599 C357.057,285.796 357.286,285.915 357.471,285.935 C357.659,285.963 357.816,285.941 357.955,285.927 C359.069,285.815 359.755,285.714 359.75,285.65" id="Fill-161" fill="#132529"></path>
            <path d="M361.112,297.885 C361.112,297.885 366.394,297.529 371.167,293.544 C371.082,293.577 369.03,299.635 361.332,300.003 L361.112,297.885" id="Fill-162" fill="#EA8E6C"></path>
            <path d="M360.62,288.207 C360.931,287.627 361.574,287.235 362.267,287.203 C362.749,287.179 363.262,287.334 363.61,287.675 C363.957,288.014 364.102,288.552 363.898,288.961 C363.668,289.42 363.069,289.611 362.525,289.545 C361.982,289.477 361.481,289.205 361.002,288.929 C360.87,288.853 360.735,288.773 360.641,288.655 C360.547,288.538 360.505,288.371 360.58,288.25" id="Fill-163" fill="#EA8E6C"></path>
            <path d="M363.076,285.905 C362.897,285.923 363.079,287.106 362.197,288.104 C361.317,289.104 360.035,289.168 360.051,289.335 C360.046,289.412 360.368,289.52 360.903,289.452 C361.427,289.389 362.165,289.102 362.704,288.492 C363.242,287.881 363.401,287.152 363.366,286.66 C363.333,286.159 363.156,285.885 363.076,285.905" id="Fill-164" fill="#132529"></path>
            <path d="M361.472,273.976 C361.625,274.256 362.693,273.946 363.996,273.901 C365.298,273.83 366.387,274.044 366.516,273.752 C366.572,273.612 366.349,273.362 365.887,273.139 C365.429,272.917 364.727,272.748 363.946,272.782 C363.165,272.817 362.481,273.049 362.044,273.31 C361.604,273.573 361.404,273.843 361.472,273.976" id="Fill-165" fill="#132529"></path>
            <path d="M351.609,275.196 C351.839,275.414 352.55,275.04 353.452,274.887 C354.347,274.703 355.145,274.794 355.281,274.508 C355.338,274.37 355.179,274.14 354.809,273.958 C354.443,273.776 353.863,273.671 353.245,273.786 C352.627,273.902 352.125,274.211 351.85,274.513 C351.571,274.817 351.505,275.089 351.609,275.196" id="Fill-166" fill="#132529"></path>
            <path d="M379.218,291.279 C377.116,292.06 376.748,290.985 374.886,289.733 C373.026,288.481 371.823,286.302 371.753,284.06 C371.693,282.083 372.426,279.944 371.464,278.215 C370.192,275.927 366.671,275.718 365.386,273.438 C364.639,272.114 364.85,270.392 364.037,269.107 C363.273,267.898 361.79,267.366 360.385,267.095 C358.981,266.825 357.504,266.718 356.252,266.028 C355,265.337 354.045,263.81 354.573,262.481 C360.577,262.257 366.606,262.751 372.493,263.949 C373.858,264.226 375.303,264.592 376.246,265.616 C377.244,266.701 377.453,268.273 377.615,269.738 C378.404,276.882 379.193,284.025 379.982,291.169" id="Fill-167" fill="#132529"></path>
            <path d="M381.641,274.384 C381.479,271.741 383.236,269.096 385.733,268.219 C388.231,267.343 391.255,268.309 392.781,270.473 C394.231,272.53 394.279,275.304 393.612,277.731 C392.82,280.615 390.713,283.468 387.742,283.801 C384.945,284.113 382.325,282.028 381.104,279.493 C379.883,276.957 379.755,274.053 379.65,271.241" id="Fill-168" fill="#132529"></path>
            <path d="M384.897,284.956 C384.907,284.964 385.068,284.801 385.238,284.431 C385.412,284.067 385.58,283.487 385.578,282.759 C385.582,282.031 385.423,281.173 385.112,280.274 C384.804,279.37 384.337,278.446 383.946,277.448 C383.55,276.455 383.283,275.465 383.312,274.553 C383.334,273.648 383.63,272.836 383.703,272.113 C383.792,271.388 383.67,270.782 383.483,270.416 C383.297,270.047 383.101,269.913 383.09,269.927 C383.067,269.946 383.222,270.109 383.358,270.47 C383.495,270.828 383.572,271.395 383.457,272.079 C383.36,272.765 383.036,273.562 382.989,274.543 C382.939,275.517 383.215,276.564 383.619,277.577 C384.018,278.594 384.494,279.513 384.806,280.383 C385.126,281.251 385.301,282.07 385.329,282.763 C385.401,284.173 384.823,284.93 384.897,284.956" id="Fill-169" fill="#334F55"></path>
            <path d="M383.513,275.454 C383.489,275.477 383.951,275.968 384.912,276.447 C385.857,276.927 387.353,277.336 388.994,277.107 C390.634,276.876 391.96,276.072 392.739,275.351 C393.531,274.627 393.84,274.028 393.81,274.011 C393.761,273.973 393.382,274.511 392.578,275.162 C391.784,275.812 390.502,276.54 388.945,276.759 C387.388,276.975 385.957,276.629 385.014,276.221 C384.061,275.816 383.549,275.403 383.513,275.454" id="Fill-170" fill="#334F55"></path>
            <path d="M384.1,276.63 C384.069,276.65 384.343,277.13 384.965,277.763 C385.583,278.397 386.583,279.148 387.843,279.662 C389.106,280.171 390.347,280.327 391.231,280.302 C392.119,280.278 392.649,280.125 392.641,280.089 C392.633,280.03 392.095,280.093 391.235,280.052 C390.375,280.014 389.191,279.826 387.975,279.337 C386.761,278.842 385.779,278.153 385.135,277.583 C384.489,277.013 384.147,276.593 384.1,276.63" id="Fill-171" fill="#334F55"></path>
            <path d="M383.833,287.834 L383.903,287.721 C383.941,287.643 384.013,287.533 384.071,287.372 C384.205,287.057 384.346,286.562 384.374,285.908 C384.4,285.259 384.283,284.439 383.877,283.596 C383.492,282.753 382.727,281.901 381.65,281.415 C380.608,280.902 379.316,280.635 378.375,279.706 C377.907,279.254 377.637,278.613 377.653,277.919 C377.652,277.224 377.856,276.511 378.016,275.761 C378.397,274.251 378.123,272.482 377.169,271.062 C376.691,270.357 376.047,269.73 375.252,269.324 C374.461,268.901 373.554,268.761 372.671,268.703 C371.786,268.642 370.915,268.664 370.085,268.551 C369.258,268.439 368.447,268.204 367.81,267.736 C367.161,267.276 366.802,266.554 366.575,265.807 C366.346,265.06 366.164,264.277 365.839,263.57 C365.22,262.149 364.259,260.956 363.119,260.171 C361.976,259.378 360.674,259.025 359.5,259.036 C358.32,259.038 357.269,259.423 356.52,259.98 C355.761,260.53 355.281,261.203 354.996,261.788 C354.713,262.38 354.618,262.885 354.589,263.225 C354.56,263.566 354.593,263.746 354.593,263.746 C354.648,263.759 354.538,262.995 355.118,261.849 C355.414,261.291 355.895,260.653 356.634,260.14 C357.364,259.621 358.37,259.271 359.5,259.284 C360.625,259.29 361.869,259.642 362.952,260.409 C364.037,261.172 364.953,262.324 365.543,263.699 C365.852,264.384 366.021,265.13 366.254,265.908 C366.481,266.674 366.88,267.499 367.605,268.012 C368.312,268.534 369.177,268.779 370.038,268.896 C370.907,269.016 371.781,268.994 372.648,269.053 C373.511,269.111 374.365,269.246 375.092,269.635 C375.828,270.01 376.431,270.593 376.884,271.255 C377.785,272.596 378.054,274.245 377.699,275.695 C377.548,276.431 377.338,277.164 377.343,277.921 C377.328,278.677 377.65,279.427 378.168,279.912 C379.209,280.909 380.535,281.151 381.543,281.639 C382.584,282.094 383.309,282.878 383.702,283.683 C384.107,284.485 384.243,285.274 384.237,285.906 C384.217,287.19 383.777,287.82 383.833,287.834" id="Fill-172" fill="#334F55"></path>
            <path d="M379.821,265.867 C379.821,265.867 379.876,265.741 379.861,265.488 C379.848,265.238 379.75,264.852 379.433,264.48 C379.124,264.112 378.619,263.746 377.94,263.596 C377.253,263.45 376.457,263.585 375.66,263.88 C374.856,264.167 374.051,264.634 373.14,264.964 C372.246,265.287 371.149,265.487 370.212,264.966 C369.272,264.46 368.676,263.421 368.072,262.39 C367.474,261.334 366.698,260.299 365.734,259.426 C363.807,257.676 361.409,256.645 359.147,256.505 C358.016,256.44 356.917,256.635 356.004,257.086 C355.093,257.533 354.374,258.202 353.929,258.944 C353.474,259.683 353.325,260.496 353.385,261.176 C353.436,261.86 353.661,262.422 353.914,262.827 C354.166,263.236 354.449,263.49 354.651,263.635 C354.854,263.782 354.976,263.833 354.98,263.826 C355.015,263.789 354.496,263.565 354.032,262.757 C353.806,262.358 353.612,261.814 353.582,261.163 C353.542,260.515 353.7,259.763 354.141,259.074 C354.573,258.384 355.262,257.761 356.13,257.348 C356.998,256.934 358.043,256.758 359.127,256.828 C361.298,256.979 363.631,257.988 365.497,259.685 C366.434,260.537 367.179,261.523 367.776,262.565 C368.385,263.586 369.001,264.685 370.06,265.251 C370.577,265.535 371.167,265.626 371.711,265.591 C372.26,265.557 372.769,265.409 373.24,265.237 C374.183,264.881 374.973,264.405 375.748,264.112 C376.512,263.811 377.27,263.672 377.901,263.789 C378.536,263.91 379.025,264.238 379.33,264.57 C379.643,264.906 379.755,265.259 379.791,265.495 C379.829,265.734 379.799,265.866 379.821,265.867" id="Fill-173" fill="#334F55"></path>
        </g>
    </g>
</svg>