<svg width="351" height="77" viewBox="0 0 351 77" xmlns="http://www.w3.org/2000/svg"><path d="M23.93 0c1.653 0 3.33.353 5.03 1.059 1.724.8 3.168 1.765 4.333 2.894 1.164 1.13 2.282 2.448 3.353 3.954.14.141.28.212.42.212.163 0 .332-.094.506-.283.175-.188.367-.411.577-.67.186-.26.372-.494.559-.706a7.27 7.27 0 0 1 1.38-1.218c.477-.318.949-.477 1.414-.477.77 0 1.503.553 2.201 1.66.583 1.223 1.083 3.623 1.503 7.2.419 3.577.757 7.225 1.013 10.943.256 3.718.42 6.401.489 8.048l.175 3.39c.046.729.116 1.223.21 1.482.092.258.267.388.523.388.21 0 .501-.035.874-.106.186-.047.407-.094.663-.141.327-.047.676-.106 1.049-.177 1.117-.188 2.34-.382 3.668-.582 1.327-.2 2.469-.3 3.424-.3h.14c.07 0 .133.01.19.03a72.33 72.33 0 0 1 .627-3.73 5.98 5.98 0 0 1 .358-1.252c.167-.412.465-.618.894-.618.167 0 .37.047.608.141.333.212.5.459.5.741 0 .26-.06.518-.179.777l-.071.212c-1.073 3.764-1.609 7.458-1.609 11.082v.918c0 .211.012.435.036.67.024.235.071.377.143.424a.32.32 0 0 0 .143.035.4.4 0 0 0 .125-.018.225.225 0 0 0 .09-.053c.047-.047.124-.17.232-.37.107-.2.208-.4.304-.6.095-.2.166-.335.214-.406a.555.555 0 0 1 .143-.212c.286-.517.56-1.035.822-1.553a578.064 578.064 0 0 1 4.076-7.482 8.31 8.31 0 0 1 1.574-1.941c.476-.424.977-.636 1.501-.636.596 0 1.144.26 1.645.777.381.423.715.906 1.001 1.447.453.87.906 1.765 1.359 2.682.238.447.465.894.68 1.341 1.215 2.424 3.038 3.636 5.47 3.636.905 0 1.883-.141 2.931-.424 1.526-.54 2.676-1.123 3.45-1.747.775-.623 1.592-1.441 2.45-2.453.141-.17.293-.346.455-.527.942-3.092 1.979-5.45 3.113-7.076.664-.855 1.388-1.317 2.172-1.389.617-.07 1.34.06 2.172.392.047-.522.083-1.02.106-1.495.095-3.394.422-7.043.98-10.947.557-3.904 1.442-7.47 2.652-10.697.356-.807.795-1.223 1.317-1.246.404-.024.76.107 1.069.391.308.285.486.665.534 1.14l.035.213v.107a21.552 21.552 0 0 1-.285 4.272 391.576 391.576 0 0 1-2.136 10.501 144.663 144.663 0 0 1-.676 3.133 57.208 57.208 0 0 1-.82 3.346 24.314 24.314 0 0 0-1.21 6.622c-.047 3.251.13 7.262.534 12.032a49.62 49.62 0 0 0 1.3 7.44c.605 2.35 1.454 4.272 2.546 5.767.356.428.735.606 1.139.534.546-.094 1.062-.409 1.549-.943.486-.534.848-1.014 1.086-1.442.19-.356.38-.7.57-1.032a58.932 58.932 0 0 0 3.132-6.087 104.453 104.453 0 0 0 4.615-13.086 57.75 57.75 0 0 1 .669-6.2c.023-.138.034-.265.034-.38 0-.278.04-.51.121-.694.08-.186.282-.278.604-.278h.172c.345.046.564.19.656.434.092.242.138.503.138.78.023.093.034.174.034.243 0 .062.005.128.016.2l.019.112c.023.162.034.324.034.486 0 .231-.057.45-.172.659l-.035.035a.94.94 0 0 0-.138.104c-.046 0-.074.011-.086.034a.675.675 0 0 0-.034.087l-.052.156a4.438 4.438 0 0 1-.138.763.31.31 0 0 0-.035.14 1.068 1.068 0 0 0-.034.26v.26c0 .532-.023 1.075-.07 1.63v.104l-.004.154.06.058c.174.195.197.45.07.767l-.07.214-.09.264-.003.189c-.02 1.1-.031 2.205-.031 3.315v.347c0 .115.006.225.017.33.012.103.052.167.12.19.093 0 .168-.058.225-.173.058-.116.104-.232.138-.347a1.03 1.03 0 0 0 .052-.278l.103-.416c.07-.139.115-.277.138-.416.966-3.608 2.128-7.17 3.484-10.685.092-.208.184-.428.276-.66.07-.207.15-.415.242-.624.138-.3.316-.555.535-.763a1.13 1.13 0 0 1 .81-.312h.138c.276.023.53.075.76.156.23.081.402.237.517.468.069.116.109.26.12.434.012.174.018.341.018.503v.382c.023.37.046.763.069 1.18.046 1.132.178 2.33.396 3.59.219 1.26.656 2.353 1.311 3.278.656.925 1.685 1.445 3.088 1.561.368.023.736.035 1.104.035a18.66 18.66 0 0 0 2.883-.285c.014-.08.03-.157.046-.235.56-3.199 1.75-6.1 3.569-8.701a1.17 1.17 0 0 0 .14-.18c.07-.095.152-.19.245-.286.653-.644 1.33-.943 2.03-.895.28.024.548.107.804.25.327.192.59.49.787.896.199.406.298.835.298 1.289 0 .215-.023.43-.07.644-.42 1.934-1.283 3.593-2.59 4.978a21.148 21.148 0 0 1-1.714 1.504c-.397.31-.781.644-1.155 1.002-.373.334-.63.74-.77 1.218a10.06 10.06 0 0 0-.14 1.683c0 .93.14 1.886.42 2.864.42 1.48 1.19 2.268 2.31 2.364.466.023 1.038-.072 1.714-.287a9.353 9.353 0 0 0 2.94-1.611c3.405-2.507 6.228-5.503 8.467-8.988a.474.474 0 0 1 .455-.179c.23.024.444.111.64.263.233-.552.49-1.096.77-1.631.537-1.203 1.32-1.804 2.348-1.804.49 0 1.075.118 1.753.354l.14-.213c.093-.188.193-.336.298-.442a.543.543 0 0 1 .403-.159c.163 0 .374.047.63.141.258.095.433.2.527.319.093.118.151.26.175.424.023.165.023.342 0 .53v.107c0 1.132-.012 2.287-.035 3.466 0 2.287.023 4.586.07 6.897.023.708.082 1.427.175 2.158.14.99.292 1.98.456 2.97.093.52.228 1.062.403 1.628.175.566.438 1.061.789 1.485a.354.354 0 0 0 .157.142c.059.023.123.047.193.07h.175a.77.77 0 0 0 .246-.035.82.82 0 0 0 .315-.106c.07-.047.14-.106.21-.177l.316-.318c.14-.236.292-.472.456-.707a108.554 108.554 0 0 0 3.47-5.695c.117-.236.233-.46.35-.672a158.862 158.862 0 0 0 4.206-8.1c.187-.259.386-.389.596-.389a.74.74 0 0 1 .456.16c.14.106.222.253.245.442a.762.762 0 0 1-.035.389 163.881 163.881 0 0 1-6.169 12.344c-.187.33-.374.672-.56 1.025a10.775 10.775 0 0 1-2.034 2.76c-.49.494-1.04.742-1.647.742-.35 0-.724-.106-1.122-.318a3.685 3.685 0 0 1-1.121-1.132 11.343 11.343 0 0 1-1.508-3.502 24.188 24.188 0 0 1-.56-3.112 38.985 38.985 0 0 1-.28-5.2l-.036-.247a.288.288 0 0 0-.052-.177c-.036-.047-.111-.083-.228-.106h-.035a.286.286 0 0 0-.088.017.677.677 0 0 0-.123.054.471.471 0 0 0-.105.159 2.118 2.118 0 0 1-.07.159.316.316 0 0 1-.035.141c-.14.401-.28.79-.42 1.168a30.93 30.93 0 0 1-.667 1.768l-.28.707a24.258 24.258 0 0 1-1.052 2.547 3.223 3.223 0 0 1-1.331 1.238.93.93 0 0 1-.351.07c-.304 0-.62-.123-.946-.37a2.307 2.307 0 0 1-.736-.938 6.366 6.366 0 0 1-.351-1.309 1.815 1.815 0 0 1-.035-.353c-.065-2.206.157-4.315.665-6.326l.145-.544-.263.375a32.807 32.807 0 0 1-6.57 6.818.55.55 0 0 1-.14.107 10.21 10.21 0 0 1-3.675 2.077c-.746.19-1.446.262-2.1.215-2.519-.239-4.128-1.779-4.828-4.62a10.771 10.771 0 0 1-.245-2.255c0-.43.018-.858.055-1.284-.505.064-1.017.1-1.531.113-.552 0-1.115-.023-1.69-.07-2.737-.323-4.703-1.723-5.9-4.197a15.12 15.12 0 0 1-.827-2.828 38.47 38.47 0 0 1-.345-2.202c-.046-.694-.115-1.053-.207-1.076-.07 0-.161.127-.276.382-.943 2.174-1.938 4.978-2.984 8.412a47.842 47.842 0 0 0-1.95 10.737c0 .37-.045.601-.137.694-.092.092-.322.15-.69.173h-.104l-.172.035a1.28 1.28 0 0 1-.466-.087.47.47 0 0 1-.293-.33 3.417 3.417 0 0 1-.104-.572 5.598 5.598 0 0 1-.034-.572V49.3a.267.267 0 0 1-.035-.104v-.07a106.468 106.468 0 0 1-.285-5.776c-.44 1.26-.912 2.593-1.416 3.998-1.282 3.571-2.505 6.568-3.668 8.988a23.884 23.884 0 0 1-3.026 4.415c-.688.783-1.4 1.198-2.136 1.246-1.092.047-2.095-.404-3.009-1.353a9.133 9.133 0 0 1-2.047-3.346c-1.282-3.608-2.018-6.764-2.208-9.47l-.213-2.634c-.095-.95-.19-1.91-.285-2.884a58.216 58.216 0 0 0-.392-3.097 43.727 43.727 0 0 0-1.175 3.026 87.558 87.558 0 0 1-1.922 4.788c-.689 1.578-1.4 2.724-2.137 3.436a1.86 1.86 0 0 1-.96.427 2.419 2.419 0 0 1-1.176-.214 1.573 1.573 0 0 1-.783-.783c-.214-.522-.356-1.14-.427-1.851-.159-2.298.104-4.894.79-7.787a17.42 17.42 0 0 1-3.02 2.392l-.178.106a9.54 9.54 0 0 1-4.505 1.13 11.9 11.9 0 0 1-2.717-.318c-1.955-.518-3.421-1.589-4.398-3.212a40.605 40.605 0 0 1-2.038-3.565l-.787-1.482a3.932 3.932 0 0 0-.322-.53.582.582 0 0 0-.5-.247.683.683 0 0 0-.215.036.637.637 0 0 0-.286.123 2.512 2.512 0 0 1-.214.16c0 .023-.012.046-.036.07-.19.211-.381.44-.572.688-.19.247-.346.476-.465.688a571.175 571.175 0 0 0-4.004 7.482l-1.717 3.248-.214.423a6.211 6.211 0 0 0-.393.67c-.263.589-.68.883-1.252.883-.095 0-.202-.012-.322-.035-.762-.141-1.215-.6-1.358-1.377a133.04 133.04 0 0 1-.143-1.094A8.622 8.622 0 0 1 57 45.153v-.388a53 53 0 0 1 .34-5.947l.087-.717c-.137.023-.367.054-.692.093-.886.094-2.073.264-3.564.511-1.49.248-2.836.577-4.035.989-1.2.412-1.823.935-1.87 1.57l1.748 22.627a.79.79 0 0 1-.297.636.99.99 0 0 1-.647.247.805.805 0 0 1-.506-.177c-.152-.117-.239-.317-.262-.6-.35-3.106-.676-6.707-.978-10.801a308.3 308.3 0 0 0-.839-9.884c-.07-.824-.157-1.4-.262-1.73-.105-.33-.332-.494-.681-.494-.326 0-.815.094-1.467.283a7.636 7.636 0 0 1-.594.14 915.926 915.926 0 0 1-4.657 1.155l-1.853.463c-1.193.3-2.453.62-3.779.96A214 214 0 0 0 25.87 45.8c-1.829.529-2.883.9-3.162 1.111-.373.33-.64.783-.804 1.36a20.93 20.93 0 0 0-.419 1.782 6.02 6.02 0 0 0-.105.635c-.396 2.165-.733 4.795-1.013 7.89a90.516 90.516 0 0 0-.384 8.878l.035.6c.023.376-.14.64-.49.794a1.76 1.76 0 0 1-1.1.106c-.384-.083-.6-.3-.646-.653-.14-1.553-.082-3.63.175-6.23.256-2.6.564-5.125.925-7.572.361-2.448.647-4.236.856-5.366.047-.306.07-.553.07-.741-.023-.47-.303-.706-.838-.706-.326 0-.757.047-1.293.141-.955.141-1.933.277-2.934.406-1.002.13-2.003.194-3.005.194-1.584 0-3.133-.253-4.646-.759-1.514-.506-2.912-1.441-4.193-2.806-1.748-2.046-2.702-4.847-2.865-8.4-.14-2.848.157-5.907.89-9.178.734-3.27 1.835-6.507 3.302-9.707 1.467-3.2 3.214-6.124 5.24-8.772 2.027-2.647 4.268-4.777 6.725-6.389C18.65.806 21.228 0 23.93 0Zm69.592 29.993c-.499.024-1.045.558-1.638 1.602a8.25 8.25 0 0 1-.25.392 21.64 21.64 0 0 0-1.602 3.24c-.522 1.447-1.044 3.488-1.566 6.122-.522 2.635-.724 4.854-.605 6.657.023.214.047.404.07.57.096.332.226.474.392.427.143-.024.297-.119.463-.285.166-.166.285-.344.356-.534a44.15 44.15 0 0 0 2.813-6.443c.76-2.207 1.46-4.426 2.1-6.657l.5-1.709c.189-.664.26-1.27.213-1.815-.143-1.045-.558-1.567-1.246-1.567ZM24.698.777h-.629c-3.377.211-6.486 1.5-9.327 3.865-2.842 2.365-5.293 5.36-7.354 8.983a47.946 47.946 0 0 0-4.682 11.402c-1.06 3.977-1.508 7.683-1.345 11.12.14 2.706.722 4.994 1.747 6.865 1.025 1.87 2.55 3.112 4.577 3.724.815.188 1.956.282 3.423.282 1.863 0 3.797-.17 5.8-.511 2.003-.342 3.237-.9 3.703-1.677.093-.188.174-.412.244-.67l.14-.424c2.12-6.801 4.233-12.626 6.341-17.473 2.108-4.848 4.932-10.167 8.472-15.956a9.18 9.18 0 0 0 .506-.9c.105-.223.158-.418.158-.582-.024-.212-.163-.494-.42-.847a3.213 3.213 0 0 0-.244-.353L34.2 5.718c-1.467-1.67-2.94-2.912-4.42-3.724-1.478-.811-3.173-1.217-5.083-1.217Zm128.851 33.78a.77.77 0 0 0-.245.035c-.07.023-.117.059-.14.106a5.703 5.703 0 0 0-1.262 1.344c-1.309 2.476-2.033 5.176-2.174 8.1a3.378 3.378 0 0 0-.035.583v.884c0 .319.012.584.035.796.024.142.047.236.07.283.07.07.14.106.21.106a.43.43 0 0 0 .246-.07c.047-.048.094-.1.14-.16a.928.928 0 0 0 .106-.159l.035-.07.42-1.203c.842-2.311 1.66-4.634 2.454-6.968.304-.896.537-1.804.7-2.723v-.142a2.03 2.03 0 0 0-.104-.354.831.831 0 0 0-.175-.283.377.377 0 0 0-.28-.106ZM37.59 11.33c-.162 0-.343.13-.54.388-.199.26-.438.612-.717 1.06-.116.188-.245.4-.384.635a69.53 69.53 0 0 0-3.913 7.13c-1.537 3.13-3.115 6.666-4.734 10.607-1.619 3.942-2.94 7.666-3.965 11.173-.187.706-.28 1.235-.28 1.588 0 .447.257.67.769.67.35 0 .815-.082 1.397-.246 4.938-1.342 9.876-2.695 14.813-4.06a337.74 337.74 0 0 0 4.018-1.094c.35-.094.582-.235.699-.424a.99.99 0 0 0 .14-.635 7.923 7.923 0 0 0-.106-.67l-.07-.354a157.746 157.746 0 0 0-2.253-12.248c-.92-4.095-2.218-8.19-3.895-12.285-.35-.823-.676-1.235-.978-1.235Zm99.64 19.68h-.158a.117.117 0 0 0-.088.035c-.07.024-.151.09-.245.197a2.596 2.596 0 0 0-.21.268l-.034.036a18.908 18.908 0 0 0-2.8 5.371.648.648 0 0 0-.07.287c0 .048.012.09.035.125.024.036.07.054.14.054h.035a.37.37 0 0 0 .21-.072l.21-.143.07-.072a.935.935 0 0 1 .245-.179l.21-.214a8.684 8.684 0 0 0 2.24-3.832c.046-.143.104-.37.174-.68.07-.31.105-.585.105-.824a.813.813 0 0 0-.07-.358ZM41.711 6.776c-.373 0-.78.2-1.223.6-.442.4-.896.871-1.362 1.412-.163.165-.315.33-.454.495-.28.33-.408.67-.385 1.023.07.565.315 1.236.734 2.012.21.424.43.895.664 1.412 1.141 2.8 2.026 5.407 2.655 7.82a175.294 175.294 0 0 1 1.782 7.535c.14.706.29 1.424.454 2.154v.035c.023.07.058.165.105.282.046.118.116.177.21.177.023 0 .07-.024.139-.07.07-.071.07-.66 0-1.766a196.177 196.177 0 0 0-.507-6.424 1681.325 1681.325 0 0 0-1.205-12.602v-.176c-.14-1.46-.35-2.477-.629-3.054-.28-.576-.605-.865-.978-.865ZM99.824 8.99c-.048-.024-.167.237-.356.783-.238.736-.47 1.661-.695 2.777a84.542 84.542 0 0 0-.516 2.74l-.748 6.515 1.282-4.663c.166-.807.362-1.928.588-3.364.225-1.436.338-2.557.338-3.364a3.2 3.2 0 0 1 .071-.605 7.097 7.097 0 0 0 .071-.783c0-.024-.012-.036-.035-.036Zm113.119 47.372a44.456 44.456 0 0 1-2.307 2.064l-.299.255c-.427.369-.875.745-1.345 1.128l-.513.425.3.426c.298.453.619.886.96 1.297.812.937 1.623 1.859 2.435 2.766.341.37.676.738 1.003 1.107.314.326.47.581.47.766a.382.382 0 0 1-.128.276.324.324 0 0 1-.256.128c-.171 0-.385-.156-.64-.468-.243-.27-.478-.532-.705-.787a79.063 79.063 0 0 1-1.752-2.064 43.018 43.018 0 0 1-1.601-2.107 80.45 80.45 0 0 1-.705-.936 14.04 14.04 0 0 0-1.537.936 27.911 27.911 0 0 1-5.766 3.022c-.513.198-1.025.404-1.538.617-.712.312-1.43.596-2.157.85-.64.214-1.288.384-1.943.511a10.467 10.467 0 0 1-3.31.107c-1.153-.156-2.128-.809-2.926-1.958a3.69 3.69 0 0 1-.544-1.297 6.8 6.8 0 0 1-.139-1.362v-.213c.142-2.425.712-4.603 1.708-6.532a147.8 147.8 0 0 1 3.31-6.532c.3-.51.62-1 .961-1.468.129-.17.25-.333.363-.49.157-.24.32-.481.492-.723.569-.836 1.139-1.66 1.708-2.468.698-.95 1.402-1.893 2.114-2.83A189.3 189.3 0 0 0 200.023 39c.228-.284.37-.61.427-.979.142-1.815.505-3.496 1.089-5.042a11.832 11.832 0 0 1 1.591-2.83 6.668 6.668 0 0 1 2.381-1.936c.299-.128.62-.199.961-.213h.043c.384 0 .708.149.971.447.264.298.395.674.395 1.127v.128a2.166 2.166 0 0 1-.234.936 32.219 32.219 0 0 1-1.56 2.51 133.097 133.097 0 0 1-2.711 3.618c-.314.397-.62.794-.919 1.191 0 .015-.003.025-.01.032l-.032.032c-.442.327-.734.734-.876 1.224a5.733 5.733 0 0 0-.214 1.606c0 .284.008.567.022.851.17 2.369.59 4.724 1.26 7.064.028.085.071.184.128.298.014.042.035.092.064.149l.342-.17c.498-.242.968-.49 1.41-.745a21.976 21.976 0 0 1 5.21-2.192c.47-.127.936-.237 1.398-.33a7.25 7.25 0 0 1 1.42-.138c.385 0 .77.036 1.154.107a5.076 5.076 0 0 1 1.815.723 3.05 3.05 0 0 1 1.057 1.18c.263.504.395 1.026.395 1.565 0 .113-.007.22-.021.319-.157 1.347-.591 2.518-1.303 3.51a22.366 22.366 0 0 1-2.733 3.32Zm-5.958-27.277h-.171c-.77 0-1.541.415-2.317 1.245-.776.83-1.42 1.822-1.933 2.979-.512 1.156-.769 2.223-.769 3.202v.191a.335.335 0 0 1 .086-.064.742.742 0 0 0 .15-.149c.526-.666 1.053-1.34 1.58-2.02.27-.341.533-.682.79-1.022a49.266 49.266 0 0 0 1.58-2.15c.484-.58.818-1.318 1.004-2.212Zm-3.353 32.49a48.23 48.23 0 0 0 2.157-1.298c.413-.256.84-.518 1.281-.788a59.213 59.213 0 0 1-4.549-8.595c-.1.042-.185.078-.256.106a1.52 1.52 0 0 0-.427.213 130.24 130.24 0 0 0-3.716 2.49 28.616 28.616 0 0 0-4.57 3.744 15.23 15.23 0 0 0-1.196 1.49.99.99 0 0 0-.15.19c-.084.1-.156.21-.213.33a1.017 1.017 0 0 0-.085.437c0 .127.021.276.064.446.1.015.206.029.32.043a1.9 1.9 0 0 0 .406.043c.086 0 .17-.015.256-.043a37.79 37.79 0 0 0 2.499-.638.764.764 0 0 1 .192-.064l.128-.043a.57.57 0 0 1 .256-.064c.086 0 .164.032.235.096.072.064.143.181.214.351a.563.563 0 0 1-.256.234 47.941 47.941 0 0 1-3.268.873.704.704 0 0 1-.17.02c-.271 0-.556-.084-.855-.254-.512-.242-.768-.603-.768-1.085 0-.114.007-.227.02-.34.143-.597.378-1.1.706-1.512a19.647 19.647 0 0 1 2.156-2.404 53.532 53.532 0 0 1 6.578-4.915l.598-.383c.27-.184.534-.354.79-.51l-.385-1.532a46.58 46.58 0 0 1-.662-2.894 47.958 47.958 0 0 1-.47-3.021 79.9 79.9 0 0 0-.234-1.575c-.2.27-.399.532-.598.788a82.34 82.34 0 0 0-2.136 2.85 56.118 56.118 0 0 0-1.516 2.235c-.128.213-.256.418-.384.617l-.77 1.106a32.089 32.089 0 0 0-1.9 2.979 61.242 61.242 0 0 0-2.157 4.447l-.384.85c-.64 1.32-1.075 2.767-1.303 4.341a9.398 9.398 0 0 0-.128 1.553c0 .468.057.944.171 1.426.185.723.563 1.198 1.132 1.425.384.128.769.22 1.153.277.356.057.712.085 1.068.085.598 0 1.174-.064 1.73-.191.555-.128 1.11-.284 1.665-.468a40.204 40.204 0 0 0 4.25-1.703c.071-.042.142-.078.214-.106a33.58 33.58 0 0 0 3.267-1.66Zm4.036-2.49c.484-.425.968-.83 1.452-1.213a71.833 71.833 0 0 0 2.2-1.85 22.251 22.251 0 0 0 3.48-4.107c.598-.851.983-1.844 1.154-2.979.028-.17.042-.319.042-.447 0-.695-.334-1.127-1.003-1.298a5.608 5.608 0 0 0-1.88-.34c-.74 0-1.466.085-2.178.255l-.17.043a17.99 17.99 0 0 0-4.272 1.51c-.783.355-1.566.752-2.349 1.192-.327.17-.662.348-1.003.532a40.487 40.487 0 0 0 4.527 8.702ZM266.712 8c1.81 0 3.583.315 5.322.944 1.738.63 3.348 1.668 4.828 3.117 1.856 1.876 3.172 3.752 3.947 5.628.775 1.876 1.422 3.954 1.938 6.234.094.404.2.82.318 1.247 0 .024.011.047.035.071.023.143.076.315.158.517.083.201.183.338.3.41a.693.693 0 0 0 .529-.036c.282-.095.528-.226.74-.392.094-.071.2-.143.317-.214a34.435 34.435 0 0 1 4.97-2.636.659.659 0 0 1 .21-.036c.188 0 .341.084.459.25.117.166.188.344.211.534.024.214-.023.368-.14.463a17.19 17.19 0 0 1-1.093.535c-.752.308-1.604.712-2.555 1.21a14.366 14.366 0 0 0-2.485 1.621c-.705.582-1.069 1.17-1.092 1.764.164 6.317-.782 12.83-2.837 19.538-2.056 6.71-4.905 12.427-8.547 17.153a98.582 98.582 0 0 1-2.731 3.277 41.461 41.461 0 0 1-3.577 3.633 20.655 20.655 0 0 1-4.247 2.975c-1.515.795-3.095 1.193-4.74 1.193a7.73 7.73 0 0 1-1.022-.071c-1.832-.238-3.183-.825-4.053-1.764-.869-.938-1.362-2.095-1.48-3.473-.164-1.828.065-3.782.687-5.86.623-2.077 1.363-3.977 2.22-5.7.858-1.72 1.545-2.985 2.062-3.793.259-.427.529-.855.81-1.282l.847-1.283a9.57 9.57 0 0 1 .246-.463l.282-.427.564-.713.124-.249.176-.356.075-.152.048-.098v-.178c-.047-.237-.2-.356-.458-.356h-.07a.497.497 0 0 1-.282.071c-.024.024-.06.036-.106.036a.41.41 0 0 0-.106.071c-.164.024-.317.06-.458.107-.423.143-.834.297-1.234.463a1.751 1.751 0 0 0-.422.178 23.107 23.107 0 0 1-3.366.98 17.324 17.324 0 0 1-3.507.338h-.282c-3.383-.095-5.997-1.11-7.841-3.045-1.844-1.936-2.943-4.46-3.295-7.57-.47-4.583.581-9.57 3.154-14.961s6.643-10.2 12.211-14.427c1.786-1.33 3.936-2.5 6.45-3.51A20.721 20.721 0 0 1 266.712 8Zm14.802 22.086a.574.574 0 0 0-.176.035c-.024.024-.047.036-.07.036h-.018c-.012 0-.024.006-.036.018l-.013.013c-.31.195-.592.396-.85.61l-.07.036a2.541 2.541 0 0 1-.388.32 5.811 5.811 0 0 1-.388.357 140.596 140.596 0 0 0-7.965 7.516 114.572 114.572 0 0 0-11.383 13.18c-.329.404-.622.82-.88 1.247-1.082 1.496-2.21 3.26-3.384 5.29a34.727 34.727 0 0 0-2.89 6.43c-.752 2.256-1.034 4.452-.846 6.59.07.57.188 1.128.353 1.674.282.878.757 1.502 1.427 1.87.67.368 1.416.552 2.238.552a7.794 7.794 0 0 0 3.841-.997c4.347-2.47 8.07-5.967 11.172-10.491 3.101-4.524 5.55-9.464 7.348-14.819 1.797-5.355 2.872-10.538 3.225-15.549a27.51 27.51 0 0 0 .105-3.099.9.9 0 0 0 0-.356c0-.166-.047-.285-.14-.356-.071-.072-.142-.107-.212-.107ZM323.868 9c.168 0 .336.023.504.07.48.118.822.44 1.026.969.204.528.306 1.191.306 1.99 0 1.548-.264 3.374-.792 5.475a88.544 88.544 0 0 1-1.62 5.704c-.552 1.702-.936 2.799-1.152 3.292a76.446 76.446 0 0 1-2.664 6.303 9.75 9.75 0 0 0-.864 4.014v.246c.048 2.418.306 4.871.774 7.36.468 2.488 1.314 4.788 2.538 6.9.648.987 1.356 1.48 2.124 1.48.792 0 1.578-.346 2.358-1.039a14.553 14.553 0 0 0 2.106-2.324c.624-.857 1.104-1.578 1.44-2.165a53.805 53.805 0 0 0 2.053-4.066 20.748 20.748 0 0 1 .3-3.907 37.96 37.96 0 0 1 .595-2.848c.072-.215.162-.388.27-.52.107-.131.305-.209.593-.233.792 0 1.188.251 1.188.753v.18c-.04.133-.081.283-.124.45a.951.951 0 0 1 .201-.02c.144 0 .324.046.54.14.288.141.432.34.432.599 0 .305-.072.61-.216.915a.266.266 0 0 0-.036.106 78.95 78.95 0 0 1-1.869 4.585c-.006.178-.008.356-.008.535 0 1.146.15 2.156.45 3.028.3.872.846 1.403 1.637 1.595.144.023.312.035.504.035.96 0 2.057-.406 3.293-1.218 1.235-.812 2.47-1.804 3.706-2.974a49.01 49.01 0 0 0 3.329-3.459c.983-1.134 1.727-2.06 2.23-2.777l.217-.358a4.24 4.24 0 0 1 .396-.592c.144-.179.311-.268.503-.268a.32.32 0 0 1 .144.035c.072 0 .162.018.27.054.108.036.21.084.306.144.096.06.144.125.144.197v.036c-.528.979-1.35 2.162-2.465 3.547a47.457 47.457 0 0 1-3.778 4.14c-1.404 1.373-2.831 2.532-4.283 3.475-1.451.944-2.776 1.416-3.976 1.416-.24 0-.468-.024-.684-.072-1.463-.358-2.465-1.212-3.004-2.562a10.7 10.7 0 0 1-.343-.998l.275-.537a28.145 28.145 0 0 1-3.906 5.915c-.72.94-1.68 1.62-2.88 2.043a6.712 6.712 0 0 1-1.584.211c-1.2 0-2.244-.505-3.132-1.514-1.392-1.596-2.364-3.562-2.916-5.898a57.113 57.113 0 0 1-1.188-6.673v-.21c-.096-.54-.24-.81-.432-.81s-.396.158-.612.475c-.216.317-.408.604-.576.862 0 .024-.012.047-.036.07a43.523 43.523 0 0 1-3.456 5.018 20.555 20.555 0 0 1-4.428 4.103 2.97 2.97 0 0 1-1.656.492c-1.32 0-2.556-.622-3.708-1.866a8.877 8.877 0 0 1-1.17-2.077 18.27 18.27 0 0 1-.702-2.078c-.144-.446-.27-.81-.378-1.091-.108-.282-.21-.423-.306-.423-.168 0-.36.34-.576 1.021-.192.681-.504 1.632-.936 2.853a24.94 24.94 0 0 1-1.548 3.503c-.6 1.115-1.224 1.86-1.872 2.236a2.51 2.51 0 0 1-.972.211c-.624 0-1.164-.27-1.62-.81-.696-1.032-1.056-2.148-1.08-3.345a44.084 44.084 0 0 1-.072-2.5c0-2.605.36-5.164 1.08-7.676.048-.188.114-.37.198-.546.084-.176.234-.264.45-.264h.108c.624.118.936.352.936.705 0 .305-.12.68-.36 1.126-.192.446-.36.94-.504 1.48a24.445 24.445 0 0 0-.432 4.541c0 .728.012 1.503.036 2.324 0 .165.036.523.108 1.074a8.48 8.48 0 0 0 .36 1.585c.168.505.396.757.684.757.144 0 .3-.07.468-.211.432-.423.888-1.18 1.368-2.271a43.64 43.64 0 0 0 1.314-3.363c.396-1.15.678-2.03.846-2.641.288-1.01.552-2.007.792-2.993.168-.68.348-1.35.54-2.007.072-.258.192-.44.36-.546a.94.94 0 0 1 .954-.053c.132.07.234.153.306.247.384.704.612 1.702.684 2.993.096.939.27 2.03.522 3.275.252 1.244.738 2.605 1.458 4.084.552.962 1.224 1.444 2.016 1.444.528 0 1.104-.212 1.728-.634 1.584-1.22 2.904-2.576 3.96-4.067a53.309 53.309 0 0 0 2.952-4.666 58.308 58.308 0 0 1 2.088-3.485c.672-1.057 1.032-2.172 1.08-3.346.096-3.215.564-6.948 1.404-11.197.84-4.249 2.028-7.781 3.564-10.598.024-.024.036-.047.036-.07.216-.423.45-.787.702-1.092.252-.305.606-.458 1.062-.458Zm-56.944.282c-2.796 0-5.504.618-8.124 1.853-2.62 1.235-5.063 2.873-7.33 4.916a42.567 42.567 0 0 0-6.08 6.786c-1.785 2.481-3.253 4.993-4.405 7.534-1.15 2.54-1.903 4.916-2.255 7.124a21.568 21.568 0 0 0-.247 5.913c.165 1.781.711 3.396 1.64 4.845.927 1.449 2.39 2.541 4.387 3.277a16.16 16.16 0 0 0 4.687.713c1.363 0 2.708-.137 4.035-.41a31.295 31.295 0 0 0 3.86-1.05 10.537 10.537 0 0 0 2.537-1.248.41.41 0 0 0 .105-.07c.141-.072.27-.167.388-.286a.534.534 0 0 0 .211-.178c1.128-1.116 2.35-2.482 3.666-4.097a80.174 80.174 0 0 1 3.594-4.06 131.51 131.51 0 0 1 10.573-9.654.41.41 0 0 0 .106-.071 29.448 29.448 0 0 0 2.29-1.888c.423-.38.717-.748.881-1.105.165-.356.212-.807.141-1.353l-.035-.356c-.305-1.971-.828-4.138-1.568-6.501a19.922 19.922 0 0 0-3.383-6.43c-1.516-1.924-3.59-3.206-6.22-3.847a17.054 17.054 0 0 0-3.454-.357Zm68.08 19.79c.253.071.427.19.523.358.047.048.071.12.071.215v.215l-.143.43a81.027 81.027 0 0 1-.612 2.294c-.192.43-.42.645-.684.645-.192 0-.366-.09-.522-.27a.974.974 0 0 1-.234-.662v-.036c.048-.98.192-1.947.432-2.903.072-.19.222-.304.45-.34.228-.036.468-.018.72.054ZM323.58 12.239c-.144 0-.3.112-.468.335a2.69 2.69 0 0 0-.396.757 50.625 50.625 0 0 0-3.312 13.275 2.85 2.85 0 0 0-.036.387c0 .282.048.41.144.387.144 0 .348-.258.612-.774a39.941 39.941 0 0 0 2.268-6.409c.12-.352.288-.997.504-1.936.216-.94.426-1.931.63-2.976.204-1.044.306-1.848.306-2.412 0-.211-.024-.375-.072-.493-.048-.094-.108-.14-.18-.14Z" fill="#001233"/></svg>