<?xml version="1.0" standalone="no"?>
<!DOCTYPE svg PUBLIC "-//W3C//DTD SVG 1.1//EN" "http://www.w3.org/Graphics/SVG/1.1/DTD/svg11.dtd">
<svg xmlns="http://www.w3.org/2000/svg"><metadata>This SVG WebFont was generated by YouWorkForThem.
Copyright (c) 2020 by MadeType. All rights reserved.</metadata><defs><font horiz-adv-x="1171" id="ywftsvg"><font-face ascent="1638" bbox="-109 -514 2527 1978" cap-height="1434" descent="-410" font-family="" font-stretch="normal" font-weight="400" panose-1="2 0 5 3 0 0 0 2 0 4" underline-position="0" underline-thickness="0" unicode-range="U+0020-F6C3" units-per-em="2048" x-height="1038"/><missing-glyph horiz-adv-x="552"/><glyph glyph-name=".notdef" horiz-adv-x="552"/><glyph glyph-name="glyph1" horiz-adv-x="0"/><glyph glyph-name="glyph2" horiz-adv-x="681"/><glyph glyph-name="space" horiz-adv-x="552" unicode=" "/><glyph d="M270.5 229q53.5 0 91 -36.5t37.5 -90t-37.5 -90.5t-91 -37t-90.5 37t-37 90.5t37 90t90.5 36.5zM346 479q-2 -23 -18.5 -38t-36.5 -15h-39q-23 0 -39 15.5t-16 37.5l-27 899q0 23 16.5 39.5t38.5 16.5h90q23 0 39.5 -16.5t16.5 -39.5z" glyph-name="exclam" horiz-adv-x="542" unicode="!"/><glyph d="M199 958q-23 0 -39.5 16.5t-16.5 39.5v364q0 23 16.5 39.5t39.5 16.5h71q23 0 39.5 -16.5t16.5 -39.5v-364q0 -23 -16.5 -39.5t-39.5 -16.5h-71zM500 1378q0 23 16 39.5t39 16.5h72q23 0 39 -16.5t16 -39.5v-364q0 -23 -16.5 -39.5t-38.5 -16.5h-72q-23 0 -39 16.5 t-16 39.5v364z" glyph-name="quotedbl" horiz-adv-x="825" unicode="&quot;"/><glyph d="M1223 881q-6 -31 -37 -31h-197l-43 -262h189q16 0 27.5 -13.5t6.5 -29.5l-10 -72q-6 -31 -37 -31h-198l-52 -305q-6 -45 -53 -45h-61q-16 0 -26.5 12.5t-8.5 28.5l49 309h-293l-51 -305q-6 -45 -53 -45h-62q-16 0 -26.5 12.5t-7.5 28.5l49 309h-185q-16 0 -26.5 12.5 t-7.5 28.5l10 74q8 31 37 31h196l43 262h-188q-16 0 -26.5 12t-8.5 29l10 74q8 31 37 30h201l49 301q8 47 53 47h62q16 0 27.5 -13t9.5 -30l-52 -305h295l49 301q8 47 54 47h61q16 0 27.5 -13t7.5 -30l-49 -305h182q16 0 27.5 -13t9.5 -30zM797 588l43 262h-295l-43 -262 h295z" glyph-name="numbersign" horiz-adv-x="1341" unicode="#"/><glyph d="M1083 399q0 -156 -101 -275.5t-310 -143.5v-160q0 -18 -13.5 -31.5t-33.5 -13.5h-72q-20 0 -33.5 13t-13.5 32v157q-139 14 -253 81t-169 184q-10 20 0 42.5t35 30.5l96 31q45 14 66 -27q33 -66 109.5 -108.5t191.5 -42.5q125 0 208.5 55.5t83.5 159.5q0 35 -9 64.5 t-21.5 50t-38 38t-46 28.5t-60.5 22.5t-66.5 17.5t-77.5 17.5t-82 19.5q-203 49 -278.5 150.5t-75.5 257.5q0 160 108.5 270.5t278.5 134.5v160q0 20 13 32.5t34 12.5h72q20 0 33.5 -12.5t13.5 -32.5v-160q240 -37 332 -244q10 -23 -1.5 -46t-35.5 -29l-97 -23 q-41 -10 -61 29q-76 145 -281 127q-86 -10 -144 -71.5t-60 -147.5q0 -61 24.5 -104.5t77.5 -70t99 -40t126 -31.5q18 -4 29 -6q215 -51 309 -139.5t94 -258.5z" glyph-name="dollar" horiz-adv-x="1142" unicode="$"/><glyph d="M1264 1401q23 33 61 33h74q16 0 24.5 -14.5t-2.5 -28.5l-897 -1358q-20 -33 -59 -33h-74q-16 0 -24.5 14.5t2.5 28.5zM774 1081.5q0 -139.5 -98 -238t-237.5 -98.5t-238 98.5t-98.5 238t98.5 237.5t238 98t237.5 -98t98 -237.5zM248 1081.5q0 -77.5 56 -134t134 -56.5 t133.5 56.5t55.5 134t-55.5 134t-133.5 56.5t-134 -56.5t-56 -134zM1351.5 688q139.5 0 238 -98t98.5 -237.5t-98.5 -238t-238 -98.5t-237.5 98.5t-98 238t98 237.5t237.5 98zM1352 162q78 0 134 56t56 134t-56 134.5t-134 56.5t-134.5 -56.5t-56.5 -134.5t56.5 -134 t134.5 -56z" glyph-name="percent" horiz-adv-x="1789" unicode="%"/><glyph d="M1145 317q129 -117 270 -237q23 -20 12.5 -50t-43.5 -30h-114q-39 0 -72 27q-121 106 -164 145q-176 -197 -465 -197q-211 0 -355 116t-144 298q0 106 57 196.5t121.5 135.5t140.5 80q-106 166 -106 307q0 154 111.5 253t262.5 99q164 0 264.5 -97t100.5 -233 q0 -76 -28.5 -136t-88 -104t-110 -69.5t-131.5 -58.5q14 -14 53 -51t53 -52l27 -26q68 -63 207 -191q39 78 55 158q4 20 21.5 33.5t39.5 9.5l72 -10q25 -2 38 -21.5t9 -42.5q-28 -139 -94 -252zM657 1294q-78 0 -135 -46t-57 -140q0 -115 96 -240q141 53 210 114.5t69 147.5 q0 66 -49.5 115t-133.5 49zM565 139q223 0 332 154q-74 66 -225 209l-27 24q-61 59 -158 160q-236 -82 -235 -297q0 -109 90 -179.5t223 -70.5z" glyph-name="ampersand" horiz-adv-x="1509" unicode="&amp;"/><glyph d="M143 1378q0 23 16.5 39.5t39.5 16.5h73q23 0 38.5 -16.5t15.5 -39.5v-364q0 -23 -15.5 -39.5t-38.5 -16.5h-73q-23 0 -39.5 16.5t-16.5 39.5v364z" glyph-name="quotesingle" horiz-adv-x="468" unicode="'"/><glyph d="M510 1530q39 -29 16 -72q-201 -340 -200.5 -741.5t200.5 -741.5q23 -41 -16 -71l-39 -29q-20 -14 -42.5 -10t-37.5 24q-248 393 -248 827.5t248 827.5q14 20 37 24.5t43 -9.5z" glyph-name="parenleft" horiz-adv-x="673" unicode="("/><glyph d="M164 1530l41 29q18 14 41.5 10t36.5 -25q248 -393 247.5 -827t-247.5 -828q-12 -20 -36 -24t-42 10l-41 29q-39 33 -14 71q199 344 198.5 741.5t-198.5 741.5q-25 43 14 72z" glyph-name="parenright" horiz-adv-x="673" unicode=")"/><glyph d="M827 1143q4 -16 -4 -30.5t-22 -16.5l-250 -56l170 -192q10 -12 8 -27.5t-14 -25.5l-66 -47q-14 -10 -29.5 -7.5t-23.5 17.5l-129 219l-131 -219q-8 -14 -23.5 -17.5t-29.5 7.5l-66 47q-29 23 -6 53l170 192l-250 56q-14 2 -22.5 16t-4.5 31l25 76q14 37 49 22l236 -102 l-25 256q-2 16 9.5 27.5t27.5 11.5h80q16 0 27.5 -11.5t9.5 -27.5l-25 -256l236 102q14 6 29.5 -1t19.5 -21z" glyph-name="asterisk" horiz-adv-x="931" unicode="*"/><glyph d="M891 700q23 0 39 -15t16 -38v-74q0 -23 -16.5 -39t-38.5 -16h-256v-254q0 -23 -15.5 -39t-37.5 -16h-74q-23 0 -39 16.5t-16 38.5v254h-254q-23 0 -39.5 16.5t-16.5 38.5v74q0 23 16.5 38t39.5 15h254v256q0 23 16 39.5t39 16.5h74q23 0 38 -16.5t15 -39.5v-256h256z" glyph-name="plus" horiz-adv-x="1089" unicode="+"/><glyph d="M201 178q10 23 32.5 30t42.5 -5l72 -41q20 -12 25.5 -35t-6.5 -43l-174 -268q-29 -43 -74 -17l-33 19q-45 25 -23 71z" glyph-name="comma" horiz-adv-x="499" unicode=","/><glyph d="M143 647q0 23 15.5 38t38.5 15h548q23 0 38.5 -15t15.5 -38v-74q0 -23 -15.5 -39t-38.5 -16h-548q-23 0 -38.5 16.5t-15.5 38.5v74z" glyph-name="hyphen" horiz-adv-x="944" unicode="-"/><glyph d="M229.5 229q53.5 0 91 -36.5t37.5 -90t-37.5 -91.5t-91 -38t-90.5 38t-37 91.5t37 90t90.5 36.5z" glyph-name="period" horiz-adv-x="460" unicode="."/><glyph d="M678 1581q16 49 70 49h79q18 0 28.5 -14t6.5 -33l-561 -1730q-18 -49 -70 -50h-79q-18 0 -28.5 14.5t-6.5 32.5z" glyph-name="slash" horiz-adv-x="978" unicode="/"/><glyph d="M651 1458q119 0 215.5 -43t160 -113.5t105.5 -168t60 -201t18 -216t-18 -216t-60 -200.5t-105.5 -169t-160 -115t-215.5 -43t-215 43t-159.5 115t-105.5 169t-60.5 200.5t-18.5 216t18.5 216t60.5 201t105.5 168t159.5 113.5t215 43zM651.5 166q98.5 0 170 50t110.5 134 t56.5 175t17.5 191.5t-17.5 191.5t-56.5 175t-110.5 134.5t-170 50.5t-170 -50.5t-110.5 -134.5t-56.5 -175t-17.5 -191.5t17.5 -191.5t56.5 -175t110.5 -134t170 -50z" glyph-name="zero" horiz-adv-x="1302" unicode="0"/><glyph d="M475 1419q29 14 51 15h49q23 0 39.5 -16.5t16.5 -39.5v-1323q0 -23 -16.5 -39t-39.5 -16h-94q-23 0 -39 16.5t-16 38.5v1116l-225 -151q-18 -12 -41 -7t-35 25l-37 58q-27 45 16 73z" glyph-name="one" horiz-adv-x="897" unicode="1"/><glyph d="M397 184h537q20 0 36.5 -16t16.5 -37v-76q0 -23 -15.5 -39t-37.5 -16h-774q-23 0 -39.5 16.5t-16.5 38.5v51q0 33 25 62q129 141 291 332q14 18 58 69.5t63.5 74t56.5 68.5t55.5 71.5t44 65.5t38 68.5t21.5 60.5t9 58q0 109 -59.5 175.5t-165.5 66.5q-170 0 -234 -172 q-6 -20 -24.5 -29.5t-36.5 -5.5l-86 21q-23 4 -35 26.5t-4 44.5q51 143 169 220t273 77q174 0 290 -121.5t116 -302.5q0 -66 -20.5 -128t-83 -152t-107.5 -146.5t-169 -200t-192 -225.5z" glyph-name="two" horiz-adv-x="1110" unicode="2"/><glyph d="M813 758q258 -86 258 -334q0 -199 -133 -324t-365 -125q-158 0 -285.5 70t-176.5 184q-10 23 1 45.5t35 28.5l89 21q43 8 59 -29q74 -137 278 -137q135 0 215 67.5t80 198.5q0 88 -54 141t-116.5 68.5t-136.5 15.5h-76q-18 0 -31.5 13.5t-13.5 31.5v82q0 18 13.5 31.5 t31.5 13.5h76q104 0 178 53.5t74 174.5q0 96 -61.5 162.5t-178.5 66.5q-166 0 -233 -131q-18 -39 -61 -29l-82 19q-25 6 -36 29.5t-1 47.5q55 113 167.5 179.5t245.5 66.5q197 0 315 -111.5t118 -281.5q0 -213 -193 -309z" glyph-name="three" horiz-adv-x="1163" unicode="3"/><glyph d="M1126 504q23 0 39.5 -16.5t16.5 -38.5v-72q0 -23 -16.5 -39t-39.5 -16h-131v-267q0 -23 -16 -39t-39 -16h-96q-23 0 -39.5 16.5t-16.5 38.5v267h-632q-23 0 -39.5 16t-16.5 39v72q0 33 21 67l549 866q29 51 92 52h178q23 0 39 -16.5t16 -39.5v-874h131zM328 504h460v729z " glyph-name="four" horiz-adv-x="1284" unicode="4"/><glyph d="M602 926q209 0 339 -132t130 -333q0 -203 -137 -344.5t-365 -141.5q-156 0 -282.5 70t-175.5 182q-10 25 1 48.5t35 27.5l89 21q41 10 59 -29q74 -137 274 -137q133 0 218 85t85 218q0 135 -80.5 209.5t-209.5 74.5q-139 0 -246 -90q-35 -29 -80 -18l-68 16 q-47 14 -41 60l78 671q2 20 17.5 35t36.5 15h653q23 0 39 -16.5t16 -39.5v-75q0 -23 -16.5 -38.5t-38.5 -15.5h-543l-47 -409q119 86 260 86z" glyph-name="five" horiz-adv-x="1165" unicode="5"/><glyph d="M596 946q213 0 358.5 -135t145.5 -350q0 -203 -138.5 -344.5t-365.5 -141.5t-365.5 141.5t-138.5 344.5q0 90 34 185t57.5 132t68.5 105l348 503q33 47 90 48h103q23 0 33 -19.5t-5 -38.5l-313 -440q45 10 88 10zM596 158q129 0 216 85t87 218q0 135 -89 219t-214 84 q-131 0 -217 -85t-86 -218t87 -218t216 -85z" glyph-name="six" horiz-adv-x="1191" unicode="6"/><glyph d="M102 1378q0 23 15.5 39.5t38.5 16.5h768q23 0 39 -16.5t16 -39.5v-75q0 -23 -10 -48l-484 -1220q-14 -35 -51 -35h-115q-20 0 -31.5 16.5t-2.5 32.5l477 1200h-606q-20 0 -37 16.5t-17 37.5v75z" glyph-name="seven" horiz-adv-x="1081" unicode="7"/><glyph d="M889 774q113 -55 176 -150.5t63 -215.5q0 -193 -143 -314t-374.5 -121t-375 121t-143.5 314q0 121 64.5 216t175.5 150q-166 100 -166 299q0 166 117.5 275.5t326.5 109.5t328 -109.5t119 -275.5q0 -199 -168 -299zM610 1276q-113 0 -180.5 -58.5t-67.5 -154.5 q0 -98 72 -156.5t176.5 -58.5t177 58.5t72.5 156.5q0 96 -67.5 154.5t-182.5 58.5zM610 156q133 0 218 69.5t85 188.5q0 125 -86 190.5t-217 65.5t-217 -65.5t-86 -190.5q0 -119 85 -188.5t218 -69.5z" glyph-name="eight" horiz-adv-x="1220" unicode="8"/><glyph d="M596 487q-213 0 -358.5 135.5t-145.5 350.5q0 203 139.5 345t364.5 142t364.5 -142t139.5 -345q0 -90 -34 -185.5t-56.5 -130t-69.5 -104.5l-348 -506q-33 -47 -90 -47h-103q-23 0 -33 19.5t3 37.5l315 441q-45 -11 -88 -11zM596 1278q-129 0 -216 -86t-87 -219 q0 -135 89 -219t214 -84q131 0 217 85t86 218t-87 219t-216 86z" glyph-name="nine" horiz-adv-x="1193" unicode="9"/><glyph d="M250 229q53 0 91 -36.5t38 -90t-38 -91.5t-91 -38t-90 38t-37 91.5t37 90t90 36.5zM250 807q-53 0 -90 38t-37 91q0 51 37 89t90 38t91 -37t38 -90t-38 -91t-91 -38z" glyph-name="colon" horiz-adv-x="501" unicode=":"/><glyph d="M319.5 807q-53.5 0 -91.5 38t-38 91t38 90t91.5 37t90 -38t36.5 -89q0 -53 -36.5 -91t-90 -38zM104 -182q-43 25 -22 71l139 289q10 23 31.5 30t44.5 -5l72 -41q20 -12 25 -35t-7 -43l-176 -268q-10 -18 -31.5 -22.5t-40.5 5.5z" glyph-name="semicolon" horiz-adv-x="569" unicode=";"/><glyph d="M858 977q18 8 34.5 -3t16.5 -30v-80q0 -47 -45 -67l-561 -234l561 -233q45 -16 45 -68v-78q0 -20 -16 -30.5t-35 -1.5l-672 290q-43 20 -43 68v108q0 49 43 66z" glyph-name="less" horiz-adv-x="1052" unicode="&lt;"/><glyph d="M143 829q0 23 16.5 38.5t39.5 15.5h657q23 0 38 -15.5t15 -38.5v-73q0 -23 -15 -39.5t-38 -16.5h-657q-23 0 -39.5 16.5t-16.5 39.5v73zM199 336q-23 0 -39.5 16.5t-16.5 38.5v74q0 23 16.5 38t39.5 15h657q20 0 36.5 -15.5t16.5 -37.5v-74q0 -23 -15 -39t-38 -16h-657z " glyph-name="equal" horiz-adv-x="1052" unicode="="/><glyph d="M195 152q-18 -8 -35 2t-17 30v78q0 51 45 68l562 233l-562 234q-45 20 -45 67v80q0 18 16.5 29.5t35.5 3.5l671 -293q43 -16 43 -66v-108q0 -47 -43 -68z" glyph-name="greater" horiz-adv-x="1052" unicode=">"/><glyph d="M479 229q53 0 90 -36.5t37 -90t-37 -90.5t-90 -37t-91 37t-38 90.5t38 90t91 36.5zM688 1061q0 88 -58.5 152.5t-158.5 64.5q-145 0 -209 -133q-20 -47 -74 -37l-67 18q-25 6 -36 29t-1 45q53 127 162.5 193.5t242.5 66.5q164 0 281 -112.5t117 -268.5q0 -84 -29 -152.5 t-71 -118.5t-86 -96t-78.5 -106.5t-42.5 -130.5q-8 -49 -56 -49h-84q-25 0 -41 18.5t-14 42.5q8 82 43 152t78 118t85 93t69.5 98.5t27.5 112.5z" glyph-name="question" horiz-adv-x="946" unicode="?"/><glyph d="M971 1493q190 0 349 -61.5t261 -164t158.5 -233.5t56.5 -274q0 -219 -104.5 -351.5t-245.5 -132.5q-164 0 -219 170q-109 -160 -314 -159q-168 0 -274.5 117.5t-106.5 283.5q0 164 111 283t279 119q182 0 290 -148v82q0 20 12.5 33.5t32.5 13.5h43q18 0 32 -13.5 t14 -33.5v-397q0 -72 5 -114t31.5 -77t75.5 -35q92 0 150.5 101.5t58.5 257.5q0 264 -193.5 443t-500.5 181q-297 2 -509 -202.5t-212 -499.5q2 -307 204.5 -498.5t485.5 -191.5q215 0 373 108q33 27 61 -6l21 -24q12 -14 9 -35t-20 -33q-178 -119 -444 -119 q-356 0 -586.5 228.5t-230.5 572.5q0 348 234.5 578.5t611.5 230.5zM952 436q117 0 184.5 78t67.5 174q0 104 -73.5 177t-178.5 73q-102 0 -177 -70.5t-75 -179.5q0 -111 71.5 -181.5t180.5 -70.5z" glyph-name="at" horiz-adv-x="1916" unicode="@"/><glyph d="M1169 0q-51 0 -69 49l-105 297h-614l-105 -297q-18 -49 -67 -49h-119q-18 0 -29.5 15.5t-3.5 33.5l498 1337q16 47 68 48h131q51 0 67 -48l500 -1337q6 -18 -5 -33.5t-30 -15.5h-117zM449 532h481l-242 682z" glyph-name="A" horiz-adv-x="1380" unicode="A"/><glyph d="M924 748q231 -86 231 -332q0 -188 -126 -302t-365 -114h-465q-23 0 -39.5 16.5t-16.5 38.5v1323q0 23 16.5 39.5t39.5 16.5h411q236 0 361 -102.5t125 -278.5q0 -203 -172 -301v-4zM610 1247h-262v-432h244q299 0 299 221q0 211 -281 211zM664 186q131 0 205.5 58.5 t74.5 171.5q0 123 -84 176t-215 53h-297v-459h316z" glyph-name="B" horiz-adv-x="1236" unicode="B"/><glyph d="M821 166q223 0 369 151q33 35 70 9l77 -52q23 -14 26 -39.5t-15 -44.5q-209 -215 -527 -215q-315 0 -522 212t-207 529.5t207 530.5t522 213q319 0 527 -217q18 -18 15 -43.5t-26 -40.5l-77 -51q-37 -25 -70 8q-145 152 -369 152q-238 0 -379 -164t-141 -387t141 -387 t379 -164z" glyph-name="C" horiz-adv-x="1441" unicode="C"/><glyph d="M549 1434q354 0 550.5 -201t196.5 -516.5t-196.5 -516t-550.5 -200.5h-350q-23 0 -39.5 16.5t-16.5 38.5v1323q0 23 16.5 39.5t39.5 16.5h350zM549 186q252 0 396.5 143.5t144.5 387.5t-144.5 387t-396.5 143h-201v-1061h201z" glyph-name="D" horiz-adv-x="1388" unicode="D"/><glyph d="M348 186h549q23 0 39 -15t16 -38v-78q0 -23 -16 -39t-39 -16h-700q-23 0 -38.5 16.5t-15.5 38.5v1323q0 23 15.5 39.5t38.5 16.5h682q23 0 39 -16.5t16 -39.5v-75q0 -23 -16.5 -39.5t-38.5 -16.5h-531v-411h483q23 0 39.5 -16.5t16.5 -39.5v-75q0 -23 -16.5 -39.5 t-39.5 -16.5h-483v-463z" glyph-name="E" horiz-adv-x="1056" unicode="E"/><glyph d="M965 1303q0 -23 -16.5 -39.5t-39.5 -16.5h-561v-426h483q23 0 39.5 -15t16.5 -38v-78q0 -23 -16.5 -39t-39.5 -16h-483v-580q0 -23 -15.5 -39t-37.5 -16h-96q-23 0 -39.5 16.5t-16.5 38.5v1323q0 23 16.5 39.5t39.5 16.5h710q23 0 39.5 -16.5t16.5 -39.5v-75z" glyph-name="F" horiz-adv-x="1067" unicode="F"/><glyph d="M840 721q0 23 16 38t39 15h530q23 0 39.5 -15.5t16.5 -37.5v-676q0 -18 -13.5 -31.5t-33.5 -13.5h-43q-41 0 -45 43l-15 193q-158 -260 -510 -261q-315 0 -522 212t-207 529.5t207 530.5t522 213q319 0 527 -217q18 -18 15 -43.5t-26 -40.5l-77 -51q-37 -25 -70 8 q-145 152 -369 152q-238 0 -379 -164t-141 -387t141.5 -387t378.5 -164q215 0 342 117.5t154 304.5h-422q-23 0 -39 16.5t-16 38.5v78z" glyph-name="G" horiz-adv-x="1601" unicode="G"/><glyph d="M1028 1378q0 23 16.5 39.5t38.5 16.5h95q23 0 39 -16.5t16 -39.5v-1323q0 -23 -16.5 -39t-38.5 -16h-95q-23 0 -39 16.5t-16 38.5v576h-680v-576q0 -23 -16.5 -39t-38.5 -16h-94q-23 0 -39.5 16.5t-16.5 38.5v1323q0 23 16.5 39.5t39.5 16.5h94q23 0 39 -16.5t16 -39.5 v-561h680v561z" glyph-name="H" horiz-adv-x="1376" unicode="H"/><glyph d="M143 1378q0 23 16.5 39.5t39.5 16.5h96q23 0 39 -16.5t16 -39.5v-1323q0 -23 -16.5 -39t-38.5 -16h-96q-23 0 -39.5 16.5t-16.5 38.5v1323z" glyph-name="I" horiz-adv-x="491" unicode="I"/><glyph d="M870 1434h95q23 0 39 -16.5t16 -39.5v-915q0 -225 -112.5 -356.5t-358.5 -131.5q-195 0 -320 92.5t-157 243.5q-6 27 9 49.5t42 26.5l90 16q20 4 38.5 -7t24.5 -31q20 -84 87 -141.5t186 -57.5q266 0 266 297v915q0 23 16 39.5t39 16.5z" glyph-name="J" horiz-adv-x="1163" unicode="J"/><glyph d="M1128 76q20 -23 7 -49.5t-41 -26.5h-121q-39 0 -70 31l-555 639v-615q0 -23 -15.5 -39t-37.5 -16h-96q-23 0 -39.5 16.5t-16.5 38.5v1323q0 23 16.5 39.5t39.5 16.5h96q23 0 38 -16.5t15 -39.5v-628l520 649q29 35 72 35h107q29 0 41 -27t-7 -47l-516 -635z" glyph-name="K" horiz-adv-x="1234" unicode="K"/><glyph d="M348 186h535q23 0 39 -15t16 -38v-78q0 -23 -16.5 -39t-38.5 -16h-684q-23 0 -39.5 16.5t-16.5 38.5v1323q0 23 16.5 39.5t39.5 16.5h94q23 0 39 -16.5t16 -39.5v-1192z" glyph-name="L" horiz-adv-x="1019" unicode="L"/><glyph d="M1380 1393q29 41 76 41h103q23 0 39 -16.5t16 -39.5v-1323q0 -23 -16.5 -39t-38.5 -16h-97q-23 0 -38 16.5t-15 38.5v1000l-479 -707q-14 -20 -39 -20h-25q-23 0 -39 20l-479 707v-1000q0 -23 -15.5 -39t-37.5 -16h-96q-23 0 -39.5 16.5t-16.5 38.5v1323q0 23 16.5 39.5 t39.5 16.5h102q47 0 76 -41l502 -748z" glyph-name="M" horiz-adv-x="1757" unicode="M"/><glyph d="M1065 1378q0 23 16.5 39.5t38.5 16.5h97q23 0 38 -16.5t15 -39.5v-1323q0 -23 -15.5 -39t-37.5 -16h-78q-47 0 -74 39l-717 1018v-1002q0 -23 -15.5 -39t-37.5 -16h-96q-23 0 -39.5 16.5t-16.5 38.5v1323q0 23 16.5 39.5t39.5 16.5h75q47 0 76 -39l715 -1016v999z" glyph-name="N" horiz-adv-x="1413" unicode="N"/><glyph d="M821 1458q315 0 521 -212t206 -529.5t-205.5 -530.5t-521.5 -213q-317 0 -523 213t-206 530.5t206 529.5t523 212zM821.5 166q237.5 0 378.5 164t141 387t-141 387t-378.5 164t-379 -164t-141.5 -387t141.5 -387t379 -164z" glyph-name="O" horiz-adv-x="1640" unicode="O"/><glyph d="M602 1434q238 0 377 -132.5t139 -335t-139 -335.5t-377 -133h-254v-443q0 -23 -15.5 -39t-37.5 -16h-96q-23 0 -39.5 16.5t-16.5 38.5v1323q0 23 16.5 39.5t39.5 16.5h403zM602 686q143 0 225 77t82 204t-82 203.5t-225 76.5h-254v-561h254z" glyph-name="P" horiz-adv-x="1200" unicode="P"/><glyph d="M1548 717q0 -295 -182 -504l107 -107q16 -16 16 -38.5t-16 -38.5l-54 -54q-14 -16 -37.5 -15t-38.5 17l-114 115q-182 -117 -408 -117q-317 0 -523 212t-206 529.5t206 530.5t523 213q315 0 521 -213t206 -530zM821 166q145 0 264 70l-178 180q-16 16 -16 39.5t16 38.5 l51 51q16 16 40 16t38 -16l187 -187q117 152 116 359q0 223 -140 387t-378 164q-240 0 -380 -164t-140 -387t140 -387t380 -164z" glyph-name="Q" horiz-adv-x="1640" unicode="Q"/><glyph d="M1145 68q12 -23 0 -45.5t-39 -22.5h-113q-57 0 -80 49l-272 506q-18 -2 -55 -2h-238v-498q0 -23 -15.5 -39t-37.5 -16h-96q-23 0 -39.5 16.5t-16.5 38.5v1323q0 23 16.5 39.5t39.5 16.5h387q240 0 377 -124t137 -317q0 -131 -66.5 -234.5t-191.5 -156.5zM348 739h238 q145 0 225 69t80 185.5t-80 185t-225 68.5h-238v-508z" glyph-name="R" horiz-adv-x="1224" unicode="R"/><glyph d="M680 797q215 -51 309 -139.5t94 -258.5q0 -80 -28.5 -151.5t-86 -135t-157.5 -100.5t-233 -37q-160 0 -295.5 67t-198.5 200q-10 20 0 42.5t35 30.5l96 31q45 14 66 -27q33 -66 109.5 -108.5t191.5 -42.5q125 0 208.5 55.5t83.5 159.5q0 35 -9 64.5t-21.5 50t-38 38 t-46 28.5t-60.5 22.5t-66.5 17.5t-77.5 17.5t-82 19.5q-203 49 -278.5 150.5t-75.5 257.5q0 180 136 295.5t337 115.5q139 0 248.5 -65.5t163.5 -184.5q10 -23 -1.5 -46t-35.5 -29l-97 -23q-41 -10 -61 29q-76 145 -281 127q-86 -10 -144 -71.5t-60 -147.5 q0 -61 24.5 -104.5t77.5 -70t99 -40t126 -31.5q19 -4 29 -6z" glyph-name="S" horiz-adv-x="1144" unicode="S"/><glyph d="M956 1434q23 0 39.5 -16.5t16.5 -39.5v-75q0 -23 -16.5 -39.5t-39.5 -16.5h-307v-1192q0 -23 -16.5 -39t-38.5 -16h-94q-23 0 -39.5 16.5t-16.5 38.5v1192h-307q-23 0 -39 16.5t-16 39.5v75q0 23 16.5 39.5t38.5 16.5h819z" glyph-name="T" horiz-adv-x="1093" unicode="T"/><glyph d="M1083 1434h95q23 0 39 -16.5t16 -39.5v-833q0 -279 -140.5 -424.5t-404.5 -145.5q-262 0 -403.5 145.5t-141.5 424.5v833q0 23 16.5 39.5t39.5 16.5h96q23 0 39 -16.5t16 -39.5v-796q0 -414 338 -414q340 0 340 414v796q0 23 16 39.5t39 16.5z" glyph-name="U" horiz-adv-x="1376" unicode="U"/><glyph d="M1104 1384q16 49 67 50h119q18 0 29.5 -15.5t3.5 -34.5l-498 -1337q-16 -47 -67 -47h-131q-51 0 -68 47l-500 1337q-6 18 5.5 34t29.5 16h117q53 0 70 -50l411 -1165z" glyph-name="V" horiz-adv-x="1382" unicode="V"/><glyph d="M1745 1382q16 51 70 52h118q18 0 28.5 -15.5t4.5 -32.5l-428 -1335q-16 -51 -70 -51h-88q-55 0 -69 51l-299 965l-299 -965q-14 -51 -70 -51h-88q-53 0 -70 51l-428 1335q-6 16 4.5 32t28.5 16h119q53 0 70 -52l321 -1060l326 1060q16 51 69 52h33q53 0 70 -52l325 -1060 z" glyph-name="W" horiz-adv-x="2023" unicode="W"/><glyph d="M1206 55q12 -16 2 -35.5t-32 -19.5h-134q-49 0 -75 43l-324 510l-326 -510q-27 -43 -75 -43h-133q-23 0 -33 19.5t2 35.5l430 674l-395 649q-12 18 -2 37t32 19h131q53 0 80 -45l289 -492l289 492q27 45 78 45h131q23 0 33 -18.5t0 -37.5l-398 -649z" glyph-name="X" horiz-adv-x="1282" unicode="X"/><glyph d="M1251 1434q20 0 30.5 -18.5t0.5 -37.5l-502 -841v-482q0 -23 -16 -39t-39 -16h-94q-23 0 -39.5 16.5t-16.5 38.5v482l-501 841q-10 18 0 37t30 19h115q55 0 78 -45l381 -668l381 668q27 45 78 45h114z" glyph-name="Y" horiz-adv-x="1355" unicode="Y"/><glyph d="M348 186h690q23 0 39.5 -15t16.5 -38v-78q0 -23 -16.5 -39t-39.5 -16h-901q-23 0 -39 16.5t-16 38.5v56q0 39 22 71l723 1065h-653q-23 0 -39 16.5t-16 39.5v75q0 23 16.5 39.5t38.5 16.5h846q23 0 39 -16.5t16 -39.5v-57q0 -41 -20 -70z" glyph-name="Z" horiz-adv-x="1175" unicode="Z"/><glyph d="M555 1509q0 -23 -16.5 -38t-38.5 -15h-174v-1476h174q23 0 39 -16.5t16 -39.5v-67q0 -23 -16.5 -38.5t-38.5 -15.5h-301q-23 0 -39.5 15.5t-16.5 38.5v1720q0 23 16.5 38t39.5 15h301q23 0 39 -15.5t16 -37.5v-68z" glyph-name="bracketleft" horiz-adv-x="677" unicode="["/><glyph d="M301 1581l559 -1731q6 -18 -4 -32.5t-29 -14.5h-79q-51 0 -70 50l-561 1730q-4 18 6 32.5t29 14.5h79q54 0 70 -49z" glyph-name="backslash" horiz-adv-x="978" unicode="\"/><glyph d="M121 1509v68q0 23 16.5 38t38.5 15h301q23 0 39 -15.5t16 -37.5v-1720q0 -23 -16 -38.5t-39 -15.5h-301q-23 0 -39 15.5t-16 38.5v67q0 23 16.5 39.5t38.5 16.5h174v1476h-174q-23 0 -39 15t-16 38z" glyph-name="bracketright" horiz-adv-x="675" unicode="]"/><glyph d="M948 877q10 -18 0 -36t-33 -18h-90q-43 0 -65 37l-219 406l-219 -406q-23 -37 -66 -37h-92q-20 0 -30.5 17.5t-0.5 36.5l289 512q29 45 80 45h78q51 0 79 -45z" glyph-name="asciicircum" horiz-adv-x="1081" unicode="^"/><glyph d="M61 -225q0 18 13.5 31.5t31.5 13.5h658q18 0 31.5 -13.5t13.5 -31.5v-74q0 -18 -13.5 -31.5t-31.5 -13.5h-658q-18 0 -31.5 13.5t-13.5 31.5v74z" glyph-name="underscore" horiz-adv-x="872" unicode="_"/><glyph d="M299 1489q45 0 66 -41l96 -207q6 -14 -2 -26.5t-23 -12.5h-65q-29 0 -45 25l-144 205q-12 18 -2 37.5t33 19.5h86z" glyph-name="grave" horiz-adv-x="622" unicode="`"/><glyph d="M965 983q0 23 16 39t39 16h78q23 0 39 -16t16 -39v-928q0 -23 -16.5 -39t-38.5 -16h-78q-23 0 -39 16.5t-16 38.5v90q-133 -170 -377 -170q-231 0 -373.5 164t-142.5 379q0 217 142 381t374 164q244 0 377 -170v90zM606 152q168 0 263.5 103t95.5 263t-95.5 264.5 t-263.5 104.5q-158 0 -251 -103.5t-93 -265.5q0 -160 93 -263t251 -103z" glyph-name="a" horiz-adv-x="1286" unicode="a"/><glyph d="M696 1063q231 0 374.5 -164t143.5 -381q0 -215 -143 -379t-375 -164q-240 0 -377 170v-90q0 -23 -16 -39t-39 -16h-76q-23 0 -39 16.5t-16 38.5v1323q0 23 16.5 39.5t38.5 16.5h76q23 0 39 -16.5t16 -39.5v-485q137 170 377 170zM678 152q158 0 251 103t93 263 q0 162 -93 265.5t-251 103.5q-166 0 -262.5 -104.5t-96.5 -264.5q0 -158 96.5 -262t262.5 -104z" glyph-name="b" horiz-adv-x="1286" unicode="b"/><glyph d="M616 152q176 0 275 129q29 37 70 14l63 -35q23 -12 27 -36.5t-11 -45.5q-160 -203 -424 -203q-233 0 -388.5 158t-155.5 385t155.5 386t388.5 159q264 0 424 -203q14 -20 10.5 -44.5t-26.5 -37.5l-63 -35q-41 -23 -70 15q-98 129 -275 129q-154 0 -253 -104.5t-99 -264.5 q0 -158 99 -262t253 -104z" glyph-name="c" horiz-adv-x="1118" unicode="c"/><glyph d="M967 1378q0 23 15 39.5t38 16.5h78q23 0 39 -16.5t16 -39.5v-1323q0 -23 -16.5 -39t-38.5 -16h-78q-23 0 -38 16.5t-15 38.5v90q-137 -170 -379 -170q-231 0 -373.5 164t-142.5 379q0 217 142 381t374 164q242 0 379 -170v485zM606 152q168 0 264.5 103t96.5 263 t-96.5 264.5t-264.5 104.5q-158 0 -251 -103.5t-93 -265.5q0 -160 93 -263t251 -103z" glyph-name="d" horiz-adv-x="1286" unicode="d"/><glyph d="M596 1063q209 0 360.5 -152.5t143.5 -400.5q0 -29 -21.5 -50.5t-50.5 -21.5h-760q25 -131 118 -208.5t243 -77.5q145 0 243 88q31 29 66 4l61 -39q23 -14 26 -40t-13 -44q-145 -145 -383 -146q-252 0 -404.5 156t-152.5 387q0 229 149.5 387t374.5 158zM268 600h637 q-18 133 -99 210t-210 77q-131 0 -218 -78t-110 -209z" glyph-name="e" horiz-adv-x="1173" unicode="e"/><glyph d="M612 1303q-115 0 -151.5 -64.5t-38.5 -200.5h186q23 0 39.5 -16t16.5 -39v-68q0 -23 -16.5 -39t-39.5 -16h-186v-805q0 -23 -15.5 -39t-37.5 -16h-78q-23 0 -39 16.5t-16 38.5v805h-111q-23 0 -38 16.5t-15 38.5v68q0 23 15 39t38 16h111q0 422 356 422q6 0 14 -1t12 -1 q18 0 32 -13t14 -32v-63q0 -20 -13.5 -33.5t-34.5 -13.5h-4z" glyph-name="f" horiz-adv-x="724" unicode="f"/><glyph d="M944 983q0 23 16.5 39t38.5 16h76q23 0 39 -16t16 -39v-874q0 -236 -132 -379.5t-398 -143.5q-274 0 -430 156q-18 18 -14 45t26 41l66 39q37 23 65 -6q94 -98 287 -99q176 0 260 99.5t84 265.5v80q-127 -178 -354 -178q-219 0 -367.5 158.5t-148.5 359.5t148.5 358.5 t367.5 157.5q225 0 354 -176v96zM608 207q147 0 241.5 96t94.5 244q0 143 -90 239.5t-233.5 100.5t-250 -96.5t-106.5 -243.5q0 -145 99.5 -242.5t244.5 -97.5z" glyph-name="g" horiz-adv-x="1263" unicode="g"/><glyph d="M639 1063q172 0 285.5 -122t113.5 -292v-594q0 -23 -16 -39t-39 -16h-78q-23 0 -38 16.5t-15 38.5v541q0 123 -61.5 207t-196.5 84t-205 -91t-70 -200v-541q0 -23 -16 -39t-39 -16h-78q-23 0 -38 16.5t-15 38.5v1323q0 23 15.5 39.5t37.5 16.5h78q23 0 39 -16.5t16 -39.5 v-485q113 170 320 170z" glyph-name="h" horiz-adv-x="1173" unicode="h"/><glyph d="M190 0q-23 0 -39 16.5t-16 38.5v928q0 23 16.5 39t38.5 16h76q23 0 39.5 -16t16.5 -39v-928q0 -23 -16.5 -39t-39.5 -16h-76zM227 1223q-43 0 -74.5 30.5t-31.5 75.5t31.5 76t74.5 31q45 0 76 -31t31 -76t-31 -75.5t-76 -30.5z" glyph-name="i" horiz-adv-x="454" unicode="i"/><glyph d="M135 18v965q0 23 16.5 39t38.5 16h78q23 0 38.5 -16t15.5 -39v-1001q0 -158 -90.5 -258.5t-268.5 -100.5h-26q-18 0 -32 13.5t-14 31.5v78q0 18 12.5 31.5t30.5 13.5q115 8 158 64.5t43 162.5zM229 1223q-45 0 -75.5 30.5t-30.5 75.5t30.5 76t75.5 31t76 -31t31 -76 t-31 -75.5t-76 -30.5z" glyph-name="j" horiz-adv-x="454" unicode="j"/><glyph d="M520 553l416 -494q16 -16 6 -37.5t-33 -21.5h-123q-43 0 -69 33l-395 467v-445q0 -23 -16.5 -39t-39.5 -16h-78q-23 0 -39 16.5t-16 38.5v1323q0 23 16.5 39.5t38.5 16.5h78q23 0 39.5 -16.5t16.5 -39.5v-800l348 426q29 35 71 34h105q23 0 33 -21.5t-5 -37.5z" glyph-name="k" horiz-adv-x="1028" unicode="k"/><glyph d="M133 1378q0 23 16.5 39.5t38.5 16.5h78q23 0 38 -16.5t15 -39.5v-1323q0 -23 -15 -39t-38 -16h-78q-23 0 -39 16.5t-16 38.5v1323z" glyph-name="l" horiz-adv-x="452" unicode="l"/><glyph d="M1229 1063q152 0 258 -107.5t106 -269.5v-631q0 -23 -15 -39t-38 -16h-78q-23 0 -39 16.5t-16 38.5v578q0 115 -56.5 184.5t-164.5 69.5q-106 0 -168 -75t-62 -179v-578q0 -23 -15 -39t-38 -16h-78q-23 0 -39 16.5t-16 38.5v578q0 115 -56.5 184.5t-164.5 69.5 q-106 0 -168 -75t-62 -179v-578q0 -23 -15 -39t-38 -16h-78q-23 0 -39 16.5t-16 38.5v928q0 23 16.5 39t38.5 16h78q23 0 38 -16t15 -39v-68q102 147 281 148q92 0 170 -45t127 -121q119 166 332 166z" glyph-name="m" horiz-adv-x="1726" unicode="m"/><glyph d="M639 1063q172 0 285.5 -122t113.5 -292v-594q0 -23 -16 -39t-39 -16h-78q-23 0 -38 16.5t-15 38.5v541q0 123 -61.5 207t-196.5 84t-205 -91t-70 -200v-541q0 -23 -16 -39t-39 -16h-78q-23 0 -38 16.5t-15 38.5v928q0 23 15.5 39t37.5 16h78q23 0 39 -16t16 -39v-90 q113 170 320 170z" glyph-name="n" unicode="n"/><glyph d="M616.5 1063q233.5 0 389 -159t155.5 -386t-155.5 -386t-389 -159t-389 159t-155.5 386t155.5 386t389 159zM616.5 152q153.5 0 254 104t100.5 262q0 160 -100.5 264.5t-254 104.5t-253 -104.5t-99.5 -264.5q0 -158 99.5 -262t253 -104z" glyph-name="o" horiz-adv-x="1232" unicode="o"/><glyph d="M696 1063q231 0 374.5 -164t143.5 -381q0 -215 -143 -379t-375 -164q-240 0 -377 170v-485q0 -23 -16 -39t-39 -16h-78q-23 0 -38 16.5t-15 38.5v1323q0 23 15.5 39t37.5 16h78q23 0 39 -16t16 -39v-90q137 170 377 170zM678 152q158 0 251 103t93 263q0 162 -93 265.5 t-251 103.5q-166 0 -262.5 -104.5t-96.5 -264.5q0 -158 96.5 -262t262.5 -104z" glyph-name="p" horiz-adv-x="1286" unicode="p"/><glyph d="M967 983q0 23 15 39t38 16h78q23 0 39 -16t16 -39v-1323q0 -23 -16.5 -39t-38.5 -16h-78q-23 0 -38 16.5t-15 38.5v485q-137 -170 -379 -170q-231 0 -373.5 164t-142.5 379q0 217 142 381t374 164q242 0 379 -170v90zM606 152q168 0 264.5 103t96.5 263t-96.5 264.5 t-264.5 104.5q-158 0 -251 -103.5t-93 -265.5q0 -160 93 -263t251 -103z" glyph-name="q" horiz-adv-x="1286" unicode="q"/><glyph d="M319 858q45 92 128 143.5t180 59.5q16 2 28.5 -8.5t12.5 -26.5v-133q0 -14 -11.5 -25.5t-27.5 -11.5q-96 4 -162 -27.5t-95.5 -95t-41 -126t-11.5 -142.5v-410q0 -23 -15 -39t-38 -16h-78q-23 0 -39 16.5t-16 38.5v928q0 23 16.5 39t38.5 16h78q23 0 38 -16t15 -39v-125z " glyph-name="r" horiz-adv-x="737" unicode="r"/><glyph d="M528 602q188 -39 264 -105.5t76 -185.5q0 -145 -105.5 -240.5t-301.5 -95.5q-135 0 -240.5 46.5t-154.5 130.5q-12 23 -2 46t32 31l82 29q39 12 64 -22q57 -90 223 -91q100 0 155.5 39t55.5 109q0 35 -17.5 59.5t-55.5 39t-69.5 21.5t-90 17t-87.5 16q-279 66 -278 291 q0 143 107.5 234.5t277.5 91.5q109 0 198 -46t132 -130q12 -23 1.5 -47.5t-34.5 -30.5l-74 -21q-39 -10 -59 23q-55 86 -183 86q-78 0 -127 -41t-49 -104q0 -25 7.5 -44.5t24.5 -32.5t32.5 -22.5t44.5 -17.5t47 -12.5t53 -10.5t51 -10z" glyph-name="s" horiz-adv-x="927" unicode="s"/><glyph d="M649 915q0 -23 -16.5 -39t-38.5 -16h-186v-454q0 -55 2 -84t10 -66t24.5 -54.5t48 -29.5t78.5 -12h29q20 2 34.5 -11.5t14.5 -33.5v-76q0 -41 -41 -45q-37 -4 -59 -4q-328 0 -328 350v520h-123q-23 0 -39 16.5t-16 38.5v68q0 23 16.5 39t38.5 16h123v164q0 23 16.5 38 t38.5 15h76q23 0 39.5 -15t16.5 -38v-164h186q23 0 39 -16t16 -39v-68z" glyph-name="t" horiz-adv-x="751" unicode="t"/><glyph d="M907 1038h78q23 0 38 -16t15 -39v-928q0 -23 -15 -39t-38 -16h-78q-23 0 -39 16.5t-16 38.5v90q-111 -170 -320 -170q-172 0 -285.5 122t-113.5 292v594q0 23 16.5 39t38.5 16h78q23 0 38 -16t15 -39v-541q0 -123 61.5 -206.5t197 -83.5t205 91t69.5 199v541q0 23 16 39 t39 16z" glyph-name="u" unicode="u"/><glyph d="M836 991q20 47 69 47h90q25 0 38.5 -19.5t4.5 -41.5l-362 -930q-16 -47 -68 -47h-112q-51 0 -68 47l-360 930q-8 20 5 40.5t36 20.5h92q51 0 67 -47l285 -766z" glyph-name="v" horiz-adv-x="1101" unicode="v"/><glyph d="M1321 987q14 51 70 51h90q23 0 37 -19.5t6 -41.5l-312 -928q-18 -49 -69 -49h-70q-53 0 -69 51l-211 656l-209 -656q-16 -51 -70 -51h-72q-53 0 -67 49l-314 928q-8 23 6.5 42t36.5 19h93q53 0 69 -51l215 -715l232 727q14 39 53 39h55q41 0 51 -39l232 -727z" glyph-name="w" horiz-adv-x="1585" unicode="w"/><glyph d="M967 57q12 -18 1.5 -37.5t-32.5 -19.5h-119q-39 0 -61 33l-232 342l-231 -342q-23 -33 -62 -33h-120q-20 0 -30.5 19.5t1.5 37.5l324 478l-308 446q-12 18 -2 37.5t33 19.5h119q43 0 61 -34l213 -332l217 334q20 33 62 32h119q23 0 33 -19.5t-3 -37.5l-309 -446z" glyph-name="x" horiz-adv-x="1044" unicode="x"/><glyph d="M834 991q16 47 67 47h92q23 0 36 -20.5t5 -42.5q-328 -834 -387 -975q-82 -201 -168 -298t-221 -97q-35 0 -51 2q-16 0 -28.5 13t-12.5 32v78q0 18 12 31.5t31 13.5q88 4 148.5 62.5t117.5 215.5q-55 141 -407 922q-10 23 4 43t39 20h90q49 0 65 -45l301 -704z" glyph-name="y" horiz-adv-x="1099" unicode="y"/><glyph d="M328 176h495q23 0 39.5 -15.5t16.5 -37.5v-68q0 -23 -16.5 -39t-39.5 -16h-678q-23 0 -39 16.5t-16 38.5v66q0 27 19 55l514 684h-459q-23 0 -39 16.5t-16 38.5v68q0 23 16 39t39 16h641q23 0 39 -16t16 -39v-65q0 -31 -18 -56z" glyph-name="z" horiz-adv-x="970" unicode="z"/><glyph d="M465 958q0 -201 -160 -237v-8q160 -37 160 -236v-229q0 -72 4 -110t19.5 -80t51 -60t97.5 -18q20 0 33.5 -13.5t13.5 -34.5v-84q0 -18 -13.5 -31.5t-33.5 -13.5h-23q-176 0 -253.5 83t-77.5 270v319q0 80 -23.5 115t-77.5 43q-39 4 -39 45v78q0 41 39 47q53 6 77 41 t24 114v322q0 186 77.5 268t253.5 82h23q20 0 33.5 -13t13.5 -32v-84q0 -20 -13.5 -32.5t-33.5 -12.5q-49 0 -82 -14.5t-51.5 -35t-26.5 -61t-10 -71.5t-2 -88v-228z" glyph-name="braceleft" horiz-adv-x="804" unicode="{"/><glyph d="M143 1495q0 23 16.5 39t39.5 16h71q23 0 39.5 -16t16.5 -39v-1745q0 -23 -16.5 -39t-39.5 -16h-71q-23 0 -39.5 16.5t-16.5 38.5v1745z" glyph-name="bar" horiz-adv-x="468" unicode="|"/><glyph d="M340 958v228q0 57 -2 88t-10.5 71.5t-25.5 61t-50 35t-82 14.5h-2q-18 0 -31.5 12.5t-13.5 32.5v84q0 18 13.5 31.5t31.5 13.5h22q176 0 254 -82t78 -268v-322q0 -80 23.5 -114.5t77.5 -40.5q39 -6 39 -47v-78q0 -41 -39 -45q-53 -8 -77 -43t-24 -115v-319 q0 -186 -77.5 -269.5t-254.5 -83.5h-22q-18 0 -31.5 13.5t-13.5 31.5v84q0 20 13.5 34t31.5 14h2q49 0 82 14t50 34.5t25.5 60.5t10.5 70.5t2 88.5v229q0 199 160 236v8q-160 36 -160 237z" glyph-name="braceright" horiz-adv-x="804" unicode="}"/><glyph d="M958 748l82 -17q20 -4 30.5 -21.5t4.5 -37.5q-57 -190 -256 -191q-86 0 -217 46t-188 46q-82 0 -109 -71q-14 -35 -53 -29l-82 16q-20 4 -29.5 21.5t-3.5 38.5q61 190 266 190q84 0 214.5 -47t181.5 -47q82 0 108 72q10 39 51 31z" glyph-name="asciitilde" horiz-adv-x="1210" unicode="~"/><glyph d="M270.5 807q-53.5 0 -91.5 38t-38 91t38 90t91.5 37t90 -38t36.5 -89q0 -53 -36.5 -91t-90 -38zM195 559q2 23 18 38t37 15h39q23 0 39 -15t16 -38l25 -899q2 -23 -14.5 -39t-39.5 -16h-90q-25 0 -41 16.5t-14 38.5z" glyph-name="exclamdown" horiz-adv-x="540" unicode="¡"/><glyph d="M647 348q172 0 275 131q29 35 69 15l62 -35q23 -12 28.5 -37t-10.5 -45q-141 -182 -377 -203v-129q0 -18 -13 -31.5t-32 -13.5h-71q-20 0 -34 13.5t-14 31.5v139q-188 39 -308 188.5t-120 344.5q0 197 120 345t308 187v140q0 18 13.5 31.5t34.5 13.5h71q18 0 31.5 -13.5 t13.5 -31.5v-129q236 -20 377 -203q16 -20 10 -45t-28 -37l-62 -33q-41 -25 -69 12q-102 131 -275 131q-154 0 -254 -104t-100 -264t100 -264.5t254 -104.5z" glyph-name="cent" horiz-adv-x="1208" unicode="¢"/><glyph d="M317 184h715q23 0 39 -15t16 -38v-76q0 -23 -16 -39t-39 -16h-876q-23 0 -39.5 16.5t-16.5 38.5v82q0 43 37 74q172 131 172 342q0 37 -6 72h-166q-14 0 -25.5 11t-11.5 26v55q0 16 11.5 26.5t25.5 10.5h135q-4 12 -14 43.5t-15 47t-12.5 45.5t-11.5 51.5t-7 50t-3 57.5 q0 180 115.5 295.5t310.5 115.5q145 0 244.5 -63.5t140.5 -188.5q8 -20 -4 -41.5t-35 -27.5l-90 -23q-47 -10 -66 33q-49 129 -184 129q-104 0 -156.5 -64.5t-52.5 -164.5q0 -55 11.5 -102.5t33 -104t29.5 -88.5h362q16 0 26.5 -10.5t10.5 -26.5v-55q0 -14 -10 -25.5 t-27 -11.5h-342v-37q0 -125 -60 -227.5t-149 -172.5v-4z" glyph-name="sterling" horiz-adv-x="1189" unicode="£"/><glyph d="M815 518l109 -108q27 -25 0 -52l-39 -39q-27 -27 -51 0l-111 109q-88 -61 -197 -61q-111 0 -198 61l-111 -109q-25 -27 -51 0l-39 39q-25 27 0 52l111 108q-63 88 -63.5 198.5t63.5 198.5l-111 109q-25 25 0 51l39 39q27 27 51 0l111 -108q88 61 198 61q109 0 197 -61 l111 108q25 27 51 0l39 -39q27 -27 0 -51l-109 -109q61 -90 61 -198.5t-61 -198.5zM526 530q76 0 131.5 54.5t55.5 132.5t-55.5 132t-131.5 54q-78 0 -133 -54t-55 -132t55 -132.5t133 -54.5z" glyph-name="currency" horiz-adv-x="1050" unicode="¤"/><glyph d="M1251 1434q23 0 33 -18.5t0 -37.5l-430 -721h236q14 0 25 -10t11 -24v-56q0 -14 -10 -25.5t-26 -11.5h-310v-135h310q16 0 26 -11t10 -26v-55q0 -14 -11 -24.5t-25 -10.5h-310v-213q0 -23 -15 -39t-38 -16h-96q-23 0 -39.5 16.5t-16.5 38.5v213h-309q-14 0 -24.5 10.5 t-10.5 24.5v55q0 14 10.5 25.5t24.5 11.5h309v135h-309q-14 0 -24.5 11.5t-10.5 25.5v56q0 14 10.5 24t24.5 10h238l-430 721q-10 18 0 37t30 19h115q53 0 80 -45l379 -668l381 668q27 45 80 45h112z" glyph-name="yen" horiz-adv-x="1355" unicode="¥"/><glyph d="M197 -305q-23 0 -38.5 16.5t-15.5 38.5v619q0 20 16.5 36.5t37.5 16.5h73q23 0 39.5 -15.5t16.5 -37.5v-619q0 -23 -16.5 -39t-39.5 -16h-73zM143 1495q0 23 15.5 39t38.5 16h73q23 0 39.5 -16t16.5 -39v-616q0 -23 -16.5 -39.5t-39.5 -16.5h-73q-23 0 -38.5 16.5 t-15.5 39.5v616z" glyph-name="brokenbar" horiz-adv-x="468" unicode="¦"/><glyph d="M870 313q78 -78 78 -186q0 -168 -115.5 -267.5t-283.5 -99.5q-137 0 -232.5 53.5t-138.5 147.5q-10 23 1 46.5t36 29.5l82 22q41 10 61 -26q51 -98 185 -99q98 0 149 47.5t51 112.5q0 70 -64.5 116t-155.5 75.5t-182 64.5t-155.5 106.5t-64.5 178.5q0 162 168 270 q-78 78 -78 189q0 168 115.5 267t283.5 99q137 0 233.5 -54t137.5 -149q10 -23 0 -45t-35 -30l-82 -21q-43 -10 -61 25q-57 100 -187 100q-96 0 -147 -47t-51 -113q0 -70 63.5 -116.5t155.5 -75.5t183 -64.5t154.5 -107.5t63.5 -178q0 -162 -168 -271zM623 444 q78 -27 139 -55q100 63 100 162q0 29 -10 52.5t-35.5 45t-45 34.5t-66 31.5t-67 26t-77.5 25.5q-16 6 -24 8q-104 39 -138 57q-43 -25 -72.5 -68.5t-29.5 -92.5q0 -55 52 -100.5t97.5 -63t153.5 -53.5q15 -7 23 -9z" glyph-name="section" horiz-adv-x="1163" unicode="§"/><glyph d="M260 1444q49 0 84 -34t35 -83t-35 -84t-84 -35t-83 35t-34 84t34 83t83 34zM666 1444q49 0 83.5 -34t34.5 -83t-34.5 -84t-83.5 -35q-47 0 -82 35t-35 84t35 83t82 34z" glyph-name="dieresis" horiz-adv-x="927" unicode="¨"/><glyph d="M852 1001q-125 0 -196.5 -85t-71.5 -199.5t71.5 -199.5t196.5 -85q115 0 190 80q12 16 35 4l41 -29q27 -16 6 -41q-109 -113 -272.5 -112.5t-270 110t-106.5 273.5t106.5 273.5t270.5 109.5t272 -113q20 -25 -6 -41l-41 -28q-20 -10 -35 4q-73 79 -190 79zM838 1442 q299 0 512 -213t213 -512t-213 -512t-512 -213t-512 213t-213 512t213 512t512 213zM838 100q256 0 436 181.5t180 435.5t-180 435t-436 181t-436.5 -181t-180.5 -435t180.5 -435.5t436.5 -181.5z" glyph-name="copyright" horiz-adv-x="1675" unicode="©"/><glyph d="M328 844q20 33 59 33h92q23 0 33 -19.5t-2 -38.5l-207 -305l207 -305q12 -18 2 -37.5t-33 -19.5h-92q-39 0 -59 32l-191 279q-35 51 0 102zM944 877q23 0 32 -19.5t-3 -38.5l-207 -305l207 -305q12 -18 3 -37.5t-32 -19.5h-94q-37 0 -59 32l-191 279q-35 51 0 102 l191 279q23 33 59 33h94z" glyph-name="guillemotleft" horiz-adv-x="1114" unicode="«"/><glyph d="M838 1442q299 0 512 -213t213 -512t-213 -512t-512 -213q-301 0 -513 213t-212 512t212 512t513 213zM838 100q254 0 434 181.5t180 435.5t-180 435t-434 181q-256 0 -436.5 -181t-180.5 -435t180.5 -435.5t436.5 -181.5zM1130 872q0 -76 -43 -133t-118 -84l176 -266 q10 -14 2 -28.5t-25 -14.5h-49q-29 0 -45 25l-176 268h-160v-256q0 -14 -10 -25.5t-25 -11.5h-36q-14 0 -25.5 11.5t-11.5 25.5v688q0 14 11 24.5t26 10.5h235q127 0 200.5 -66t73.5 -168zM692 739h164q78 0 120 36t42 97.5t-42 98.5t-120 37h-164v-269z" glyph-name="registered" horiz-adv-x="1675" unicode="®"/><glyph d="M143 1354q0 14 10.5 25.5t26.5 11.5h486q14 0 25 -11.5t11 -25.5v-72q0 -16 -11 -26.5t-25 -10.5h-486q-16 0 -26.5 10.5t-10.5 26.5v72z" glyph-name="macron" horiz-adv-x="845" unicode="¯"/><glyph d="M416 1434q131 0 223 -92.5t92 -221.5q0 -131 -92 -223t-223 -92q-129 0 -221.5 92t-92.5 223q0 129 92.5 221.5t221.5 92.5zM415.5 950q69.5 0 119 49.5t49.5 120.5q0 70 -49.5 119t-119 49t-118.5 -49t-49 -118.5t49 -120t118.5 -50.5z" glyph-name="degree" horiz-adv-x="833" unicode="°"/><glyph d="M635 866h256q23 0 39 -16t16 -39v-74q0 -23 -16.5 -38t-38.5 -15h-256v-256q0 -23 -16.5 -39t-38.5 -16h-72q-23 0 -39 16.5t-16 38.5v256h-256q-20 0 -37 16.5t-17 36.5v74q0 23 15.5 39t38.5 16h256v254q0 23 16 39.5t39 16.5h72q23 0 39 -16.5t16 -39.5v-254zM197 0 q-23 0 -38.5 16.5t-15.5 38.5v72q0 23 15.5 39t38.5 16h694q23 0 39 -16t16 -39v-72q0 -23 -16.5 -39t-38.5 -16h-694z" glyph-name="plusminus" horiz-adv-x="1089" unicode="±"/><glyph d="M324 1489h86q23 0 33 -19.5t-3 -37.5l-143 -205q-14 -25 -45 -25h-66q-14 0 -22 12.5t-2 26.5l96 207q21 41 66 41z" glyph-name="acute" horiz-adv-x="622" unicode="´"/><glyph d="M1190 1378v-84q0 -23 -16.5 -39t-38.5 -16h-101v-1366q0 -23 -16.5 -38t-38.5 -15h-72q-23 0 -39 15t-16 38v1366h-223v-1366q0 -23 -15.5 -38t-38.5 -15h-73q-23 0 -39.5 15t-16.5 38v881q-158 4 -261 94t-103 246q0 162 108.5 251t272.5 89h672q23 0 39 -16.5t16 -39.5 z" glyph-name="paragraph" horiz-adv-x="1310" unicode="¶"/><glyph d="M336 -100q100 10 168.5 -39t68.5 -154q0 -96 -69.5 -158.5t-181.5 -62.5q-78 0 -142 27q-14 6 -20 21t2 30l28 51q14 27 43 16q41 -12 76 -12q61 0 96 27.5t35 77.5q0 92 -102 92q-29 0 -66 -13q-23 -10 -41 13l-16 22q-14 16 -4 39l47 92q14 31 49 31h49q10 0 15.5 -8 t1.5 -19z" glyph-name="cedilla" horiz-adv-x="714" unicode="¸"/><glyph d="M788 844l191 -279q35 -51 0 -102l-191 -279q-20 -33 -59 -32h-92q-23 0 -33 19t2 38l207 305l-207 305q-12 18 -2 38t33 20h92q39 0 59 -33zM172 877h94q37 0 60 -33l190 -279q35 -51 0 -102l-190 -279q-23 -33 -60 -32h-94q-20 0 -30.5 19t1.5 38l207 305l-207 305 q-12 18 -1.5 38t30.5 20z" glyph-name="guillemotright" horiz-adv-x="1116" unicode="»"/><glyph d="M471 807q-53 0 -91 38t-38 91t38 90t91 37t90 -38t37 -89q0 -53 -37 -91t-90 -38zM260 -23q0 -88 58.5 -152.5t158.5 -64.5q150 0 209 134q8 20 29.5 30t44.5 6l67 -18q25 -6 36 -28.5t3 -45.5q-55 -127 -164.5 -193.5t-242.5 -66.5q-162 0 -280 112.5t-118 266.5 q0 102 44.5 187t98.5 135.5t105 126t62 157.5q4 20 18 34.5t35 14.5h86q23 0 39 -18.5t14 -42.5q-8 -82 -43 -151.5t-78 -118t-85 -93.5t-69.5 -98.5t-27.5 -112.5z" glyph-name="questiondown" horiz-adv-x="946" unicode="¿"/><glyph d="M1169 0q-51 0 -69 49l-105 297h-614l-105 -297q-18 -49 -67 -49h-119q-18 0 -29.5 15.5t-3.5 33.5l498 1337q16 47 68 48h131q51 0 67 -48l500 -1337q6 -18 -5 -33.5t-30 -15.5h-117zM449 532h481l-242 682zM575 1898q45 0 66 -40l96 -207q6 -14 -2 -26.5t-22 -12.5h-66 q-29 0 -45 24l-143 205q-12 18 -2 37.5t32 19.5h86z" glyph-name="Agrave" horiz-adv-x="1380" unicode="À"/><glyph d="M1169 0q-51 0 -69 49l-105 297h-614l-105 -297q-18 -49 -67 -49h-119q-18 0 -29.5 15.5t-3.5 33.5l498 1337q16 47 68 48h131q51 0 67 -48l500 -1337q6 -18 -5 -33.5t-30 -15.5h-117zM449 532h481l-242 682zM825 1898h86q23 0 33 -19t-2 -38l-143 -205q-16 -25 -45 -24 h-66q-14 0 -22.5 12t-1.5 27l96 207q20 40 65 40z" glyph-name="Aacute" horiz-adv-x="1380" unicode="Á"/><glyph d="M1169 0q-51 0 -69 49l-105 297h-614l-105 -297q-18 -49 -67 -49h-119q-18 0 -29.5 15.5t-3.5 33.5l498 1337q16 47 68 48h131q51 0 67 -48l500 -1337q6 -18 -5 -33.5t-30 -15.5h-117zM449 532h481l-242 682zM971 1657q10 -14 3 -29.5t-24 -15.5h-84q-39 0 -57 30 l-117 160l-117 -160q-23 -31 -59 -30h-82q-16 0 -24.5 15t2.5 30l170 213q18 29 57 28h106q35 0 58 -28z" glyph-name="Acircumflex" horiz-adv-x="1380" unicode="Â"/><glyph d="M1169 0q-51 0 -69 49l-105 297h-614l-105 -297q-18 -49 -67 -49h-119q-18 0 -29.5 15.5t-3.5 33.5l498 1337q16 47 68 48h131q51 0 67 -48l500 -1337q6 -18 -5 -33.5t-30 -15.5h-117zM449 532h481l-242 682zM913 1806l52 -8q37 -8 28 -45q-35 -150 -168 -149 q-53 0 -133 33.5t-117 33.5q-49 0 -65 -53q-10 -29 -41 -25l-51 11q-16 2 -25.5 15t-5.5 28q39 150 168 149q47 0 128 -33.5t120 -33.5q53 0 69 53q4 12 15.5 19t25.5 5z" glyph-name="Atilde" horiz-adv-x="1380" unicode="Ã"/><glyph d="M1169 0q-51 0 -69 49l-105 297h-614l-105 -297q-18 -49 -67 -49h-119q-18 0 -29.5 15.5t-3.5 33.5l498 1337q16 47 68 48h131q51 0 67 -48l500 -1337q6 -18 -5 -33.5t-30 -15.5h-117zM449 532h481l-242 682zM487.5 1853q49.5 0 84 -33.5t34.5 -82.5t-34.5 -84t-84 -35 t-83 35t-33.5 84t33.5 82.5t83 33.5zM893 1853q49 0 84 -33.5t35 -82.5t-35 -84t-84 -35q-47 0 -82 35t-35 84t35 82.5t82 33.5z" glyph-name="Adieresis" horiz-adv-x="1380" unicode="Ä"/><glyph d="M1169 0q-51 0 -69 49l-105 297h-614l-105 -297q-18 -49 -67 -49h-119q-18 0 -29.5 15.5t-3.5 33.5l498 1337q16 47 68 48h131q51 0 67 -48l500 -1337q6 -18 -5 -33.5t-30 -15.5h-117zM449 532h481l-242 682zM690 1978q94 0 158.5 -65.5t64.5 -157.5t-64.5 -157.5 t-158.5 -65.5q-92 0 -157.5 65.5t-65.5 157.5t65.5 157.5t157.5 65.5zM690 1640q47 0 81 34t34 81t-34 80t-81 33t-79.5 -33t-32.5 -80t32.5 -81t79.5 -34z" glyph-name="Aring" horiz-adv-x="1380" unicode="Å"/><glyph d="M1210 186h549q23 0 39.5 -15t16.5 -38v-78q0 -23 -16.5 -39t-39.5 -16h-700q-23 0 -39 16.5t-16 38.5v291h-580l-141 -303q-20 -43 -66 -43h-117q-20 0 -30.5 17.5t-1.5 35.5l647 1329q27 51 82 52h944q23 0 38 -16.5t15 -39.5v-75q0 -23 -15.5 -39.5t-37.5 -16.5h-531 v-411h484q23 0 39 -16.5t16 -39.5v-75q0 -23 -16.5 -39.5t-38.5 -16.5h-484v-463zM512 532h492v715h-158z" glyph-name="AE" horiz-adv-x="1914" unicode="Æ"/><glyph d="M821 166q223 0 369 151q33 35 70 9l77 -52q20 -14 23.5 -39.5t-12.5 -44.5q-209 -215 -525 -215l-39 -77q100 10 169 -38t69 -153q0 -96 -69.5 -158.5t-182.5 -62.5q-78 0 -141 27q-14 4 -20.5 20t1.5 31l29 51q14 27 43 16q35 -14 76 -14q61 0 97 28.5t36 78.5 q0 90 -105 90q-37 0 -65 -13q-25 -6 -41 13l-16 22q-14 20 -5 39l54 107q-274 37 -447.5 242.5t-173.5 492.5q0 317 207 530t522 213q319 0 527 -217q16 -18 13 -43.5t-24 -40.5l-77 -51q-37 -25 -70 8q-145 152 -369 152q-238 0 -379 -164t-141 -387t141 -387t379 -164z " glyph-name="Ccedilla" horiz-adv-x="1441" unicode="Ç"/><glyph d="M348 186h549q23 0 39 -15t16 -38v-78q0 -23 -16 -39t-39 -16h-700q-23 0 -38.5 16.5t-15.5 38.5v1323q0 23 15.5 39.5t38.5 16.5h682q23 0 39 -16.5t16 -39.5v-75q0 -23 -16.5 -39.5t-38.5 -16.5h-531v-411h483q23 0 39.5 -16.5t16.5 -39.5v-75q0 -23 -16.5 -39.5 t-39.5 -16.5h-483v-463zM455 1898q45 0 65 -40l96 -207q6 -14 -2 -26.5t-22 -12.5h-66q-31 0 -45 24l-143 205q-12 18 -2 37.5t33 19.5h86z" glyph-name="Egrave" horiz-adv-x="1056" unicode="È"/><glyph d="M348 186h549q23 0 39 -15t16 -38v-78q0 -23 -16 -39t-39 -16h-700q-23 0 -38.5 16.5t-15.5 38.5v1323q0 23 15.5 39.5t38.5 16.5h682q23 0 39 -16.5t16 -39.5v-75q0 -23 -16.5 -39.5t-38.5 -16.5h-531v-411h483q23 0 39.5 -16.5t16.5 -39.5v-75q0 -23 -16.5 -39.5 t-39.5 -16.5h-483v-463zM643 1898h86q23 0 33 -19t-2 -38l-144 -205q-14 -25 -45 -24h-65q-14 0 -22.5 12t-2.5 27l97 207q20 40 65 40z" glyph-name="Eacute" horiz-adv-x="1056" unicode="É"/><glyph d="M348 186h549q23 0 39 -15t16 -38v-78q0 -23 -16 -39t-39 -16h-700q-23 0 -38.5 16.5t-15.5 38.5v1323q0 23 15.5 39.5t38.5 16.5h682q23 0 39 -16.5t16 -39.5v-75q0 -23 -16.5 -39.5t-38.5 -16.5h-531v-411h483q23 0 39.5 -16.5t16.5 -39.5v-75q0 -23 -16.5 -39.5 t-39.5 -16.5h-483v-463zM829 1657q10 -14 3 -29.5t-23 -15.5h-84q-39 0 -57 30l-117 160l-117 -160q-20 -31 -59 -30h-82q-16 0 -24.5 15t1.5 30l170 213q18 29 58 28h106q35 0 58 -28z" glyph-name="Ecircumflex" horiz-adv-x="1056" unicode="Ê"/><glyph d="M348 186h549q23 0 39 -15t16 -38v-78q0 -23 -16 -39t-39 -16h-700q-23 0 -38.5 16.5t-15.5 38.5v1323q0 23 15.5 39.5t38.5 16.5h682q23 0 39 -16.5t16 -39.5v-75q0 -23 -16.5 -39.5t-38.5 -16.5h-531v-411h483q23 0 39.5 -16.5t16.5 -39.5v-75q0 -23 -16.5 -39.5 t-39.5 -16.5h-483v-463zM346 1853q49 0 84 -33.5t35 -82.5t-35 -84t-84 -35t-83 35t-34 84t34 82.5t83 33.5zM752 1853q49 0 83.5 -33.5t34.5 -82.5t-34.5 -84t-83.5 -35q-47 0 -82 35t-35 84t35 82.5t82 33.5z" glyph-name="Edieresis" horiz-adv-x="1056" unicode="Ë"/><glyph d="M143 1378q0 23 16.5 39.5t39.5 16.5h96q23 0 39 -16.5t16 -39.5v-1323q0 -23 -16.5 -39t-38.5 -16h-96q-23 0 -39.5 16.5t-16.5 38.5v1323zM131 1898q45 0 66 -40l96 -207q6 -14 -2 -26.5t-23 -12.5h-65q-29 0 -45 24l-144 205q-12 18 -1.5 37.5t32.5 19.5h86z" glyph-name="Igrave" horiz-adv-x="491" unicode="Ì"/><glyph d="M143 1378q0 23 16.5 39.5t39.5 16.5h96q23 0 39 -16.5t16 -39.5v-1323q0 -23 -16.5 -39t-38.5 -16h-96q-23 0 -39.5 16.5t-16.5 38.5v1323zM360 1898h86q23 0 33 -19t-2 -38l-143 -205q-14 -25 -45 -24h-66q-14 0 -22 12t-2 27l96 207q20 40 65 40z" glyph-name="Iacute" horiz-adv-x="491" unicode="Í"/><glyph d="M143 1378q0 23 16.5 39.5t39.5 16.5h96q23 0 39 -16.5t16 -39.5v-1323q0 -23 -16.5 -39t-38.5 -16h-96q-23 0 -39.5 16.5t-16.5 38.5v1323zM526 1657q10 -14 3 -29.5t-23 -15.5h-84q-39 0 -57 30l-117 160l-117 -160q-20 -31 -59 -30h-82q-16 0 -24.5 15t1.5 30l170 213 q18 29 58 28h106q35 0 57 -28z" glyph-name="Icircumflex" horiz-adv-x="491" unicode="Î"/><glyph d="M143 1378q0 23 16.5 39.5t39.5 16.5h96q23 0 39 -16.5t16 -39.5v-1323q0 -23 -16.5 -39t-38.5 -16h-96q-23 0 -39.5 16.5t-16.5 38.5v1323zM43 1853q49 0 84 -33.5t35 -82.5t-35 -84t-84 -35t-83 35t-34 84t34 82.5t83 33.5zM449 1853q49 0 83.5 -33.5t34.5 -82.5 t-34.5 -84t-83.5 -35q-47 0 -82 35t-35 84t35 82.5t82 33.5z" glyph-name="Idieresis" horiz-adv-x="491" unicode="Ï"/><glyph d="M625 1434q354 0 551.5 -201t197.5 -516.5t-197.5 -516t-551.5 -200.5h-351q-23 0 -38 16.5t-15 38.5v588h-153q-20 0 -34 13.5t-14 33.5v53q0 20 13.5 34t34.5 14h153v587q0 23 15.5 39.5t37.5 16.5h351zM625 186q254 0 398 143.5t144 387.5t-144 387t-398 143h-199v-456 h315q18 0 31.5 -13.5t13.5 -34.5v-53q0 -20 -13 -33.5t-32 -13.5h-315v-457h199z" glyph-name="Eth" horiz-adv-x="1466" unicode="Ð"/><glyph d="M1065 1378q0 23 16.5 39.5t38.5 16.5h97q23 0 38 -16.5t15 -39.5v-1323q0 -23 -15.5 -39t-37.5 -16h-78q-47 0 -74 39l-717 1018v-1002q0 -23 -15.5 -39t-37.5 -16h-96q-23 0 -39.5 16.5t-16.5 38.5v1323q0 23 16.5 39.5t39.5 16.5h75q47 0 76 -39l715 -1016v999z M930 1806l51 -8q37 -8 29 -45q-35 -150 -168 -149q-53 0 -133 33.5t-117 33.5q-49 0 -66 -53q-10 -29 -41 -25l-51 11q-16 2 -25.5 15t-5.5 28q39 150 168 149q47 0 128 -33.5t120 -33.5q53 0 70 53q4 12 15.5 19t25.5 5z" glyph-name="Ntilde" horiz-adv-x="1413" unicode="Ñ"/><glyph d="M821 1458q315 0 521 -212t206 -529.5t-205.5 -530.5t-521.5 -213q-317 0 -523 213t-206 530.5t206 529.5t523 212zM821.5 166q237.5 0 378.5 164t141 387t-141 387t-378.5 164t-379 -164t-141.5 -387t141.5 -387t379 -164zM725 1898q45 0 66 -40l96 -207q6 -14 -2 -26.5 t-23 -12.5h-65q-31 0 -45 24l-144 205q-12 18 -2 37.5t33 19.5h86z" glyph-name="Ograve" horiz-adv-x="1640" unicode="Ò"/><glyph d="M821 1458q315 0 521 -212t206 -529.5t-205.5 -530.5t-521.5 -213q-317 0 -523 213t-206 530.5t206 529.5t523 212zM821.5 166q237.5 0 378.5 164t141 387t-141 387t-378.5 164t-379 -164t-141.5 -387t141.5 -387t379 -164zM913 1898h86q23 0 33 -19t-2 -38l-143 -205 q-14 -25 -45 -24h-66q-14 0 -22.5 12t-1.5 27l96 207q20 40 65 40z" glyph-name="Oacute" horiz-adv-x="1640" unicode="Ó"/><glyph d="M821 1458q315 0 521 -212t206 -529.5t-205.5 -530.5t-521.5 -213q-317 0 -523 213t-206 530.5t206 529.5t523 212zM821.5 166q237.5 0 378.5 164t141 387t-141 387t-378.5 164t-379 -164t-141.5 -387t141.5 -387t379 -164zM1100 1657q10 -14 3 -29.5t-24 -15.5h-84 q-39 0 -57 30l-117 160l-116 -160q-20 -31 -60 -30h-82q-16 0 -24.5 15t2.5 30l170 213q18 29 57 28h106q35 0 58 -28z" glyph-name="Ocircumflex" horiz-adv-x="1640" unicode="Ô"/><glyph d="M821 1458q315 0 521 -212t206 -529.5t-205.5 -530.5t-521.5 -213q-317 0 -523 213t-206 530.5t206 529.5t523 212zM821.5 166q237.5 0 378.5 164t141 387t-141 387t-378.5 164t-379 -164t-141.5 -387t141.5 -387t379 -164zM1042 1806l52 -8q37 -8 28 -45 q-35 -150 -168 -149q-53 0 -133 33.5t-116 33.5q-49 0 -66 -53q-10 -29 -41 -25l-51 11q-16 2 -25.5 15t-5.5 28q39 150 168 149q47 0 128 -33.5t120 -33.5q53 0 69 53q4 12 15.5 19t25.5 5z" glyph-name="Otilde" horiz-adv-x="1640" unicode="Õ"/><glyph d="M821 1458q315 0 521 -212t206 -529.5t-205.5 -530.5t-521.5 -213q-317 0 -523 213t-206 530.5t206 529.5t523 212zM821.5 166q237.5 0 378.5 164t141 387t-141 387t-378.5 164t-379 -164t-141.5 -387t141.5 -387t379 -164zM616.5 1853q49.5 0 84 -33.5t34.5 -82.5 t-34.5 -84t-84 -35t-83 35t-33.5 84t33.5 82.5t83 33.5zM1022 1853q49 0 84 -33.5t35 -82.5t-35 -84t-84 -35q-47 0 -82 35t-35 84t35 82.5t82 33.5z" glyph-name="Odieresis" horiz-adv-x="1640" unicode="Ö"/><glyph d="M653 920q14 16 37 16t39 -16l53 -52q35 -39 0 -77l-182 -181l182 -180q16 -16 16.5 -38.5t-16.5 -39.5l-53 -51q-16 -16 -38.5 -16t-37.5 16l-182 180l-180 -180q-16 -16 -39 -16t-39 16l-51 51q-14 16 -14.5 39t14.5 39l180 180l-180 181q-35 39 0 77l51 52 q16 16 39.5 16t38.5 -16l180 -181z" glyph-name="multiply" horiz-adv-x="942" unicode="×"/><glyph d="M1415 1159q135 -193 135 -442q0 -317 -206.5 -529.5t-522.5 -212.5q-295 0 -497 187l-91 -82q-33 -31 -65 2l-37 43q-33 33 2 63l94 86q-135 193 -135 443q0 317 207 530t522 213q295 0 498 -190l92 84q14 12 32.5 11t31.5 -15l38 -41q12 -14 11.5 -33t-15.5 -31z M301 717q0 -164 80 -301l790 719q-143 133 -350 133q-238 0 -379 -164t-141 -387zM821 166q238 0 379 164t141 387q0 160 -79 301l-789 -719q139 -133 348 -133z" glyph-name="Oslash" horiz-adv-x="1640" unicode="Ø"/><glyph d="M1083 1434h95q23 0 39 -16.5t16 -39.5v-833q0 -279 -140.5 -424.5t-404.5 -145.5q-262 0 -403.5 145.5t-141.5 424.5v833q0 23 16.5 39.5t39.5 16.5h96q23 0 39 -16.5t16 -39.5v-796q0 -414 338 -414q340 0 340 414v796q0 23 16 39.5t39 16.5zM614 1898q45 0 66 -40 l96 -207q6 -14 -2 -26.5t-22 -12.5h-66q-29 0 -45 24l-143 205q-12 18 -2 37.5t32 19.5h86z" glyph-name="Ugrave" horiz-adv-x="1376" unicode="Ù"/><glyph d="M1083 1434h95q23 0 39 -16.5t16 -39.5v-833q0 -279 -140.5 -424.5t-404.5 -145.5q-262 0 -403.5 145.5t-141.5 424.5v833q0 23 16.5 39.5t39.5 16.5h96q23 0 39 -16.5t16 -39.5v-796q0 -414 338 -414q340 0 340 414v796q0 23 16 39.5t39 16.5zM782 1898h86q23 0 33 -19 t-2 -38l-143 -205q-14 -25 -45 -24h-66q-14 0 -22.5 12t-1.5 27l96 207q20 40 65 40z" glyph-name="Uacute" horiz-adv-x="1376" unicode="Ú"/><glyph d="M1083 1434h95q23 0 39 -16.5t16 -39.5v-833q0 -279 -140.5 -424.5t-404.5 -145.5q-262 0 -403.5 145.5t-141.5 424.5v833q0 23 16.5 39.5t39.5 16.5h96q23 0 39 -16.5t16 -39.5v-796q0 -414 338 -414q340 0 340 414v796q0 23 16 39.5t39 16.5zM967 1657q10 -14 3 -29.5 t-24 -15.5h-84q-39 0 -57 30l-117 160l-117 -160q-23 -31 -59 -30h-82q-16 0 -24.5 15t2.5 30l170 213q18 29 57 28h106q35 0 58 -28z" glyph-name="Ucircumflex" horiz-adv-x="1376" unicode="Û"/><glyph d="M1083 1434h95q23 0 39 -16.5t16 -39.5v-833q0 -279 -140.5 -424.5t-404.5 -145.5q-262 0 -403.5 145.5t-141.5 424.5v833q0 23 16.5 39.5t39.5 16.5h96q23 0 39 -16.5t16 -39.5v-796q0 -414 338 -414q340 0 340 414v796q0 23 16 39.5t39 16.5zM485.5 1853 q49.5 0 84 -33.5t34.5 -82.5t-34.5 -84t-84 -35t-83 35t-33.5 84t33.5 82.5t83 33.5zM891 1853q49 0 84 -33.5t35 -82.5t-35 -84t-84 -35q-47 0 -82 35t-35 84t35 82.5t82 33.5z" glyph-name="Udieresis" horiz-adv-x="1376" unicode="Ü"/><glyph d="M1251 1434q20 0 30.5 -18.5t0.5 -37.5l-502 -841v-482q0 -23 -16 -39t-39 -16h-94q-23 0 -39.5 16.5t-16.5 38.5v482l-501 841q-10 18 0 37t30 19h115q55 0 78 -45l381 -668l381 668q27 45 78 45h114zM793 1898h86q23 0 33 -19t-3 -38l-143 -205q-16 -25 -45 -24h-66 q-14 0 -22 12t-2 27l96 207q21 40 66 40z" glyph-name="Yacute" horiz-adv-x="1355" unicode="Ý"/><glyph d="M602 1184q236 0 376 -132t140 -335t-140 -335t-376 -132h-254v-195q0 -23 -16.5 -39t-38.5 -16h-94q-23 0 -39.5 16.5t-16.5 38.5v1323q0 23 16.5 39.5t39.5 16.5h94q23 0 39 -16.5t16 -39.5v-194h254zM602 436q143 0 225 77t82 204t-82 203.5t-225 76.5h-254v-561h254z " glyph-name="Thorn" horiz-adv-x="1200" unicode="Þ"/><glyph d="M834 774q133 -41 206.5 -132t73.5 -226q0 -197 -140 -323t-376 -99q-39 6 -39 45v80q0 20 13.5 33.5t33.5 13.5q150 -8 233 61.5t83 190.5q0 123 -85 180t-219 57h-24q-14 0 -24.5 11.5t-10.5 25.5v99q0 14 9.5 24t23.5 10q215 18 215 236q0 96 -60.5 158.5t-175 62.5 t-182 -79t-67.5 -216v-932q0 -23 -16.5 -39t-39.5 -16h-78q-23 0 -39 16.5t-16 38.5v965q0 190 128 315t310 125q197 0 315 -110.5t118 -274.5q0 -201 -170 -301z" glyph-name="germandbls" horiz-adv-x="1185" unicode="ß"/><glyph d="M965 983q0 23 16 39t39 16h78q23 0 39 -16t16 -39v-928q0 -23 -16.5 -39t-38.5 -16h-78q-23 0 -39 16.5t-16 38.5v90q-133 -170 -377 -170q-231 0 -373.5 164t-142.5 379q0 217 142 381t374 164q244 0 377 -170v90zM606 152q168 0 263.5 103t95.5 263t-95.5 264.5 t-263.5 104.5q-158 0 -251 -103.5t-93 -265.5q0 -160 93 -263t251 -103zM569 1489q45 0 66 -41l96 -207q6 -14 -2 -26.5t-22 -12.5h-66q-31 0 -45 25l-143 205q-12 18 -2 37.5t32 19.5h86z" glyph-name="agrave" horiz-adv-x="1286" unicode="à"/><glyph d="M965 983q0 23 16 39t39 16h78q23 0 39 -16t16 -39v-928q0 -23 -16.5 -39t-38.5 -16h-78q-23 0 -39 16.5t-16 38.5v90q-133 -170 -377 -170q-231 0 -373.5 164t-142.5 379q0 217 142 381t374 164q244 0 377 -170v90zM606 152q168 0 263.5 103t95.5 263t-95.5 264.5 t-263.5 104.5q-158 0 -251 -103.5t-93 -265.5q0 -160 93 -263t251 -103zM737 1489h86q23 0 33 -19.5t-2 -37.5l-143 -205q-14 -25 -45 -25h-66q-14 0 -22.5 12.5t-2.5 26.5l97 207q20 41 65 41z" glyph-name="aacute" horiz-adv-x="1286" unicode="á"/><glyph d="M965 983q0 23 16 39t39 16h78q23 0 39 -16t16 -39v-928q0 -23 -16.5 -39t-38.5 -16h-78q-23 0 -39 16.5t-16 38.5v90q-133 -170 -377 -170q-231 0 -373.5 164t-142.5 379q0 217 142 381t374 164q244 0 377 -170v90zM606 152q168 0 263.5 103t95.5 263t-95.5 264.5 t-263.5 104.5q-158 0 -251 -103.5t-93 -265.5q0 -160 93 -263t251 -103zM903 1247q10 -14 3 -29.5t-23 -15.5h-84q-39 0 -58 31l-116 160l-117 -160q-20 -31 -59 -31h-82q-16 0 -24.5 15.5t1.5 29.5l170 213q18 29 57 29h107q35 0 57 -29z" glyph-name="acircumflex" horiz-adv-x="1286" unicode="â"/><glyph d="M965 983q0 23 16 39t39 16h78q23 0 39 -16t16 -39v-928q0 -23 -16.5 -39t-38.5 -16h-78q-23 0 -39 16.5t-16 38.5v90q-133 -170 -377 -170q-231 0 -373.5 164t-142.5 379q0 217 142 381t374 164q244 0 377 -170v90zM606 152q168 0 263.5 103t95.5 263t-95.5 264.5 t-263.5 104.5q-158 0 -251 -103.5t-93 -265.5q0 -160 93 -263t251 -103zM846 1397l51 -8q37 -8 29 -46q-35 -150 -168 -149q-53 0 -133 34t-117 34q-49 0 -66 -54q-10 -29 -41 -24l-51 10q-16 2 -25.5 15.5t-5.5 27.5q39 150 168 149q47 0 128 -33.5t120 -33.5q53 0 70 53 q4 12 15.5 19.5t25.5 5.5z" glyph-name="atilde" horiz-adv-x="1286" unicode="ã"/><glyph d="M965 983q0 23 16 39t39 16h78q23 0 39 -16t16 -39v-928q0 -23 -16.5 -39t-38.5 -16h-78q-23 0 -39 16.5t-16 38.5v90q-133 -170 -377 -170q-231 0 -373.5 164t-142.5 379q0 217 142 381t374 164q244 0 377 -170v90zM606 152q168 0 263.5 103t95.5 263t-95.5 264.5 t-263.5 104.5q-158 0 -251 -103.5t-93 -265.5q0 -160 93 -263t251 -103zM420 1444q49 0 84 -34t35 -83t-35 -84t-84 -35t-83 35t-34 84t34 83t83 34zM825 1444q49 0 84 -34t35 -83t-35 -84t-84 -35q-47 0 -81.5 35t-34.5 84t34.5 83t81.5 34z" glyph-name="adieresis" horiz-adv-x="1286" unicode="ä"/><glyph d="M965 983q0 23 16 39t39 16h78q23 0 39 -16t16 -39v-928q0 -23 -16.5 -39t-38.5 -16h-78q-23 0 -39 16.5t-16 38.5v90q-133 -170 -377 -170q-231 0 -373.5 164t-142.5 379q0 217 142 381t374 164q244 0 377 -170v90zM606 152q168 0 263.5 103t95.5 263t-95.5 264.5 t-263.5 104.5q-158 0 -251 -103.5t-93 -265.5q0 -160 93 -263t251 -103zM643 1589q94 0 158.5 -65.5t64.5 -157.5t-64.5 -157.5t-158.5 -65.5q-92 0 -157.5 65.5t-65.5 157.5t65.5 157.5t157.5 65.5zM643 1251q47 0 81 34t34 81t-34 80t-81 33q-45 0 -79 -33t-34 -80t33 -81 t80 -34z" glyph-name="aring" horiz-adv-x="1286" unicode="å"/><glyph d="M1540 1063q211 0 362.5 -152.5t143.5 -400.5q-2 -29 -23.5 -50.5t-50.5 -21.5h-758q23 -131 116 -208.5t242.5 -77.5t244.5 88q31 29 65 4l64 -39q23 -14 25.5 -40t-15.5 -44q-141 -145 -383 -146q-266 0 -420 175v-95q0 -23 -16.5 -39t-38.5 -16h-78q-23 0 -39 16.5 t-16 38.5v90q-133 -170 -377 -170q-231 0 -373.5 164t-142.5 379q0 217 142 381t374 164q244 0 377 -170v90q0 23 16 39t39 16h78q23 0 39 -16t16 -39v-92q149 172 387 172zM606 152q168 0 263.5 103t95.5 263t-95.5 264.5t-263.5 104.5q-158 0 -251 -103.5t-93 -265.5 q0 -160 93 -263t251 -103zM1214 600h635q-18 133 -99 210t-210 77q-131 0 -218.5 -78t-107.5 -209z" glyph-name="ae" horiz-adv-x="2119" unicode="æ"/><glyph d="M616 152q176 0 275 129q29 37 70 14l63 -35q23 -12 27 -36.5t-11 -45.5q-160 -203 -424 -203h-8l-39 -77q100 10 169 -38t69 -153q0 -96 -69.5 -158.5t-182.5 -62.5q-78 0 -141 27q-14 4 -20.5 20t1.5 31l29 51q14 27 45 16q33 -14 74 -14q61 0 97 28.5t36 78.5 q0 90 -105 90q-39 0 -65 -13q-25 -6 -41 13l-16 22q-14 20 -5 39l56 111q-188 39 -308 188.5t-120 343.5q0 227 155.5 386t388.5 159q264 0 424 -203q14 -20 10.5 -44.5t-26.5 -37.5l-63 -35q-41 -23 -70 15q-98 129 -275 129q-154 0 -253 -104.5t-99 -264.5q0 -158 99 -262 t253 -104z" glyph-name="ccedilla" horiz-adv-x="1118" unicode="ç"/><glyph d="M596 1063q209 0 360.5 -152.5t143.5 -400.5q0 -29 -21.5 -50.5t-50.5 -21.5h-760q25 -131 118 -208.5t243 -77.5q145 0 243 88q31 29 66 4l61 -39q23 -14 26 -40t-13 -44q-145 -145 -383 -146q-252 0 -404.5 156t-152.5 387q0 229 149.5 387t374.5 158zM268 600h637 q-18 133 -99 210t-210 77q-131 0 -218 -78t-110 -209zM512 1489q45 0 66 -41l96 -207q6 -14 -2 -26.5t-23 -12.5h-65q-31 0 -45 25l-144 205q-12 18 -2 37.5t33 19.5h86z" glyph-name="egrave" horiz-adv-x="1173" unicode="è"/><glyph d="M596 1063q209 0 360.5 -152.5t143.5 -400.5q0 -29 -21.5 -50.5t-50.5 -21.5h-760q25 -131 118 -208.5t243 -77.5q145 0 243 88q31 29 66 4l61 -39q23 -14 26 -40t-13 -44q-145 -145 -383 -146q-252 0 -404.5 156t-152.5 387q0 229 149.5 387t374.5 158zM268 600h637 q-18 133 -99 210t-210 77q-131 0 -218 -78t-110 -209zM680 1489h86q23 0 33 -19.5t-2 -37.5l-144 -205q-14 -25 -45 -25h-65q-14 0 -22.5 12.5t-2.5 26.5l96 207q21 41 66 41z" glyph-name="eacute" horiz-adv-x="1173" unicode="é"/><glyph d="M596 1063q209 0 360.5 -152.5t143.5 -400.5q0 -29 -21.5 -50.5t-50.5 -21.5h-760q25 -131 118 -208.5t243 -77.5q145 0 243 88q31 29 66 4l61 -39q23 -14 26 -40t-13 -44q-145 -145 -383 -146q-252 0 -404.5 156t-152.5 387q0 229 149.5 387t374.5 158zM268 600h637 q-18 133 -99 210t-210 77q-131 0 -218 -78t-110 -209zM866 1247q10 -14 3 -29.5t-23 -15.5h-84q-39 0 -57 31l-117 160l-117 -160q-20 -31 -59 -31h-82q-16 0 -24.5 15.5t1.5 29.5l170 213q18 29 58 29h106q35 0 57 -29z" glyph-name="ecircumflex" horiz-adv-x="1173" unicode="ê"/><glyph d="M596 1063q209 0 360.5 -152.5t143.5 -400.5q0 -29 -21.5 -50.5t-50.5 -21.5h-760q25 -131 118 -208.5t243 -77.5q145 0 243 88q31 29 66 4l61 -39q23 -14 26 -40t-13 -44q-145 -145 -383 -146q-252 0 -404.5 156t-152.5 387q0 229 149.5 387t374.5 158zM268 600h637 q-18 133 -99 210t-210 77q-131 0 -218 -78t-110 -209zM383 1444q49 0 84 -34t35 -83t-35 -84t-84 -35t-83 35t-34 84t34 83t83 34zM788 1444q49 0 84 -34t35 -83t-34.5 -84t-84.5 -35q-47 0 -81.5 35t-34.5 84t34.5 83t81.5 34z" glyph-name="edieresis" horiz-adv-x="1173" unicode="ë"/><glyph d="M190 0q-23 0 -39 16.5t-16 38.5v928q0 23 16.5 39t38.5 16h76q23 0 39.5 -16t16.5 -39v-928q0 -23 -16.5 -39t-39.5 -16h-76zM113 1489q45 0 65 -41l96 -207q6 -14 -2 -26.5t-22 -12.5h-66q-29 0 -45 25l-143 205q-12 18 -2 37.5t33 19.5h86z" glyph-name="igrave" horiz-adv-x="454" unicode="ì"/><glyph d="M190 0q-23 0 -39 16.5t-16 38.5v928q0 23 16.5 39t38.5 16h76q23 0 39.5 -16t16.5 -39v-928q0 -23 -16.5 -39t-39.5 -16h-76zM342 1489h86q23 0 33 -19.5t-2 -37.5l-144 -205q-14 -25 -45 -25h-65q-14 0 -22.5 12.5t-2.5 26.5l96 207q21 41 66 41z" glyph-name="iacute" horiz-adv-x="454" unicode="í"/><glyph d="M190 0q-23 0 -39 16.5t-16 38.5v928q0 23 16.5 39t38.5 16h76q23 0 39.5 -16t16.5 -39v-928q0 -23 -16.5 -39t-39.5 -16h-76zM508 1247q10 -14 3 -29.5t-24 -15.5h-84q-39 0 -57 31l-117 160l-116 -160q-23 -31 -60 -31h-82q-16 0 -24 15.5t2 29.5l170 213q18 29 57 29 h107q35 0 57 -29z" glyph-name="icircumflex" horiz-adv-x="454" unicode="î"/><glyph d="M190 0q-23 0 -39 16.5t-16 38.5v928q0 23 16.5 39t38.5 16h76q23 0 39.5 -16t16.5 -39v-928q0 -23 -16.5 -39t-39.5 -16h-76zM24.5 1444q49.5 0 84 -34t34.5 -83t-34.5 -84t-84 -35t-83 35t-33.5 84t33.5 83t83 34zM430 1444q49 0 84 -34t35 -83t-35 -84t-84 -35 q-47 0 -82 35t-35 84t35 83t82 34z" glyph-name="idieresis" horiz-adv-x="454" unicode="ï"/><glyph d="M788 1257q350 -342 351 -759q0 -233 -145.5 -378t-387.5 -145q-236 0 -385 140.5t-149 363.5q0 217 150.5 351.5t365.5 134.5q82 0 156.5 -25t113.5 -55h2q-66 141 -231 293l-238 -115q-33 -18 -49 16l-16 33q-14 31 16 49l195 94q-84 66 -179 115q-18 8 -19 28.5 t15 33.5l58 38q49 31 98 3q94 -57 190 -138l203 99q33 18 49 -17l17 -33q14 -31 -17 -49zM606 152q162 0 251 96t89 231q0 145 -95 236.5t-245 91.5q-164 0 -253 -96.5t-89 -231.5t89 -231t253 -96z" glyph-name="eth" horiz-adv-x="1210" unicode="ð"/><glyph d="M639 1063q172 0 285.5 -122t113.5 -292v-594q0 -23 -16 -39t-39 -16h-78q-23 0 -38 16.5t-15 38.5v541q0 123 -61.5 207t-196.5 84t-205 -91t-70 -200v-541q0 -23 -16 -39t-39 -16h-78q-23 0 -38 16.5t-15 38.5v928q0 23 15.5 39t37.5 16h78q23 0 39 -16t16 -39v-90 q113 170 320 170zM809 1397l51 -8q37 -8 29 -46q-35 -150 -168 -149q-53 0 -133 34t-117 34q-49 0 -65 -54q-10 -29 -41 -24l-52 10q-16 2 -25 15.5t-5 27.5q39 150 168 149q47 0 127.5 -33.5t119.5 -33.5q53 0 70 53q4 12 15.5 19.5t25.5 5.5z" glyph-name="ntilde" unicode="ñ"/><glyph d="M616.5 1063q233.5 0 389 -159t155.5 -386t-155.5 -386t-389 -159t-389 159t-155.5 386t155.5 386t389 159zM616.5 152q153.5 0 254 104t100.5 262q0 160 -100.5 264.5t-254 104.5t-253 -104.5t-99.5 -264.5q0 -158 99.5 -262t253 -104zM502 1489q45 0 65 -41l97 -207 q6 -14 -2.5 -26.5t-22.5 -12.5h-66q-29 0 -45 25l-143 205q-12 18 -2 37.5t33 19.5h86z" glyph-name="ograve" horiz-adv-x="1232" unicode="ò"/><glyph d="M616.5 1063q233.5 0 389 -159t155.5 -386t-155.5 -386t-389 -159t-389 159t-155.5 386t155.5 386t389 159zM616.5 152q153.5 0 254 104t100.5 262q0 160 -100.5 264.5t-254 104.5t-253 -104.5t-99.5 -264.5q0 -158 99.5 -262t253 -104zM711 1489h86q23 0 33 -19.5 t-3 -37.5l-143 -205q-16 -25 -45 -25h-66q-14 0 -22 12.5t-2 26.5l96 207q21 41 66 41z" glyph-name="oacute" horiz-adv-x="1232" unicode="ó"/><glyph d="M616.5 1063q233.5 0 389 -159t155.5 -386t-155.5 -386t-389 -159t-389 159t-155.5 386t155.5 386t389 159zM616.5 152q153.5 0 254 104t100.5 262q0 160 -100.5 264.5t-254 104.5t-253 -104.5t-99.5 -264.5q0 -158 99.5 -262t253 -104zM895 1247q10 -14 3 -29.5 t-24 -15.5h-83q-39 0 -58 31l-117 160l-116 -160q-20 -31 -60 -31h-82q-16 0 -24 15.5t2 29.5l170 213q18 29 57 29h107q35 0 57 -29z" glyph-name="ocircumflex" horiz-adv-x="1232" unicode="ô"/><glyph d="M616.5 1063q233.5 0 389 -159t155.5 -386t-155.5 -386t-389 -159t-389 159t-155.5 386t155.5 386t389 159zM616.5 152q153.5 0 254 104t100.5 262q0 160 -100.5 264.5t-254 104.5t-253 -104.5t-99.5 -264.5q0 -158 99.5 -262t253 -104zM838 1397l51 -8q37 -8 29 -46 q-35 -150 -168 -149q-53 0 -133 34t-117 34q-49 0 -66 -54q-10 -29 -41 -24l-51 10q-16 2 -25.5 15.5t-5.5 27.5q39 150 168 149q47 0 128 -33.5t120 -33.5q53 0 70 53q4 12 15.5 19.5t25.5 5.5z" glyph-name="otilde" horiz-adv-x="1232" unicode="õ"/><glyph d="M616.5 1063q233.5 0 389 -159t155.5 -386t-155.5 -386t-389 -159t-389 159t-155.5 386t155.5 386t389 159zM616.5 152q153.5 0 254 104t100.5 262q0 160 -100.5 264.5t-254 104.5t-253 -104.5t-99.5 -264.5q0 -158 99.5 -262t253 -104zM411.5 1444q49.5 0 84 -34 t34.5 -83t-34.5 -84t-84 -35t-83 35t-33.5 84t33.5 83t83 34zM817 1444q49 0 84 -34t35 -83t-35 -84t-84 -35q-47 0 -82 35t-35 84t35 83t82 34z" glyph-name="odieresis" horiz-adv-x="1232" unicode="ö"/><glyph d="M143 647q0 23 16.5 38t39.5 15h692q23 0 39 -15t16 -38v-74q0 -23 -16.5 -39t-38.5 -16h-692q-23 0 -39.5 16.5t-16.5 38.5v74zM545 913q-49 0 -85 35t-36 84q0 51 36 86t85 35t85 -35t36 -86q0 -49 -36 -84t-85 -35zM545 307q49 0 85 -34.5t36 -84.5q0 -51 -36 -85.5 t-85 -34.5t-85 34.5t-36 85.5q0 49 36 84t85 35z" glyph-name="divide" horiz-adv-x="1089" unicode="÷"/><glyph d="M1057 846q104 -147 104 -328q0 -227 -155.5 -385t-389.5 -158q-213 0 -364 136l-76 -68q-27 -25 -53 2l-25 27q-25 29 4 51l76 70q-106 145 -106 325q0 227 155.5 386t388.5 159q213 0 367 -137l76 69q25 25 51 -2l25 -26q27 -27 -2 -52zM264 518q0 -113 51 -199l533 484 q-96 84 -232 84q-154 0 -253 -104.5t-99 -264.5zM616 152q154 0 254.5 104t100.5 262q0 111 -53 201l-533 -486q98 -81 231 -81z" glyph-name="oslash" horiz-adv-x="1232" unicode="ø"/><glyph d="M907 1038h78q23 0 38 -16t15 -39v-928q0 -23 -15 -39t-38 -16h-78q-23 0 -39 16.5t-16 38.5v90q-111 -170 -320 -170q-172 0 -285.5 122t-113.5 292v594q0 23 16.5 39t38.5 16h78q23 0 38 -16t15 -39v-541q0 -123 61.5 -206.5t197 -83.5t205 91t69.5 199v541q0 23 16 39 t39 16zM512 1489q45 0 66 -41l96 -207q6 -14 -2 -26.5t-23 -12.5h-65q-31 0 -45 25l-144 205q-12 18 -2 37.5t33 19.5h86z" glyph-name="ugrave" unicode="ù"/><glyph d="M907 1038h78q23 0 38 -16t15 -39v-928q0 -23 -15 -39t-38 -16h-78q-23 0 -39 16.5t-16 38.5v90q-111 -170 -320 -170q-172 0 -285.5 122t-113.5 292v594q0 23 16.5 39t38.5 16h78q23 0 38 -16t15 -39v-541q0 -123 61.5 -206.5t197 -83.5t205 91t69.5 199v541q0 23 16 39 t39 16zM680 1489h86q23 0 33 -19.5t-2 -37.5l-144 -205q-14 -25 -45 -25h-65q-14 0 -22.5 12.5t-2.5 26.5l96 207q21 41 66 41z" glyph-name="uacute" unicode="ú"/><glyph d="M907 1038h78q23 0 38 -16t15 -39v-928q0 -23 -15 -39t-38 -16h-78q-23 0 -39 16.5t-16 38.5v90q-111 -170 -320 -170q-172 0 -285.5 122t-113.5 292v594q0 23 16.5 39t38.5 16h78q23 0 38 -16t15 -39v-541q0 -123 61.5 -206.5t197 -83.5t205 91t69.5 199v541q0 23 16 39 t39 16zM866 1247q10 -14 3 -29.5t-23 -15.5h-84q-39 0 -57 31l-117 160l-117 -160q-20 -31 -59 -31h-82q-16 0 -24.5 15.5t1.5 29.5l170 213q18 29 58 29h106q35 0 57 -29z" glyph-name="ucircumflex" unicode="û"/><glyph d="M907 1038h78q23 0 38 -16t15 -39v-928q0 -23 -15 -39t-38 -16h-78q-23 0 -39 16.5t-16 38.5v90q-111 -170 -320 -170q-172 0 -285.5 122t-113.5 292v594q0 23 16.5 39t38.5 16h78q23 0 38 -16t15 -39v-541q0 -123 61.5 -206.5t197 -83.5t205 91t69.5 199v541q0 23 16 39 t39 16zM381 1444q49 0 84 -34t35 -83t-35 -84t-84 -35t-83 35t-34 84t34 83t83 34zM786 1444q49 0 84 -34t35 -83t-34.5 -84t-84.5 -35q-47 0 -81.5 35t-34.5 84t34.5 83t81.5 34z" glyph-name="udieresis" unicode="ü"/><glyph d="M834 991q16 47 67 47h92q23 0 36 -20.5t5 -42.5q-328 -834 -387 -975q-82 -201 -168 -298t-221 -97q-35 0 -51 2q-16 0 -28.5 13t-12.5 32v78q0 18 12 31.5t31 13.5q88 4 148.5 62.5t117.5 215.5q-55 141 -407 922q-10 23 4 43t39 20h90q49 0 65 -45l301 -704zM664 1489 h86q23 0 33 -19.5t-3 -37.5l-143 -205q-14 -25 -45 -25h-66q-14 0 -22 12.5t-2 26.5l96 207q21 41 66 41z" glyph-name="yacute" horiz-adv-x="1099" unicode="ý"/><glyph d="M698 1063q231 0 375 -164t144 -381q0 -215 -143.5 -379t-375.5 -164q-240 0 -376 170v-485q0 -23 -16.5 -39t-39.5 -16h-78q-23 0 -38 16.5t-15 38.5v1718q0 23 15.5 39.5t37.5 16.5h78q23 0 39.5 -16.5t16.5 -39.5v-485q136 170 376 170zM680 152q158 0 251 103t93 263 q0 162 -93 265.5t-251 103.5q-166 0 -262 -104.5t-96 -264.5q0 -158 96 -262t262 -104z" glyph-name="thorn" horiz-adv-x="1286" unicode="þ"/><glyph d="M834 991q16 47 67 47h92q23 0 36 -20.5t5 -42.5q-328 -834 -387 -975q-82 -201 -168 -298t-221 -97q-35 0 -51 2q-16 0 -28.5 13t-12.5 32v78q0 18 12 31.5t31 13.5q88 4 148.5 62.5t117.5 215.5q-55 141 -407 922q-10 23 4 43t39 20h90q49 0 65 -45l301 -704zM346 1444 q49 0 84 -34t35 -83t-35 -84t-84 -35t-83 35t-34 84t34 83t83 34zM752 1444q49 0 83.5 -34t34.5 -83t-34.5 -84t-83.5 -35q-47 0 -82 35t-35 84t35 83t82 34z" glyph-name="ydieresis" horiz-adv-x="1099" unicode="ÿ"/><glyph d="M1169 0q-51 0 -69 49l-105 297h-614l-105 -297q-18 -49 -67 -49h-119q-18 0 -29.5 15.5t-3.5 33.5l498 1337q16 47 68 48h131q51 0 67 -48l500 -1337q6 -18 -5 -33.5t-30 -15.5h-117zM449 532h481l-242 682zM412 1763q0 14 11 25.5t26 11.5h485q16 0 26.5 -11t10.5 -26 v-71q0 -16 -10.5 -26.5t-26.5 -10.5h-485q-14 0 -25.5 10t-11.5 27v71z" glyph-name="Amacron" horiz-adv-x="1380" unicode="Ā"/><glyph d="M965 983q0 23 16 39t39 16h78q23 0 39 -16t16 -39v-928q0 -23 -16.5 -39t-38.5 -16h-78q-23 0 -39 16.5t-16 38.5v90q-133 -170 -377 -170q-231 0 -373.5 164t-142.5 379q0 217 142 381t374 164q244 0 377 -170v90zM606 152q168 0 263.5 103t95.5 263t-95.5 264.5 t-263.5 104.5q-158 0 -251 -103.5t-93 -265.5q0 -160 93 -263t251 -103zM344 1354q0 14 10.5 25.5t26.5 11.5h485q14 0 25.5 -11.5t11.5 -25.5v-72q0 -16 -11 -26.5t-26 -10.5h-485q-16 0 -26.5 10.5t-10.5 26.5v72z" glyph-name="amacron" horiz-adv-x="1286" unicode="ā"/><glyph d="M1169 0q-51 0 -69 49l-105 297h-614l-105 -297q-18 -49 -67 -49h-119q-18 0 -29.5 15.5t-3.5 33.5l498 1337q16 47 68 48h131q51 0 67 -48l500 -1337q6 -18 -5 -33.5t-30 -15.5h-117zM449 532h481l-242 682zM879 1874h67q16 0 27.5 -14.5t7.5 -30.5q-16 -102 -94 -163.5 t-195 -61.5t-194.5 61t-94.5 164q-4 16 7.5 30.5t27.5 14.5h68q29 0 37 -31q10 -45 48 -78.5t101.5 -33.5t101 33.5t48.5 78.5q8 31 37 31z" glyph-name="Abreve" horiz-adv-x="1380" unicode="Ă"/><glyph d="M965 983q0 23 16 39t39 16h78q23 0 39 -16t16 -39v-928q0 -23 -16.5 -39t-38.5 -16h-78q-23 0 -39 16.5t-16 38.5v90q-133 -170 -377 -170q-231 0 -373.5 164t-142.5 379q0 217 142 381t374 164q244 0 377 -170v90zM606 152q168 0 263.5 103t95.5 263t-95.5 264.5 t-263.5 104.5q-158 0 -251 -103.5t-93 -265.5q0 -160 93 -263t251 -103zM831 1464h68q16 0 27.5 -14t7.5 -31q-16 -102 -94 -163.5t-195 -61.5t-194.5 61.5t-94.5 163.5q-4 16 7.5 30.5t27.5 14.5h68q29 0 37 -30q10 -45 48 -79t101.5 -34t101 34t48.5 79q7 30 36 30z" glyph-name="abreve" horiz-adv-x="1286" unicode="ă"/><glyph d="M1171 -240q0 -111 129 -108q14 2 25.5 -8.5t11.5 -26.5v-63q0 -31 -30 -35q-29 -4 -47 -4q-102 0 -164 56t-62 144t57.5 163t131.5 122h-56q-49 0 -67 49l-105 297h-614l-105 -297q-18 -49 -67 -49h-119q-18 0 -29.5 15.5t-3.5 33.5l498 1337q16 47 68 48h131 q51 0 67 -48l502 -1347q14 -37 -18 -62q-134 -102 -134 -217zM446 532h482l-240 682z" glyph-name="Aogonek" horiz-adv-x="1380" unicode="Ą"/><glyph d="M1153 29q0 -27 -23 -43q-63 -47 -103 -107.5t-40 -118.5q0 -111 129 -108q14 2 25.5 -8.5t11.5 -26.5v-63q0 -31 -31 -35q-29 -4 -47 -4q-102 0 -163.5 56t-61.5 144t58.5 164t131.5 121h-18q-23 0 -39 16.5t-16 38.5v90q-137 -170 -377 -170q-231 0 -374.5 164 t-143.5 379q0 217 143 381t375 164q240 0 377 -170v90q0 23 16 39t39 16h78q23 0 38 -16t15 -39v-954zM608 152q166 0 262.5 104t96.5 262q0 160 -96.5 264.5t-262.5 104.5q-158 0 -251 -103.5t-93 -265.5q0 -160 93 -263t251 -103z" glyph-name="aogonek" horiz-adv-x="1286" unicode="ą"/><glyph d="M821 166q223 0 369 151q33 35 70 9l77 -52q23 -14 26 -39.5t-15 -44.5q-209 -215 -527 -215q-315 0 -522 212t-207 529.5t207 530.5t522 213q319 0 527 -217q18 -18 15 -43.5t-26 -40.5l-77 -51q-37 -25 -70 8q-145 152 -369 152q-238 0 -379 -164t-141 -387t141 -387 t379 -164zM877 1898h86q23 0 33 -19t-3 -38l-143 -205q-14 -25 -45 -24h-66q-14 0 -22 12t-2 27l96 207q21 40 66 40z" glyph-name="Cacute" horiz-adv-x="1441" unicode="Ć"/><glyph d="M616 152q176 0 275 129q29 37 70 14l63 -35q23 -12 27 -36.5t-11 -45.5q-160 -203 -424 -203q-233 0 -388.5 158t-155.5 385t155.5 386t388.5 159q264 0 424 -203q14 -20 10.5 -44.5t-26.5 -37.5l-63 -35q-41 -23 -70 15q-98 129 -275 129q-154 0 -253 -104.5t-99 -264.5 q0 -158 99 -262t253 -104zM668 1489h86q23 0 33 -19.5t-3 -37.5l-143 -205q-14 -25 -45 -25h-66q-14 0 -22 12.5t-2 26.5l96 207q21 41 66 41z" glyph-name="cacute" horiz-adv-x="1118" unicode="ć"/><glyph d="M821 166q223 0 369 151q33 35 70 9l77 -52q23 -14 26 -39.5t-15 -44.5q-209 -215 -527 -215q-315 0 -522 212t-207 529.5t207 530.5t522 213q319 0 527 -217q18 -18 15 -43.5t-26 -40.5l-77 -51q-37 -25 -70 8q-145 152 -369 152q-238 0 -379 -164t-141 -387t141 -387 t379 -164zM1061 1657q10 -14 3 -29.5t-24 -15.5h-84q-39 0 -57 30l-117 160l-116 -160q-23 -31 -60 -30h-82q-16 0 -24 15t2 30l170 213q18 29 57 28h107q35 0 57 -28z" glyph-name="Ccircumflex" horiz-adv-x="1441" unicode="Ĉ"/><glyph d="M616 152q176 0 275 129q29 37 70 14l63 -35q23 -12 27 -36.5t-11 -45.5q-160 -203 -424 -203q-233 0 -388.5 158t-155.5 385t155.5 386t388.5 159q264 0 424 -203q14 -20 10.5 -44.5t-26.5 -37.5l-63 -35q-41 -23 -70 15q-98 129 -275 129q-154 0 -253 -104.5t-99 -264.5 q0 -158 99 -262t253 -104zM874 1247q10 -14 3 -29.5t-23 -15.5h-84q-39 0 -57 31l-117 160l-117 -160q-20 -31 -59 -31h-82q-16 0 -24.5 15.5t1.5 29.5l170 213q18 29 58 29h106q35 0 58 -29z" glyph-name="ccircumflex" horiz-adv-x="1118" unicode="ĉ"/><glyph d="M821 166q223 0 369 151q33 35 70 9l77 -52q23 -14 26 -39.5t-15 -44.5q-209 -215 -527 -215q-315 0 -522 212t-207 529.5t207 530.5t522 213q319 0 527 -217q18 -18 15 -43.5t-26 -40.5l-77 -51q-37 -25 -70 8q-145 152 -369 152q-238 0 -379 -164t-141 -387t141 -387 t379 -164zM780 1853q49 0 84 -33.5t35 -82.5t-35 -84t-84 -35t-82.5 35t-33.5 84t33.5 82.5t82.5 33.5z" glyph-name="Cdotaccent" horiz-adv-x="1441" unicode="Ċ"/><glyph d="M616 152q176 0 275 129q29 37 70 14l63 -35q23 -12 27 -36.5t-11 -45.5q-160 -203 -424 -203q-233 0 -388.5 158t-155.5 385t155.5 386t388.5 159q264 0 424 -203q14 -20 10.5 -44.5t-26.5 -37.5l-63 -35q-41 -23 -70 15q-98 129 -275 129q-154 0 -253 -104.5t-99 -264.5 q0 -158 99 -262t253 -104zM594 1444q49 0 84 -34t35 -83t-35 -84t-84 -35t-83 35t-34 84t34 83t83 34z" glyph-name="cdotaccent" horiz-adv-x="1118" unicode="ċ"/><glyph d="M821 166q223 0 369 151q33 35 70 9l77 -52q23 -14 26 -39.5t-15 -44.5q-209 -215 -527 -215q-315 0 -522 212t-207 529.5t207 530.5t522 213q319 0 527 -217q18 -18 15 -43.5t-26 -40.5l-77 -51q-37 -25 -70 8q-145 152 -369 152q-238 0 -379 -164t-141 -387t141 -387 t379 -164zM502 1853q-10 14 -2 29.5t24 15.5h82q37 0 60 -30l116 -160l117 160q18 31 59 30h82q16 0 23.5 -15t-2.5 -30l-168 -213q-23 -29 -57 -28h-107q-39 0 -57 28z" glyph-name="Ccaron" horiz-adv-x="1441" unicode="Č"/><glyph d="M616 152q176 0 275 129q29 37 70 14l63 -35q23 -12 27 -36.5t-11 -45.5q-160 -203 -424 -203q-233 0 -388.5 158t-155.5 385t155.5 386t388.5 159q264 0 424 -203q14 -20 10.5 -44.5t-26.5 -37.5l-63 -35q-41 -23 -70 15q-98 129 -275 129q-154 0 -253 -104.5t-99 -264.5 q0 -158 99 -262t253 -104zM315 1444q-10 14 -1.5 29.5t24.5 15.5h82q39 0 59 -31l117 -160l117 160q18 31 59 31h82q16 0 23.5 -15.5t-3.5 -29.5l-167 -213q-23 -29 -58 -29h-106q-39 0 -58 29z" glyph-name="ccaron" horiz-adv-x="1118" unicode="č"/><glyph d="M549 1434q354 0 550.5 -201t196.5 -516.5t-196.5 -516t-550.5 -200.5h-350q-23 0 -39.5 16.5t-16.5 38.5v1323q0 23 16.5 39.5t39.5 16.5h350zM549 186q252 0 396.5 143.5t144.5 387.5t-144.5 387t-396.5 143h-201v-1061h201zM379 1853q-10 14 -2 29.5t24 15.5h82 q37 0 60 -30l116 -160l117 160q18 31 60 30h82q16 0 23 -15t-3 -30l-168 -213q-23 -29 -57 -28h-107q-39 0 -57 28z" glyph-name="Dcaron" horiz-adv-x="1388" unicode="Ď"/><glyph d="M967 1378q0 23 15 39.5t38 16.5h78q23 0 39 -16.5t16 -39.5v-1323q0 -23 -16.5 -39t-38.5 -16h-78q-23 0 -38 16.5t-15 38.5v90q-137 -170 -379 -170q-231 0 -373.5 164t-142.5 379q0 217 142 381t374 164q242 0 379 -170v485zM606 152q168 0 264.5 103t96.5 263 t-96.5 264.5t-264.5 104.5q-158 0 -251 -103.5t-93 -265.5q0 -160 93 -263t251 -103zM1395 1399q14 35 51 35h115q14 0 22 -13.5t2 -27.5l-119 -217q-16 -29 -49 -29h-76q-14 0 -22 11t-2 26z" glyph-name="dcaron" horiz-adv-x="1411" unicode="ď"/><glyph d="M625 1434q354 0 551.5 -201t197.5 -516.5t-197.5 -516t-551.5 -200.5h-351q-23 0 -38 16.5t-15 38.5v588h-153q-20 0 -34 13.5t-14 33.5v53q0 20 13.5 34t34.5 14h153v587q0 23 15.5 39.5t37.5 16.5h351zM625 186q254 0 398 143.5t144 387.5t-144 387t-398 143h-199v-456 h315q18 0 31.5 -13.5t13.5 -34.5v-53q0 -20 -13 -33.5t-32 -13.5h-315v-457h199z" glyph-name="Dcroat" horiz-adv-x="1466" unicode="Đ"/><glyph d="M1260 1239q14 0 25 -11t11 -26v-37q0 -14 -11 -24.5t-25 -10.5h-107v-1075q0 -23 -16.5 -39t-38.5 -16h-76q-23 0 -39 16.5t-16 38.5v82q-137 -162 -377 -162q-233 0 -375.5 156t-142.5 371q0 213 142 369.5t376 156.5q238 0 377 -164v266h-291q-14 0 -25.5 10.5 t-11.5 24.5v37q0 14 10 25.5t27 11.5h291v139q0 23 16 39.5t39 16.5h76q23 0 39 -16.5t16 -39.5v-139h107zM608 133q166 0 262.5 104.5t96.5 264.5q0 158 -96.5 262t-262.5 104q-158 0 -251 -103t-93 -263q0 -162 93 -265.5t251 -103.5z" glyph-name="dcroat" horiz-adv-x="1286" unicode="đ"/><glyph d="M348 186h549q23 0 39 -15t16 -38v-78q0 -23 -16 -39t-39 -16h-700q-23 0 -38.5 16.5t-15.5 38.5v1323q0 23 15.5 39.5t38.5 16.5h682q23 0 39 -16.5t16 -39.5v-75q0 -23 -16.5 -39.5t-38.5 -16.5h-531v-411h483q23 0 39.5 -16.5t16.5 -39.5v-75q0 -23 -16.5 -39.5 t-39.5 -16.5h-483v-463zM270 1763q0 14 10.5 25.5t26.5 11.5h486q14 0 25 -11t11 -26v-71q0 -16 -11 -26.5t-25 -10.5h-486q-16 0 -26.5 10t-10.5 27v71z" glyph-name="Emacron" horiz-adv-x="1056" unicode="Ē"/><glyph d="M596 1063q209 0 360.5 -152.5t143.5 -400.5q0 -29 -21.5 -50.5t-50.5 -21.5h-760q25 -131 118 -208.5t243 -77.5q145 0 243 88q31 29 66 4l61 -39q23 -14 26 -40t-13 -44q-145 -145 -383 -146q-252 0 -404.5 156t-152.5 387q0 229 149.5 387t374.5 158zM268 600h637 q-18 133 -99 210t-210 77q-131 0 -218 -78t-110 -209zM307 1354q0 14 10.5 25.5t26.5 11.5h485q14 0 25.5 -11.5t11.5 -25.5v-72q0 -16 -11 -26.5t-26 -10.5h-485q-16 0 -26.5 10.5t-10.5 26.5v72z" glyph-name="emacron" horiz-adv-x="1173" unicode="ē"/><glyph d="M348 186h549q23 0 39 -15t16 -38v-78q0 -23 -16 -39t-39 -16h-700q-23 0 -38.5 16.5t-15.5 38.5v1323q0 23 15.5 39.5t38.5 16.5h682q23 0 39 -16.5t16 -39.5v-75q0 -23 -16.5 -39.5t-38.5 -16.5h-531v-411h483q23 0 39.5 -16.5t16.5 -39.5v-75q0 -23 -16.5 -39.5 t-39.5 -16.5h-483v-463zM737 1874h68q16 0 27.5 -14.5t7.5 -30.5q-16 -102 -94 -163.5t-195 -61.5t-194.5 61t-94.5 164q-4 16 7.5 30.5t27.5 14.5h68q29 0 36 -31q10 -45 48 -78.5t101.5 -33.5t101.5 33.5t48 78.5q8 31 37 31z" glyph-name="Ebreve" horiz-adv-x="1056" unicode="Ĕ"/><glyph d="M596 1063q209 0 360.5 -152.5t143.5 -400.5q0 -29 -21.5 -50.5t-50.5 -21.5h-760q25 -131 118 -208.5t243 -77.5q145 0 243 88q31 29 66 4l61 -39q23 -14 26 -40t-13 -44q-145 -145 -383 -146q-252 0 -404.5 156t-152.5 387q0 229 149.5 387t374.5 158zM268 600h637 q-18 133 -99 210t-210 77q-131 0 -218 -78t-110 -209zM774 1464h68q16 0 27.5 -14t7.5 -31q-16 -102 -94 -163.5t-195 -61.5t-195 61.5t-94 163.5q-4 16 7 30.5t28 14.5h67q29 0 37 -30q10 -45 48 -79t101.5 -34t101.5 34t48 79q8 30 37 30z" glyph-name="ebreve" horiz-adv-x="1173" unicode="ĕ"/><glyph d="M348 186h549q23 0 39 -15t16 -38v-78q0 -23 -16 -39t-39 -16h-700q-23 0 -38.5 16.5t-15.5 38.5v1323q0 23 15.5 39.5t38.5 16.5h682q23 0 39 -16.5t16 -39.5v-75q0 -23 -16.5 -39.5t-38.5 -16.5h-531v-411h483q23 0 39.5 -16.5t16.5 -39.5v-75q0 -23 -16.5 -39.5 t-39.5 -16.5h-483v-463zM549 1853q49 0 84 -33.5t35 -82.5t-35 -84t-84 -35t-83 35t-34 84t34 82.5t83 33.5z" glyph-name="Edotaccent" horiz-adv-x="1056" unicode="Ė"/><glyph d="M596 1063q209 0 360.5 -152.5t143.5 -400.5q0 -29 -21.5 -50.5t-50.5 -21.5h-760q25 -131 118 -208.5t243 -77.5q145 0 243 88q31 29 66 4l61 -39q23 -14 26 -40t-13 -44q-145 -145 -383 -146q-252 0 -404.5 156t-152.5 387q0 229 149.5 387t374.5 158zM268 600h637 q-18 133 -99 210t-210 77q-131 0 -218 -78t-110 -209zM586 1444q49 0 84 -34t35 -83t-35 -84t-84 -35t-83 35t-34 84t34 83t83 34z" glyph-name="edotaccent" horiz-adv-x="1173" unicode="ė"/><glyph d="M952 29q0 -27 -22 -43q-143 -104 -144 -226q0 -111 129 -108q14 2 25.5 -8.5t11.5 -26.5v-63q0 -31 -30 -35q-29 -4 -50 -4q-100 0 -161.5 56t-61.5 144t57.5 163t131.5 122h-641q-23 0 -38.5 16.5t-15.5 38.5v1323q0 23 15.5 39.5t38.5 16.5h682q23 0 39 -16.5t16 -39.5 v-75q0 -23 -16.5 -39.5t-38.5 -16.5h-531v-411h483q23 0 39.5 -16.5t16.5 -39.5v-75q0 -23 -16.5 -39.5t-39.5 -16.5h-483v-463h549q23 0 39 -15t16 -38v-104z" glyph-name="Eogonek" horiz-adv-x="1056" unicode="Ę"/><glyph d="M598 1063q209 0 360.5 -152.5t143.5 -400.5q0 -29 -21.5 -50.5t-50.5 -21.5h-760q25 -131 118 -208.5t242.5 -77.5t243.5 88q31 29 66 4l64 -39q20 -14 23 -40t-13 -44q-106 -106 -269 -135q-150 -106 -149 -226q0 -111 129 -108q14 2 25.5 -8.5t11.5 -26.5v-63 q0 -31 -31 -35q-29 -4 -49 -4q-100 0 -161.5 56t-61.5 144q0 141 153 260q-244 6 -391 162t-147 381q0 229 149.5 387t374.5 158zM270 600h637q-18 133 -99 210t-210 77q-131 0 -218 -78t-110 -209z" glyph-name="eogonek" horiz-adv-x="1173" unicode="ę"/><glyph d="M348 186h549q23 0 39 -15t16 -38v-78q0 -23 -16 -39t-39 -16h-700q-23 0 -38.5 16.5t-15.5 38.5v1323q0 23 15.5 39.5t38.5 16.5h682q23 0 39 -16.5t16 -39.5v-75q0 -23 -16.5 -39.5t-38.5 -16.5h-531v-411h483q23 0 39.5 -16.5t16.5 -39.5v-75q0 -23 -16.5 -39.5 t-39.5 -16.5h-483v-463zM270 1853q-10 14 -2 29.5t25 15.5h82q39 0 59 -30l117 -160l117 160q18 31 59 30h82q16 0 23.5 -15t-3.5 -30l-167 -213q-23 -29 -58 -28h-106q-39 0 -58 28z" glyph-name="Ecaron" horiz-adv-x="1056" unicode="Ě"/><glyph d="M596 1063q209 0 360.5 -152.5t143.5 -400.5q0 -29 -21.5 -50.5t-50.5 -21.5h-760q25 -131 118 -208.5t243 -77.5q145 0 243 88q31 29 66 4l61 -39q23 -14 26 -40t-13 -44q-145 -145 -383 -146q-252 0 -404.5 156t-152.5 387q0 229 149.5 387t374.5 158zM268 600h637 q-18 133 -99 210t-210 77q-131 0 -218 -78t-110 -209zM307 1444q-10 14 -2 29.5t25 15.5h82q39 0 59 -31l117 -160l117 160q18 31 59 31h82q16 0 23.5 -15.5t-3.5 -29.5l-168 -213q-23 -29 -57 -29h-106q-39 0 -58 29z" glyph-name="ecaron" horiz-adv-x="1173" unicode="ě"/><glyph d="M840 721q0 23 16 38t39 15h530q23 0 39.5 -15.5t16.5 -37.5v-676q0 -18 -13.5 -31.5t-33.5 -13.5h-43q-41 0 -45 43l-15 193q-158 -260 -510 -261q-315 0 -522 212t-207 529.5t207 530.5t522 213q319 0 527 -217q18 -18 15 -43.5t-26 -40.5l-77 -51q-37 -25 -70 8 q-145 152 -369 152q-238 0 -379 -164t-141 -387t141.5 -387t378.5 -164q215 0 342 117.5t154 304.5h-422q-23 0 -39 16.5t-16 38.5v78zM1098 1657q10 -14 3 -29.5t-24 -15.5h-84q-39 0 -57 30l-117 160l-117 -160q-23 -31 -59 -30h-82q-16 0 -24.5 15t2.5 30l170 213 q18 29 57 28h106q35 0 58 -28z" glyph-name="Gcircumflex" horiz-adv-x="1601" unicode="Ĝ"/><glyph d="M944 983q0 23 16.5 39t38.5 16h76q23 0 39 -16t16 -39v-874q0 -236 -132 -379.5t-398 -143.5q-274 0 -430 156q-18 18 -14 45t26 41l66 39q37 23 65 -6q94 -98 287 -99q176 0 260 99.5t84 265.5v80q-127 -178 -354 -178q-219 0 -367.5 158.5t-148.5 359.5t148.5 358.5 t367.5 157.5q225 0 354 -176v96zM608 207q147 0 241.5 96t94.5 244q0 143 -90 239.5t-233.5 100.5t-250 -96.5t-106.5 -243.5q0 -145 99.5 -242.5t244.5 -97.5zM901 1247q10 -14 3 -29.5t-23 -15.5h-84q-39 0 -58 31l-116 160l-117 -160q-23 -31 -60 -31h-81 q-16 0 -24.5 15.5t1.5 29.5l170 213q18 29 57 29h107q35 0 57 -29z" glyph-name="gcircumflex" horiz-adv-x="1263" unicode="ĝ"/><glyph d="M840 721q0 23 16 38t39 15h530q23 0 39.5 -15.5t16.5 -37.5v-676q0 -18 -13.5 -31.5t-33.5 -13.5h-43q-41 0 -45 43l-15 193q-158 -260 -510 -261q-315 0 -522 212t-207 529.5t207 530.5t522 213q319 0 527 -217q18 -18 15 -43.5t-26 -40.5l-77 -51q-37 -25 -70 8 q-145 152 -369 152q-238 0 -379 -164t-141 -387t141.5 -387t378.5 -164q215 0 342 117.5t154 304.5h-422q-23 0 -39 16.5t-16 38.5v78zM1006 1874h67q16 0 27.5 -14.5t7.5 -30.5q-16 -102 -94 -163.5t-195 -61.5t-194.5 61t-94.5 164q-4 16 7.5 30.5t27.5 14.5h68 q29 0 37 -31q10 -45 48 -78.5t101.5 -33.5t101 33.5t48.5 78.5q8 31 37 31z" glyph-name="Gbreve" horiz-adv-x="1601" unicode="Ğ"/><glyph d="M944 983q0 23 16.5 39t38.5 16h76q23 0 39 -16t16 -39v-874q0 -236 -132 -379.5t-398 -143.5q-274 0 -430 156q-18 18 -14 45t26 41l66 39q37 23 65 -6q94 -98 287 -99q176 0 260 99.5t84 265.5v80q-127 -178 -354 -178q-219 0 -367.5 158.5t-148.5 359.5t148.5 358.5 t367.5 157.5q225 0 354 -176v96zM608 207q147 0 241.5 96t94.5 244q0 143 -90 239.5t-233.5 100.5t-250 -96.5t-106.5 -243.5q0 -145 99.5 -242.5t244.5 -97.5zM809 1464h68q16 0 27 -14t7 -31q-16 -102 -94 -163.5t-194.5 -61.5t-194.5 61.5t-94 163.5q-4 16 7 30.5 t28 14.5h67q29 0 37 -30q10 -45 48 -79t101.5 -34t101.5 34t48 79q8 30 37 30z" glyph-name="gbreve" horiz-adv-x="1263" unicode="ğ"/><glyph d="M840 721q0 23 16 38t39 15h530q23 0 39.5 -15.5t16.5 -37.5v-676q0 -18 -13.5 -31.5t-33.5 -13.5h-43q-41 0 -45 43l-15 193q-158 -260 -510 -261q-315 0 -522 212t-207 529.5t207 530.5t522 213q319 0 527 -217q18 -18 15 -43.5t-26 -40.5l-77 -51q-37 -25 -70 8 q-145 152 -369 152q-238 0 -379 -164t-141 -387t141.5 -387t378.5 -164q215 0 342 117.5t154 304.5h-422q-23 0 -39 16.5t-16 38.5v78zM797 1853q49 0 83.5 -33.5t34.5 -82.5t-34.5 -84t-83.5 -35t-83 35t-34 84t34 82.5t83 33.5z" glyph-name="Gdotaccent" horiz-adv-x="1601" unicode="Ġ"/><glyph d="M944 983q0 23 16.5 39t38.5 16h76q23 0 39 -16t16 -39v-874q0 -236 -132 -379.5t-398 -143.5q-274 0 -430 156q-18 18 -14 45t26 41l66 39q37 23 65 -6q94 -98 287 -99q176 0 260 99.5t84 265.5v80q-127 -178 -354 -178q-219 0 -367.5 158.5t-148.5 359.5t148.5 358.5 t367.5 157.5q225 0 354 -176v96zM608 207q147 0 241.5 96t94.5 244q0 143 -90 239.5t-233.5 100.5t-250 -96.5t-106.5 -243.5q0 -145 99.5 -242.5t244.5 -97.5zM620.5 1444q49.5 0 84 -34t34.5 -83t-34.5 -84t-84 -35t-83 35t-33.5 84t33.5 83t83 34z" glyph-name="gdotaccent" horiz-adv-x="1263" unicode="ġ"/><glyph d="M840 721q0 23 16 38t39 15h530q23 0 39.5 -15.5t16.5 -37.5v-676q0 -18 -13.5 -31.5t-33.5 -13.5h-43q-41 0 -45 43l-15 193q-158 -260 -510 -261q-315 0 -522 212t-207 529.5t207 530.5t522 213q319 0 527 -217q18 -18 15 -43.5t-26 -40.5l-77 -51q-37 -25 -70 8 q-145 152 -369 152q-238 0 -379 -164t-141 -387t141.5 -387t378.5 -164q215 0 342 117.5t154 304.5h-422q-23 0 -39 16.5t-16 38.5v78zM698 -221q14 35 52 35h114q14 0 22.5 -13.5t2.5 -27.5l-119 -217q-16 -29 -49 -29h-76q-14 0 -22.5 11t-1.5 26z" glyph-name="Gcommaaccent" horiz-adv-x="1601" unicode="Ģ"/><glyph d="M944 983q0 23 16.5 39t38.5 16h76q23 0 39 -16t16 -39v-874q0 -236 -132 -379.5t-398 -143.5q-274 0 -430 156q-18 18 -14 45t26 41l66 39q37 23 65 -6q94 -98 287 -99q176 0 260 99.5t84 265.5v80q-127 -178 -354 -178q-219 0 -367.5 158.5t-148.5 359.5t148.5 358.5 t367.5 157.5q225 0 354 -176v96zM608 207q147 0 241.5 96t94.5 244q0 143 -90 239.5t-233.5 100.5t-250 -96.5t-106.5 -243.5q0 -145 99.5 -242.5t244.5 -97.5zM735 1237q-14 -35 -51 -35h-115q-14 0 -22 13.5t-2 27.5l119 217q16 29 49 29h75q14 0 22.5 -11.5t2.5 -25.5z " glyph-name="gcommaaccent" horiz-adv-x="1263" unicode="ģ"/><glyph d="M1028 1378q0 23 16.5 39.5t38.5 16.5h95q23 0 39 -16.5t16 -39.5v-1323q0 -23 -16.5 -39t-38.5 -16h-95q-23 0 -39 16.5t-16 38.5v576h-680v-576q0 -23 -16.5 -39t-38.5 -16h-94q-23 0 -39.5 16.5t-16.5 38.5v1323q0 23 16.5 39.5t39.5 16.5h94q23 0 39 -16.5t16 -39.5 v-561h680v561zM967 1657q10 -14 3 -29.5t-24 -15.5h-84q-39 0 -57 30l-117 160l-117 -160q-23 -31 -59 -30h-82q-16 0 -24.5 15t2.5 30l170 213q18 29 57 28h106q35 0 58 -28z" glyph-name="Hcircumflex" horiz-adv-x="1376" unicode="Ĥ"/><glyph d="M639 1063q172 0 285.5 -122t113.5 -292v-594q0 -23 -16 -39t-39 -16h-78q-23 0 -38 16.5t-15 38.5v541q0 123 -61.5 207t-196.5 84t-205 -91t-70 -200v-541q0 -23 -16 -39t-39 -16h-78q-23 0 -38 16.5t-15 38.5v1323q0 23 15.5 39.5t37.5 16.5h78q23 0 39 -16.5t16 -39.5 v-485q113 170 320 170zM782 1657q10 -14 3 -29.5t-23 -15.5h-84q-39 0 -57 30l-117 160l-117 -160q-23 -31 -59 -30h-82q-16 0 -24.5 15t1.5 30l170 213q18 29 58 28h106q35 0 57 -28z" glyph-name="hcircumflex" horiz-adv-x="1173" unicode="ĥ"/><glyph d="M1452 1221q18 0 31.5 -13.5t13.5 -31.5v-56q0 -18 -13.5 -31.5t-31.5 -13.5h-147v-1020q0 -23 -15.5 -39t-38.5 -16h-96q-23 0 -39 16.5t-16 38.5v576h-680v-576q0 -23 -15.5 -39t-37.5 -16h-97q-23 0 -39 16.5t-16 38.5v1020h-147q-18 0 -31.5 13.5t-13.5 31.5v56 q0 18 13 31.5t32 13.5h147v157q0 23 16.5 39.5t38.5 16.5h97q23 0 38 -16.5t15 -39.5v-157h680v157q0 23 16.5 39.5t38.5 16.5h96q23 0 38.5 -16.5t15.5 -39.5v-157h147zM1100 817v258h-680v-258h680z" glyph-name="Hbar" horiz-adv-x="1517" unicode="Ħ"/><glyph d="M643 1026q172 0 285.5 -122t113.5 -290v-559q0 -23 -16 -39t-39 -16h-78q-23 0 -39 16.5t-16 38.5v504q0 125 -60.5 208t-195.5 83t-204.5 -91t-69.5 -200v-504q0 -23 -16.5 -39t-39.5 -16h-78q-23 0 -39 16.5t-16 38.5v1075h-106q-14 0 -25.5 10.5t-11.5 24.5v37 q0 14 10 25.5t27 11.5h106v139q0 23 16.5 39.5t38.5 16.5h78q23 0 39.5 -16.5t16.5 -39.5v-139h290q14 0 24.5 -11t10.5 -26v-37q0 -14 -10 -24.5t-25 -10.5h-290v-274q106 170 319 170z" glyph-name="hbar" horiz-adv-x="1173" unicode="ħ"/><glyph d="M143 1378q0 23 16.5 39.5t39.5 16.5h96q23 0 39 -16.5t16 -39.5v-1323q0 -23 -16.5 -39t-38.5 -16h-96q-23 0 -39.5 16.5t-16.5 38.5v1323zM469 1806l51 -8q37 -8 29 -45q-35 -150 -168 -149q-53 0 -133 33.5t-117 33.5q-49 0 -65 -53q-10 -29 -41 -25l-52 11 q-16 2 -25 15t-5 28q39 150 168 149q47 0 127.5 -33.5t119.5 -33.5q53 0 70 53q4 12 15.5 19t25.5 5z" glyph-name="Itilde" horiz-adv-x="491" unicode="Ĩ"/><glyph d="M190 0q-23 0 -39 16.5t-16 38.5v928q0 23 16.5 39t38.5 16h76q23 0 39.5 -16t16.5 -39v-928q0 -23 -16.5 -39t-39.5 -16h-76zM451 1397l51 -8q37 -8 28 -46q-35 -150 -168 -149q-53 0 -132.5 34t-116.5 34q-49 0 -66 -54q-10 -29 -41 -24l-51 10q-16 2 -25.5 15.5 t-5.5 27.5q39 150 168 149q47 0 128 -33.5t120 -33.5q53 0 70 53q4 12 15.5 19.5t25.5 5.5z" glyph-name="itilde" horiz-adv-x="454" unicode="ĩ"/><glyph d="M143 1378q0 23 16.5 39.5t39.5 16.5h96q23 0 39 -16.5t16 -39.5v-1323q0 -23 -16.5 -39t-38.5 -16h-96q-23 0 -39.5 16.5t-16.5 38.5v1323zM-33 1763q0 14 10.5 25.5t26.5 11.5h485q14 0 25.5 -11t11.5 -26v-71q0 -16 -11 -26.5t-26 -10.5h-485q-16 0 -26.5 10t-10.5 27 v71z" glyph-name="Imacron" horiz-adv-x="491" unicode="Ī"/><glyph d="M190 0q-23 0 -39 16.5t-16 38.5v928q0 23 16.5 39t38.5 16h76q23 0 39.5 -16t16.5 -39v-928q0 -23 -16.5 -39t-39.5 -16h-76zM-51 1354q0 14 11 25.5t26 11.5h485q16 0 26.5 -11.5t10.5 -25.5v-72q0 -16 -10.5 -26.5t-26.5 -10.5h-485q-14 0 -25.5 10.5t-11.5 26.5v72z " glyph-name="imacron" horiz-adv-x="454" unicode="ī"/><glyph d="M143 1378q0 23 16.5 39.5t39.5 16.5h96q23 0 39 -16.5t16 -39.5v-1323q0 -23 -16.5 -39t-38.5 -16h-96q-23 0 -39.5 16.5t-16.5 38.5v1323zM434 1874h68q16 0 27.5 -14.5t7.5 -30.5q-16 -102 -94 -163.5t-195 -61.5t-195 61t-94 164q-4 16 7 30.5t28 14.5h67q29 0 37 -31 q10 -45 48 -78.5t101.5 -33.5t101.5 33.5t48 78.5q8 31 37 31z" glyph-name="Ibreve" horiz-adv-x="491" unicode="Ĭ"/><glyph d="M190 0q-23 0 -39 16.5t-16 38.5v928q0 23 16.5 39t38.5 16h76q23 0 39.5 -16t16.5 -39v-928q0 -23 -16.5 -39t-39.5 -16h-76zM416 1464h67q16 0 27.5 -14t7.5 -31q-16 -102 -94 -163.5t-194.5 -61.5t-194.5 61.5t-94 163.5q-4 16 7 30.5t27 14.5h68q29 0 37 -30 q10 -45 48 -79t101.5 -34t101.5 34t48 79q8 30 37 30z" glyph-name="ibreve" horiz-adv-x="454" unicode="ĭ"/><glyph d="M346 29q0 -27 -22 -43q-145 -106 -146 -226q0 -111 129 -108q16 2 27.5 -9.5t11.5 -25.5v-63q0 -31 -31 -35q-29 -4 -49 -4q-102 0 -162.5 56t-60.5 144t57.5 163t130.5 122h-36q-23 0 -38.5 16.5t-15.5 38.5v1323q0 23 15.5 39.5t38.5 16.5h96q23 0 39 -16.5t16 -39.5 v-1349z" glyph-name="Iogonek" horiz-adv-x="491" unicode="Į"/><glyph d="M190 0q-23 0 -39 16.5t-16 38.5v928q0 23 16.5 39t38.5 16h78q23 0 38.5 -16t15.5 -39v-954q0 -27 -23 -43q-63 -47 -103 -107.5t-40 -118.5q0 -111 129 -108q14 2 25.5 -8.5t11.5 -26.5v-63q0 -31 -31 -35q-29 -4 -47 -4q-102 0 -164 56t-62 144t58.5 163t132.5 122h-19 zM229 1223q-45 0 -75.5 30.5t-30.5 75.5t30.5 76t75.5 31t76 -31t31 -76t-31 -75.5t-76 -30.5z" glyph-name="iogonek" horiz-adv-x="454" unicode="į"/><glyph d="M143 1378q0 23 16.5 39.5t39.5 16.5h96q23 0 39 -16.5t16 -39.5v-1323q0 -23 -16.5 -39t-38.5 -16h-96q-23 0 -39.5 16.5t-16.5 38.5v1323zM246 1853q49 0 84 -33.5t35 -82.5t-35 -84t-84 -35t-83 35t-34 84t34 82.5t83 33.5z" glyph-name="Idotaccent" horiz-adv-x="491" unicode="İ"/><glyph d="M190 0q-23 0 -39 16.5t-16 38.5v928q0 23 16.5 39t38.5 16h76q23 0 39.5 -16t16.5 -39v-928q0 -23 -16.5 -39t-39.5 -16h-76z" glyph-name="dotlessi" horiz-adv-x="454" unicode="ı"/><glyph d="M143 1378q0 23 16.5 39.5t39.5 16.5h96q23 0 39 -16.5t16 -39.5v-1323q0 -23 -16.5 -39t-38.5 -16h-96q-23 0 -39.5 16.5t-16.5 38.5v1323zM1300 1434h95q23 0 39 -16.5t16 -39.5v-915q0 -225 -112.5 -356.5t-358.5 -131.5q-195 0 -319.5 92.5t-157.5 243.5q-6 27 9 49.5 t42 26.5l90 16q20 4 38.5 -7t25.5 -31q20 -84 86.5 -141.5t185.5 -57.5q266 0 266 297v915q0 23 16 39.5t39 16.5z" glyph-name="IJ" horiz-adv-x="1593" unicode="Ĳ"/><glyph d="M190 0q-23 0 -39 16.5t-16 38.5v928q0 23 16.5 39t38.5 16h76q23 0 39.5 -16t16.5 -39v-928q0 -23 -16.5 -39t-39.5 -16h-76zM227 1223q-43 0 -74.5 30.5t-31.5 75.5t31.5 76t74.5 31q45 0 76 -31t31 -76t-31 -75.5t-76 -30.5zM565 18v965q0 23 16.5 39t39.5 16h77 q23 0 38.5 -16t15.5 -39v-1001q0 -158 -90.5 -258.5t-268.5 -100.5h-26q-18 0 -31.5 13.5t-13.5 31.5v78q0 18 12 31.5t31 13.5q115 8 157.5 64.5t42.5 162.5zM659.5 1223q-45.5 0 -76 30.5t-30.5 75.5t30.5 76t76 31t76 -31t30.5 -76t-30.5 -75.5t-76 -30.5z" glyph-name="ij" horiz-adv-x="884" unicode="ĳ"/><glyph d="M870 1434h95q23 0 39 -16.5t16 -39.5v-915q0 -225 -112.5 -356.5t-358.5 -131.5q-195 0 -320 92.5t-157 243.5q-6 27 9 49.5t42 26.5l90 16q20 4 38.5 -7t24.5 -31q20 -84 87 -141.5t186 -57.5q266 0 266 297v915q0 23 16 39.5t39 16.5zM1188 1657q10 -14 3 -29.5 t-24 -15.5h-84q-39 0 -57 30l-117 160l-116 -160q-20 -31 -60 -30h-82q-16 0 -24.5 15t2.5 30l170 213q18 29 57 28h107q35 0 57 -28z" glyph-name="Jcircumflex" horiz-adv-x="1163" unicode="Ĵ"/><glyph d="M135 18v965q0 23 16.5 39t38.5 16h78q23 0 38.5 -16t15.5 -39v-1001q0 -158 -90.5 -258.5t-268.5 -100.5h-26q-18 0 -32 13.5t-14 31.5v78q0 18 12.5 31.5t30.5 13.5q115 8 158 64.5t43 162.5zM508 1247q10 -14 3 -29.5t-24 -15.5h-84q-39 0 -57 31l-117 160l-116 -160 q-23 -31 -60 -31h-82q-16 0 -24 15.5t2 29.5l170 213q18 29 57 29h107q35 0 57 -29z" glyph-name="jcircumflex" horiz-adv-x="454" unicode="ĵ"/><glyph d="M1128 76q20 -23 7 -49.5t-41 -26.5h-121q-39 0 -70 31l-555 639v-615q0 -23 -15.5 -39t-37.5 -16h-96q-23 0 -39.5 16.5t-16.5 38.5v1323q0 23 16.5 39.5t39.5 16.5h96q23 0 38 -16.5t15 -39.5v-628l520 649q29 35 72 35h107q29 0 41 -27t-7 -47l-516 -635zM526 -221 q14 35 52 35h114q14 0 22.5 -13.5t2.5 -27.5l-119 -217q-16 -29 -49 -29h-76q-14 0 -22.5 11t-1.5 26z" glyph-name="Kcommaaccent" horiz-adv-x="1234" unicode="Ķ"/><glyph d="M520 553l416 -494q16 -16 6 -37.5t-33 -21.5h-123q-43 0 -69 33l-395 467v-445q0 -23 -16.5 -39t-39.5 -16h-78q-23 0 -39 16.5t-16 38.5v1323q0 23 16.5 39.5t38.5 16.5h78q23 0 39.5 -16.5t16.5 -39.5v-800l348 426q29 35 71 34h105q23 0 33 -21.5t-5 -37.5zM438 -221 q14 35 51 35h115q14 0 22.5 -13.5t2.5 -27.5l-119 -217q-16 -29 -49 -29h-76q-14 0 -22.5 11t-2.5 26z" glyph-name="kcommaaccent" horiz-adv-x="1028" unicode="ķ"/><glyph d="M520 553l416 -494q16 -16 6 -37.5t-33 -21.5h-123q-43 0 -69 33l-395 467v-445q0 -23 -16.5 -39t-39.5 -16h-78q-23 0 -39 16.5t-16 38.5v928q0 23 16.5 39t38.5 16h78q23 0 39.5 -16t16.5 -39v-405l348 426q29 35 71 34h105q23 0 33 -21.5t-5 -37.5z" glyph-name="kgreenlandic" horiz-adv-x="1028" unicode="ĸ"/><glyph d="M348 186h535q23 0 39 -15t16 -38v-78q0 -23 -16.5 -39t-38.5 -16h-684q-23 0 -39.5 16.5t-16.5 38.5v1323q0 23 16.5 39.5t39.5 16.5h94q23 0 39 -16.5t16 -39.5v-1192zM369 1898h86q23 0 33 -19t-3 -38l-143 -205q-14 -25 -45 -24h-66q-14 0 -22 12t-2 27l96 207 q21 40 66 40z" glyph-name="Lacute" horiz-adv-x="1019" unicode="Ĺ"/><glyph d="M133 1378q0 23 16.5 39.5t38.5 16.5h78q23 0 38 -16.5t15 -39.5v-1323q0 -23 -15 -39t-38 -16h-78q-23 0 -39 16.5t-16 38.5v1323zM350 1898h86q23 0 33 -19t-2 -38l-143 -205q-16 -25 -45 -24h-66q-14 0 -22.5 12t-2.5 27l97 207q20 40 65 40z" glyph-name="lacute" horiz-adv-x="452" unicode="ĺ"/><glyph d="M348 186h535q23 0 39 -15t16 -38v-78q0 -23 -16.5 -39t-38.5 -16h-684q-23 0 -39.5 16.5t-16.5 38.5v1323q0 23 16.5 39.5t39.5 16.5h94q23 0 39 -16.5t16 -39.5v-1192zM440 -221q14 35 52 35h114q14 0 22.5 -13.5t2.5 -27.5l-119 -217q-16 -29 -49 -29h-76 q-14 0 -22.5 11t-2.5 26z" glyph-name="Lcommaaccent" horiz-adv-x="1019" unicode="Ļ"/><glyph d="M133 1378q0 23 16.5 39.5t38.5 16.5h78q23 0 38 -16.5t15 -39.5v-1323q0 -23 -15 -39t-38 -16h-78q-23 0 -39 16.5t-16 38.5v1323zM106 -221q14 35 52 35h114q14 0 22.5 -13.5t2.5 -27.5l-119 -217q-16 -29 -49 -29h-76q-14 0 -22 11t-2 26z" glyph-name="lcommaaccent" horiz-adv-x="452" unicode="ļ"/><glyph d="M348 186h535q23 0 39 -15t16 -38v-78q0 -23 -16.5 -39t-38.5 -16h-684q-23 0 -39.5 16.5t-16.5 38.5v1323q0 23 16.5 39.5t39.5 16.5h94q23 0 39 -16.5t16 -39.5v-1192zM590 1399q14 35 51 35h115q14 0 22 -13.5t2 -27.5l-118 -217q-16 -29 -50 -29h-75q-14 0 -22.5 11 t-2.5 26z" glyph-name="Lcaron" horiz-adv-x="1019" unicode="Ľ"/><glyph d="M133 1378q0 23 16.5 39.5t38.5 16.5h78q23 0 38 -16.5t15 -39.5v-1323q0 -23 -15 -39t-38 -16h-78q-23 0 -39 16.5t-16 38.5v1323zM561 1399q14 35 51 35h115q14 0 22.5 -13.5t2.5 -27.5l-119 -217q-16 -29 -49 -29h-76q-14 0 -22.5 11t-2.5 26z" glyph-name="lcaron" horiz-adv-x="577" unicode="ľ"/><glyph d="M694 551q-51 0 -88 37t-37 90q0 51 37 88t88 37t88 -37t37 -88q0 -53 -37 -90t-88 -37zM348 186h535q23 0 39 -15t16 -38v-78q0 -23 -16.5 -39t-38.5 -16h-684q-23 0 -39.5 16.5t-16.5 38.5v1323q0 23 16.5 39.5t39.5 16.5h94q23 0 39 -16.5t16 -39.5v-1192z" glyph-name="Ldot" horiz-adv-x="1019" unicode="Ŀ"/><glyph d="M620.5 803q51.5 0 88 -37t36.5 -88q0 -53 -36.5 -90t-88 -37t-88 37t-36.5 90q0 51 36.5 88t88 37zM133 1378q0 23 16.5 39.5t38.5 16.5h78q23 0 38 -16.5t15 -39.5v-1323q0 -23 -15 -39t-38 -16h-78q-23 0 -39 16.5t-16 38.5v1323z" glyph-name="ldot" horiz-adv-x="786" unicode="ŀ"/><glyph d="M438 186h535q23 0 39 -15t16 -38v-78q0 -23 -16.5 -39t-38.5 -16h-684q-23 0 -39.5 16.5t-16.5 38.5v430l-102 -59q-39 -23 -61 18l-25 43q-23 41 16 62l172 98v731q0 23 16.5 39.5t39.5 16.5h96q23 0 38 -16.5t15 -39.5v-616l236 131q16 8 33.5 4t27.5 -20l25 -46 q10 -14 4 -33.5t-23 -27.5l-303 -170v-414z" glyph-name="Lslash" horiz-adv-x="1107" unicode="Ł"/><glyph d="M596 868q18 -33 -12 -51l-178 -106v-656q0 -23 -15.5 -39t-38.5 -16h-78q-23 0 -39 16.5t-16 38.5v543l-119 -74q-33 -18 -51 13l-18 30q-18 33 12 51l176 107v653q0 23 16.5 39.5t38.5 16.5h78q23 0 38.5 -16.5t15.5 -39.5v-540l120 73q29 18 52 -12z" glyph-name="lslash" horiz-adv-x="624" unicode="ł"/><glyph d="M1065 1378q0 23 16.5 39.5t38.5 16.5h97q23 0 38 -16.5t15 -39.5v-1323q0 -23 -15.5 -39t-37.5 -16h-78q-47 0 -74 39l-717 1018v-1002q0 -23 -15.5 -39t-37.5 -16h-96q-23 0 -39.5 16.5t-16.5 38.5v1323q0 23 16.5 39.5t39.5 16.5h75q47 0 76 -39l715 -1016v999z M821 1898h86q23 0 33 -19t-2 -38l-143 -205q-16 -25 -45 -24h-66q-14 0 -22.5 12t-2.5 27l97 207q20 40 65 40z" glyph-name="Nacute" horiz-adv-x="1413" unicode="Ń"/><glyph d="M639 1063q172 0 285.5 -122t113.5 -292v-594q0 -23 -16 -39t-39 -16h-78q-23 0 -38 16.5t-15 38.5v541q0 123 -61.5 207t-196.5 84t-205 -91t-70 -200v-541q0 -23 -16 -39t-39 -16h-78q-23 0 -38 16.5t-15 38.5v928q0 23 15.5 39t37.5 16h78q23 0 39 -16t16 -39v-90 q113 170 320 170zM680 1489h86q23 0 33 -19.5t-2 -37.5l-144 -205q-14 -25 -45 -25h-65q-14 0 -22.5 12.5t-2.5 26.5l96 207q21 41 66 41z" glyph-name="nacute" unicode="ń"/><glyph d="M1065 1378q0 23 16.5 39.5t38.5 16.5h97q23 0 38 -16.5t15 -39.5v-1323q0 -23 -15.5 -39t-37.5 -16h-78q-47 0 -74 39l-717 1018v-1002q0 -23 -15.5 -39t-37.5 -16h-96q-23 0 -39.5 16.5t-16.5 38.5v1323q0 23 16.5 39.5t39.5 16.5h75q47 0 76 -39l715 -1016v999z M606 -221q14 35 51 35h115q14 0 22.5 -13.5t2.5 -27.5l-119 -217q-16 -29 -49 -29h-76q-14 0 -22.5 11t-2.5 26z" glyph-name="Ncommaaccent" horiz-adv-x="1413" unicode="Ņ"/><glyph d="M639 1063q172 0 285.5 -122t113.5 -292v-594q0 -23 -16 -39t-39 -16h-78q-23 0 -38 16.5t-15 38.5v541q0 123 -61.5 207t-196.5 84t-205 -91t-70 -200v-541q0 -23 -16 -39t-39 -16h-78q-23 0 -38 16.5t-15 38.5v928q0 23 15.5 39t37.5 16h78q23 0 39 -16t16 -39v-90 q113 170 320 170zM506 -221q14 35 51 35h115q14 0 22 -13.5t2 -27.5l-118 -217q-16 -29 -50 -29h-75q-14 0 -22.5 11t-2.5 26z" glyph-name="ncommaaccent" unicode="ņ"/><glyph d="M1065 1378q0 23 16.5 39.5t38.5 16.5h97q23 0 38 -16.5t15 -39.5v-1323q0 -23 -15.5 -39t-37.5 -16h-78q-47 0 -74 39l-717 1018v-1002q0 -23 -15.5 -39t-37.5 -16h-96q-23 0 -39.5 16.5t-16.5 38.5v1323q0 23 16.5 39.5t39.5 16.5h75q47 0 76 -39l715 -1016v999z M428 1853q-10 14 -2 29.5t25 15.5h81q37 0 60 -30l117 -160l116 160q18 31 60 30h82q16 0 23 -15t-3 -30l-168 -213q-23 -29 -57 -28h-107q-39 0 -57 28z" glyph-name="Ncaron" horiz-adv-x="1413" unicode="Ň"/><glyph d="M639 1063q172 0 285.5 -122t113.5 -292v-594q0 -23 -16 -39t-39 -16h-78q-23 0 -38 16.5t-15 38.5v541q0 123 -61.5 207t-196.5 84t-205 -91t-70 -200v-541q0 -23 -16 -39t-39 -16h-78q-23 0 -38 16.5t-15 38.5v928q0 23 15.5 39t37.5 16h78q23 0 39 -16t16 -39v-90 q113 170 320 170zM305 1444q-10 14 -2 29.5t25 15.5h82q37 0 59 -31l117 -160l116 160q18 31 60 31h82q16 0 23 -15.5t-3 -29.5l-168 -213q-23 -29 -57 -29h-107q-39 0 -57 29z" glyph-name="ncaron" unicode="ň"/><glyph d="M688 1063q172 0 285.5 -122t113.5 -292v-594q0 -23 -16 -39t-39 -16h-78q-23 0 -39 16.5t-16 38.5v541q0 125 -60.5 208t-195.5 83t-204.5 -91t-69.5 -200v-541q0 -23 -16.5 -39t-39.5 -16h-77q-23 0 -39.5 16.5t-16.5 38.5v928q0 23 16.5 39t39.5 16h77q23 0 39.5 -16 t16.5 -39v-90q112 170 319 170zM84 1399q14 35 51 35h113q16 0 24.5 -13.5t-0.5 -27.5l-118 -217q-12 -29 -48 -29h-75q-14 0 -22.5 11t-4.5 26z" glyph-name="napostrophe" horiz-adv-x="1218" unicode="ŉ"/><glyph d="M1063 1378q0 23 16.5 39.5t38.5 16.5h96q23 0 39.5 -16.5t16.5 -39.5v-1351q0 -440 -350 -441q-27 0 -39 2q-49 4 -50 54v94q0 18 13.5 31.5t32.5 13.5q113 0 149.5 59.5t36.5 198.5l-715 1018v-1002q0 -23 -16.5 -39t-38.5 -16h-96q-23 0 -38.5 16.5t-15.5 38.5v1323 q0 23 15.5 39.5t38.5 16.5h77q47 0 74 -39l715 -1016v999z" glyph-name="Eng" horiz-adv-x="1413" unicode="Ŋ"/><glyph d="M641 1063q172 0 285.5 -122t113.5 -292v-649q0 -156 -90 -257t-270 -101h-27q-18 0 -31.5 13t-13.5 32v77q0 18 12.5 32t30.5 14q115 8 159 64t44 163v559q0 123 -61.5 207t-196.5 84t-204.5 -91t-69.5 -200v-541q0 -23 -16.5 -39t-39.5 -16h-78q-23 0 -39 16.5t-16 38.5 v928q0 23 16.5 39t38.5 16h78q23 0 39.5 -16t16.5 -39v-90q112 170 319 170z" glyph-name="eng" unicode="ŋ"/><glyph d="M821 1458q315 0 521 -212t206 -529.5t-205.5 -530.5t-521.5 -213q-317 0 -523 213t-206 530.5t206 529.5t523 212zM821.5 166q237.5 0 378.5 164t141 387t-141 387t-378.5 164t-379 -164t-141.5 -387t141.5 -387t379 -164zM541 1763q0 14 10 25.5t27 11.5h485 q14 0 25.5 -11t11.5 -26v-71q0 -16 -11.5 -26.5t-25.5 -10.5h-485q-16 0 -26.5 10t-10.5 27v71z" glyph-name="Omacron" horiz-adv-x="1640" unicode="Ō"/><glyph d="M616.5 1063q233.5 0 389 -159t155.5 -386t-155.5 -386t-389 -159t-389 159t-155.5 386t155.5 386t389 159zM616.5 152q153.5 0 254 104t100.5 262q0 160 -100.5 264.5t-254 104.5t-253 -104.5t-99.5 -264.5q0 -158 99.5 -262t253 -104zM338 1354q0 14 11 25.5t26 11.5 h485q16 0 26.5 -11.5t10.5 -25.5v-72q0 -16 -10 -26.5t-27 -10.5h-485q-14 0 -25.5 10.5t-11.5 26.5v72z" glyph-name="omacron" horiz-adv-x="1232" unicode="ō"/><glyph d="M821 1458q315 0 521 -212t206 -529.5t-205.5 -530.5t-521.5 -213q-317 0 -523 213t-206 530.5t206 529.5t523 212zM821.5 166q237.5 0 378.5 164t141 387t-141 387t-378.5 164t-379 -164t-141.5 -387t141.5 -387t379 -164zM1008 1874h67q16 0 27.5 -14.5t7.5 -30.5 q-16 -102 -94 -163.5t-194.5 -61.5t-194.5 61t-95 164q-4 16 7.5 30.5t27.5 14.5h68q29 0 37 -31q10 -45 48 -78.5t101.5 -33.5t101.5 33.5t48 78.5q8 31 37 31z" glyph-name="Obreve" horiz-adv-x="1640" unicode="Ŏ"/><glyph d="M616.5 1063q233.5 0 389 -159t155.5 -386t-155.5 -386t-389 -159t-389 159t-155.5 386t155.5 386t389 159zM616.5 152q153.5 0 254 104t100.5 262q0 160 -100.5 264.5t-254 104.5t-253 -104.5t-99.5 -264.5q0 -158 99.5 -262t253 -104zM803 1464h67q16 0 27.5 -14 t7.5 -31q-16 -102 -94 -163.5t-194.5 -61.5t-194.5 61.5t-94 163.5q-4 16 7 30.5t27 14.5h68q29 0 37 -30q10 -45 48 -79t101.5 -34t101.5 34t48 79q8 30 37 30z" glyph-name="obreve" horiz-adv-x="1232" unicode="ŏ"/><glyph d="M821 1458q315 0 521 -212t206 -529.5t-205.5 -530.5t-521.5 -213q-317 0 -523 213t-206 530.5t206 529.5t523 212zM821.5 166q237.5 0 378.5 164t141 387t-141 387t-378.5 164t-379 -164t-141.5 -387t141.5 -387t379 -164zM604 1612q-14 0 -22.5 12t-1.5 27l96 207 q20 41 67 40h84q23 0 33 -19t-2 -38l-143 -205q-14 -25 -45 -24h-66zM1022 1858q20 41 65 40h87q23 0 33 -19t-3 -38l-143 -205q-16 -25 -45 -24h-66q-14 0 -22 12t-2 27z" glyph-name="Ohungarumlaut" horiz-adv-x="1640" unicode="Ő"/><glyph d="M616.5 1063q233.5 0 389 -159t155.5 -386t-155.5 -386t-389 -159t-389 159t-155.5 386t155.5 386t389 159zM616.5 152q153.5 0 254 104t100.5 262q0 160 -100.5 264.5t-254 104.5t-253 -104.5t-99.5 -264.5q0 -158 99.5 -262t253 -104zM399 1202q-14 0 -22 12.5t-2 26.5 l96 207q20 41 68 41h84q23 0 33 -19.5t-3 -37.5l-143 -205q-14 -25 -45 -25h-66zM817 1448q20 41 66 41h86q23 0 33 -19.5t-3 -37.5l-143 -205q-16 -25 -45 -25h-66q-14 0 -22 12.5t-2 26.5z" glyph-name="ohungarumlaut" horiz-adv-x="1232" unicode="ő"/><glyph d="M1208 186h551q23 0 39.5 -15t16.5 -38v-78q0 -23 -16.5 -39t-39.5 -16h-901q-354 0 -560 201.5t-206 515t206 515.5t560 202h883q23 0 38 -16.5t15 -39.5v-75q0 -23 -15.5 -39.5t-37.5 -16.5h-533v-411h486q23 0 39 -16.5t16 -39.5v-75q0 -23 -16.5 -39.5t-38.5 -16.5 h-486v-463zM1004 186v1061h-146q-254 0 -406.5 -144.5t-152.5 -386t152.5 -386t406.5 -144.5h146z" glyph-name="OE" horiz-adv-x="1916" unicode="Œ"/><glyph d="M1475 1063q207 0 352 -152.5t137 -400.5q-2 -31 -22.5 -51.5t-51.5 -20.5h-739q20 -129 107.5 -207.5t232.5 -78.5q150 0 244 88q31 29 65 4l64 -39q23 -14 25.5 -40t-15.5 -44q-141 -145 -383 -146q-303 0 -438 228q-154 -227 -437 -228q-233 0 -388.5 158t-155.5 385 t155.5 386t388.5 159q141 0 255 -62.5t184 -169.5q144 232 420 232zM616 152q154 0 254.5 104t100.5 262q0 160 -100.5 264.5t-254.5 104.5q-152 0 -252 -104.5t-100 -264.5q0 -158 100 -262t252 -104zM1151 600h618q-18 135 -91.5 211t-202.5 76q-131 0 -217.5 -78 t-106.5 -209z" glyph-name="oe" horiz-adv-x="2037" unicode="œ"/><glyph d="M1145 68q12 -23 0 -45.5t-39 -22.5h-113q-57 0 -80 49l-272 506q-18 -2 -55 -2h-238v-498q0 -23 -15.5 -39t-37.5 -16h-96q-23 0 -39.5 16.5t-16.5 38.5v1323q0 23 16.5 39.5t39.5 16.5h387q240 0 377 -124t137 -317q0 -131 -66.5 -234.5t-191.5 -156.5zM348 739h238 q145 0 225 69t80 185.5t-80 185t-225 68.5h-238v-508zM676 1898h86q23 0 33 -19t-2 -38l-144 -205q-14 -25 -45 -24h-65q-14 0 -22.5 12t-2.5 27l96 207q21 40 66 40z" glyph-name="Racute" horiz-adv-x="1224" unicode="Ŕ"/><glyph d="M319 858q45 92 128 143.5t180 59.5q16 2 28.5 -8.5t12.5 -26.5v-133q0 -14 -11.5 -25.5t-27.5 -11.5q-96 4 -162 -27.5t-95.5 -95t-41 -126t-11.5 -142.5v-410q0 -23 -15 -39t-38 -16h-78q-23 0 -39 16.5t-16 38.5v928q0 23 16.5 39t38.5 16h78q23 0 38 -16t15 -39v-125z M453 1489h86q23 0 33 -19.5t-3 -37.5l-143 -205q-14 -25 -45 -25h-66q-14 0 -22 12.5t-2 26.5l96 207q21 41 66 41z" glyph-name="racute" horiz-adv-x="737" unicode="ŕ"/><glyph d="M1145 68q12 -23 0 -45.5t-39 -22.5h-113q-57 0 -80 49l-272 506q-18 -2 -55 -2h-238v-498q0 -23 -15.5 -39t-37.5 -16h-96q-23 0 -39.5 16.5t-16.5 38.5v1323q0 23 16.5 39.5t39.5 16.5h387q240 0 377 -124t137 -317q0 -131 -66.5 -234.5t-191.5 -156.5zM348 739h238 q145 0 225 69t80 185.5t-80 185t-225 68.5h-238v-508zM543 -221q14 35 51 35h115q14 0 22 -13.5t2 -27.5l-119 -217q-16 -29 -49 -29h-76q-14 0 -22 11t-2 26z" glyph-name="Rcommaaccent" horiz-adv-x="1224" unicode="Ŗ"/><glyph d="M319 858q45 92 128 143.5t180 59.5q16 2 28.5 -8.5t12.5 -26.5v-133q0 -14 -11.5 -25.5t-27.5 -11.5q-96 4 -162 -27.5t-95.5 -95t-41 -126t-11.5 -142.5v-410q0 -23 -15 -39t-38 -16h-78q-23 0 -39 16.5t-16 38.5v928q0 23 16.5 39t38.5 16h78q23 0 38 -16t15 -39v-125z M106 -221q14 35 52 35h114q14 0 22.5 -13.5t2.5 -27.5l-119 -217q-16 -29 -49 -29h-76q-14 0 -22 11t-2 26z" glyph-name="rcommaaccent" horiz-adv-x="737" unicode="ŗ"/><glyph d="M1145 68q12 -23 0 -45.5t-39 -22.5h-113q-57 0 -80 49l-272 506q-18 -2 -55 -2h-238v-498q0 -23 -15.5 -39t-37.5 -16h-96q-23 0 -39.5 16.5t-16.5 38.5v1323q0 23 16.5 39.5t39.5 16.5h387q240 0 377 -124t137 -317q0 -131 -66.5 -234.5t-191.5 -156.5zM348 739h238 q145 0 225 69t80 185.5t-80 185t-225 68.5h-238v-508zM322 1853q-10 14 -2 29.5t24 15.5h82q37 0 59 -30l117 -160l117 160q18 31 59 30h82q16 0 23.5 -15t-2.5 -30l-168 -213q-23 -29 -58 -28h-106q-39 0 -57 28z" glyph-name="Rcaron" horiz-adv-x="1224" unicode="Ř"/><glyph d="M319 858q45 92 128 143.5t180 59.5q16 2 28.5 -8.5t12.5 -26.5v-133q0 -14 -11.5 -25.5t-27.5 -11.5q-96 4 -162 -27.5t-95.5 -95t-41 -126t-11.5 -142.5v-410q0 -23 -15 -39t-38 -16h-78q-23 0 -39 16.5t-16 38.5v928q0 23 16.5 39t38.5 16h78q23 0 38 -16t15 -39v-125z M90 1444q-10 14 -2 29.5t25 15.5h82q39 0 59 -31l117 -160l116 160q18 31 60 31h82q16 0 23 -15.5t-3 -29.5l-168 -213q-23 -29 -57 -29h-107q-39 0 -57 29z" glyph-name="rcaron" horiz-adv-x="737" unicode="ř"/><glyph d="M680 797q215 -51 309 -139.5t94 -258.5q0 -80 -28.5 -151.5t-86 -135t-157.5 -100.5t-233 -37q-160 0 -295.5 67t-198.5 200q-10 20 0 42.5t35 30.5l96 31q45 14 66 -27q33 -66 109.5 -108.5t191.5 -42.5q125 0 208.5 55.5t83.5 159.5q0 35 -9 64.5t-21.5 50t-38 38 t-46 28.5t-60.5 22.5t-66.5 17.5t-77.5 17.5t-82 19.5q-203 49 -278.5 150.5t-75.5 257.5q0 180 136 295.5t337 115.5q139 0 248.5 -65.5t163.5 -184.5q10 -23 -1.5 -46t-35.5 -29l-97 -23q-41 -10 -61 29q-76 145 -281 127q-86 -10 -144 -71.5t-60 -147.5 q0 -61 24.5 -104.5t77.5 -70t99 -40t126 -31.5q19 -4 29 -6zM666 1898h86q23 0 33 -19t-3 -38l-143 -205q-16 -25 -45 -24h-66q-14 0 -22 12t-2 27l96 207q21 40 66 40z" glyph-name="Sacute" horiz-adv-x="1144" unicode="Ś"/><glyph d="M528 602q188 -39 264 -105.5t76 -185.5q0 -145 -105.5 -240.5t-301.5 -95.5q-135 0 -240.5 46.5t-154.5 130.5q-12 23 -2 46t32 31l82 29q39 12 64 -22q57 -90 223 -91q100 0 155.5 39t55.5 109q0 35 -17.5 59.5t-55.5 39t-69.5 21.5t-90 17t-87.5 16q-279 66 -278 291 q0 143 107.5 234.5t277.5 91.5q109 0 198 -46t132 -130q12 -23 1.5 -47.5t-34.5 -30.5l-74 -21q-39 -10 -59 23q-55 86 -183 86q-78 0 -127 -41t-49 -104q0 -25 7.5 -44.5t24.5 -32.5t32.5 -22.5t44.5 -17.5t47 -12.5t53 -10.5t51 -10zM526 1489h86q23 0 33 -19.5t-2 -37.5 l-143 -205q-16 -25 -45 -25h-66q-14 0 -22.5 12.5t-1.5 26.5l96 207q20 41 65 41z" glyph-name="sacute" horiz-adv-x="927" unicode="ś"/><glyph d="M680 797q215 -51 309 -139.5t94 -258.5q0 -80 -28.5 -151.5t-86 -135t-157.5 -100.5t-233 -37q-160 0 -295.5 67t-198.5 200q-10 20 0 42.5t35 30.5l96 31q45 14 66 -27q33 -66 109.5 -108.5t191.5 -42.5q125 0 208.5 55.5t83.5 159.5q0 35 -9 64.5t-21.5 50t-38 38 t-46 28.5t-60.5 22.5t-66.5 17.5t-77.5 17.5t-82 19.5q-203 49 -278.5 150.5t-75.5 257.5q0 180 136 295.5t337 115.5q139 0 248.5 -65.5t163.5 -184.5q10 -23 -1.5 -46t-35.5 -29l-97 -23q-41 -10 -61 29q-76 145 -281 127q-86 -10 -144 -71.5t-60 -147.5 q0 -61 24.5 -104.5t77.5 -70t99 -40t126 -31.5q19 -4 29 -6zM852 1657q10 -14 3 -29.5t-24 -15.5h-83q-39 0 -58 30l-117 160l-116 -160q-23 -31 -60 -30h-82q-16 0 -24 15t2 30l170 213q18 29 57 28h107q35 0 57 -28z" glyph-name="Scircumflex" horiz-adv-x="1142" unicode="Ŝ"/><glyph d="M528 602q188 -39 264 -105.5t76 -185.5q0 -145 -105.5 -240.5t-301.5 -95.5q-135 0 -240.5 46.5t-154.5 130.5q-12 23 -2 46t32 31l82 29q39 12 64 -22q57 -90 223 -91q100 0 155.5 39t55.5 109q0 35 -17.5 59.5t-55.5 39t-69.5 21.5t-90 17t-87.5 16q-279 66 -278 291 q0 143 107.5 234.5t277.5 91.5q109 0 198 -46t132 -130q12 -23 1.5 -47.5t-34.5 -30.5l-74 -21q-39 -10 -59 23q-55 86 -183 86q-78 0 -127 -41t-49 -104q0 -25 7.5 -44.5t24.5 -32.5t32.5 -22.5t44.5 -17.5t47 -12.5t53 -10.5t51 -10zM733 1247q10 -14 3 -29.5t-23 -15.5 h-84q-39 0 -58 31l-116 160l-117 -160q-23 -31 -59 -31h-82q-16 0 -24.5 15.5t1.5 29.5l170 213q18 29 57 29h107q35 0 57 -29z" glyph-name="scircumflex" horiz-adv-x="927" unicode="ŝ"/><glyph d="M598 -25l-37 -77q100 10 168 -38t68 -153q0 -96 -70 -158.5t-182 -62.5q-76 0 -139 27q-16 4 -21.5 19t2.5 32l27 51q18 27 45 16q37 -14 73 -14q61 0 97.5 28.5t36.5 78.5q0 90 -103 90q-37 0 -67 -13q-27 -8 -39 13l-19 22q-12 18 -2 39l51 105q-135 18 -242.5 83.5 t-160.5 178.5q-10 20 0 42.5t35 30.5l96 31q45 14 66 -27q33 -66 109.5 -108.5t191.5 -42.5q125 0 208.5 55.5t83.5 159.5q0 35 -9 64.5t-21.5 50t-38 38t-46 28.5t-60.5 22.5t-66.5 17.5t-77.5 17.5t-82 19.5q-203 49 -278.5 150.5t-75.5 257.5q0 180 136 295.5t337 115.5 q139 0 247.5 -65.5t164.5 -184.5q10 -23 -1.5 -46t-35.5 -29l-97 -23q-41 -10 -61 29q-76 145 -281 127q-86 -10 -144 -71.5t-60 -147.5q0 -61 24.5 -104.5t77.5 -70t99 -40t126 -31.5q18 -4 29 -6q215 -51 309 -139.5t94 -258.5t-119.5 -294t-365.5 -130z" glyph-name="Scedilla" horiz-adv-x="1142" unicode="Ş"/><glyph d="M868 311q0 -139 -97 -233t-282 -103l-38 -77q100 10 168.5 -38t68.5 -153q0 -96 -69.5 -158.5t-182.5 -62.5q-78 0 -141 27q-14 4 -20.5 20t1.5 31l29 51q14 27 45 16q33 -14 74 -14q61 0 97 28.5t36 78.5q0 90 -104 90q-39 0 -66 -13q-25 -6 -41 13l-16 22q-14 20 -4 39 l51 105q-231 27 -311 172q-12 23 -3 46t33 31l82 29q39 14 64 -22q57 -90 223 -91q100 0 155.5 39t55.5 109q0 35 -17.5 59.5t-55.5 39t-70.5 21.5t-90 17t-86.5 16q-279 63 -278 291q0 143 107.5 234.5t277.5 91.5q109 0 198 -46t132 -130q12 -23 1.5 -47.5t-36.5 -30.5 l-72 -21q-41 -10 -61 23q-51 86 -181 86q-78 0 -128 -41t-50 -104q0 -25 7.5 -44.5t24.5 -32.5t32.5 -22.5t45.5 -17.5t48 -12.5t53 -10.5t51 -10q188 -39 264 -105.5t76 -185.5z" glyph-name="scedilla" horiz-adv-x="927" unicode="ş"/><glyph d="M680 797q215 -51 309 -139.5t94 -258.5q0 -80 -28.5 -151.5t-86 -135t-157.5 -100.5t-233 -37q-160 0 -295.5 67t-198.5 200q-10 20 0 42.5t35 30.5l96 31q45 14 66 -27q33 -66 109.5 -108.5t191.5 -42.5q125 0 208.5 55.5t83.5 159.5q0 35 -9 64.5t-21.5 50t-38 38 t-46 28.5t-60.5 22.5t-66.5 17.5t-77.5 17.5t-82 19.5q-203 49 -278.5 150.5t-75.5 257.5q0 180 136 295.5t337 115.5q139 0 248.5 -65.5t163.5 -184.5q10 -23 -1.5 -46t-35.5 -29l-97 -23q-41 -10 -61 29q-76 145 -281 127q-86 -10 -144 -71.5t-60 -147.5 q0 -61 24.5 -104.5t77.5 -70t99 -40t126 -31.5q19 -4 29 -6zM293 1853q-10 14 -2 29.5t24 15.5h82q37 0 60 -30l116 -160l117 160q18 31 60 30h81q16 0 23.5 -15t-2.5 -30l-168 -213q-23 -29 -57 -28h-107q-39 0 -57 28z" glyph-name="Scaron" horiz-adv-x="1144" unicode="Š"/><glyph d="M528 602q188 -39 264 -105.5t76 -185.5q0 -145 -105.5 -240.5t-301.5 -95.5q-135 0 -240.5 46.5t-154.5 130.5q-12 23 -2 46t32 31l82 29q39 12 64 -22q57 -90 223 -91q100 0 155.5 39t55.5 109q0 35 -17.5 59.5t-55.5 39t-69.5 21.5t-90 17t-87.5 16q-279 66 -278 291 q0 143 107.5 234.5t277.5 91.5q109 0 198 -46t132 -130q12 -23 1.5 -47.5t-34.5 -30.5l-74 -21q-39 -10 -59 23q-55 86 -183 86q-78 0 -127 -41t-49 -104q0 -25 7.5 -44.5t24.5 -32.5t32.5 -22.5t44.5 -17.5t47 -12.5t53 -10.5t51 -10zM174 1444q-10 14 -2 29.5t25 15.5h82 q37 0 59 -31l117 -160l116 160q18 31 60 31h82q16 0 23 -15.5t-3 -29.5l-168 -213q-23 -29 -57 -29h-107q-39 0 -57 29z" glyph-name="scaron" horiz-adv-x="927" unicode="š"/><glyph d="M956 1434q23 0 39.5 -16.5t16.5 -39.5v-75q0 -23 -16.5 -39.5t-39.5 -16.5h-307v-1192q0 -23 -16.5 -39t-38.5 -16h-94q-23 0 -39.5 16.5t-16.5 38.5v1192h-307q-23 0 -39 16.5t-16 39.5v75q0 23 16.5 39.5t38.5 16.5h819zM426 -221q14 35 51 35h115q14 0 22.5 -13.5 t1.5 -27.5l-118 -217q-16 -29 -49 -29h-76q-14 0 -22.5 11t-2.5 26z" glyph-name="Tcommaaccent" horiz-adv-x="1093" unicode="Ţ"/><glyph d="M649 915q0 -23 -16.5 -39t-38.5 -16h-186v-454q0 -55 2 -84t10 -66t24.5 -54.5t48 -29.5t78.5 -12h29q20 2 34.5 -11.5t14.5 -33.5v-76q0 -41 -41 -45q-37 -4 -59 -4q-328 0 -328 350v520h-123q-23 0 -39 16.5t-16 38.5v68q0 23 16.5 39t38.5 16h123v164q0 23 16.5 38 t38.5 15h76q23 0 39.5 -15t16.5 -38v-164h186q23 0 39 -16t16 -39v-68zM295 -221q14 35 51 35h115q14 0 22.5 -13.5t1.5 -27.5l-118 -217q-16 -29 -50 -29h-75q-14 0 -22.5 11t-2.5 26z" glyph-name="tcommaaccent" horiz-adv-x="751" unicode="ţ"/><glyph d="M956 1434q23 0 39.5 -16.5t16.5 -39.5v-75q0 -23 -16.5 -39.5t-39.5 -16.5h-307v-1192q0 -23 -16.5 -39t-38.5 -16h-94q-23 0 -39.5 16.5t-16.5 38.5v1192h-307q-23 0 -39 16.5t-16 39.5v75q0 23 16.5 39.5t38.5 16.5h819zM266 1853q-10 14 -2 29.5t25 15.5h82 q39 0 59 -30l117 -160l117 160q18 31 59 30h82q16 0 23.5 -15t-3.5 -30l-168 -213q-23 -29 -57 -28h-106q-39 0 -58 28z" glyph-name="Tcaron" horiz-adv-x="1093" unicode="Ť"/><glyph d="M649 915q0 -23 -16.5 -39t-38.5 -16h-186v-454q0 -55 2 -84t10 -66t24.5 -54.5t48 -29.5t78.5 -12h29q20 2 34.5 -11.5t14.5 -33.5v-76q0 -41 -41 -45q-37 -4 -59 -4q-328 0 -328 350v520h-123q-23 0 -39 16.5t-16 38.5v68q0 23 16.5 39t38.5 16h123v164q0 23 16.5 38 t38.5 15h76q23 0 39.5 -15t16.5 -38v-164h186q23 0 39 -16t16 -39v-68zM729 1423q14 35 51 35h115q14 0 22.5 -13t2.5 -28l-119 -217q-16 -29 -49 -29h-76q-14 0 -22.5 11.5t-2.5 25.5z" glyph-name="tcaron" horiz-adv-x="751" unicode="ť"/><glyph d="M1012 1303q0 -23 -16.5 -39.5t-39.5 -16.5h-307v-385h219q18 0 31.5 -13t13.5 -32v-55q0 -18 -13 -31.5t-32 -13.5h-219v-662q0 -23 -16.5 -39t-38.5 -16h-94q-23 0 -39.5 16.5t-16.5 38.5v662h-219q-18 0 -31.5 13t-13.5 32v55q0 18 13.5 31.5t31.5 13.5h219v385h-307 q-23 0 -39 16.5t-16 39.5v75q0 23 16.5 39.5t38.5 16.5h819q23 0 39.5 -16.5t16.5 -39.5v-75z" glyph-name="Tbar" horiz-adv-x="1093" unicode="Ŧ"/><glyph d="M649 915q0 -23 -16.5 -39t-38.5 -16h-186v-168h204q14 0 25.5 -10t11.5 -27v-37q0 -16 -11 -26t-26 -10h-204v-176q0 -55 2 -84t10 -66t24.5 -54.5t48 -29.5t78.5 -12h29q20 2 34.5 -11.5t14.5 -33.5v-76q0 -41 -41 -45q-37 -4 -59 -4q-328 0 -328 350v242h-141 q-14 0 -25.5 10t-11.5 26v37q0 16 11.5 26.5t25.5 10.5h141v168h-123q-23 0 -39 16.5t-16 38.5v68q0 23 16.5 39t38.5 16h123v164q0 23 16.5 38t38.5 15h78q23 0 38.5 -15t15.5 -38v-164h186q23 0 39 -16t16 -39v-68z" glyph-name="tbar" horiz-adv-x="751" unicode="ŧ"/><glyph d="M1083 1434h95q23 0 39 -16.5t16 -39.5v-833q0 -279 -140.5 -424.5t-404.5 -145.5q-262 0 -403.5 145.5t-141.5 424.5v833q0 23 16.5 39.5t39.5 16.5h96q23 0 39 -16.5t16 -39.5v-796q0 -414 338 -414q340 0 340 414v796q0 23 16 39.5t39 16.5zM911 1806l52 -8 q37 -8 28 -45q-35 -150 -168 -149q-53 0 -133 33.5t-117 33.5q-49 0 -65 -53q-10 -29 -41 -25l-51 11q-16 2 -25.5 15t-5.5 28q39 150 168 149q47 0 128 -33.5t120 -33.5q53 0 69 53q4 12 15.5 19t25.5 5z" glyph-name="Utilde" horiz-adv-x="1376" unicode="Ũ"/><glyph d="M907 1038h78q23 0 38 -16t15 -39v-928q0 -23 -15 -39t-38 -16h-78q-23 0 -39 16.5t-16 38.5v90q-111 -170 -320 -170q-172 0 -285.5 122t-113.5 292v594q0 23 16.5 39t38.5 16h78q23 0 38 -16t15 -39v-541q0 -123 61.5 -206.5t197 -83.5t205 91t69.5 199v541q0 23 16 39 t39 16zM809 1397l51 -8q37 -8 29 -46q-35 -150 -168 -149q-53 0 -133 34t-117 34q-49 0 -65 -54q-10 -29 -41 -24l-52 10q-16 2 -25 15.5t-5 27.5q39 150 168 149q47 0 127.5 -33.5t119.5 -33.5q53 0 70 53q4 12 15.5 19.5t25.5 5.5z" glyph-name="utilde" unicode="ũ"/><glyph d="M1083 1434h95q23 0 39 -16.5t16 -39.5v-833q0 -279 -140.5 -424.5t-404.5 -145.5q-262 0 -403.5 145.5t-141.5 424.5v833q0 23 16.5 39.5t39.5 16.5h96q23 0 39 -16.5t16 -39.5v-796q0 -414 338 -414q340 0 340 414v796q0 23 16 39.5t39 16.5zM410 1763q0 14 10 25.5 t26 11.5h486q14 0 25.5 -11t11.5 -26v-71q0 -16 -11.5 -26.5t-25.5 -10.5h-486q-16 0 -26 10t-10 27v71z" glyph-name="Umacron" horiz-adv-x="1376" unicode="Ū"/><glyph d="M907 1038h78q23 0 38 -16t15 -39v-928q0 -23 -15 -39t-38 -16h-78q-23 0 -39 16.5t-16 38.5v90q-111 -170 -320 -170q-172 0 -285.5 122t-113.5 292v594q0 23 16.5 39t38.5 16h78q23 0 38 -16t15 -39v-541q0 -123 61.5 -206.5t197 -83.5t205 91t69.5 199v541q0 23 16 39 t39 16zM307 1354q0 14 10.5 25.5t26.5 11.5h485q14 0 25.5 -11.5t11.5 -25.5v-72q0 -16 -11 -26.5t-26 -10.5h-485q-16 0 -26.5 10.5t-10.5 26.5v72z" glyph-name="umacron" unicode="ū"/><glyph d="M1083 1434h95q23 0 39 -16.5t16 -39.5v-833q0 -279 -140.5 -424.5t-404.5 -145.5q-262 0 -403.5 145.5t-141.5 424.5v833q0 23 16.5 39.5t39.5 16.5h96q23 0 39 -16.5t16 -39.5v-796q0 -414 338 -414q340 0 340 414v796q0 23 16 39.5t39 16.5zM877 1874h67 q16 0 27.5 -14.5t7.5 -30.5q-16 -102 -94 -163.5t-195 -61.5t-194.5 61t-94.5 164q-4 16 7.5 30.5t27.5 14.5h68q29 0 37 -31q10 -45 48 -78.5t101.5 -33.5t101 33.5t48.5 78.5q8 31 37 31z" glyph-name="Ubreve" horiz-adv-x="1376" unicode="Ŭ"/><glyph d="M907 1038h78q23 0 38 -16t15 -39v-928q0 -23 -15 -39t-38 -16h-78q-23 0 -39 16.5t-16 38.5v90q-111 -170 -320 -170q-172 0 -285.5 122t-113.5 292v594q0 23 16.5 39t38.5 16h78q23 0 38 -16t15 -39v-541q0 -123 61.5 -206.5t197 -83.5t205 91t69.5 199v541q0 23 16 39 t39 16zM772 1464h68q16 0 27.5 -14t6.5 -31q-16 -102 -94 -163.5t-194.5 -61.5t-194.5 61.5t-94 163.5q-4 16 7 30.5t28 14.5h67q29 0 37 -30q10 -45 48 -79t101.5 -34t101.5 34t48 79q8 30 37 30z" glyph-name="ubreve" unicode="ŭ"/><glyph d="M1083 1434h95q23 0 39 -16.5t16 -39.5v-833q0 -279 -140.5 -424.5t-404.5 -145.5q-262 0 -403.5 145.5t-141.5 424.5v833q0 23 16.5 39.5t39.5 16.5h96q23 0 39 -16.5t16 -39.5v-796q0 -414 338 -414q340 0 340 414v796q0 23 16 39.5t39 16.5zM688 1978q94 0 158.5 -65.5 t64.5 -157.5t-64.5 -157.5t-158.5 -65.5q-92 0 -157.5 65.5t-65.5 157.5t65.5 157.5t157.5 65.5zM688 1640q47 0 81 34t34 81t-34 80t-81 33q-45 0 -79 -33t-34 -80t33 -81t80 -34z" glyph-name="Uring" horiz-adv-x="1376" unicode="Ů"/><glyph d="M907 1038h78q23 0 38 -16t15 -39v-928q0 -23 -15 -39t-38 -16h-78q-23 0 -39 16.5t-16 38.5v90q-111 -170 -320 -170q-172 0 -285.5 122t-113.5 292v594q0 23 16.5 39t38.5 16h78q23 0 38 -16t15 -39v-541q0 -123 61.5 -206.5t197 -83.5t205 91t69.5 199v541q0 23 16 39 t39 16zM586 1589q94 0 158.5 -65.5t64.5 -157.5t-64.5 -157.5t-158.5 -65.5q-92 0 -158 65.5t-66 157.5t66 157.5t158 65.5zM586 1251q47 0 80.5 34t33.5 81t-33.5 80t-80.5 33q-45 0 -79 -33t-34 -80t33 -81t80 -34z" glyph-name="uring" unicode="ů"/><glyph d="M1083 1434h95q23 0 39 -16.5t16 -39.5v-833q0 -279 -140.5 -424.5t-404.5 -145.5q-262 0 -403.5 145.5t-141.5 424.5v833q0 23 16.5 39.5t39.5 16.5h96q23 0 39 -16.5t16 -39.5v-796q0 -414 338 -414q340 0 340 414v796q0 23 16 39.5t39 16.5zM471 1612q-14 0 -22.5 12 t-2.5 27l97 207q20 41 67 40h84q23 0 33 -19t-2 -38l-143 -205q-16 -25 -45 -24h-66zM889 1858q20 41 65 40h86q23 0 33 -19t-2 -38l-143 -205q-14 -25 -45 -24h-66q-14 0 -22.5 12t-1.5 27z" glyph-name="Uhungarumlaut" horiz-adv-x="1376" unicode="Ű"/><glyph d="M907 1038h78q23 0 38 -16t15 -39v-928q0 -23 -15 -39t-38 -16h-78q-23 0 -39 16.5t-16 38.5v90q-111 -170 -320 -170q-172 0 -285.5 122t-113.5 292v594q0 23 16.5 39t38.5 16h78q23 0 38 -16t15 -39v-541q0 -123 61.5 -206.5t197 -83.5t205 91t69.5 199v541q0 23 16 39 t39 16zM369 1202q-14 0 -22.5 12.5t-2.5 26.5l96 207q20 41 68 41h84q23 0 33 -19.5t-2 -37.5l-144 -205q-16 -25 -45 -25h-65zM786 1448q20 41 66 41h86q23 0 33 -19.5t-2 -37.5l-144 -205q-14 -25 -45 -25h-65q-14 0 -22.5 12.5t-2.5 26.5z" glyph-name="uhungarumlaut" unicode="ű"/><glyph d="M1081 1434h95q23 0 39 -16.5t16 -39.5v-833q0 -420 -313 -535q-70 -45 -117 -115.5t-47 -134.5q0 -111 129 -108q14 2 25.5 -8.5t11.5 -26.5v-63q0 -31 -31 -35q-29 -4 -49 -4q-100 0 -162 56t-62 144q0 145 158 265q-27 -4 -88 -5q-262 0 -402.5 145.5t-140.5 424.5v833 q0 23 15.5 39.5t38.5 16.5h96q23 0 39 -16.5t16 -39.5v-796q0 -414 338 -414q340 0 340 414v796q0 23 16 39.5t39 16.5z" glyph-name="Uogonek" horiz-adv-x="1376" unicode="Ų"/><glyph d="M1040 29q0 -27 -22 -43q-143 -104 -144 -226q0 -111 130 -108q14 2 25 -8.5t11 -26.5v-63q0 -31 -30 -35q-29 -4 -47 -4q-102 0 -164 56t-62 144t57.5 163t131.5 122h-17q-23 0 -39 16.5t-16 38.5v90q-111 -170 -319 -170q-172 0 -286 122t-114 292v594q0 23 16.5 39 t38.5 16h76q23 0 39.5 -16t16.5 -39v-541q0 -125 61 -207.5t196.5 -82.5t205 91t69.5 199v541q0 23 16.5 39t38.5 16h76q23 0 39 -16t16 -39v-954z" glyph-name="uogonek" unicode="ų"/><glyph d="M1745 1382q16 51 70 52h118q18 0 28.5 -15.5t4.5 -32.5l-428 -1335q-16 -51 -70 -51h-88q-55 0 -69 51l-299 965l-299 -965q-14 -51 -70 -51h-88q-53 0 -70 51l-428 1335q-6 16 4.5 32t28.5 16h119q53 0 70 -52l321 -1060l326 1060q16 51 69 52h33q53 0 70 -52l325 -1060 zM1292 1657q10 -14 3 -29.5t-23 -15.5h-84q-39 0 -58 30l-116 160l-117 -160q-20 -31 -59 -30h-82q-16 0 -24.5 15t1.5 30l170 213q18 29 58 28h106q35 0 57 -28z" glyph-name="Wcircumflex" horiz-adv-x="2023" unicode="Ŵ"/><glyph d="M1321 987q14 51 70 51h90q23 0 37 -19.5t6 -41.5l-312 -928q-18 -49 -69 -49h-70q-53 0 -69 51l-211 656l-209 -656q-16 -51 -70 -51h-72q-53 0 -67 49l-314 928q-8 23 6.5 42t36.5 19h93q53 0 69 -51l215 -715l232 727q14 39 53 39h55q41 0 51 -39l232 -727zM1073 1247 q10 -14 3 -29.5t-23 -15.5h-84q-39 0 -58 31l-116 160l-117 -160q-23 -31 -60 -31h-81q-16 0 -24.5 15.5t1.5 29.5l170 213q18 29 57 29h107q35 0 57 -29z" glyph-name="wcircumflex" horiz-adv-x="1585" unicode="ŵ"/><glyph d="M1251 1434q20 0 30.5 -18.5t0.5 -37.5l-502 -841v-482q0 -23 -16 -39t-39 -16h-94q-23 0 -39.5 16.5t-16.5 38.5v482l-501 841q-10 18 0 37t30 19h115q55 0 78 -45l381 -668l381 668q27 45 78 45h114zM958 1657q10 -14 3 -29.5t-23 -15.5h-84q-39 0 -57 30l-117 160 l-117 -160q-23 -31 -59 -30h-82q-16 0 -24.5 15t1.5 30l170 213q18 29 58 28h106q35 0 58 -28z" glyph-name="Ycircumflex" horiz-adv-x="1355" unicode="Ŷ"/><glyph d="M834 991q16 47 67 47h92q23 0 36 -20.5t5 -42.5q-328 -834 -387 -975q-82 -201 -168 -298t-221 -97q-35 0 -51 2q-16 0 -28.5 13t-12.5 32v78q0 18 12 31.5t31 13.5q88 4 148.5 62.5t117.5 215.5q-55 141 -407 922q-10 23 4 43t39 20h90q49 0 65 -45l301 -704zM829 1247 q10 -14 3 -29.5t-23 -15.5h-84q-39 0 -57 31l-117 160l-117 -160q-20 -31 -59 -31h-82q-16 0 -24.5 15.5t1.5 29.5l170 213q18 29 58 29h106q35 0 58 -29z" glyph-name="ycircumflex" horiz-adv-x="1099" unicode="ŷ"/><glyph d="M1251 1434q20 0 30.5 -18.5t0.5 -37.5l-502 -841v-482q0 -23 -16 -39t-39 -16h-94q-23 0 -39.5 16.5t-16.5 38.5v482l-501 841q-10 18 0 37t30 19h115q55 0 78 -45l381 -668l381 668q27 45 78 45h114zM475 1853q49 0 84 -33.5t35 -82.5t-35 -84t-84 -35t-83 35t-34 84 t34 82.5t83 33.5zM881 1853q49 0 83.5 -33.5t34.5 -82.5t-34.5 -84t-83.5 -35q-47 0 -82 35t-35 84t35 82.5t82 33.5z" glyph-name="Ydieresis" horiz-adv-x="1355" unicode="Ÿ"/><glyph d="M348 186h690q23 0 39.5 -15t16.5 -38v-78q0 -23 -16.5 -39t-39.5 -16h-901q-23 0 -39 16.5t-16 38.5v56q0 39 22 71l723 1065h-653q-23 0 -39 16.5t-16 39.5v75q0 23 16.5 39.5t38.5 16.5h846q23 0 39 -16.5t16 -39.5v-57q0 -41 -20 -70zM662 1898h86q23 0 33 -19t-3 -38 l-143 -205q-16 -25 -45 -24h-66q-14 0 -22 12t-2 27l96 207q21 40 66 40z" glyph-name="Zacute" horiz-adv-x="1175" unicode="Ź"/><glyph d="M328 176h495q23 0 39.5 -15.5t16.5 -37.5v-68q0 -23 -16.5 -39t-39.5 -16h-678q-23 0 -39 16.5t-16 38.5v66q0 27 19 55l514 684h-459q-23 0 -39 16.5t-16 38.5v68q0 23 16 39t39 16h641q23 0 39 -16t16 -39v-65q0 -31 -18 -56zM559 1489h86q23 0 33 -19.5t-2 -37.5 l-144 -205q-16 -25 -45 -25h-65q-14 0 -22.5 12.5t-2.5 26.5l97 207q20 41 65 41z" glyph-name="zacute" horiz-adv-x="970" unicode="ź"/><glyph d="M348 186h690q23 0 39.5 -15t16.5 -38v-78q0 -23 -16.5 -39t-39.5 -16h-901q-23 0 -39 16.5t-16 38.5v56q0 39 22 71l723 1065h-653q-23 0 -39 16.5t-16 39.5v75q0 23 16.5 39.5t38.5 16.5h846q23 0 39 -16.5t16 -39.5v-57q0 -41 -20 -70zM588 1853q49 0 84 -33.5 t35 -82.5t-35 -84t-84 -35t-83 35t-34 84t34 82.5t83 33.5z" glyph-name="Zdotaccent" horiz-adv-x="1175" unicode="Ż"/><glyph d="M328 176h495q23 0 39.5 -15.5t16.5 -37.5v-68q0 -23 -16.5 -39t-39.5 -16h-678q-23 0 -39 16.5t-16 38.5v66q0 27 19 55l514 684h-459q-23 0 -39 16.5t-16 38.5v68q0 23 16 39t39 16h641q23 0 39 -16t16 -39v-65q0 -31 -18 -56zM485.5 1444q49.5 0 84 -34t34.5 -83 t-34.5 -84t-84 -35t-83 35t-33.5 84t33.5 83t83 34z" glyph-name="zdotaccent" horiz-adv-x="970" unicode="ż"/><glyph d="M348 186h690q23 0 39.5 -15t16.5 -38v-78q0 -23 -16.5 -39t-39.5 -16h-901q-23 0 -39 16.5t-16 38.5v56q0 39 22 71l723 1065h-653q-23 0 -39 16.5t-16 39.5v75q0 23 16.5 39.5t38.5 16.5h846q23 0 39 -16.5t16 -39.5v-57q0 -41 -20 -70zM309 1853q-10 14 -2 29.5 t25 15.5h82q37 0 59 -30l117 -160l117 160q18 31 59 30h82q16 0 23.5 -15t-3.5 -30l-168 -213q-23 -29 -57 -28h-106q-39 0 -58 28z" glyph-name="Zcaron" horiz-adv-x="1175" unicode="Ž"/><glyph d="M328 176h495q23 0 39.5 -15.5t16.5 -37.5v-68q0 -23 -16.5 -39t-39.5 -16h-678q-23 0 -39 16.5t-16 38.5v66q0 27 19 55l514 684h-459q-23 0 -39 16.5t-16 38.5v68q0 23 16 39t39 16h641q23 0 39 -16t16 -39v-65q0 -31 -18 -56zM207 1444q-10 14 -2 29.5t24 15.5h82 q37 0 60 -31l116 -160l117 160q18 31 60 31h81q16 0 23.5 -15.5t-2.5 -29.5l-168 -213q-23 -29 -57 -29h-107q-39 0 -57 29z" glyph-name="zcaron" horiz-adv-x="970" unicode="ž"/><glyph d="M612 1303q-115 0 -151.5 -64.5t-38.5 -200.5v-983q0 -23 -15.5 -39t-37.5 -16h-78q-23 0 -39 16.5t-16 38.5v805h-111q-23 0 -38 16.5t-15 38.5v68q0 23 15 39t38 16h111q0 422 356 422q6 0 14 -1t12 -1q18 0 32 -13t14 -32v-63q0 -20 -13.5 -33.5t-34.5 -13.5h-4z" glyph-name="longs" horiz-adv-x="724" unicode="ſ"/><glyph d="M1210 186h549q23 0 39.5 -15t16.5 -38v-78q0 -23 -16.5 -39t-39.5 -16h-700q-23 0 -39 16.5t-16 38.5v291h-580l-141 -303q-20 -43 -66 -43h-117q-20 0 -30.5 17.5t-1.5 35.5l647 1329q27 51 82 52h944q23 0 38 -16.5t15 -39.5v-75q0 -23 -15.5 -39.5t-37.5 -16.5h-531 v-411h484q23 0 39 -16.5t16 -39.5v-75q0 -23 -16.5 -39.5t-38.5 -16.5h-484v-463zM512 532h492v715h-158zM1266 1898h86q23 0 33 -19t-3 -38l-143 -205q-14 -25 -45 -24h-66q-14 0 -22 12t-2 27l96 207q21 40 66 40z" glyph-name="AEacute" horiz-adv-x="1914" unicode="Ǽ"/><glyph d="M1540 1063q211 0 362.5 -152.5t143.5 -400.5q-2 -29 -23.5 -50.5t-50.5 -21.5h-758q23 -131 116 -208.5t242.5 -77.5t244.5 88q31 29 65 4l64 -39q23 -14 25.5 -40t-15.5 -44q-141 -145 -383 -146q-266 0 -420 175v-95q0 -23 -16.5 -39t-38.5 -16h-78q-23 0 -39 16.5 t-16 38.5v90q-133 -170 -377 -170q-231 0 -373.5 164t-142.5 379q0 217 142 381t374 164q244 0 377 -170v90q0 23 16 39t39 16h78q23 0 39 -16t16 -39v-92q149 172 387 172zM606 152q168 0 263.5 103t95.5 263t-95.5 264.5t-263.5 104.5q-158 0 -251 -103.5t-93 -265.5 q0 -160 93 -263t251 -103zM1214 600h635q-18 133 -99 210t-210 77q-131 0 -218.5 -78t-107.5 -209zM1178 1489h86q23 0 33 -19.5t-3 -37.5l-143 -205q-16 -25 -45 -25h-66q-14 0 -22 12.5t-2 26.5l96 207q21 41 66 41z" glyph-name="aeacute" horiz-adv-x="2119" unicode="ǽ"/><glyph d="M1415 1159q135 -193 135 -442q0 -317 -206.5 -529.5t-522.5 -212.5q-295 0 -497 187l-91 -82q-33 -31 -65 2l-37 43q-33 33 2 63l94 86q-135 193 -135 443q0 317 207 530t522 213q295 0 498 -190l92 84q14 12 32.5 11t31.5 -15l38 -41q12 -14 11.5 -33t-15.5 -31z M301 717q0 -164 80 -301l790 719q-143 133 -350 133q-238 0 -379 -164t-141 -387zM821 166q238 0 379 164t141 387q0 160 -79 301l-789 -719q139 -133 348 -133zM913 1898h86q23 0 33 -19t-2 -38l-143 -205q-14 -25 -45 -24h-66q-14 0 -22.5 12t-1.5 27l96 207q20 40 65 40z " glyph-name="Oslashacute" horiz-adv-x="1640" unicode="Ǿ"/><glyph d="M1057 846q104 -147 104 -328q0 -227 -155.5 -385t-389.5 -158q-213 0 -364 136l-76 -68q-27 -25 -53 2l-25 27q-25 29 4 51l76 70q-106 145 -106 325q0 227 155.5 386t388.5 159q213 0 367 -137l76 69q25 25 51 -2l25 -26q27 -27 -2 -52zM264 518q0 -113 51 -199l533 484 q-96 84 -232 84q-154 0 -253 -104.5t-99 -264.5zM616 152q154 0 254.5 104t100.5 262q0 111 -53 201l-533 -486q98 -81 231 -81zM711 1489h86q23 0 33 -19.5t-3 -37.5l-143 -205q-16 -25 -45 -25h-66q-14 0 -22 12.5t-2 26.5l96 207q21 41 66 41z" glyph-name="oslashacute" horiz-adv-x="1232" unicode="ǿ"/><glyph d="M680 797q215 -51 309 -139.5t94 -258.5q0 -80 -28.5 -151.5t-86 -135t-157.5 -100.5t-233 -37q-160 0 -295.5 67t-198.5 200q-10 20 0 42.5t35 30.5l96 31q45 14 66 -27q33 -66 109.5 -108.5t191.5 -42.5q125 0 208.5 55.5t83.5 159.5q0 35 -9 64.5t-21.5 50t-38 38 t-46 28.5t-60.5 22.5t-66.5 17.5t-77.5 17.5t-82 19.5q-203 49 -278.5 150.5t-75.5 257.5q0 180 136 295.5t337 115.5q139 0 248.5 -65.5t163.5 -184.5q10 -23 -1.5 -46t-35.5 -29l-97 -23q-41 -10 -61 29q-76 145 -281 127q-86 -10 -144 -71.5t-60 -147.5 q0 -61 24.5 -104.5t77.5 -70t99 -40t126 -31.5q19 -4 29 -6zM459 -221q14 35 51 35h115q14 0 22 -13.5t2 -27.5l-119 -217q-16 -29 -49 -29h-75q-14 0 -22.5 11t-2.5 26z" glyph-name="Scommaaccent" horiz-adv-x="1148" unicode="Ș"/><glyph d="M528 602q188 -39 264 -105.5t76 -185.5q0 -145 -105.5 -240.5t-301.5 -95.5q-135 0 -240.5 46.5t-154.5 130.5q-12 23 -2 46t32 31l82 29q39 12 64 -22q57 -90 223 -91q100 0 155.5 39t55.5 109q0 35 -17.5 59.5t-55.5 39t-69.5 21.5t-90 17t-87.5 16q-279 66 -278 291 q0 143 107.5 234.5t277.5 91.5q109 0 198 -46t132 -130q12 -23 1.5 -47.5t-34.5 -30.5l-74 -21q-39 -10 -59 23q-55 86 -183 86q-78 0 -127 -41t-49 -104q0 -25 7.5 -44.5t24.5 -32.5t32.5 -22.5t44.5 -17.5t47 -12.5t53 -10.5t51 -10zM332 -221q14 35 51 35h115 q14 0 22 -13.5t2 -27.5l-119 -217q-16 -29 -49 -29h-75q-14 0 -22.5 11t-2.5 26z" glyph-name="scommaaccent" horiz-adv-x="927" unicode="ș"/><glyph d="M737 1247q10 -14 3 -29.5t-23 -15.5h-84q-39 0 -58 31l-116 160l-117 -160q-23 -31 -59 -31h-82q-16 0 -24.5 15.5t1.5 29.5l170 213q18 29 58 29h106q35 0 57 -29z" glyph-name="circumflex" horiz-adv-x="915" unicode="ˆ"/><glyph d="M178 1444q-10 14 -2 29.5t25 15.5h82q37 0 59 -31l117 -160l116 160q18 31 60 31h82q16 0 23.5 -15.5t-3.5 -29.5l-168 -213q-23 -29 -57 -29h-106q-39 0 -58 29z" glyph-name="caron" horiz-adv-x="915" unicode="ˇ"/><glyph d="M625 1464h67q16 0 27.5 -14t7.5 -31q-16 -102 -94 -163.5t-194.5 -61.5t-194.5 61.5t-94 163.5q-4 16 7 30.5t27 14.5h68q29 0 37 -30q10 -45 48 -79t101.5 -34t101.5 34t48 79q8 30 37 30z" glyph-name="breve" horiz-adv-x="874" unicode="˘"/><glyph d="M260 1444q49 0 84 -34t35 -83t-35 -84t-84 -35t-83 35t-34 84t34 83t83 34z" glyph-name="dotaccent" horiz-adv-x="522" unicode="˙"/><glyph d="M367 1569q94 0 158.5 -65.5t64.5 -158t-64.5 -158t-158.5 -65.5q-92 0 -158 65.5t-66 158t66 158t158 65.5zM366.5 1231q47.5 0 81 33.5t33.5 81t-33.5 80t-81 32.5t-80 -32.5t-32.5 -80t32.5 -81t80 -33.5z" glyph-name="ring" horiz-adv-x="733" unicode="˚"/><glyph d="M281 -239.5q0 -110.5 129 -108.5q14 2 25 -8.5t11 -26.5v-63q0 -31 -30 -35q-29 -4 -47 -4q-102 0 -164 56t-62 144q0 80 49.5 151t116.5 118q23 16 51 16h31q12 0 16.5 -12.5t-6.5 -20.5q-120 -96 -120 -206.5z" glyph-name="ogonek" horiz-adv-x="589" unicode="˛"/><glyph d="M676 1397l51 -8q37 -8 29 -46q-35 -150 -168 -149q-53 0 -133 34t-117 34q-49 0 -66 -54q-10 -29 -41 -24l-51 10q-16 2 -25.5 15.5t-4.5 27.5q39 150 167 149q47 0 128 -33.5t120 -33.5q53 0 70 53q4 12 15.5 19.5t25.5 5.5z" glyph-name="tilde" horiz-adv-x="907" unicode="˜"/><glyph d="M186 1202q-14 0 -22 12.5t-2 26.5l96 207q20 41 68 41h84q23 0 33 -19.5t-3 -37.5l-143 -205q-14 -25 -45 -25h-66zM604 1448q20 41 66 41h86q23 0 33 -19.5t-3 -37.5l-143 -205q-16 -25 -45 -25h-66q-14 0 -22 12.5t-2 26.5z" glyph-name="hungarumlaut" horiz-adv-x="968" unicode="˝"/><glyph d="M1745 1382q16 51 70 52h118q18 0 28.5 -15.5t4.5 -32.5l-428 -1335q-16 -51 -70 -51h-88q-55 0 -69 51l-299 965l-299 -965q-14 -51 -70 -51h-88q-53 0 -70 51l-428 1335q-6 16 4.5 32t28.5 16h119q53 0 70 -52l321 -1060l326 1060q16 51 69 52h33q53 0 70 -52l325 -1060 zM897 1898q45 0 66 -40l96 -207q6 -14 -2 -26.5t-23 -12.5h-65q-29 0 -45 24l-144 205q-12 18 -2 37.5t33 19.5h86z" glyph-name="Wgrave" horiz-adv-x="2023" unicode="Ẁ"/><glyph d="M1321 987q14 51 70 51h90q23 0 37 -19.5t6 -41.5l-312 -928q-18 -49 -69 -49h-70q-53 0 -69 51l-211 656l-209 -656q-16 -51 -70 -51h-72q-53 0 -67 49l-314 928q-8 23 6.5 42t36.5 19h93q53 0 69 -51l215 -715l232 727q14 39 53 39h55q41 0 51 -39l232 -727zM678 1489 q45 0 65 -41l97 -207q6 -14 -2.5 -26.5t-22.5 -12.5h-65q-29 0 -45 25l-144 205q-12 18 -2 37.5t33 19.5h86z" glyph-name="wgrave" horiz-adv-x="1585" unicode="ẁ"/><glyph d="M1745 1382q16 51 70 52h118q18 0 28.5 -15.5t4.5 -32.5l-428 -1335q-16 -51 -70 -51h-88q-55 0 -69 51l-299 965l-299 -965q-14 -51 -70 -51h-88q-53 0 -70 51l-428 1335q-6 16 4.5 32t28.5 16h119q53 0 70 -52l321 -1060l326 1060q16 51 69 52h33q53 0 70 -52l325 -1060 zM1147 1898h86q23 0 33 -19t-2 -38l-144 -205q-14 -25 -45 -24h-65q-14 0 -22.5 12t-2.5 27l96 207q21 40 66 40z" glyph-name="Wacute" horiz-adv-x="2023" unicode="Ẃ"/><glyph d="M1321 987q14 51 70 51h90q23 0 37 -19.5t6 -41.5l-312 -928q-18 -49 -69 -49h-70q-53 0 -69 51l-211 656l-209 -656q-16 -51 -70 -51h-72q-53 0 -67 49l-314 928q-8 23 6.5 42t36.5 19h93q53 0 69 -51l215 -715l232 727q14 39 53 39h55q41 0 51 -39l232 -727zM907 1489 h86q23 0 33 -19.5t-2 -37.5l-143 -205q-16 -25 -45 -25h-66q-14 0 -22.5 12.5t-2.5 26.5l97 207q20 41 65 41z" glyph-name="wacute" horiz-adv-x="1585" unicode="ẃ"/><glyph d="M1745 1382q16 51 70 52h118q18 0 28.5 -15.5t4.5 -32.5l-428 -1335q-16 -51 -70 -51h-88q-55 0 -69 51l-299 965l-299 -965q-14 -51 -70 -51h-88q-53 0 -70 51l-428 1335q-6 16 4.5 32t28.5 16h119q53 0 70 -52l321 -1060l326 1060q16 51 69 52h33q53 0 70 -52l325 -1060 zM809 1853q49 0 84 -33.5t35 -82.5t-35 -84t-84 -35t-83 35t-34 84t34 82.5t83 33.5zM1214 1853q49 0 84 -33.5t35 -82.5t-34.5 -84t-84.5 -35q-47 0 -81.5 35t-34.5 84t34.5 82.5t81.5 33.5z" glyph-name="Wdieresis" horiz-adv-x="2023" unicode="Ẅ"/><glyph d="M1321 987q14 51 70 51h90q23 0 37 -19.5t6 -41.5l-312 -928q-18 -49 -69 -49h-70q-53 0 -69 51l-211 656l-209 -656q-16 -51 -70 -51h-72q-53 0 -67 49l-314 928q-8 23 6.5 42t36.5 19h93q53 0 69 -51l215 -715l232 727q14 39 53 39h55q41 0 51 -39l232 -727zM590 1444 q49 0 84 -34t35 -83t-35 -84t-84 -35t-83 35t-34 84t34 83t83 34zM995 1444q49 0 84 -34t35 -83t-35 -84t-84 -35q-47 0 -81.5 35t-34.5 84t34.5 83t81.5 34z" glyph-name="wdieresis" horiz-adv-x="1585" unicode="ẅ"/><glyph d="M1251 1434q20 0 30.5 -18.5t0.5 -37.5l-502 -841v-482q0 -23 -16 -39t-39 -16h-94q-23 0 -39.5 16.5t-16.5 38.5v482l-501 841q-10 18 0 37t30 19h115q55 0 78 -45l381 -668l381 668q27 45 78 45h114zM584 1898q45 0 65 -40l96 -207q6 -14 -2 -26.5t-22 -12.5h-66 q-29 0 -45 24l-143 205q-12 18 -2 37.5t33 19.5h86z" glyph-name="Ygrave" horiz-adv-x="1355" unicode="Ỳ"/><glyph d="M834 991q16 47 67 47h92q23 0 36 -20.5t5 -42.5q-328 -834 -387 -975q-82 -201 -168 -298t-221 -97q-35 0 -51 2q-16 0 -28.5 13t-12.5 32v78q0 18 12 31.5t31 13.5q88 4 148.5 62.5t117.5 215.5q-55 141 -407 922q-10 23 4 43t39 20h90q49 0 65 -45l301 -704zM455 1489 q45 0 65 -41l96 -207q6 -14 -2 -26.5t-22 -12.5h-66q-31 0 -45 25l-143 205q-12 18 -2 37.5t33 19.5h86z" glyph-name="ygrave" horiz-adv-x="1099" unicode="ỳ"/><glyph d="M143 647q0 23 16.5 38t39.5 15h657q23 0 38 -15t15 -38v-74q0 -23 -15 -39t-38 -16h-657q-23 0 -39.5 16.5t-16.5 38.5v74z" glyph-name="endash" horiz-adv-x="1052" unicode="–"/><glyph d="M143 647q0 23 15.5 38t38.5 15h766q23 0 39 -15t16 -38v-74q0 -23 -16.5 -39t-38.5 -16h-766q-23 0 -38.5 16.5t-15.5 38.5v74z" glyph-name="emdash" horiz-adv-x="1161" unicode="—"/><glyph d="M143 1012q-41 27 -16 65l205 326q20 39 61 16l23 -12q35 -20 18 -59l-160 -353q-23 -45 -65 -20z" glyph-name="quoteleft" horiz-adv-x="555" unicode="‘"/><glyph d="M139 985q-37 18 -18 57l160 353q8 18 27.5 24t35.5 -4l68 -37q16 -10 20 -29.5t-6 -33.5l-203 -328q-10 -16 -27.5 -20t-33.5 4z" glyph-name="quoteright" horiz-adv-x="552" unicode="’"/><glyph d="M78 -197q-35 20 -21 60l162 352q8 18 27.5 24.5t36.5 -3.5l65 -39q16 -10 21.5 -28.5t-4.5 -35.5l-203 -328q-25 -37 -62 -14z" glyph-name="quotesinglbase" horiz-adv-x="491" unicode="‚"/><glyph d="M143 1012q-41 27 -16 65l205 326q20 39 61 16l23 -12q35 -20 18 -59l-160 -353q-23 -45 -65 -20zM723 1403q8 16 27.5 21.5t33.5 -5.5l23 -12q35 -20 18 -59l-159 -353q-8 -18 -28 -24t-36 4l-67 37q-39 25 -15 65z" glyph-name="quotedblleft" horiz-adv-x="946" unicode="“"/><glyph d="M672 1395q23 45 65 20l66 -37q16 -10 21 -28.5t-5 -34.5l-205 -328q-23 -37 -61 -16l-23 14q-37 18 -18 57zM139 985q-37 18 -18 57l160 353q8 18 27.5 24t35.5 -4l68 -37q16 -10 20 -29.5t-6 -33.5l-203 -328q-10 -16 -27.5 -20t-33.5 4z" glyph-name="quotedblright" horiz-adv-x="946" unicode="”"/><glyph d="M610 215q23 45 66 21l65 -39q39 -20 17 -64l-205 -328q-23 -37 -61 -14l-23 12q-35 20 -18 60zM78 -197q-35 20 -21 60l162 352q8 18 27.5 24.5t36.5 -3.5l65 -39q16 -10 21.5 -28.5t-4.5 -35.5l-203 -328q-25 -37 -62 -14z" glyph-name="quotedblbase" horiz-adv-x="884" unicode="„"/><glyph d="M862 1087q23 0 38 -16t15 -39v-71q0 -23 -15 -39.5t-38 -16.5h-239v-850q0 -23 -15.5 -39t-38.5 -16h-77q-23 0 -39.5 16.5t-16.5 38.5v850h-237q-23 0 -39.5 16.5t-16.5 39.5v71q0 23 16.5 39t39.5 16h237v291q0 23 16.5 39.5t39.5 16.5h77q23 0 38.5 -16.5t15.5 -39.5 v-291h239z" glyph-name="dagger" horiz-adv-x="1058" unicode="†"/><glyph d="M918 961q0 -23 -16.5 -39.5t-39.5 -16.5h-237v-377h237q23 0 39.5 -15t16.5 -38v-74q0 -23 -16.5 -39t-39.5 -16h-237v-291q0 -23 -16.5 -39t-39.5 -16h-77q-23 0 -38.5 16.5t-15.5 38.5v291h-239q-23 0 -39.5 16.5t-16.5 38.5v74q0 23 16.5 38t39.5 15h239v377h-239 q-23 0 -39.5 16.5t-16.5 39.5v71q0 23 16.5 39t39.5 16h239v291q0 23 15.5 39.5t38.5 16.5h77q23 0 39.5 -16.5t16.5 -39.5v-291h237q23 0 39.5 -16t16.5 -39v-71z" glyph-name="daggerdbl" horiz-adv-x="1060" unicode="‡"/><glyph d="M326 848q84 0 142 -59.5t58 -143.5t-58 -142.5t-142 -58.5t-143.5 58.5t-59.5 142.5t59.5 143.5t143.5 59.5z" glyph-name="bullet" horiz-adv-x="649" unicode="•"/><glyph d="M229.5 229q53.5 0 91 -36.5t37.5 -90t-37.5 -91.5t-91 -38t-90.5 38t-37 91.5t37 90t90.5 36.5zM690 229q53 0 91 -36.5t38 -90t-38 -91.5t-91 -38t-90 38t-37 91.5t38 90t89 36.5zM1151 229q53 0 91 -36.5t38 -90t-38 -91.5t-91 -38t-90 38t-37 91.5t37 90t90 36.5z" glyph-name="ellipsis" horiz-adv-x="1382" unicode="…"/><glyph d="M1266 1401q20 33 61 33h74q16 0 23.5 -14.5t-1.5 -28.5l-897 -1358q-23 -33 -61 -33h-74q-16 0 -24.5 14.5t2.5 28.5zM774 1081.5q0 -139.5 -98 -238t-237.5 -98.5t-238 98.5t-98.5 238t98.5 237.5t238 98t237.5 -98t98 -237.5zM248 1081.5q0 -77.5 56 -134t134 -56.5 t134.5 56.5t56.5 134t-56.5 134t-134.5 56.5t-134 -56.5t-56 -134zM1353.5 688q139.5 0 237 -98t97.5 -237.5t-98.5 -238t-235.5 -98.5q-139 0 -237.5 98.5t-98.5 238t98 237.5t237.5 98zM1354 162q78 0 133 56t55 134t-55 134.5t-133 56.5q-80 0 -135.5 -56.5t-55.5 -134.5 t55.5 -134t135.5 -56zM2191.5 688q139.5 0 237.5 -98t98 -237.5t-98 -238t-237.5 -98.5t-238 98.5t-98.5 238t98.5 237.5t238 98zM2191.5 162q77.5 0 133 56t55.5 134t-55.5 134.5t-133 56.5t-134 -56.5t-56.5 -134.5t56.5 -134t134 -56z" glyph-name="perthousand" horiz-adv-x="2629" unicode="‰"/><glyph d="M328 844q20 33 59 33h92q23 0 33 -19.5t-2 -38.5l-207 -305l207 -305q12 -18 2 -37.5t-33 -19.5h-92q-39 0 -59 32l-191 279q-35 51 0 102z" glyph-name="guilsinglleft" horiz-adv-x="651" unicode="‹"/><glyph d="M172 877h94q37 0 60 -33l190 -279q35 -51 0 -102l-190 -279q-23 -33 -60 -32h-94q-20 0 -30.5 19t1.5 38l207 305l-207 305q-12 18 -1.5 38t30.5 20z" glyph-name="guilsinglright" horiz-adv-x="651" unicode="›"/><glyph d="M678 1581q16 49 70 49h79q18 0 28.5 -14t6.5 -33l-561 -1730q-18 -49 -70 -50h-79q-18 0 -28.5 14.5t-6.5 32.5z" glyph-name="fraction" horiz-adv-x="978" unicode="⁄"/><glyph d="M932 166q223 0 368 151q33 35 70 9l80 -52q20 -14 23.5 -39.5t-15.5 -44.5q-209 -215 -526 -215q-264 0 -454.5 152t-250.5 395h-129q-14 0 -25.5 10.5t-11.5 24.5v55q0 14 10.5 25.5t26.5 11.5h109q-2 23 -2 68t2 67h-109q-16 0 -26.5 11.5t-10.5 25.5v56q0 35 37 34 h129q59 246 250 397.5t455 151.5q319 0 526 -217q18 -18 15 -43.5t-23 -40.5l-80 -51q-37 -25 -70 8q-145 152 -368 152q-182 0 -309 -99.5t-179 -257.5h496q37 0 37 -34v-56q0 -14 -11.5 -25.5t-25.5 -11.5h-524q-4 -45 -4 -67.5t4 -67.5h524q14 0 25.5 -11t11.5 -26v-55 q0 -14 -11.5 -24.5t-25.5 -10.5h-496q51 -158 178.5 -257t309.5 -99z" glyph-name="Euro" horiz-adv-x="1562" unicode="€"/><glyph d="M793 498h-254v-154h405q14 0 25.5 -10t11.5 -27v-53q0 -16 -11.5 -26.5t-25.5 -10.5h-405v-162q0 -23 -15.5 -39t-38.5 -16h-96q-23 0 -39 16.5t-16 38.5v162h-195q-16 0 -26.5 10.5t-10.5 26.5v53q0 16 10.5 26.5t26.5 10.5h195v154h-176q-23 0 -39.5 16t-16.5 39v78 q0 23 16.5 39t39.5 16h176v692q0 23 16.5 39.5t38.5 16.5h404q236 0 376 -132.5t140 -335t-140 -335.5t-376 -133zM539 1247v-561h254q143 0 225 77t82 204t-82 203.5t-225 76.5h-254z" glyph-name="uni20BD" horiz-adv-x="1390" unicode="₽"/><glyph d="M1155 416q0 -143 -77 -246.5t-224 -144.5v-205q0 -18 -13.5 -31.5t-31.5 -13.5h-74q-18 0 -31.5 13t-13.5 32v180h-26h-121v-180q0 -18 -13.5 -31.5t-31.5 -13.5h-74q-18 0 -31.5 13t-13.5 32v180h-180q-23 0 -39.5 16.5t-16.5 38.5v1323q0 23 16.5 39.5t39.5 16.5h180 v180q0 20 13.5 32.5t31.5 12.5h74q18 0 31.5 -12.5t13.5 -32.5v-180h67q27 0 80 -4v184q0 20 13.5 32.5t31.5 12.5h74q18 0 31.5 -12.5t13.5 -32.5v-219q244 -88 244 -342q0 -201 -174 -301v-4q231 -86 231 -332zM610 1247h-262v-432h244q299 0 299 221q0 211 -281 211z M664 186q131 0 206.5 59.5t75.5 170.5q0 123 -85 176t-216 53h-297v-459h316z" glyph-name="uni20BF" horiz-adv-x="1236" unicode="₿"/><glyph d="M1065 379v999q0 23 15.5 39.5t37.5 16.5h96q23 0 39.5 -16.5t16.5 -39.5v-1323q0 -23 -16.5 -39t-39.5 -16h-75q-47 0 -76 39l-715 1018v-1002q0 -23 -16.5 -39t-38.5 -16h-94q-23 0 -39.5 16.5t-16.5 38.5v1323q0 23 16.5 39.5t39.5 16.5h75q47 0 74 -39zM1837 772 q-133 0 -229.5 95.5t-96.5 230.5q0 133 96.5 229t229.5 96q135 0 230.5 -96t95.5 -229q0 -135 -95.5 -230.5t-230.5 -95.5zM1837 1260q-66 0 -114 -48.5t-48 -113.5q0 -68 48.5 -115t113.5 -47q68 0 115 47t47 115q0 66 -47 114t-115 48zM1581 428q-23 0 -39 16.5t-16 38.5 v74q0 23 16.5 38t38.5 15h514q23 0 39 -15t16 -38v-74q0 -23 -16 -39t-39 -16h-514z" glyph-name="afii61352" horiz-adv-x="2267" unicode="№"/><glyph d="M143 647q0 23 15.5 38t38.5 15h548q23 0 38.5 -15t15.5 -38v-74q0 -23 -15.5 -39t-38.5 -16h-548q-23 0 -38.5 16.5t-15.5 38.5v74z" glyph-name="minus" horiz-adv-x="944" unicode="−"/><glyph d="M416 768q-80 0 -111 -74q-14 -35 -51 -28l-82 16q-20 4 -30.5 22.5t-4.5 36.5q66 190 266 191q86 0 216.5 -46t181.5 -46q80 0 106 69q14 39 54 31l81 -16q20 -4 30.5 -21.5t4.5 -36.5q-57 -193 -256 -192q-88 0 -219 47t-186 47zM801 453q80 0 106 71q14 37 54 31 l81 -18q20 -4 30.5 -20.5t4.5 -37.5q-57 -193 -256 -192q-88 0 -219 47t-186 47q-80 0 -111 -72q-14 -35 -51 -28l-82 16q-20 4 -30.5 21.5t-4.5 37.5q66 190 266 191q86 0 216.5 -47t181.5 -47z" glyph-name="approxequal" horiz-adv-x="1212" unicode="≈"/><glyph d="M911 756q0 -23 -16 -39.5t-39 -16.5h-227l-78 -182h305q23 0 39 -15.5t16 -37.5v-74q0 -23 -16 -39t-39 -16h-385l-88 -205q-10 -20 -33 -20h-47q-18 0 -29.5 16t-3.5 33l76 176h-147q-23 0 -39.5 16.5t-16.5 38.5v74q0 23 16.5 38t39.5 15h227l78 182h-305 q-23 0 -39.5 16.5t-16.5 39.5v73q0 23 16.5 38.5t39.5 15.5h383l90 207q6 20 33 20h47q18 0 29.5 -16.5t2.5 -32.5l-75 -178h147q23 0 39 -15.5t16 -38.5v-73z" glyph-name="notequal" horiz-adv-x="1052" unicode="≠"/><glyph d="M199 0q-23 0 -39.5 16.5t-16.5 38.5v72q0 23 16.5 39t39.5 16h657q23 0 38 -16t15 -39v-72q0 -23 -15 -39t-38 -16h-657zM860 1126q18 6 33.5 -4t15.5 -30v-78q0 -51 -47 -68l-516 -188l516 -191q47 -16 47 -67v-78q0 -18 -15 -29.5t-34 -3.5l-670 254q-47 16 -47 68v92 q0 49 47 69z" glyph-name="lessequal" horiz-adv-x="1052" unicode="≤"/><glyph d="M854 0h-655q-23 0 -39.5 16.5t-16.5 38.5v72q0 23 16.5 39t39.5 16h655q23 0 39 -16t16 -39v-72q0 -23 -16 -39t-39 -16zM193 1126l669 -254q47 -20 47 -69v-92q0 -51 -47 -68l-669 -254q-18 -8 -34 3t-16 30v78q0 51 47 67l517 191l-517 188q-47 16 -47 68v78 q0 20 16 30t34 4z" glyph-name="greaterequal" horiz-adv-x="1052" unicode="≥"/><glyph d="M236 -221q14 35 51 35h114q14 0 22.5 -13.5t2.5 -27.5l-119 -217q-16 -29 -49 -29h-76q-14 0 -22 11t-2 26z" glyph-name="uniF6C3" horiz-adv-x="589" unicode=""/></font>
</defs>
</svg>
